<?xml version="1.0" encoding="utf-8"?>
<!-- Generator: Adobe Illustrator 19.0.0, SVG Export Plug-In . SVG Version: 6.00 Build 0)  -->
<svg version="1.1" id="XMLID_259_" xmlns="http://www.w3.org/2000/svg" xmlns:xlink="http://www.w3.org/1999/xlink" x="0px" y="0px"
	 viewBox="-19 20 24 26" style="enable-background:new -19 20 24 26;" xml:space="preserve">
<g id="configuration">
	<g>
		<path d="M-15,45c-1.1,0-2.1-0.4-2.8-1.2C-18.5,43.1-19,42-19,41s0.4-2.1,1.2-2.8l8-8c-0.1-0.5-0.2-1.1-0.2-1.7
			c0-4.1,3.4-7.5,7.5-7.5c0.9,0,1.8,0.2,2.6,0.5L1.6,22L-3,26.6l2.4,2.4L4,24.4l0.6,1.4C4.8,26.7,5,27.6,5,28.5
			C5,32.6,1.6,36-2.5,36c-0.6,0-1.1-0.1-1.7-0.2l-8,8C-12.9,44.6-13.9,45-15,45z M-2.5,23c-3,0-5.5,2.5-5.5,5.5
			c0,0.6,0.1,1.1,0.3,1.7l0.2,0.6l-8.9,8.9C-16.8,40-17,40.5-17,41s0.2,1,0.6,1.4c0.7,0.8,2.1,0.8,2.8,0l8.9-8.9l0.6,0.2
			C-3.6,33.9-3,34-2.4,34c3,0,5.5-2.5,5.5-5.5c0-0.1,0-0.2,0-0.3l-3.6,3.6l-5.2-5.2l3.6-3.6C-2.3,23-2.4,23-2.5,23z"/>
	</g>
</g>
</svg>
