<?xml version="1.0" encoding="utf-8"?>
<!-- Generator: Adobe Illustrator 19.0.0, SVG Export Plug-In . SVG Version: 6.00 Build 0)  -->
<svg version="1.1" id="XMLID_199_" xmlns="http://www.w3.org/2000/svg" xmlns:xlink="http://www.w3.org/1999/xlink" x="0px" y="0px"
	 viewBox="-19 20 24 26" style="enable-background:new -19 20 24 26;" xml:space="preserve">
<g id="contact-card">
	<g>
		<path d="M-7,40.9h-12v-3.5c0-2.4,1.3-4.5,3.2-5.6c-0.7-0.7-1.2-1.7-1.2-2.8c0-2.2,1.8-4,4-4s4,1.8,4,4c0,1.1-0.4,2.1-1.2,2.8
			c1.9,1.1,3.2,3.3,3.2,5.6V40.9z M-17,38.9h8v-1.5c0-2.4-1.9-4.4-4-4.5c-2.1,0-4,2.1-4,4.5V38.9z M-13,26.9c-1.1,0-2,0.9-2,2
			s0.9,2,2,2s2-0.9,2-2S-11.9,26.9-13,26.9z M5,37.9H-5v-2H5V37.9z M2,33.9h-7v-2h7V33.9z M5,29.9H-5v-2H5V29.9z"/>
	</g>
</g>
</svg>
