<?xml version="1.0" encoding="utf-8"?>
<!-- Generator: Adobe Illustrator 19.0.0, SVG Export Plug-In . SVG Version: 6.00 Build 0)  -->
<svg version="1.1" id="XMLID_80_" xmlns="http://www.w3.org/2000/svg" xmlns:xlink="http://www.w3.org/1999/xlink" x="0px" y="0px"
	 viewBox="-19 20 24 26" style="enable-background:new -19 20 24 26;" xml:space="preserve">
<g id="document-threat">
	<g>
		<path d="M4.6,45h-10v-2h8V29h-6v-6h-10v2h-2v-4H-1l5.6,5.6C4.6,26.6,4.6,45,4.6,45z M-1.4,27h3.6l-3.6-3.6V27z M-12.1,45
			c-3.6,0-6.5-2.8-6.5-6.3c0-2.4,1.2-4.5,3.2-5.6V31h2v-2.4c0-1.4,1.1-2.5,2.5-2.5h0.7c1.4,0,2.5,1.1,2.5,2.5c0,0.3,0.2,0.5,0.5,0.5
			h0.3c0.3,0,0.5-0.2,0.5-0.5h2c0,1.4-1.1,2.5-2.5,2.5h-0.3c-1.4,0-2.5-1.1-2.5-2.5c0-0.3-0.2-0.5-0.5-0.5h-0.7
			c-0.3,0-0.5,0.2-0.5,0.5V31h2v2.1c2.1,1.1,3.5,3.3,3.5,5.6C-5.9,42.2-8.6,45-12.1,45z M-13.4,33v1.4l-0.6,0.3
			c-1.6,0.6-2.6,2.2-2.6,4c0,2.3,2,4.3,4.5,4.3c2.4,0,4.3-1.9,4.3-4.3c0-1.7-1.2-3.3-2.9-4l-0.6-0.3V33H-13.4z"/>
	</g>
</g>
</svg>
