<?xml version="1.0" encoding="utf-8"?>
<!-- Generator: Adobe Illustrator 19.0.0, SVG Export Plug-In . SVG Version: 6.00 Build 0)  -->
<svg version="1.1" id="XMLID_34_" xmlns="http://www.w3.org/2000/svg" xmlns:xlink="http://www.w3.org/1999/xlink" x="0px" y="0px"
	 viewBox="-19 20 24 26" style="enable-background:new -19 20 24 26;" xml:space="preserve">
<g id="document-sound">
	<g>
		<polygon points="5,45 0,45 0,43 3,43 3,27.3 -1.4,22.9 -13,22.9 -13,28.9 -15,28.9 -15,20.9 -0.6,20.9 5,26.5 		"/>
	</g>
	<g>
		<polygon points="4,28.9 -3,28.9 -3,22.9 -1,22.9 -1,26.9 4,26.9 		"/>
	</g>
	<g>
		<path d="M-7.5,41v-2c1.1,0,2-0.9,2-2s-0.9-2-2-2v-2c2.2,0,4,1.8,4,4S-5.3,41-7.5,41z"/>
	</g>
	<g>
		<path d="M-7.5,45v-2c3.3,0,6-2.7,6-6s-2.7-6-6-6v-2c4.4,0,8,3.6,8,8S-3.1,45-7.5,45z"/>
	</g>
	<g>
		<path d="M-9,45l-6.4-5.1H-19v-6h3.6l6.4-5.1V45z M-17,38h2.4l3.6,2.9V33l-3.6,2.9H-17V38z"/>
	</g>
</g>
</svg>
