<?xml version="1.0" encoding="utf-8"?>
<!-- Generator: Adobe Illustrator 19.0.0, SVG Export Plug-In . SVG Version: 6.00 Build 0)  -->
<svg version="1.1" id="XMLID_81_" xmlns="http://www.w3.org/2000/svg" xmlns:xlink="http://www.w3.org/1999/xlink" x="0px" y="0px"
	 viewBox="-19 20 24 26" style="enable-background:new -19 20 24 26;" xml:space="preserve">
<g id="document-user">
	<g>
		<path d="M5,44.5H-5.6v-1.9h8.6V29.2h-5.8v-5.8h-9.6v4.8h-1.9v-6.7h13.8L5,26.9V44.5z M-0.8,27.3h3.5l-3.5-3.5V27.3z M-7.5,44.5
			H-19v-3.3c0-2.1,1.2-3.8,3-4.8c-0.6-0.6-1.1-1.5-1.1-2.5c0-2.1,1.7-3.8,3.8-3.8s3.8,1.7,3.8,3.8c0,1.1-0.4,1.9-1.1,2.6
			c1.8,1,3,2.7,3,4.8C-7.5,41.3-7.5,44.5-7.5,44.5z M-17.1,42.6h7.7v-1.3c0-1.9-1.7-3.4-3.7-3.4h-0.2c-2,0-3.7,1.5-3.7,3.4V42.6z
			 M-13.2,32c-1.1,0-1.9,0.9-1.9,1.9s0.9,1.9,1.9,1.9s1.9-0.9,1.9-1.9S-12.2,32-13.2,32z"/>
	</g>
</g>
</svg>
