<?xml version="1.0" encoding="utf-8"?>
<!-- Generator: Adobe Illustrator 19.0.0, SVG Export Plug-In . SVG Version: 6.00 Build 0)  -->
<svg version="1.1" id="XMLID_35_" xmlns="http://www.w3.org/2000/svg" xmlns:xlink="http://www.w3.org/1999/xlink" x="0px" y="0px"
	 viewBox="-19 20 24 26" style="enable-background:new -19 20 24 26;" xml:space="preserve">
<g id="document-video">
	<g>
		<polygon points="5,45 0,45 0,43 3,43 3,27.4 -1.4,23 -13,23 -13,30 -15,30 -15,21 -0.6,21 5,26.6 		"/>
	</g>
	<g>
		<polygon points="4,29 -3,29 -3,23 -1,23 -1,27 4,27 		"/>
	</g>
	<g>
		<path d="M-2,44.8l-5-3V44h-12V32h12v2.2l5-3V44.8z M-17,42h8v-8h-8V42z M-7,39.4l3,1.8v-6.5l-3,1.8V39.4z"/>
	</g>
</g>
</svg>
