<?xml version="1.0" encoding="utf-8"?>
<!-- Generator: Adobe Illustrator 19.0.0, SVG Export Plug-In . SVG Version: 6.00 Build 0)  -->
<svg version="1.1" id="XMLID_31_" xmlns="http://www.w3.org/2000/svg" xmlns:xlink="http://www.w3.org/1999/xlink" x="0px" y="0px"
	 viewBox="-19 20 24 26" style="enable-background:new -19 20 24 26;" xml:space="preserve">
<g id="document-executable">
	<rect x="-19" y="33" width="6" height="2"/>
	<rect x="-19" y="39" width="6" height="2"/>
	<rect x="-19" y="36" width="5" height="2"/>
	<rect x="-19" y="33" width="2" height="8"/>
	<rect x="-5" y="33" width="6" height="2"/>
	<rect x="-5" y="39" width="6" height="2"/>
	<rect x="-5" y="36" width="5" height="2"/>
	<rect x="-5" y="33" width="2" height="8"/>
	<polygon points="-7.6,41 -12.6,33 -10.4,33 -5.4,41 	"/>
	<polygon points="-10.6,41 -5.6,33 -7.8,33 -12.8,41 	"/>
	<polygon points="5,45 -14,45 -14,43 3,43 3,27.4 -1.4,23 -13,23 -13,29 -15,29 -15,21 -0.6,21 5,26.6 	"/>
	<polygon points="4,29 -3,29 -3,23 -1,23 -1,27 4,27 	"/>
</g>
</svg>
