<?xml version="1.0" encoding="utf-8"?>
<!-- Generator: Adobe Illustrator 19.0.0, SVG Export Plug-In . SVG Version: 6.00 Build 0)  -->
<svg version="1.1" id="XMLID_267_" xmlns="http://www.w3.org/2000/svg" xmlns:xlink="http://www.w3.org/1999/xlink" x="0px" y="0px"
	 viewBox="-19 20 24 26" style="enable-background:new -19 20 24 26;" xml:space="preserve">
<g id="flag">
	<g>
		<path d="M-16,45h-2V22.4l0.5-0.3c3.3-2.1,6.4-0.9,9.4,0.3c3.4,1.4,6.5,2.6,10.5-0.3L4,21v14.5l-0.4,0.3c-4.9,3.6-8.9,2-12.5,0.5
			c-2.6-1-4.8-1.9-7.1-0.8V45z M-13.7,33c1.9,0,3.8,0.7,5.6,1.5c3.2,1.3,6.3,2.5,10.1,0v-9.7c-4.2,2.2-7.7,0.8-10.9-0.5
			c-2.6-1-4.8-1.9-7.1-0.8v9.8C-15.2,33.1-14.5,33-13.7,33z"/>
	</g>
</g>
</svg>
