<?xml version="1.0" encoding="utf-8"?>
<!-- Generator: Adobe Illustrator 19.0.0, SVG Export Plug-In . SVG Version: 6.00 Build 0)  -->
<svg version="1.1" id="XMLID_193_" xmlns="http://www.w3.org/2000/svg" xmlns:xlink="http://www.w3.org/1999/xlink" x="0px" y="0px"
	 viewBox="-19 20 24 26" style="enable-background:new -19 20 24 26;" xml:space="preserve">
<g id="install">
	<g>
		<path d="M-7,42.5l-7.4-4.3v-3.9l-4.5-2.7l4.9-4.6l7.2-3.4l7,3.3L5,31.6l-4.6,2.7v3.9L-7,42.5z M-6.2,33.2v6.9l4.9-2.9v-2l-1.8,1
			L-6.2,33.2z M-12.8,37.3l4.9,2.9v-6.9l-3.2,3.1l-1.7-1V37.3z M-5.6,31.5l2.9,2.7l5.2-3.1l-3-2.8L-5.6,31.5z M-16.4,31.3l5.1,3.1
			l2.9-2.7l-5.1-3L-16.4,31.3z M-11.9,27.6l4.9,2.9l4.9-3L-7,25.2L-11.9,27.6z"/>
	</g>
</g>
</svg>
