<?xml version="1.0" encoding="utf-8"?>
<!-- Generator: Adobe Illustrator 19.0.0, SVG Export Plug-In . SVG Version: 6.00 Build 0)  -->
<svg version="1.1" id="Group-attachments" xmlns="http://www.w3.org/2000/svg" xmlns:xlink="http://www.w3.org/1999/xlink" x="0px"
	 y="0px" viewBox="-293 384 24 26" style="enable-background:new -293 384 24 26;" xml:space="preserve">
<style type="text/css">
	.st0{fill:#231F20;}
</style>
<g>
	<path class="st0" d="M-281.3,399h-8.8v-8.3l7.5,6.1l7.5-6.1v3.2l2-1.6V386h-19v15h8.3L-281.3,399z M-290,388h15v0.1l-7.5,6.1
		L-290,388L-290,388z"/>
	<path class="st0" d="M-278.3,408.5c-1.1,0-2.1-0.4-2.9-1.2c-1.7-1.7-1.7-4.3-0.1-5.9l6.5-6.5c1.1-1.1,3-1.1,4.1,0
		c0.6,0.6,0.9,1.3,0.9,2.1s-0.3,1.5-0.9,2.1l-6.5,6.5c-0.7,0.7-1.8,0.7-2.4,0c-0.7-0.7-0.7-1.8,0-2.4l5.8-5.8l0.7,0.7l-5.8,5.8
		c-0.3,0.3-0.3,0.7,0,1c0.3,0.3,0.7,0.3,1,0l6.5-6.5c0.4-0.4,0.6-0.8,0.6-1.4c0-0.5-0.2-1-0.6-1.3c-0.8-0.8-2-0.8-2.7,0l-6.5,6.5
		c-1.2,1.2-1.2,3.2,0,4.4c1.3,1.3,3.3,1.2,4.5,0l5.8-5.8l0.7,0.7l-5.8,5.8C-276.2,408.1-277.2,408.5-278.3,408.5z"/>
</g>
</svg>
