<?xml version="1.0" encoding="utf-8"?>
<!-- Generator: Adobe Illustrator 19.0.0, SVG Export Plug-In . SVG Version: 6.00 Build 0)  -->
<svg version="1.1" id="XMLID_133_" xmlns="http://www.w3.org/2000/svg" xmlns:xlink="http://www.w3.org/1999/xlink" x="0px" y="0px"
	 viewBox="-19 20 24 26" style="enable-background:new -19 20 24 26;" xml:space="preserve">
<g id="manual">
	<g>
		<path d="M2,45h-18v-5h3v-3h3v-7c-1.2-0.9-2-2.4-2-4c0-2.8,2.2-5,5-5s5,2.2,5,5c0,1.6-0.8,3.1-2,4l0,0v7h3v3h3V45z M-14,43H0v-1
			h-14V43z M-11,40h8v-1h-8V40z M-8,37h2v-6.1c-0.6,0.1-1.4,0.1-2,0V37z M-7,23c-1.7,0-3,1.3-3,3s1.3,3,3,3s3-1.3,3-3S-5.3,23-7,23z
			"/>
	</g>
</g>
</svg>
