<?xml version="1.0" encoding="utf-8"?>
<!-- Generator: Adobe Illustrator 19.0.0, SVG Export Plug-In . SVG Version: 6.00 Build 0)  -->
<svg version="1.1" id="XMLID_266_" xmlns="http://www.w3.org/2000/svg" xmlns:xlink="http://www.w3.org/1999/xlink" x="0px" y="0px"
	 viewBox="-19 20 24 26" style="enable-background:new -19 20 24 26;" xml:space="preserve">
<g id="notification">
	<g>
		<path d="M-7,45c-2.2,0-4-1.8-4-4h-8v-2h3v-9c0-5,4-9,9-9s9,4,9,9v9h3v2h-8C-3,43.2-4.8,45-7,45z M-9,41c0,1.1,0.9,2,2,2s2-0.9,2-2
			H-9z M-14,39H0v-9c0-3.9-3.1-7-7-7s-7,3.1-7,7V39z"/>
	</g>
</g>
</svg>
