<?xml version="1.0" encoding="utf-8"?>
<!-- Generator: Adobe Illustrator 19.0.0, SVG Export Plug-In . SVG Version: 6.00 Build 0)  -->
<svg version="1.1" id="XMLID_194_" xmlns="http://www.w3.org/2000/svg" xmlns:xlink="http://www.w3.org/1999/xlink" x="0px" y="0px"
	 viewBox="-19 20 24 26" style="enable-background:new -19 20 24 26;" xml:space="preserve">
<g id="overview">
	<g>
		<path d="M-0.5,42.7c-3,0-5.5-2.5-5.5-5.5s2.5-5.5,5.5-5.5S5,34.2,5,37.2S2.5,42.7-0.5,42.7z M-0.5,33.7c-1.9,0-3.5,1.6-3.5,3.5
			s1.6,3.5,3.5,3.5S3,39.1,3,37.2S1.4,33.7-0.5,33.7z"/>
	</g>
	<g>
		<rect x="-9" y="26.8" width="4" height="2"/>
	</g>
	<g>
		<rect x="-9" y="36.2" width="4" height="2"/>
	</g>
	<g>
		<path d="M-8,37.2h-2c0-1.9-1.6-3.5-3.5-3.5c-1.4,0-2.6,0.8-3.2,2v0.1l-1.8-0.8v-0.1l3.7-9.3c0.5-1.4,1.8-2.3,3.3-2.3
			c1.9,0,3.5,1.6,3.5,3.5V37.2z M-13.5,31.7c1.3,0,2.5,0.5,3.5,1.3v-6.2c0-0.8-0.7-1.5-1.5-1.5c-0.6,0-1.2,0.4-1.4,1l-2.3,5.7
			C-14.6,31.8-14.1,31.7-13.5,31.7z"/>
	</g>
	<g>
		<path d="M-4,37.2h-2V26.8c0-1.9,1.6-3.5,3.5-3.5c1.5,0,2.8,0.9,3.3,2.3l3.7,9.3c0,0,0,0,0,0.1l-1.8,0.8v-0.1c-0.6-1.2-1.8-2-3.2-2
			C-2.4,33.7-4,35.3-4,37.2z M-2.5,25.3C-3.3,25.3-4,26-4,26.8V33c1-0.8,2.2-1.3,3.5-1.3c0.6,0,1.1,0.1,1.7,0.3L-1,26.4
			C-1.3,25.7-1.9,25.3-2.5,25.3z"/>
	</g>
	<g>
		<path d="M-13.5,42.7c-3,0-5.5-2.5-5.5-5.5s2.5-5.5,5.5-5.5S-8,34.2-8,37.2S-10.5,42.7-13.5,42.7z M-13.5,33.7
			c-1.9,0-3.5,1.6-3.5,3.5s1.6,3.5,3.5,3.5s3.5-1.6,3.5-3.5S-11.6,33.7-13.5,33.7z"/>
	</g>
</g>
</svg>
