<?xml version="1.0" encoding="utf-8"?>
<!-- Generator: Adobe Illustrator 19.0.0, SVG Export Plug-In . SVG Version: 6.00 Build 0)  -->
<svg version="1.1" id="XMLID_222_" xmlns="http://www.w3.org/2000/svg" xmlns:xlink="http://www.w3.org/1999/xlink" x="0px" y="0px"
	 viewBox="-19 20 24 26" style="enable-background:new -19 20 24 26;" xml:space="preserve">
<g id="pin">
	<path d="M-6.3,43.4l-11-11l0.7-0.7c1.4-1.4,3.1-2.2,5-2.3l6.7-6.7L3.4,31l-6.7,6.7c-0.1,1.9-0.9,3.7-2.3,5L-6.3,43.4z M-14.5,32.4
		l8.1,8.1c0.7-1,1-2.1,1-3.3v-0.4l5.9-5.9L-5,25.4l-5.9,5.9h-0.4C-12.4,31.3-13.5,31.7-14.5,32.4z"/>
	<rect x="-9.3" y="26.5" transform="matrix(-0.7071 -0.7071 0.7071 -0.7071 -22.033 45.9011)" width="15.6" height="2"/>
	<polygon points="-17.3,44.7 -18.7,43.3 -12.6,37.1 -11.1,38.5 	"/>
</g>
</svg>
