<?xml version="1.0" encoding="utf-8"?>
<!-- Generator: Adobe Illustrator 19.0.0, SVG Export Plug-In . SVG Version: 6.00 Build 0)  -->
<svg version="1.1" id="XMLID_17_" xmlns="http://www.w3.org/2000/svg" xmlns:xlink="http://www.w3.org/1999/xlink" x="0px" y="0px"
	 viewBox="-19 20 24 26" style="enable-background:new -19 20 24 26;" xml:space="preserve">
<g id="platform-chrome">
	<path d="M-12.9,31.5l-3.4-5.9c2.2-2.8,5.6-4.5,9.4-4.5c4.4,0,8.2,2.4,10.3,5.9h-9.8c-0.2,0-0.4,0-0.5,0
		C-9.9,26.9-12.3,28.8-12.9,31.5z M-2.7,28.6h6.9C4.7,30,5,31.5,5,33c0,6.6-5.3,11.9-11.9,12l4.9-8.5c0.7-1,1.1-2.2,1.1-3.5
		C-0.9,31.3-1.6,29.7-2.7,28.6z M-11.4,33c0-2.4,2-4.4,4.4-4.4s4.4,2,4.4,4.4s-2,4.4-4.4,4.4S-11.4,35.4-11.4,33z M-5.4,38.9l-3.4,6
		C-14.6,44-19,39-19,33c0-2.1,0.6-4.1,1.5-5.9l4.9,8.5c1,2.1,3.1,3.5,5.6,3.5C-6.4,39-5.9,39-5.4,38.9z"/>
</g>
</svg>
