<?xml version="1.0" encoding="utf-8"?>
<!-- Generator: Adobe Illustrator 19.0.0, SVG Export Plug-In . SVG Version: 6.00 Build 0)  -->
<svg version="1.1" id="XMLID_168_" xmlns="http://www.w3.org/2000/svg" xmlns:xlink="http://www.w3.org/1999/xlink" x="0px" y="0px"
	 viewBox="-19 20 24 26" style="enable-background:new -19 20 24 26;" xml:space="preserve">
<g id="satellite">
	<g>
		<path d="M-5,45h-14v-1c0-3,2.2-5.8,5.1-6.6c-1.5-2-2.3-4.4-2.3-6.9c0-3.1,1.2-6,3.4-8.2l0.7-0.7l7.5,7.5l2.9-2.9
			C-1.8,25.7-2,25.1-2,24.5c0-1.9,1.6-3.5,3.5-3.5S5,22.6,5,24.5S3.4,28,1.5,28c-0.6,0-1.2-0.2-1.7-0.4l-2.9,2.9L4.4,38l-0.7,0.7
			c-2.2,2.2-5.1,3.4-8.2,3.4c-0.3,0-0.6,0-0.8,0C-5.1,42.6-5,43.3-5,44V45z M-16.9,43h9.7c-0.1-0.4-0.3-0.9-0.7-1.4
			c-1.7-0.5-3.2-1.3-4.5-2.5C-14.4,39.3-16.4,41-16.9,43z M-12,24.5c-1.4,1.7-2.1,3.8-2.1,6c0,2.6,1,5,2.8,6.8s4.2,2.8,6.8,2.8
			c2.2,0,4.3-0.8,6-2.1L-12,24.5z M1.5,23C0.7,23,0,23.7,0,24.5S0.7,26,1.5,26S3,25.3,3,24.5S2.3,23,1.5,23z"/>
	</g>
</g>
</svg>
