<?xml version="1.0" encoding="utf-8"?>
<!-- Generator: Adobe Illustrator 19.0.0, SVG Export Plug-In . SVG Version: 6.00 Build 0)  -->
<svg version="1.1" id="XMLID_98_" xmlns="http://www.w3.org/2000/svg" xmlns:xlink="http://www.w3.org/1999/xlink" x="0px" y="0px"
	 viewBox="-19 20 24 26" style="enable-background:new -19 20 24 26;" xml:space="preserve">
<g id="schedule-clone">
	<g>
		<path d="M5,45h-18v-4h-6V23h4v-2h2v2h6v-2h2v2h4v4h6V45z M-11,43H3V33h-4v8h-10V43z M-17,39h14V25h-14v2h14v2h-14V39z M-1,31h4v-2
			h-4V31z M-5,37h-6v-2h6V37z M-13,37h-2v-2h2V37z M-5,33h-6v-2h6V33z M-13,33h-2v-2h2V33z"/>
	</g>
</g>
</svg>
