<?xml version="1.0" encoding="utf-8"?>
<!-- Generator: Adobe Illustrator 19.0.0, SVG Export Plug-In . SVG Version: 6.00 Build 0)  -->
<svg version="1.1" id="XMLID_246_" xmlns="http://www.w3.org/2000/svg" xmlns:xlink="http://www.w3.org/1999/xlink" x="0px" y="0px"
	 viewBox="-19 20 24 26" style="enable-background:new -19 20 24 26;" xml:space="preserve">
<g id="secure">
	<g>
		<path d="M-5,36c0-1.1-0.9-2-2-2s-2,0.9-2,2c0,0.7,0.4,1.4,1,1.7V40h2v-2.3C-5.4,37.4-5,36.7-5,36z"/>
	</g>
	<g>
		<path d="M-7,45c-4.4,0-8-3.6-8-8s3.6-8,8-8s8,3.6,8,8S-2.6,45-7,45z M-7,31c-3.3,0-6,2.7-6,6s2.7,6,6,6s6-2.7,6-6S-3.7,31-7,31z"
			/>
	</g>
	<g>
		<path d="M-1,32h-2v-5c0-2.2-1.8-4-4-4s-4,1.8-4,4v5h-2v-5c0-3.3,2.7-6,6-6s6,2.7,6,6V32z"/>
	</g>
</g>
</svg>
