<?xml version="1.0" encoding="utf-8"?>
<!-- Generator: Adobe Illustrator 19.0.0, SVG Export Plug-In . SVG Version: 6.00 Build 0)  -->
<svg version="1.1" id="XMLID_95_" xmlns="http://www.w3.org/2000/svg" xmlns:xlink="http://www.w3.org/1999/xlink" x="0px" y="0px"
	 viewBox="-19 20 24 26" style="enable-background:new -19 20 24 26;" xml:space="preserve">
<g id="service-start">
	<g>
		<path d="M-13,25.5c0.1,0,0,6,0,6l5-3L-13,25.5z"/>
	</g>
	<g>
		<path d="M-9.3,44c-3.6,0-6.5-2.9-6.5-6.5c0-1.2,0.3-2.4,1-3.4c-1.9-1.1-3.2-3.3-3.2-5.6c0-3.6,2.9-6.5,6.5-6.5
			c2.3,0,4.3,1.2,5.5,3c1-0.7,2.2-1,3.5-1C1.1,24,4,26.9,4,30.5S1.1,37-2.5,37c-0.1,0-0.2,0-0.3,0c0,0.2,0,0.4,0,0.6
			C-2.8,41.2-5.7,44-9.3,44z M-12.9,34.8c-0.6,0.8-0.9,1.7-0.9,2.7c0,2.5,2,4.5,4.5,4.5s4.5-1.9,4.5-4.4c0-0.3,0-0.5,0-0.7L-5,36.3
			c0-0.1,0-0.1-0.1-0.2V36c-0.4-1.2-1.1-2-2.3-2.5c-1.1,1-2.6,1.5-4.1,1.5C-12,35-12.5,34.9-12.9,34.8z M-3.4,34.9
			C-3.1,35-2.8,35-2.5,35C0,35,2,33,2,30.5S0,26-2.5,26c-1,0-1.9,0.3-2.7,0.9c0.1,0.5,0.2,1,0.2,1.6c0,1.3-0.4,2.5-1,3.5
			C-4.8,32.6-3.9,33.6-3.4,34.9z M-11.5,24c-2.5,0-4.5,2-4.5,4.5c0,1.9,1.2,3.6,3,4.3c1.5,0.6,3.4,0.1,4.6-1l0,0
			c0.8-0.8,1.3-2,1.3-3.2c0-0.6-0.1-1.1-0.3-1.6l0,0C-7.9,25.2-9.6,24-11.5,24z"/>
	</g>
</g>
</svg>
