<?xml version="1.0" encoding="utf-8"?>
<!-- Generator: Adobe Illustrator 19.0.0, SVG Export Plug-In . SVG Version: 6.00 Build 0)  -->
<svg version="1.1" id="XMLID_28_" xmlns="http://www.w3.org/2000/svg" xmlns:xlink="http://www.w3.org/1999/xlink" x="0px" y="0px"
	 viewBox="-19 20 24 26" style="enable-background:new -19 20 24 26;" xml:space="preserve">
<g id="social-slack">
	<path d="M2.2,35.8h-2.8v-5.5h2.8c1,0,1.8-0.8,1.8-1.8s-0.8-1.8-1.8-1.8h-2.8v-2.8c0-1-0.8-1.8-1.8-1.8s-1.8,0.8-1.8,1.8v2.8h-5.5
		v-2.8c0-1-0.8-1.8-1.8-1.8s-1.8,0.8-1.8,1.8v2.8h-2.8c-1,0-1.8,0.8-1.8,1.8s0.8,1.8,1.8,1.8h2.8v5.5h-2.8c-1,0-1.8,0.8-1.8,1.8
		s0.8,1.8,1.8,1.8h2.8v2.8c0,1,0.8,1.8,1.8,1.8s1.8-0.8,1.8-1.8v-2.8h5.5v2.8c0,1,0.8,1.8,1.8,1.8s1.8-0.8,1.8-1.8v-2.8h2.8
		c1,0,1.8-0.8,1.8-1.8S3.2,35.8,2.2,35.8z M-9.8,35.8v-5.5h5.5v5.5H-9.8z"/>
</g>
</svg>
