<?xml version="1.0" encoding="utf-8"?>
<!-- Generator: Adobe Illustrator 19.0.0, SVG Export Plug-In . SVG Version: 6.00 Build 0)  -->
<svg version="1.1" id="XMLID_3_" xmlns="http://www.w3.org/2000/svg" xmlns:xlink="http://www.w3.org/1999/xlink" x="0px" y="0px"
	 viewBox="-19 20 24 26" style="enable-background:new -19 20 24 26;" xml:space="preserve">
<g id="social-youtube">
	<g id="Lozenge">
		<g>
			<path d="M4.7,28.4c0,0-0.3-1.5-0.9-2.3c-0.9-0.9-2-0.9-2.4-1C-1.9,25-7,25-7,25l0,0c0,0-5.1,0-8.4,0.2c-0.4,0.1-1.5,0.1-2.4,1
				c-0.7,0.7-0.9,2.3-0.9,2.3s-0.3,1.9-0.3,3.7v1.7c0,1.9,0.3,3.7,0.3,3.7s0.3,1.5,0.9,2.3c0.9,0.9,2.1,0.9,2.7,1
				C-13.3,40.9-7,41-7,41s5.1,0,8.4-0.2c0.4-0.1,1.5-0.1,2.4-1c0.7-0.7,0.9-2.3,0.9-2.3S5,35.6,5,33.9v-1.7
				C5,30.3,4.7,28.4,4.7,28.4z M-9.7,36.1v-6.7l6.9,3.4L-9.7,36.1z"/>
		</g>
	</g>
</g>
</svg>
