<?xml version="1.0" encoding="utf-8"?>
<!-- Generator: Adobe Illustrator 19.0.0, SVG Export Plug-In . SVG Version: 6.00 Build 0)  -->
<svg version="1.1" id="XMLID_159_" xmlns="http://www.w3.org/2000/svg" xmlns:xlink="http://www.w3.org/1999/xlink" x="0px" y="0px"
	 viewBox="-19 20 24 26" style="enable-background:new -19 20 24 26;" xml:space="preserve">
<g id="stakeholder">
	<g>
		<path d="M-7,41.5h-12V39c0-2.1,1.4-4,3.3-5c-0.9-0.7-1.5-1.8-1.5-3.1c0-2.3,1.9-4.1,4.3-4.1s4.3,1.8,4.3,4.1
			c0,1.2-0.6,2.4-1.5,3.1c2,1,3.3,2.8,3.3,5V41.5z M-16.4,39.9h7.7V39c0-2.1-2-4-4.3-4s-4.3,1.9-4.3,4v0.9H-16.4z M-13,28.5
			c-1.5,0-2.6,1.1-2.6,2.4c0,1.4,1.1,2.4,2.6,2.4s2.6-1.1,2.6-2.4C-10.4,29.5-11.5,28.5-13,28.5z M-1,36.8L-7,34v-6.8l6-2.8l6,2.8
			V34L-1,36.8z M-0.1,30.6v4L3.3,33v-4L-0.1,30.6z M-5.3,33l3.4,1.6v-4L-5.3,29V33z M-4.2,27.7l3.2,1.5l3.2-1.5L-1,26.2L-4.2,27.7z"
			/>
	</g>
</g>
</svg>
