<?xml version="1.0" encoding="utf-8"?>
<!-- Generator: Adobe Illustrator 19.0.0, SVG Export Plug-In . SVG Version: 6.00 Build 0)  -->
<svg version="1.1" id="XMLID_203_" xmlns="http://www.w3.org/2000/svg" xmlns:xlink="http://www.w3.org/1999/xlink" x="0px" y="0px"
	 viewBox="-19 20 24 26" style="enable-background:new -19 20 24 26;" xml:space="preserve">
<g id="user-female">
	<g>
		<path d="M2.1,45h-2v-5c0-2.2-1.7-4-3.9-4l0,0h-0.1v-2c1.7,0,2.8-0.6,3.5-1.1c-1.1-1-2.5-2.9-2.5-5.9c0-2.2-1.8-4-4-4s-4,1.8-4,4
			c0,3.2-1.7,5.2-2.8,6.1c0.4,0.4,1.2,0.9,2.7,0.9h1v2c-2.2,0-4,1.8-4,4v5h-2v-5c0-1.8,0.8-3.5,2.1-4.6c-1.7-0.8-2.1-2.1-2.2-2.2
			l-0.3-0.8l0.7-0.4c0.1-0.1,2.6-1.7,2.6-5.1c0-3.3,2.6-5.9,5.9-6l0,0h0.1l0,0c3.3,0.1,6,2.7,6,6c0,3.4,2.5,5,2.6,5l1,0.6l-0.5,1
			c0,0.1-0.8,1-2.2,1.6C1.2,36.3,2.1,38,2.1,40V45z M-1.9,45h-2v-4h2V45z M-9.9,45h-2v-4h2V45z"/>
	</g>
</g>
</svg>
