<?xml version="1.0" encoding="utf-8"?>
<!-- Generator: Adobe Illustrator 19.0.0, SVG Export Plug-In . SVG Version: 6.00 Build 0)  -->
<svg version="1.1" id="XMLID_117_" xmlns="http://www.w3.org/2000/svg" xmlns:xlink="http://www.w3.org/1999/xlink" x="0px" y="0px"
	 viewBox="-19 20 24 26" style="enable-background:new -19 20 24 26;" xml:space="preserve">
<g id="_x33_d">
	<g>
		<path d="M-7,45.2l-11-4.5V33h2v6.3l9,3.7l9-3.7V33h2v7.7L-7,45.2z M0,38h-2v-2.4c-2.5,2.1-7.1,4-11.6,0.2l1.3-1.5
			c3.9,3.3,7.6,1,9.1-0.2h-2.7v-2h6L0,38L0,38z M4,33H2v-5.5l-9,3.7l-9-3.7V33h-2v-7.7l11-4.5l11,4.5C4,25.3,4,33,4,33z M-14.4,26
			l7.4,3l7.4-3L-7,23L-14.4,26z"/>
	</g>
</g>
</svg>
