<?xml version="1.0" encoding="utf-8"?>
<!-- Generator: Adobe Illustrator 19.0.0, SVG Export Plug-In . SVG Version: 6.00 Build 0)  -->
<svg version="1.1" id="XMLID_232_" xmlns="http://www.w3.org/2000/svg" xmlns:xlink="http://www.w3.org/1999/xlink" x="0px" y="0px"
	 viewBox="-19 20 24 26" style="enable-background:new -19 20 24 26;" xml:space="preserve">
<g id="action">
	<g>
		<path d="M-17.3,44.7l-1.4-1.4l2.4-2.4c-2.4-2.8-2.2-7,0.4-9.6l1.7-1.7l10.7,10.7l-1.6,1.6c-1.4,1.4-3.2,2.1-5.1,2.1
			c-1.7,0-3.3-0.6-4.6-1.7L-17.3,44.7z M-14,40.4c1,1,2.3,1.5,3.7,1.5s2.7-0.5,3.7-1.5l0.2-0.2l-7.8-7.9l-0.3,0.3c-2,2-2,5.2,0,7.2
			L-14,40.4z M0.2,36.3l-2.5-2.5l-2.3,2.3L-6,34.8l2.3-2.3l-2.8-2.8l-2.3,2.3l-1.4-1.4l2.3-2.3l-2.5-2.5l1.6-1.6
			c1.4-1.4,3.2-2.1,5.1-2.1c1.7,0,3.3,0.6,4.6,1.7l2.4-2.4l1.4,1.4l-2.4,2.4c2.4,2.8,2.2,7-0.4,9.6L0.2,36.3z M-7.6,25.6l7.8,7.9
			l0.3-0.3c2-2,2-5.2,0-7.2L0,25.4c-1-1-2.3-1.5-3.7-1.5s-2.7,0.5-3.7,1.5L-7.6,25.6z"/>
	</g>
</g>
</svg>
