<?xml version="1.0" encoding="utf-8"?>
<!-- Generator: Adobe Illustrator 19.0.0, SVG Export Plug-In . SVG Version: 6.00 Build 0)  -->
<svg version="1.1" id="XMLID_231_" xmlns="http://www.w3.org/2000/svg" xmlns:xlink="http://www.w3.org/1999/xlink" x="0px" y="0px"
	 viewBox="-19 20 24 26" style="enable-background:new -19 20 24 26;" xml:space="preserve">
<g id="aggregate">
	<g>
		<path d="M-3.5,45c-4.2,0-7.7-3-8.4-7H-12v-0.1c-4-0.7-7-4.2-7-8.4c0-4.7,3.8-8.5,8.5-8.5c4.2,0,7.7,3,8.4,7H-2v0.1
			c4,0.7,7,4.2,7,8.4C5,41.2,1.2,45-3.5,45z M-9.8,38c0.7,2.9,3.3,5,6.3,5C0.1,43,3,40.1,3,36.5c0-3.1-2.1-5.6-5-6.3V38H-9.8z
			 M-10,36h6v-6h-6V36z M-10.5,23c-3.6,0-6.5,2.9-6.5,6.5c0,3.1,2.1,5.6,5,6.3V28h7.8C-4.9,25.1-7.4,23-10.5,23z"/>
	</g>
</g>
</svg>
