<?xml version="1.0" encoding="utf-8"?>
<!-- Generator: Adobe Illustrator 19.0.0, SVG Export Plug-In . SVG Version: 6.00 Build 0)  -->
<svg version="1.1" id="XMLID_163_" xmlns="http://www.w3.org/2000/svg" xmlns:xlink="http://www.w3.org/1999/xlink" x="0px" y="0px"
	 viewBox="-19 20 24 26" style="enable-background:new -19 20 24 26;" xml:space="preserve">
<g id="alarm">
	<g>
		<path d="M2.3,44.3l-3-3c-1.7,1.5-3.9,2.3-6.3,2.3s-4.6-0.8-6.3-2.3l-3,3l-1.4-1.4l3-3c-1.4-1.7-2.3-3.9-2.3-6.3
			c0-0.7,0.1-1.4,0.2-2.1c-1.4-1-2.2-2.7-2.2-4.4c0-3,2.5-5.5,5.5-5.5c1.8,0,3.4,0.8,4.4,2.2c1.3-0.3,2.8-0.3,4.2,0
			c1-1.4,2.7-2.2,4.4-2.2c3,0,5.5,2.5,5.5,5.5c0,1.8-0.8,3.4-2.2,4.4C2.9,32.3,3,32.9,3,33.7c0,2.4-0.8,4.6-2.3,6.3l3,3L2.3,44.3z
			 M-7,25.6c-4.4,0-8,3.6-8,8s3.6,8,8,8s8-3.6,8-8S-2.6,25.6-7,25.6z M-2.8,24.5c2.2,1,3.9,2.8,4.9,4.9C2.7,28.9,3,28,3,27.1
			c0-1.9-1.6-3.5-3.5-3.5C-1.4,23.6-2.2,23.9-2.8,24.5z M-13.5,23.6c-1.9,0-3.5,1.6-3.5,3.5c0,0.9,0.3,1.7,0.9,2.3
			c1-2.2,2.8-3.9,4.9-4.9C-11.8,23.9-12.6,23.6-13.5,23.6z M-4.7,37.3L-8,34.1v-5.4h2v4.6l2.7,2.7L-4.7,37.3z"/>
	</g>
</g>
</svg>
