<?xml version="1.0" encoding="utf-8"?>
<!-- Generator: Adobe Illustrator 19.0.0, SVG Export Plug-In . SVG Version: 6.00 Build 0)  -->
<svg version="1.1" id="XMLID_166_" xmlns="http://www.w3.org/2000/svg" xmlns:xlink="http://www.w3.org/1999/xlink" x="0px" y="0px"
	 viewBox="-19 20 24 26" style="enable-background:new -19 20 24 26;" xml:space="preserve">
<g id="bundle">
	<g>
		<path d="M-1,44h-12v-1h-6V23h6v-1h12v1h6v20h-6V44z M-11,42h8v-7h-8V42z M-1,41h4v-2h-4V41z M-17,41h4v-2h-4V41z M-1,37h4v-2h-4
			V37z M-17,37h4v-2h-4V37z M-1,33h4v-8h-4V33z M-11,33h8v-9h-8V33z M-17,33h4v-8h-4V33z"/>
	</g>
</g>
</svg>
