<?xml version="1.0" encoding="utf-8"?>
<!-- Generator: Adobe Illustrator 19.2.1, SVG Export Plug-In . SVG Version: 6.00 Build 0)  -->
<svg version="1.1" id="XMLID_270_" xmlns="http://www.w3.org/2000/svg" xmlns:xlink="http://www.w3.org/1999/xlink" x="0px" y="0px"
	 viewBox="0 0 24 26" style="enable-background:new 0 0 24 26;" xml:space="preserve">
<g id="chat">
	<g>
		<path d="M1.4,18.2v-2.9H0V6h5.7V1h11.5v9.3h-1.4v2.9l-4.2-2.9h-0.1v5H5.6L1.4,18.2z M1.4,13.9h1.4v1.5l2.3-1.5H10V7.5H1.4V13.9z
			 M11.5,8.9H12l2.3,1.5V8.9h1.4V2.4H7.2V6h4.3V8.9z"/>
	</g>
</g>
<g id="attachment">
	<g>
		<path d="M15.1,25.6c-1.2,0-2.2-0.4-3-1.2L12,24.3c-0.8-0.8-1.2-1.9-1.2-3c0-1.2,0.4-2.2,1.2-3l6.6-6.6c0.6-0.6,1.3-0.9,2.1-0.9
			c0.8,0,1.6,0.3,2.1,0.9c0.6,0.6,0.9,1.3,0.9,2.2c0,0.8-0.3,1.6-0.9,2.1l-6.5,6.6c-0.7,0.7-1.9,0.7-2.6,0c-0.7-0.7-0.7-1.9,0-2.6
			l5.8-5.8l0.9,0.9l-5.8,5.8c-0.2,0.2-0.2,0.6,0,0.9s0.6,0.2,0.9,0l6.5-6.5c0.4-0.4,0.6-0.8,0.6-1.3s-0.2-0.9-0.6-1.3
			c-0.7-0.7-1.9-0.7-2.6-0.1l-6.6,6.6c-0.6,0.6-0.9,1.3-0.9,2.1c0,0.8,0.3,1.6,0.9,2.1l0.1,0.1c0.6,0.6,1.3,0.9,2.1,0.9
			s1.6-0.3,2.1-0.9l5.8-5.8l0.9,0.9l-5.8,5.8C17.3,25.2,16.2,25.6,15.1,25.6z"/>
	</g>
</g>
</svg>
