<?xml version="1.0" encoding="utf-8"?>
<!-- Generator: Adobe Illustrator 19.0.0, SVG Export Plug-In . SVG Version: 6.00 Build 0)  -->
<svg version="1.1" id="XMLID_250_" xmlns="http://www.w3.org/2000/svg" xmlns:xlink="http://www.w3.org/1999/xlink" x="0px" y="0px"
	 viewBox="-19 20 24 26" style="enable-background:new -19 20 24 26;" xml:space="preserve">
<g id="cloud-upload">
	<g>
		<path d="M-6.1,42.5h-2v-6.6l-2.3,2.3l-1.4-1.4l4.7-4.7l4.7,4.7l-1.4,1.4l-2.3-2.3V42.5z M-1,40.5h-2.1v-2H-1c2.2,0,4-1.8,4-4
			c0-2.3-1.7-4-4-4h-1v-2c0-1.7-1.3-3-2.9-3h-3c-1.7,0-3.1,1.4-3.1,3h4v2h-5.9c-2.2,0-4,1.8-4,4s1.8,4,4,4v2H-13
			c-3.3-0.1-5.9-2.7-5.9-6s2.6-5.9,5.9-6l0,0c0-2.8,2.3-5,5.1-5h3c2.7,0,4.9,2.2,4.9,5v0.1c2.9,0.4,5,2.8,5,5.9
			C4.9,37.8,2.3,40.5-1,40.5z"/>
	</g>
</g>
</svg>
