<?xml version="1.0" encoding="utf-8"?>
<!-- Generator: Adobe Illustrator 19.0.0, SVG Export Plug-In . SVG Version: 6.00 Build 0)  -->
<svg version="1.1" id="XMLID_257_" xmlns="http://www.w3.org/2000/svg" xmlns:xlink="http://www.w3.org/1999/xlink" x="0px" y="0px"
	 viewBox="-19 20 24 26" style="enable-background:new -19 20 24 26;" xml:space="preserve">
<g id="cycle">
	<g>
		<path d="M-1.9,44.8L-6.6,42l2.7-4.8l1.7,1l-1.7,3.1l3,1.8L-1.9,44.8z M-13.3,32l-1.7-3l-2.9,1.7l-1-1.7l4.7-2.8l2.7,4.8L-13.3,32z
			"/>
	</g>
	<g>
		<polygon points="3.1,27.5 -2.4,27.5 -2.4,25.5 1.1,25.5 1.1,22 3.1,22 		"/>
	</g>
	<g>
		<path d="M-3.8,42.5l-0.4-2c4-0.9,6.9-4.5,6.9-8.6c0-0.6-0.1-1.3-0.2-1.9l2-0.4c0.2,0.8,0.3,1.6,0.3,2.3
			C4.8,37.1,1.2,41.5-3.8,42.5z"/>
	</g>
	<g>
		<path d="M-9.2,42.3c-4.5-1.4-7.6-5.5-7.6-10.3c0-1.3,0.2-2.6,0.7-3.8l1.9,0.7c-0.4,1-0.6,2-0.6,3.1c0,3.9,2.5,7.2,6.1,8.4
			L-9.2,42.3z"/>
	</g>
	<g>
		<path d="M0.6,26.2c-1.7-1.9-4.1-3-6.6-3c-2.1,0-4.1,0.8-5.7,2.1l-1.3-1.5c1.9-1.7,4.4-2.6,7-2.6c3.1,0,6,1.3,8.1,3.6L0.6,26.2z"/>
	</g>
</g>
</svg>
