<?xml version="1.0" encoding="utf-8"?>
<!-- Generator: Adobe Illustrator 19.0.0, SVG Export Plug-In . SVG Version: 6.00 Build 0)  -->
<svg version="1.1" id="XMLID_256_" xmlns="http://www.w3.org/2000/svg" xmlns:xlink="http://www.w3.org/1999/xlink" x="0px" y="0px"
	 viewBox="-19 20 24 26" style="enable-background:new -19 20 24 26;" xml:space="preserve">
<g id="dashboard">
	<g>
		<path d="M-7,45c-6.6,0-12-5.4-12-12s5.4-12,12-12S5,26.4,5,33S-0.4,45-7,45z M-15.7,38c1.7,3,5,5,8.7,5s6.9-2,8.7-5H-15.7z
			 M-16.5,36h19c0.2-0.6,0.3-1.3,0.4-2H1v-2h2c-0.2-2-1-3.8-2.2-5.3l-1.4,1.4L-2,26.6l1.4-1.4C-2.2,24-4,23.3-6,23v2h-2v-2
			c-2.1,0.2-4,1.1-5.5,2.4l1.2,1.2l-1.4,1.4l-1.2-1.2c-1.1,1.4-1.9,3.2-2.1,5.1h2v2h-2C-16.9,34.7-16.7,35.4-16.5,36z M-3,36h-2
			c0-1.1-0.9-2-2-2s-2,0.9-2,2h-2c0-1.9,1.3-3.4,3-3.9V27h2v5.1C-4.3,32.6-3,34.1-3,36z"/>
	</g>
</g>
</svg>
