<?xml version="1.0" encoding="utf-8"?>
<!-- Generator: Adobe Illustrator 19.0.0, SVG Export Plug-In . SVG Version: 6.00 Build 0)  -->
<svg version="1.1" id="XMLID_137_" xmlns="http://www.w3.org/2000/svg" xmlns:xlink="http://www.w3.org/1999/xlink" x="0px" y="0px"
	 viewBox="-19 20 24 26" style="enable-background:new -19 20 24 26;" xml:space="preserve">
<g id="detach">
	<g>
		<path d="M-10.7,45c-1.9,0-3.6-0.7-4.9-2l0,0c-1.4-1.3-2.1-3.1-2.1-4.9s0.7-3.6,2-4.9l2.5-2.5l1.4,1.4l-2.5,2.5
			c-0.9,0.9-1.4,2.2-1.4,3.5s0.5,2.6,1.4,3.5l0,0c1,1,2.2,1.5,3.5,1.5s2.6-0.5,3.5-1.4l2.6-2.6l1.4,1.4L-5.8,43
			C-7.1,44.3-8.9,45-10.7,45z M0.6,41.8l-16-16l1.4-1.4l3.5,3.5l5.5-5.5c0.9-0.9,2.2-1.5,3.5-1.5l0,0c1.3,0,2.6,0.5,3.5,1.5
			c1,1,1.5,2.2,1.5,3.6c0,1.3-0.5,2.6-1.5,3.5L-3.5,35l1.4,1.4l4.4-4.3l1.4,1.4l-4.3,4.3L2,40.4L0.6,41.8z M-6.3,32.1l1.4,1.4
			L0.6,28c0.6-0.6,0.9-1.3,0.9-2.1c0-0.8-0.3-1.5-0.9-2.1s-1.4-0.9-2.1-0.9l0,0c-0.8,0-1.5,0.3-2.1,0.9l-5.5,5.5l1.4,1.4l4.3-4.3
			l1.4,1.4L-6.3,32.1z M-10.7,41c-0.8,0-1.5-0.3-2.1-0.9c-0.6-0.6-0.9-1.3-0.9-2.1s0.3-1.5,0.9-2.1l2.5-2.5l1.4,1.4l-2.5,2.5
			c-0.2,0.2-0.3,0.4-0.3,0.7s0.1,0.5,0.3,0.7c0.4,0.4,1,0.4,1.4,0l2.5-2.5l1.4,1.4l-2.5,2.5C-9.2,40.7-10,41-10.7,41z"/>
	</g>
</g>
</svg>
