<?xml version="1.0" encoding="utf-8"?>
<!-- Generator: Adobe Illustrator 19.0.0, SVG Export Plug-In . SVG Version: 6.00 Build 0)  -->
<svg version="1.1" id="XMLID_115_" xmlns="http://www.w3.org/2000/svg" xmlns:xlink="http://www.w3.org/1999/xlink" x="0px" y="0px"
	 viewBox="-19 20 24 26" style="enable-background:new -19 20 24 26;" xml:space="preserve">
<g id="document-compress">
	<g>
		<path d="M4.5,45h-20v-2h18V29h-6v-6h-10v7h-2v-9h14.4l5.6,5.6V45z M-1.5,27h3.6l-3.6-3.6V27z M-4.5,40h-2v-8h4c1.7,0,3,1.3,3,3
			s-1.3,3-3,3h-2V40z M-4.5,36h2c0.6,0,1-0.4,1-1s-0.4-1-1-1h-2V36z M-8.5,40h-2v-8h2V40z M-12.5,40h-6v-2.4l3.6-3.6h-3.6v-2h6v2.4
			l-3.6,3.6h3.6V40z"/>
	</g>
</g>
</svg>
