<?xml version="1.0" encoding="utf-8"?>
<!-- Generator: Adobe Illustrator 19.0.0, SVG Export Plug-In . SVG Version: 6.00 Build 0)  -->
<svg version="1.1" id="XMLID_79_" xmlns="http://www.w3.org/2000/svg" xmlns:xlink="http://www.w3.org/1999/xlink" x="0px" y="0px"
	 viewBox="-19 20 24 26" style="enable-background:new -19 20 24 26;" xml:space="preserve">
<g id="document-time">
	<g>
		<path d="M5,45h-8v-2h6V29h-6v-6h-10v4h-2v-6h14.4L5,26.6V45z M-1,27h3.6L-1,23.4V27z M-11,45c-4.4,0-8-3.6-8-8s3.6-8,8-8
			s8,3.6,8,8S-6.6,45-11,45z M-11,31c-3.3,0-6,2.7-6,6s2.7,6,6,6s6-2.7,6-6S-7.7,31-11,31z M-8.7,40.7l-3.3-3.3V33h2v3.6l2.7,2.7
			L-8.7,40.7z"/>
	</g>
</g>
</svg>
