<?xml version="1.0" encoding="utf-8"?>
<!-- Generator: Adobe Illustrator 19.0.0, SVG Export Plug-In . SVG Version: 6.00 Build 0)  -->
<svg version="1.1" id="XMLID_116_" xmlns="http://www.w3.org/2000/svg" xmlns:xlink="http://www.w3.org/1999/xlink" x="0px" y="0px"
	 viewBox="-19 20 24 26" style="enable-background:new -19 20 24 26;" xml:space="preserve">
<g id="document-conig">
	<g>
		<path d="M4,45h-9v-2h7V29h-6v-6h-10v9h-2V21h14.4L4,26.6V45z M-2,27h3.6L-2,23.4V27z M-11,45h-2v-2.1c-0.4-0.1-0.7-0.2-1-0.4
			l-1.5,1.5l-1.4-1.4l1.5-1.5c-0.2-0.3-0.3-0.7-0.4-1H-18v-2h2.1c0.1-0.4,0.2-0.7,0.4-1l-1.5-1.5l1.4-1.4l1.5,1.5
			c0.3-0.2,0.7-0.3,1-0.4V33h2v2.1c0.4,0.1,0.7,0.2,1,0.4l1.5-1.5l1.4,1.4L-8.6,37c0.2,0.3,0.3,0.7,0.4,1H-6v2h-2.1
			c-0.1,0.4-0.2,0.7-0.4,1l1.5,1.5l-1.4,1.4l-1.5-1.5c-0.3,0.2-0.7,0.3-1,0.4V45H-11z M-12,37c-1.1,0-2,0.9-2,2s0.9,2,2,2s2-0.9,2-2
			S-10.9,37-12,37z"/>
	</g>
</g>
</svg>
