<?xml version="1.0" encoding="utf-8"?>
<!-- Generator: Adobe Illustrator 19.0.0, SVG Export Plug-In . SVG Version: 6.00 Build 0)  -->
<svg version="1.1" id="XMLID_108_" xmlns="http://www.w3.org/2000/svg" xmlns:xlink="http://www.w3.org/1999/xlink" x="0px" y="0px"
	 viewBox="-19 20 24 26" style="enable-background:new -19 20 24 26;" xml:space="preserve">
<g id="fan">
	<g>
		<path d="M-13.6,43.8L-13.6,43.8c-0.9,0-1.7-0.4-2.3-1c-0.7-0.7-1.3-1.5-1.8-2.4c-0.4-0.8-0.8-1.6-1-2.4c-0.3-0.9-0.2-1.9,0.3-2.6
			c0.4-0.7,1.1-1.2,1.8-1.4c1.1-0.3,2.1-0.5,3.1-0.8l1.8-0.5c0.2-0.5,0.5-1,0.9-1.5l-1.4-4.9c-0.2-0.8-0.1-1.6,0.3-2.3
			c0.4-0.7,1.2-1.3,2-1.5c0.9-0.2,1.9-0.4,3-0.3c0.9,0,1.8,0.1,2.6,0.3c0.9,0.2,1.7,0.8,2.1,1.5s0.5,1.5,0.3,2.3l-1.4,4.9
			c0.4,0.4,0.7,0.9,0.9,1.5L2.5,34c0.8,0.2,1.5,0.7,1.9,1.4c0.4,0.8,0.5,1.6,0.3,2.5c-0.3,1-0.7,1.9-1.2,2.7c-0.5,0.8-1,1.5-1.6,2.1
			c-0.6,0.7-1.5,1.1-2.4,1.1c0,0,0,0-0.1,0c-0.8,0-1.6-0.3-2.1-0.9l-3.6-3.7c-0.5,0.1-1.1,0.1-1.6,0l-3.6,3.7
			C-12,43.5-12.8,43.8-13.6,43.8z M-12,34.7l-1,0.3c-1,0.3-2.1,0.5-3.1,0.8c-0.3,0.1-0.5,0.3-0.6,0.5c-0.2,0.3-0.2,0.7-0.1,1.1
			c0.2,0.7,0.5,1.4,0.9,2c0.4,0.7,0.9,1.4,1.5,2c0.3,0.3,0.6,0.4,0.9,0.4c0.2,0,0.5-0.1,0.7-0.3l3.1-3.1C-11,37.6-11.8,36.3-12,34.7
			z M-4.2,38.4l3,3.1c0.2,0.2,0.5,0.3,0.7,0.3c0.3,0,0.7-0.2,1-0.5c0.5-0.5,1-1.1,1.3-1.8c0.4-0.7,0.7-1.5,1-2.3
			c0.1-0.3,0.1-0.7-0.1-1c-0.1-0.2-0.4-0.4-0.6-0.5l-4.1-1C-2.2,36.3-3,37.6-4.2,38.4z M-7,31.3c-1.7,0-3,1.3-3,3c0,1.7,1.3,3,3,3
			s3-1.3,3-3C-4,32.6-5.3,31.3-7,31.3z M-7,24c-0.8,0-1.6,0.1-2.4,0.3c-0.4,0.1-0.6,0.3-0.8,0.6c-0.1,0.2-0.2,0.5-0.1,0.8l1.1,4.1
			c1.3-0.6,3-0.6,4.3,0l1.1-4.1c0.1-0.3,0-0.6-0.1-0.8c-0.1-0.3-0.4-0.5-0.8-0.6C-5.4,24.1-6.1,24-6.9,24C-6.9,24-7,24-7,24z"/>
	</g>
</g>
</svg>
