<?xml version="1.0" encoding="utf-8"?>
<!-- Generator: Adobe Illustrator 19.0.0, SVG Export Plug-In . SVG Version: 6.00 Build 0)  -->
<svg version="1.1" id="XMLID_171_" xmlns="http://www.w3.org/2000/svg" xmlns:xlink="http://www.w3.org/1999/xlink" x="0px" y="0px"
	 viewBox="-19 20 24 26" style="enable-background:new -19 20 24 26;" xml:space="preserve">
<g id="globe">
	<g>
		<path d="M-7,45c-6.6,0-12-5.4-12-12s5.4-12,12-12S5,26.4,5,33S-0.4,45-7,45z M-16.8,31c-0.1,0.6-0.2,1.3-0.2,2c0,5.5,4.5,10,10,10
			c0.2,0,0.3,0,0.5,0C-6.8,42.5-7,41.8-7,40.9c0-0.7-0.3-0.9-1-1.3c-1.3-0.6-2.6-1.6-1.6-4.4c0-0.1-0.4-0.2-0.6-0.3
			c-1.1-0.3-1.4-1.2-1.5-1.8c-0.1-0.4-0.2-0.9-0.6-1.2C-13,31.2-15.3,30.9-16.8,31z M-9.7,33c0.3,0.1,1.3,0.4,1.8,1.3
			c0.3,0.5,0.3,1,0.1,1.6c-0.5,1.4-0.3,1.5,0.6,1.9c0.8,0.4,2.2,1.1,2.2,3.1c0,0.5,0.1,1,0.4,1.3c0.2,0.2,0.3,0.3,0.5,0.3
			c0.4,0,0.4-0.5,0.4-0.7c0-1.6,0.8-2.8,1.4-3.8c0.4-0.7,0.8-1.3,0.8-1.8c0-0.7-0.4-1-1.4-1.4c-0.3-0.1-0.6-0.3-0.9-0.4
			c-0.3-0.2-0.6-0.4-0.9-0.6C-5.3,33.3-5.7,33-7,33h-0.4l-0.3-0.3c-0.6-0.5-2.3-2-1.2-4.2c0.3-0.6,0.8-1,1.2-1.3
			c0.7-0.5,1.1-0.8,1.1-2.1c0-1.1-1-2.1-1.5-2.1c-3.6,0.4-6.7,2.7-8.1,5.9c1.5,0,4.1,0.2,5.3,1.6c0.7,0.7,0.9,1.5,1,2.1
			C-9.8,32.8-9.7,32.9-9.7,33z M-6.6,31c1.6,0.1,2.4,0.6,3.1,1.1c0.2,0.2,0.4,0.3,0.7,0.4c0.2,0.1,0.4,0.2,0.7,0.3
			c1,0.5,2.6,1.2,2.6,3.3c0,1.2-0.6,2.1-1.1,2.9c-0.5,0.8-1,1.5-1,2.4C1.1,39.7,3,36.6,3,33c0-4.9-3.5-8.9-8.1-9.8
			c0.3,0.6,0.5,1.3,0.5,2c0,2.3-1.2,3.2-2,3.7c-0.3,0.2-0.5,0.4-0.6,0.5C-7.3,29.8-7.4,30.2-6.6,31z"/>
	</g>
</g>
</svg>
