<?xml version="1.0" encoding="UTF-8"?>
<svg id="XMLID_281_" style="enable-background:new -19 20 24 26;" version="1.1" viewBox="-19 20 24 26" xmlns="http://www.w3.org/2000/svg">
	<g>
		<path d="m-7 45c-6.6 0-12-5.4-12-12s5.4-12 12-12 12 5.4 12 12-5.4 12-12 12zm0-22c-5.5 0-10 4.5-10 10s4.5 10 10 10 10-4.5 10-10-4.5-10-10-10z"/>
	</g>
	<g aria-label="?">
		<path d="m-6.6357 32.676c-1.056 1.152-1.392 1.776-1.464 3.096h2.352c0-0.504 0.168-1.032 1.008-1.896 1.128-1.152 2.448-2.4 2.448-4.2 0-2.664-1.8-4.248-4.56-4.248-1.752 0-3.408 0.744-4.416 1.8v2.544c1.032-1.032 2.496-2.04 4.272-2.04 1.488 0 2.256 0.696 2.256 1.968s-1.08 2.064-1.896 2.976zm-2.016 6.24c0 0.936 0.72 1.656 1.632 1.656s1.632-0.72 1.632-1.656-0.72-1.656-1.632-1.656-1.632 0.72-1.632 1.656z"/>
	</g>
</svg>
