<?xml version="1.0" encoding="utf-8"?>
<!-- Generator: Adobe Illustrator 19.0.0, SVG Export Plug-In . SVG Version: 6.00 Build 0)  -->
<svg version="1.1" id="XMLID_103_" xmlns="http://www.w3.org/2000/svg" xmlns:xlink="http://www.w3.org/1999/xlink" x="0px" y="0px"
	 viewBox="-19 20 24 26" style="enable-background:new -19 20 24 26;" xml:space="preserve">
<g id="in-progress">
	<g>
		<path d="M4,45h-22v-2h2.4c-1.6-5,1.6-7,3.7-8.4c0.9-0.6,1.8-1.1,1.8-1.6s-0.9-1.1-1.8-1.6c-2.1-1.4-5.3-3.3-3.7-8.4H-18v-2H4v2
			H1.6c1.6,5-1.6,7-3.7,8.4C-3.1,31.9-4,32.5-4,33s0.9,1.1,1.8,1.6C-0.1,36,3.1,38,1.5,43H4V45z M-13.4,43h12.8
			c1.6-4-0.5-5.3-2.6-6.7C-4.6,35.5-6,34.6-6,33c0-1.6,1.4-2.5,2.8-3.3C-1.1,28.3,1,27-0.6,23h-12.8c-1.6,4,0.5,5.3,2.6,6.7
			C-9.4,30.5-8,31.4-8,33c0,1.6-1.4,2.5-2.8,3.3C-12.9,37.7-15,39-13.4,43z"/>
	</g>
	<g>
		<path d="M-2.2,44H-12c-0.3-1.5,0.2-2.4,2.3-4.3c0.8-0.7,1.8-1.5,2.7-2.8c1,1.2,2,2.1,2.7,2.8C-2.2,41.7-1.7,42-2.2,44z"/>
	</g>
	<g>
		<path d="M-9.6,27c-0.7,1.3-0.7,1.3,0.9,2.1c0.5,0.2,1.1,0.5,1.6,0.9c0.5-0.4,1.2-0.7,1.6-0.9c1.7-0.8,1.7-0.8,1-2.1"/>
	</g>
</g>
</svg>
