<?xml version="1.0" encoding="utf-8"?>
<!-- Generator: Adobe Illustrator 22.1.0, SVG Export Plug-In . SVG Version: 6.00 Build 0)  -->
<svg version="1.1" id="Filled_Icons" xmlns="http://www.w3.org/2000/svg" xmlns:xlink="http://www.w3.org/1999/xlink" x="0px"
	 y="0px" viewBox="0 0 24 24" enable-background="new 0 0 24 24" xml:space="preserve">
<g id="Indicator-Filled">
	<path d="M18.87,6.61c-0.54-2.75-2.75-4.97-5.5-5.49C8.9,0.27,5,3.68,5,7.99c0,1.96,0.82,3.72,2.1,5c1.32,1.32,2.9,3.91,2.9,7v3h2h2
		v-3c0-3.09,1.57-5.68,2.9-7C18.48,11.42,19.35,9.12,18.87,6.61z M12,11c-1.66,0-3-1.34-3-3s1.34-3,3-3s3,1.34,3,3S13.66,11,12,11z"
		/>
</g>
</svg>
