<?xml version="1.0" encoding="utf-8"?>
<!-- Generator: Adobe Illustrator 19.0.0, SVG Export Plug-In . SVG Version: 6.00 Build 0)  -->
<svg version="1.1" id="XMLID_68_" xmlns="http://www.w3.org/2000/svg" xmlns:xlink="http://www.w3.org/1999/xlink" x="0px" y="0px"
	 viewBox="-19 20 24 26" style="enable-background:new -19 20 24 26;" xml:space="preserve">
<g id="indicator">
	<g>
		<path d="M-4,45h-6v-4c0-2.7-1.4-5.1-2.6-6.3c-1.5-1.5-2.4-3.6-2.4-5.7c0-2.4,1.1-4.6,2.9-6.2c1.8-1.5,4.3-2.1,6.7-1.7
			c3.1,0.6,5.7,3.1,6.3,6.3c0.5,2.7-0.3,5.3-2.2,7.3C-2.6,35.9-4,38.3-4,41V45z M-8,43h2v-2c0-3.3,1.6-6.2,3.2-7.7
			c1.5-1.5,2.1-3.5,1.7-5.5c-0.5-2.4-2.4-4.3-4.7-4.7c-1.8-0.3-3.6,0.1-5,1.3c-1.4,1.1-2.2,2.8-2.2,4.6c0,1.6,0.6,3.1,1.8,4.3
			C-9.6,34.8-8,37.7-8,41V43z M-7,33c-2.2,0-4-1.8-4-4s1.8-4,4-4s4,1.8,4,4S-4.8,33-7,33z M-7,27c-1.1,0-2,0.9-2,2s0.9,2,2,2
			s2-0.9,2-2S-5.9,27-7,27z"/>
	</g>
</g>
</svg>
