<?xml version="1.0" encoding="utf-8"?>
<!-- Generator: Adobe Illustrator 19.0.0, SVG Export Plug-In . SVG Version: 6.00 Build 0)  -->
<svg version="1.1" id="XMLID_233_" xmlns="http://www.w3.org/2000/svg" xmlns:xlink="http://www.w3.org/1999/xlink" x="0px" y="0px"
	 viewBox="-19 20 24 26" style="enable-background:new -19 20 24 26;" xml:space="preserve">
<g id="information">
	<g>
		<path d="M-7,45c-2.2,0-4-1.8-4-4v-2.6c0-1.4-0.6-2.7-1.5-3.6c-1.6-1.5-2.5-3.6-2.5-5.8s0.9-4.2,2.4-5.7C-11,21.8-9,21-6.8,21
			c4.2,0.1,7.7,3.6,7.8,7.7c0.1,2.3-0.8,4.4-2.4,5.9c-1,1-1.6,2.3-1.6,3.7V41C-3,43.2-4.8,45-7,45z M-9,40v1c0,1.1,0.9,2,2,2
			s2-0.9,2-2v-1H-9z M-9,38h4c0.1-1.8,0.9-3.4,2.2-4.7c1.2-1.2,1.8-2.8,1.8-4.5c-0.1-3.1-2.7-5.7-5.9-5.8c-1.6,0-3.2,0.6-4.3,1.7
			c-1.2,1.1-1.8,2.7-1.8,4.3c0,1.7,0.7,3.2,1.8,4.3C-9.9,34.6-9.1,36.2-9,38z"/>
	</g>
</g>
</svg>
