<?xml version="1.0" encoding="utf-8"?>
<!-- Generator: Adobe Illustrator 19.0.0, SVG Export Plug-In . SVG Version: 6.00 Build 0)  -->
<svg version="1.1" id="XMLID_275_" xmlns="http://www.w3.org/2000/svg" xmlns:xlink="http://www.w3.org/1999/xlink" x="0px" y="0px"
	 viewBox="-19 20 24 26" style="enable-background:new -19 20 24 26;" xml:space="preserve">
<g id="language">
	<g>
		<path d="M-7,45c-6.6,0-12-5.4-12-12s5.4-12,12-12S5,26.4,5,33S-0.4,45-7,45z M-9.5,38c0.6,3.1,1.7,5,2.5,5s1.9-1.9,2.5-5H-9.5z
			 M-2.4,38c-0.3,1.7-0.8,3.3-1.4,4.5c2.3-0.8,4.3-2.4,5.5-4.5H-2.4z M-15.7,38c1.2,2.1,3.2,3.7,5.5,4.5c-0.6-1.2-1.1-2.8-1.4-4.5
			H-15.7z M-2.1,36h4.7C2.8,35.1,3,34,3,33s-0.2-2.1-0.5-3h-4.7C-2,31-2,32-2,33S-2,35-2.1,36z M-9.8,36h5.7c0.1-0.9,0.2-1.9,0.2-3
			s-0.1-2.1-0.2-3h-5.7c-0.1,0.9-0.2,1.9-0.2,3C-10,34.1-9.9,35.1-9.8,36z M-16.5,36h4.7c-0.1-1-0.1-2-0.1-3s0-2,0.1-3h-4.7
			c-0.3,0.9-0.5,2-0.5,3S-16.8,35.1-16.5,36z M-2.4,28h4.1c-1.2-2.1-3.2-3.7-5.5-4.5C-3.2,24.7-2.7,26.3-2.4,28z M-9.5,28h5.1
			c-0.6-3.1-1.7-5-2.5-5S-8.9,24.9-9.5,28z M-15.7,28h4.1c0.3-1.7,0.8-3.3,1.4-4.5C-12.5,24.3-14.4,25.9-15.7,28z"/>
	</g>
</g>
</svg>
