<?xml version="1.0" encoding="utf-8"?>
<!-- Generator: Adobe Illustrator 22.1.0, SVG Export Plug-In . SVG Version: 6.00 Build 0)  -->
<svg version="1.1" id="Filled_Icons" xmlns="http://www.w3.org/2000/svg" xmlns:xlink="http://www.w3.org/1999/xlink" x="0px"
	 y="0px" viewBox="0 0 24 24" enable-background="new 0 0 24 24" xml:space="preserve">
<g id="Licence-Filled">
	<path d="M12.74,8.74C12.91,8.19,13,7.6,13,7c0-3.31-2.69-6-6-6S1,3.69,1,7s2.69,6,6,6c0.88,0,1.72-0.19,2.47-0.53L10,13v3h3v3h3v2
		l2,2h5v-4L12.74,8.74z M6,8C4.9,8,4,7.1,4,6s0.9-2,2-2s2,0.9,2,2S7.1,8,6,8z"/>
</g>
</svg>
