<?xml version="1.0" encoding="utf-8"?>
<!-- Generator: Adobe Illustrator 19.0.0, SVG Export Plug-In . SVG Version: 6.00 Build 0)  -->
<svg version="1.1" id="XMLID_128_" xmlns="http://www.w3.org/2000/svg" xmlns:xlink="http://www.w3.org/1999/xlink" x="0px" y="0px"
	 viewBox="-19 20 24 26" style="enable-background:new -19 20 24 26;" xml:space="preserve">
<g id="location-pin">
	<g>
		<path d="M-7,45.1l-0.6-0.4C-8,44.4-17,38.1-17,30.9c0-5.5,4.5-10,10-10s10,4.5,10,10c0,7.2-9,13.5-9.4,13.8L-7,45.1z M-7,22.9
			c-4.4,0-8,3.6-8,8c0,5.2,6.1,10.3,8,11.8c1.9-1.5,8-6.6,8-11.8C1,26.5-2.6,22.9-7,22.9z M-7,34.9c-2.2,0-4-1.8-4-4s1.8-4,4-4
			s4,1.8,4,4S-4.8,34.9-7,34.9z M-7,28.9c-1.1,0-2,0.9-2,2s0.9,2,2,2s2-0.9,2-2S-5.9,28.9-7,28.9z"/>
	</g>
</g>
</svg>
