<svg id="Icons_stroked" data-name="Icons stroked" xmlns="http://www.w3.org/2000/svg" viewBox="0 0 24 24">
  <title>news-aggregation</title>
  <g id="news-aggregation">
    <rect x="9" y="4" width="11" height="2"/>
    <rect x="9" y="8" width="7" height="2"/>
    <path d="M4,19h6V17H6.662A3.487,3.487,0,0,0,7,15.5V2H22V15.5A1.5,1.5,0,0,1,20.5,17H18v2h2.5A3.5,3.5,0,0,0,24,15.5V0H5V4H0V15.5A3.5,3.5,0,0,0,3.5,19M5,15.5a1.5,1.5,0,0,1-3,0V6H5Z"/>
    <path d="M15,16h2.5L14,11l-3.5,5H13c0,2.479-2.586,6-5,6H6v2H8c2.416,0,4.731-2.025,6-4.411C15.269,21.975,17.584,24,20,24h2V22H20C17.586,22,15,18.479,15,16Z"/>
  </g>
</svg>
