<svg id="Icons_stroked" data-name="Icons stroked" xmlns="http://www.w3.org/2000/svg" viewBox="0 0 24 24">
  <title>news</title>
  <g id="news">
    <polygon points="22 22 4 22 4 24 24 24 24 21 22 21 22 22"/>
    <path d="M18.414,0H4V9H6V2H16V8h6v3h2V5.586ZM18,6V2.414L21.586,6Z"/>
    <polygon points="5.999 20 5.999 12 4 12 4 15.926 2 12 0.002 12 0.002 20 2 20 2 15.914 4 20 5.999 20"/>
    <polygon points="12 12 12 20 14 20 15 18 16 20 18 20 18 12 16 12 16 16 15 14 14 16 14 12 12 12"/>
    <polygon points="11 14 11 12 9 12 8 12 7 12 7 20 8 20 9 20 11 20 11 18 9 18 9 17 10 17 10 15 9 15 9 14 11 14"/>
    <path d="M21,12a2.288,2.288,0,0,0-2,2.5A2.288,2.288,0,0,0,21,17h.553c.642,0,.578,1,0,1H19v2h2.673A2.337,2.337,0,0,0,24,17.5C24,15,22.573,15,21.573,15a.5.5,0,1,1,0-1H24V12H21Z"/>
  </g>
</svg>
