<?xml version="1.0" encoding="utf-8"?>
<!-- Generator: Adobe Illustrator 23.0.3, SVG Export Plug-In . SVG Version: 6.00 Build 0)  -->
<svg version="1.1" xmlns="http://www.w3.org/2000/svg" xmlns:xlink="http://www.w3.org/1999/xlink" x="0px" y="0px"
	 viewBox="0 0 24 24" enable-background="new 0 0 24 24" xml:space="preserve">
<g id="news-content">
	<rect x="15" y="4" width="5" height="6"/>
	<path d="M5,0v19h14.5c2.5,0,4.5-2,4.5-4.5V0H5z M22,14.5c0,1.5-1,2.5-2.5,2.5H7V2h15V14.5z"/>
	<rect x="9" y="4" width="4" height="2"/>
	<rect x="9" y="8" width="4" height="2"/>
	<rect x="9" y="12" width="11" height="2"/>
	<polygon points="0,17 4,14 0,11 	"/>
	<polygon points="0,8 4,5 0,2 	"/>
	<polygon points="16,24 22,24 19,20 	"/>
	<polygon points="7,24 13,24 10,20 	"/>
</g>
</svg>
