<?xml version="1.0" encoding="utf-8"?>
<!-- Generator: Adobe Illustrator 23.0.3, SVG Export Plug-In . SVG Version: 6.00 Build 0)  -->
<svg version="1.1" xmlns="http://www.w3.org/2000/svg" xmlns:xlink="http://www.w3.org/1999/xlink" x="0px" y="0px"
	 viewBox="0 0 24 24" enable-background="new 0 0 24 24" xml:space="preserve">
<g id="news-aggregation">
	<rect x="9" y="4" width="11" height="2"/>
	<rect x="9" y="8" width="7" height="2"/>
	<path d="M4,19h6v-2H6.662C6.878,16.545,7,16.037,7,15.5V2h15v13.5c0,0.827-0.673,1.5-1.5,1.5H18v2h2.5c1.93,0,3.5-1.57,3.5-3.5V0H5
		v4H0v11.5C0,17.43,1.57,19,3.5,19 M5,15.5C5,16.327,4.327,17,3.5,17S2,16.327,2,15.5V6h3V15.5z"/>
	<path d="M15,16h2.5L14,11l-3.5,5H13c0,2.479-2.586,6-5,6H6v2h2c2.416,0,4.731-2.025,6-4.411C15.269,21.975,17.584,24,20,24h2v-2h-2
		C17.586,22,15,18.479,15,16z"/>
</g>
</svg>
