<?xml version="1.0" encoding="utf-8"?>
<!-- Generator: Adobe Illustrator 19.0.0, SVG Export Plug-In . SVG Version: 6.00 Build 0)  -->
<svg version="1.1" id="XMLID_20_" xmlns="http://www.w3.org/2000/svg" xmlns:xlink="http://www.w3.org/1999/xlink" x="0px" y="0px"
	 viewBox="-19 20 24 26" style="enable-background:new -19 20 24 26;" xml:space="preserve">
<g id="payment-google-wallet">
	<path id="path34" d="M-9.5,31.8c-1.4-1.9-3.3-3.5-5.4-4.7c-0.3-0.2-0.7-0.3-1.1-0.3c-0.8,0-1.6,0.5-2,1.2c-0.6,1.1-0.2,2.5,0.9,3.1
		c3.3,1.8,5.5,5.2,5.7,9.1l0,0c0-0.4,0-0.9,0.2-1.3c0-0.1,0.1-0.1,0.1-0.2c1-1.7,1.6-3.7,1.6-5.7C-9.5,32.6-9.5,32.2-9.5,31.8"/>
	<path id="path36" d="M3.6,27.5c-0.4-1.8-1-3.5-1.8-5.1C1.4,21.5,0.5,21-0.5,21c-0.4,0-0.7,0.1-1.1,0.2c-1.3,0.6-1.8,2.1-1.2,3.3
		c1.3,2.7,1.9,5.5,1.9,8.5c0,2.9-0.6,5.8-1.9,8.4c0,0-0.2,0.5-0.2,1c0,0.2,0,0.4,0.1,0.6c0.2,0.7,0.6,1.4,1.4,1.7
		C-1.2,45-0.8,45-0.4,45c0.9,0,1.8-0.5,2.2-1.3c0.5-0.9,1-2.2,1.4-3.8c0.1-0.5,0.3-0.9,0.4-1.4C4,36.7,4.2,34.9,4.2,33
		C4.2,31.2,4,29.3,3.6,27.5"/>
	<path id="path38" d="M-7,24.9c0-0.1-0.1-0.1-0.1-0.2c-0.2-0.2-0.4-0.4-0.6-0.6c-0.4-0.2-0.8-0.4-1.3-0.4c-0.4,0-0.6,0.1-0.9,0.2
		c-0.3,0.1-0.6,0.3-0.9,0.6c-0.3,0.3-0.4,0.6-0.5,0.9c-0.2,0.6-0.2,1.4,0.2,2c0.8,1.3,1.3,2.9,1.5,4.4c0.1,0.4,0.1,0.8,0.1,1.3
		c0,2-0.5,4-1.6,5.7c0,0.1-0.1,0.1-0.1,0.2c-0.2,0.4-0.3,0.9-0.2,1.3c0.1,0.7,0.5,1.4,1.1,1.8c0.2,0.1,0.4,0.2,0.5,0.2
		c0.2,0.1,0.5,0.1,0.7,0.1c0.8,0,1.6-0.4,2-1.1c1.3-2.2,2.1-4.6,2.2-7.1c0-0.3,0-0.7,0-1C-4.7,30.1-5.5,27.3-7,24.9"/>
	<path id="path40" d="M-2.7,41.4c1.3-2.6,1.9-5.5,1.9-8.4c0-1-0.1-1.7-0.1-2.2c-1.6-2.6-4-5-6.8-6.7c0,0,0.1,0,0.1,0.1
		c0.2,0.1,0.3,0.3,0.5,0.5c0,0.1,0.1,0.1,0.1,0.2c1.5,2.5,2.3,5.3,2.3,8.1c0,0.3,0,0.7,0,1c1.2,2.3,1.8,4.8,1.8,7.5
		c0,0.2,0,0.6,0,0.8c0-0.3,0.1-0.6,0.2-0.8C-2.7,41.5-2.7,41.4-2.7,41.4"/>
</g>
</svg>
