<?xml version="1.0" encoding="utf-8"?>
<!-- Generator: Adobe Illustrator 19.0.0, SVG Export Plug-In . SVG Version: 6.00 Build 0)  -->
<svg version="1.1" id="XMLID_9_" xmlns="http://www.w3.org/2000/svg" xmlns:xlink="http://www.w3.org/1999/xlink" x="0px" y="0px"
	 viewBox="-19 20 24 26" style="enable-background:new -19 20 24 26;" xml:space="preserve">
<g id="platform-dropbox">
	<polygon points="-3,22.4 -7,24.4 1,28.4 5,26.4 	"/>
	<polygon points="-3,36.1 -3.7,35.8 -7,34.1 -10.3,35.8 -11,36.1 -11.7,35.8 -15,34.1 -15,39.5 -7,43.5 -7,43.5 1,39.5 1,34.1 
		-2.3,35.8 	"/>
	<polygon points="-11,34.5 -7,32.5 -15,28.4 -7,24.4 -11,22.4 -19,26.4 -15,28.4 -19,30.4 	"/>
	<polygon points="-7,32.5 -3,34.5 5,30.4 1,28.4 	"/>
</g>
</svg>
