<?xml version="1.0" encoding="utf-8"?>
<!-- Generator: Adobe Illustrator 23.1.1, SVG Export Plug-In . SVG Version: 6.00 Build 0)  -->
<svg version="1.1" id="platform-kubernetes" xmlns="http://www.w3.org/2000/svg" xmlns:xlink="http://www.w3.org/1999/xlink"
	 x="0px" y="0px" viewBox="0 0 24 24" enable-background="new 0 0 24 24" xml:space="preserve">
<path d="M16.05,10.28c0.49,0.76,0.78,1.65,0.78,2.62c0,0.07-0.02,0.13-0.02,0.19l-3.1-0.72c-0.36-0.08-0.71,0.14-0.8,0.5
	c-0.08,0.36,0.14,0.71,0.5,0.8l3.15,0.73c-0.33,0.99-0.96,1.85-1.79,2.44l-1.47-3.03c-0.16-0.33-0.56-0.47-0.89-0.31
	c-0.33,0.16-0.47,0.56-0.31,0.89l1.48,3.05c-0.5,0.18-1.03,0.29-1.59,0.29c-0.56,0-1.08-0.11-1.58-0.29l1.48-3.05
	c0.16-0.33,0.02-0.73-0.31-0.89c-0.33-0.16-0.73-0.02-0.89,0.31l-1.47,3.03c-0.84-0.59-1.47-1.45-1.8-2.45l3.16-0.73
	c0.36-0.08,0.58-0.44,0.5-0.8c-0.08-0.36-0.44-0.58-0.8-0.5l-3.1,0.72c0-0.07-0.02-0.13-0.02-0.2c0-0.97,0.29-1.87,0.78-2.62
	l2.38,1.9c0.12,0.1,0.27,0.15,0.41,0.15c0.2,0,0.39-0.09,0.52-0.25c0.23-0.29,0.18-0.71-0.11-0.93L8.82,9.27
	c0.69-0.61,1.55-1.01,2.51-1.15V11c0,0.37,0.3,0.67,0.67,0.67s0.67-0.3,0.67-0.67V8.13c0.96,0.13,1.81,0.54,2.51,1.15l-2.33,1.85
	c-0.29,0.23-0.33,0.65-0.11,0.93c0.13,0.17,0.32,0.25,0.52,0.25c0.15,0,0.29-0.05,0.41-0.15L16.05,10.28z M23.58,16.31
	c-0.7,0.86-2.08,2.58-2.08,2.58l-2.07,2.58c0,0-1.03,1.29-1.55,1.93c-0.31,0.38-0.71,0.59-1.2,0.59c-1.56,0.01-4.68,0-4.68,0
	s0,0,0,0c-1.51,0-3.01-0.01-4.52,0C6.85,24,6.38,23.76,6.01,23.28c-0.6-0.76-1.82-2.27-1.82-2.27L2.2,18.54c0,0-1.2-1.51-1.81-2.25
	c-0.39-0.48-0.47-1-0.33-1.59c0.38-1.62,1.13-4.88,1.13-4.88s0.6-2.61,0.9-3.92c0.12-0.51,0.43-0.86,0.9-1.08l8.26-3.95
	c0.48-0.23,0.97-0.24,1.45-0.01c2.19,1.05,6.58,3.14,6.58,3.14s1.07,0.52,1.61,0.77c0.58,0.26,0.9,0.69,1.04,1.31
	c0.35,1.57,1.08,4.72,1.08,4.72s0.63,2.74,0.94,4.11C24.08,15.44,23.91,15.9,23.58,16.31z M20.15,13.86l-2.02-0.47
	c0.01-0.17,0.03-0.33,0.03-0.5c0-1.28-0.39-2.47-1.06-3.46l1.74-1.39c0.29-0.23,0.33-0.65,0.11-0.93c-0.23-0.29-0.65-0.34-0.93-0.11
	l-1.78,1.42c-0.95-0.91-2.19-1.51-3.57-1.66V4.39c0-0.37-0.3-0.67-0.67-0.67s-0.67,0.3-0.67,0.67v2.37
	C9.95,6.92,8.71,7.52,7.76,8.43L5.98,7.01C5.7,6.78,5.28,6.83,5.05,7.12C4.82,7.41,4.87,7.83,5.16,8.05l1.74,1.38
	c-0.67,0.99-1.06,2.18-1.06,3.46c0,0.17,0.01,0.34,0.03,0.5l-2.01,0.47c-0.36,0.08-0.58,0.44-0.5,0.8C3.42,14.97,3.7,15.18,4,15.18
	c0.05,0,0.1-0.01,0.15-0.02l1.95-0.45c0.43,1.39,1.34,2.57,2.53,3.35l-0.83,1.7c-0.16,0.33-0.02,0.73,0.31,0.89
	c0.09,0.05,0.19,0.07,0.29,0.07c0.25,0,0.48-0.14,0.6-0.37l0.82-1.68c0.68,0.26,1.41,0.4,2.17,0.4c0.77,0,1.5-0.15,2.18-0.41
	l0.82,1.68c0.12,0.24,0.35,0.37,0.6,0.37c0.1,0,0.2-0.02,0.29-0.07c0.33-0.16,0.47-0.56,0.31-0.89l-0.83-1.7
	c1.19-0.78,2.1-1.96,2.53-3.35l1.96,0.46c0.05,0.01,0.1,0.02,0.15,0.02c0.3,0,0.58-0.21,0.65-0.51
	C20.73,14.31,20.51,13.95,20.15,13.86z"/>
</svg>
