<?xml version="1.0" encoding="utf-8"?>
<!-- Generator: Adobe Illustrator 19.0.0, SVG Export Plug-In . SVG Version: 6.00 Build 0)  -->
<svg version="1.1" id="XMLID_280_" xmlns="http://www.w3.org/2000/svg" xmlns:xlink="http://www.w3.org/1999/xlink" x="0px" y="0px"
	 viewBox="-19 20 24 26" style="enable-background:new -19 20 24 26;" xml:space="preserve">
<g id="radial-selected">
	<g>
		<path d="M-7,45c-6.6,0-12-5.4-12-12s5.4-12,12-12S5,26.4,5,33S-0.4,45-7,45z M-7,23c-5.5,0-10,4.5-10,10s4.5,10,10,10S3,38.5,3,33
			S-1.5,23-7,23z"/>
	</g>
	<g>
		<path d="M-7,37c-2.2,0-4-1.8-4-4s1.8-4,4-4s4,1.8,4,4S-4.8,37-7,37z"/>
	</g>
</g>
</svg>
