<?xml version="1.0" encoding="utf-8"?>
<!-- Generator: Adobe Illustrator 23.0.3, SVG Export Plug-In . SVG Version: 6.00 Build 0)  -->
<svg version="1.1" xmlns="http://www.w3.org/2000/svg" xmlns:xlink="http://www.w3.org/1999/xlink" x="0px" y="0px"
	 viewBox="0 0 24 24" enable-background="new 0 0 24 24" xml:space="preserve">
<g id="save-filled">
	<path d="M19,0H1C0.448,0,0,0.448,0,1v22c0,0.552,0.448,1,1,1h22c0.552,0,1-0.448,1-1V5L19,0z M6,3c0-0.552,0.448-1,1-1h10
		c0.552,0,1,0.448,1,1v6c0,0.552-0.448,1-1,1H7c-0.552,0-1-0.448-1-1V3z M20,22H4v-7c0-0.552,0.448-1,1-1h14c0.552,0,1,0.448,1,1V22
		z"/>
	<path d="M16,9h-4V3h4V9z"/>
</g>
</svg>
