<?xml version="1.0" encoding="utf-8"?>
<!-- Generator: Adobe Illustrator 23.0.3, SVG Export Plug-In . SVG Version: 6.00 Build 0)  -->
<svg version="1.1" xmlns="http://www.w3.org/2000/svg" xmlns:xlink="http://www.w3.org/1999/xlink" x="0px" y="0px"
	 viewBox="0 0 24 24" enable-background="new 0 0 24 24" xml:space="preserve">
<g id="save">
	<path d="M22.083,24H1.917C0.86,24,0,23.14,0,22.083V1.917C0,0.86,0.86,0,1.917,0h16.914L24,5.169v16.914
		C24,23.14,23.14,24,22.083,24z M20,22h2V5.998l-3-3V9c0,1.103-0.897,2-2,2H7c-1.103,0-2-0.897-2-2V2H2v20h2v-7c0-1.103,0.897-2,2-2
		h12c1.103,0,2,0.897,2,2V22z M6,22h12v-7.001L6,15V22z M7,2v7h10V2H7z"/>
	<path d="M15,8h-4V3h4V8z"/>
</g>
</svg>
