<?xml version="1.0" encoding="utf-8"?>
<!-- Generator: Adobe Illustrator 23.1.1, SVG Export Plug-In . SVG Version: 6.00 Build 0)  -->
<svg version="1.1" id="Icon" xmlns="http://www.w3.org/2000/svg" xmlns:xlink="http://www.w3.org/1999/xlink" x="0px" y="0px"
	 viewBox="0 0 24 24" enable-background="new 0 0 24 24" xml:space="preserve">
<path d="M18,19h-1.67l-1.73-1.3l-1.2,1.6l2.27,1.7H18v2h6v-6h-6V19z M20,19h2v2h-2V19z"/>
<path d="M18,11h-3v2h3v2h6V9h-6V11z M20,11h2v2h-2V11z"/>
<path d="M18,1v2h-2.33L13.4,4.7l1.2,1.6L16.33,5H18v2h6V1H18z M22,5h-2V3h2V5z"/>
<path d="M14,12.5V12V8c0-2.28-3.01-4-7-4S0,5.72,0,8v4v0.5v4C0,18.8,3.52,20,7,20s7-1.2,7-3.5V12.5z M7,6c3.05,0,5,1.18,5,2
	s-1.95,2-5,2S2,8.82,2,8S3.95,6,7,6z M2,10.85C3.25,11.57,5,12,7,12s3.75-0.43,5-1.15V12v0.5c0,0.39-1.72,1.5-5,1.5s-5-1.11-5-1.5
	V12V10.85z M7,18c-3.28,0-5-1.11-5-1.5v-1.49C3.33,15.66,5.17,16,7,16s3.67-0.34,5-0.99v1.49C12,16.89,10.28,18,7,18z"/>
</svg>
