<?xml version="1.0" encoding="utf-8"?>
<!-- Generator: Adobe Illustrator 19.0.0, SVG Export Plug-In . SVG Version: 6.00 Build 0)  -->
<svg version="1.1" id="XMLID_93_" xmlns="http://www.w3.org/2000/svg" xmlns:xlink="http://www.w3.org/1999/xlink" x="0px" y="0px"
	 viewBox="-19 20 24 26" style="enable-background:new -19 20 24 26;" xml:space="preserve">
<g id="sheild-configure">
	<g>
		<path d="M-7,45l-4.6-3.7c-3.4-3.1-5.4-7.4-5.4-12v-3.5l10-4.9l10,4.9v3.5c0,4.6-2,8.9-5.4,12L-7,45z M-15,27v2.2
			c0,4,1.7,7.8,4.7,10.5l3.3,2.7l3.3-2.7c3-2.6,4.7-6.4,4.7-10.4V27l-8-3.9L-15,27z M-6,38h-2V36c-0.4-0.1-0.7-0.2-1-0.4l-1.5,1.5
			l-1.4-1.4l1.5-1.5c-0.2-0.3-0.3-0.7-0.4-1H-13v-2h2.1c0.1-0.4,0.2-0.7,0.4-1l-1.5-1.5l1.4-1.4l1.5,1.5c0.3-0.2,0.7-0.3,1-0.4V26h2
			v2.1c0.4,0.1,0.7,0.2,1,0.4l1.5-1.5l1.4,1.4L-3.6,30c0.2,0.3,0.3,0.7,0.4,1H-1v2h-2.1c-0.1,0.4-0.2,0.7-0.4,1l1.5,1.5L-3.5,37
			L-5,35.5c-0.3,0.2-0.7,0.3-1,0.4V38z M-7,30c-1.1,0-2,0.9-2,2c0,1.1,0.9,2,2,2s2-0.9,2-2S-5.9,30-7,30z"/>
	</g>
</g>
</svg>
