<?xml version="1.0" encoding="utf-8"?>
<!-- Generator: Adobe Illustrator 19.0.0, SVG Export Plug-In . SVG Version: 6.00 Build 0)  -->
<svg version="1.1" id="XMLID_29_" xmlns="http://www.w3.org/2000/svg" xmlns:xlink="http://www.w3.org/1999/xlink" x="0px" y="0px"
	 viewBox="-19 20 24 26" style="enable-background:new -19 20 24 26;" xml:space="preserve">
<g id="social-github">
	<path d="M4,34.8c0,4.6-2.7,8.3-11,8.3s-11-3.7-11-8.3c0-2,0.5-3.8,1.6-5.2c-0.3-0.9-1-3.6,0.8-6.7c3.3,0.8,4.9,2.9,5.5,3.9
		c0.9-0.1,2-0.2,3.1-0.2s2.2,0.1,3.1,0.2c0.6-1,2.2-3.1,5.5-3.9c1.9,3.2,1.1,6,0.7,6.8C3.5,31.1,4,32.9,4,34.8z M0.2,34.1
		c-1.7-0.9-3.8-1-7.2-1s-5.5,0.2-7.2,1c-2.1,1-2.1,4.5,0,5.8c1.5,1,3.5,1.7,7.2,1.7s5.7-0.7,7.2-1.7C2.3,38.6,2.3,35.2,0.2,34.1z
		 M-3.6,34.5c-1.4,0-2.1,1.2-2.1,2.8c0,1.5,0.6,2.8,2.1,2.8s2.1-1.2,2.1-2.8C-1.5,35.7-2.1,34.5-3.6,34.5z M-10.4,34.5
		c-1.4,0-2.1,1.2-2.1,2.8c0,1.5,0.6,2.8,2.1,2.8s2.1-1.2,2.1-2.8C-8.4,35.7-9,34.5-10.4,34.5z"/>
</g>
</svg>
