<?xml version="1.0" encoding="utf-8"?>
<!-- Generator: Adobe Illustrator 19.0.0, SVG Export Plug-In . SVG Version: 6.00 Build 0)  -->
<svg version="1.1" id="XMLID_10_" xmlns="http://www.w3.org/2000/svg" xmlns:xlink="http://www.w3.org/1999/xlink" x="0px" y="0px"
	 viewBox="-19 21 24 24" style="enable-background:new -19 21 24 24;" xml:space="preserve">
<g>
	<path d="M5,25.9H4.1c-0.3,0-0.9,0.5-0.9,0.9v12.4c0,0.3,0.5,0.8,0.9,0.8H5V43h-8.6v-2.9h1.8V27h-0.1l-4.2,16h-3.3l-4.1-16h-0.1v13
		h1.8V43H-19v-2.9h0.9c0.4,0,0.9-0.5,0.9-0.8V26.8c0-0.3-0.5-0.9-0.9-0.9H-19V23h9l3,11.6H-7L-4,23h9V25.9"/>
</g>
</svg>
