<?xml version="1.0" encoding="utf-8"?>
<!-- Generator: Adobe Illustrator 19.0.0, SVG Export Plug-In . SVG Version: 6.00 Build 0)  -->
<svg version="1.1" id="XMLID_25_" xmlns="http://www.w3.org/2000/svg" xmlns:xlink="http://www.w3.org/1999/xlink" x="0px" y="0px"
	 viewBox="-19 20 24 26" style="enable-background:new -19 20 24 26;" xml:space="preserve">
<g id="social-reddit">
	<path d="M4.9,32.8c0-1.5-1.2-2.7-2.6-2.7c-0.7,0-1.3,0.3-1.8,0.7c-1.7-1.2-4.1-2-6.7-2.2l1.2-3.9l3.6,0.7c0.1,1.2,1.1,2.2,2.4,2.2
		l0,0l0,0c1.3,0,2.4-1.1,2.4-2.4S2.3,22.8,1,22.8l0,0l0,0c-0.9,0-1.7,0.5-2.1,1.3l-4.8-1l-1.6,5.5h-0.1c-2.7,0.1-5.1,0.9-6.9,2.2
		c-0.5-0.4-1.1-0.7-1.8-0.7c-1.5,0-2.6,1.2-2.6,2.7c0,1,0.6,2,1.4,2.4c0,0.3-0.1,0.5-0.1,0.8c0,4.1,4.8,7.3,10.6,7.3S3.6,40,3.6,36
		c0-0.3,0-0.5-0.1-0.8C4.3,34.8,4.9,33.9,4.9,32.8z M-17.3,33.9c-0.4-0.2-0.6-0.6-0.6-1.1c0-0.7,0.6-1.3,1.3-1.3
		c0.3,0,0.6,0.1,0.8,0.3C-16.4,32.3-17,33.1-17.3,33.9z M0,25.2c0-0.5,0.4-0.9,0.9-0.9s0.9,0.4,0.9,0.9s-0.4,0.9-0.9,0.9
		S0,25.7,0,25.2z M-12.3,34.8c0-0.9,0.8-1.7,1.7-1.7s1.7,0.8,1.7,1.7s-0.8,1.7-1.7,1.7S-12.3,35.8-12.3,34.8z M-7.1,40.9
		c-2.8,0-4.5-1.7-4.6-1.8l0.7-0.7c0,0,1.4,1.4,3.8,1.4s3.8-1.4,3.8-1.4l0.7,0.7C-2.6,39.2-4.3,40.9-7.1,40.9z M-3.6,36.5
		c-0.9,0-1.7-0.8-1.7-1.7S-4.5,33-3.6,33s1.7,0.8,1.7,1.7C-1.9,35.8-2.6,36.5-3.6,36.5z M3.1,33.9c-0.3-0.8-0.8-1.6-1.6-2.2
		c0.2-0.2,0.5-0.3,0.8-0.3c0.7,0,1.3,0.6,1.3,1.4C3.7,33.3,3.4,33.7,3.1,33.9z"/>
</g>
</svg>
