<?xml version="1.0" encoding="utf-8"?>
<!-- Generator: Adobe Illustrator 19.0.0, SVG Export Plug-In . SVG Version: 6.00 Build 0)  -->
<svg version="1.1" id="XMLID_8_" xmlns="http://www.w3.org/2000/svg" xmlns:xlink="http://www.w3.org/1999/xlink" x="0px" y="0px"
	 viewBox="-19 20 24 26" style="enable-background:new -19 20 24 26;" xml:space="preserve">
<style type="text/css">
	.st0{fill:#FFFFFF;}
</style>
<g id="social-instagram">
	<g>
		<path d="M1,44h-16c-1.7,0-3-1.3-3-3V25c0-1.7,1.3-3,3-3H1c1.7,0,3,1.3,3,3v16C4,42.7,2.7,44,1,44z M-15,24c-0.6,0-1,0.4-1,1v16
			c0,0.6,0.4,1,1,1H1c0.6,0,1-0.4,1-1V25c0-0.6-0.4-1-1-1H-15z"/>
	</g>
	<g>
		<path d="M3,31h-20v-6c0-1.1,0.9-2,2-2H1c1.1,0,2,0.9,2,2V31z"/>
	</g>
	<g>
		<path class="st0" d="M0.5,28.4h-2c-0.6,0-1-0.4-1-1v-2c0-0.6,0.4-1,1-1h2c0.6,0,1,0.4,1,1v2C1.5,28,1.1,28.4,0.5,28.4z"/>
	</g>
	<g>
		<circle class="st0" cx="-7" cy="33" r="5"/>
		<path d="M-7,39c-3.3,0-6-2.7-6-6s2.7-6,6-6s6,2.7,6,6S-3.7,39-7,39z M-7,29c-2.2,0-4,1.8-4,4s1.8,4,4,4s4-1.8,4-4S-4.8,29-7,29z"
			/>
	</g>
</g>
</svg>
