<?xml version="1.0" encoding="utf-8"?>
<!-- Generator: Adobe Illustrator 19.0.0, SVG Export Plug-In . SVG Version: 6.00 Build 0)  -->
<svg version="1.1" id="XMLID_297_" xmlns="http://www.w3.org/2000/svg" xmlns:xlink="http://www.w3.org/1999/xlink" x="0px" y="0px"
	 viewBox="-19 20 24 26" style="enable-background:new -19 20 24 26;" xml:space="preserve">
<g id="star_1_">
	<g id="star">
		<path d="M-7,25.5l2.2,4.4l0.6,1.1H-3h3.3l-2.8,2.9l-0.8,0.8l0.3,1.1l1.2,5L-6,38.2l-1-0.6l-1,0.6l-4.3,2.6l1.2-5l0.3-1.1l-0.8-0.8
			l-2.8-2.9h3.3h1.2l0.6-1.1L-7,25.5 M-7,21l-4,8h-8l6,6.3l-2.4,9.7l8.4-5.1L1.4,45L-1,35.3L5,29h-8L-7,21L-7,21z"/>
	</g>
</g>
</svg>
