<?xml version="1.0" encoding="utf-8"?>
<!-- Generator: Adobe Illustrator 19.0.0, SVG Export Plug-In . SVG Version: 6.00 Build 0)  -->
<svg version="1.1" id="XMLID_123_" xmlns="http://www.w3.org/2000/svg" xmlns:xlink="http://www.w3.org/1999/xlink" x="0px" y="0px"
	 viewBox="-19 20 24 26" style="enable-background:new -19 20 24 26;" xml:space="preserve">
<g id="sync">
	<path d="M-11.7,44.7l-4.7-4.7l4.7-4.7l1.4,1.4l-2.3,2.3H-3c3.3,0,6-2.7,6-6v-3h2v3c0,4.4-3.6,8-8,8h-9.6l2.3,2.3L-11.7,44.7z
		 M-17,36h-2v-3c0-4.4,3.6-8,8-8h9.6l-2.3-2.3l1.4-1.4L2.4,26l-4.7,4.7l-1.4-1.4l2.3-2.3H-11c-3.3,0-6,2.7-6,6V36z"/>
</g>
</svg>
