<?xml version="1.0" encoding="utf-8"?>
<!-- Generator: Adobe Illustrator 19.0.0, SVG Export Plug-In . SVG Version: 6.00 Build 0)  -->
<svg version="1.1" id="XMLID_88_" xmlns="http://www.w3.org/2000/svg" xmlns:xlink="http://www.w3.org/1999/xlink" x="0px" y="0px"
	 viewBox="-19 20 24 26" style="enable-background:new -19 20 24 26;" xml:space="preserve">
<g id="table">
	<g>
		<path d="M4.5,45h-23V21h23V45z M-2.5,43h5v-4h-5V43z M-9.5,43h5v-4h-5V43z M-16.5,43h5v-4h-5V43z M-2.5,37h5V27h-5v4h5v2h-5V37z
			 M-9.5,37h5v-4h-5V37z M-16.5,37h5v-4h-5V37z M-9.5,31h5v-4h-5V31z M-16.5,31h5v-4h-5V31z M-16.5,25h19v-2h-19V25z"/>
	</g>
</g>
</svg>
