<?xml version="1.0" encoding="utf-8"?>
<!-- Generator: Adobe Illustrator 19.0.0, SVG Export Plug-In . SVG Version: 6.00 Build 0)  -->
<svg version="1.1" id="XMLID_87_" xmlns="http://www.w3.org/2000/svg" xmlns:xlink="http://www.w3.org/1999/xlink" x="0px" y="0px"
	 viewBox="-19 20 24 26" style="enable-background:new -19 20 24 26;" xml:space="preserve">
<g id="table-add">
	<g>
		<path d="M-2.3,43.5c-1.2,0-2.3-0.3-3.3-0.8h-12.9V22.5H1.1V31c2,1.2,3.4,3.4,3.4,5.8C4.5,40.5,1.4,43.5-2.3,43.5z M-2.3,31.7
			c-2.8,0-5.1,2.3-5.1,5s2.3,5,5.1,5s5.1-2.3,5.1-5S0.5,31.7-2.3,31.7z M-10.8,41h3.2c-0.8-0.9-1.3-2.1-1.4-3.4h-1.8V41z M-16.8,41
			h4.3v-3.4h-4.3V41z M-10.8,35.9H-9c0.2-1.3,0.7-2.4,1.4-3.4h-3.2V35.9z M-16.8,35.9h4.3v-3.4h-4.3V35.9z M-10.8,30.9h4.3v-3.4
			h-4.3V30.9z M-16.8,30.9h4.3v-3.4h-4.3V30.9z M-4.9,27.5v3c1.3-0.5,2.9-0.7,4.3-0.3v-2.8H-4.9z M-16.8,25.9h16.2v-1.7h-16.2V25.9z
			 M-1.5,40.1h-1.7v-2.5h-2.6v-1.7h2.6v-2.5h1.7v2.5h2.6v1.7h-2.6V40.1z"/>
	</g>
</g>
</svg>
