<?xml version="1.0" encoding="utf-8"?>
<!-- Generator: Adobe Illustrator 19.0.0, SVG Export Plug-In . SVG Version: 6.00 Build 0)  -->
<svg version="1.1" id="XMLID_119_" xmlns="http://www.w3.org/2000/svg" xmlns:xlink="http://www.w3.org/1999/xlink" x="0px" y="0px"
	 viewBox="-19 20 24 26" style="enable-background:new -19 20 24 26;" xml:space="preserve">
<g id="tesxt-wrap">
	<g>
		<path d="M5,44h-24v-2H5V44z M5,40h-24v-2H5V40z M5,36h-7v-2h7V36z M5,32h-7v-2h7V32z M5,28h-7v-2h7V28z M5,24h-7v-2h7V24z"/>
	</g>
	<g>
		<path d="M-4,36h-15V21.9h15V36z M-17,34h11V23.9h-11V34z"/>
	</g>
	<g>
		<polyline points="-16.8,34 -14,30 -10.8,34.5 		"/>
	</g>
	<g>
		<polyline points="-12.4,34 -9,29 -5.1,34.5 		"/>
	</g>
	<g>
		<circle cx="-14" cy="27" r="2"/>
	</g>
</g>
</svg>
