<?xml version="1.0" encoding="utf-8"?>
<!-- Generator: Adobe Illustrator 19.0.0, SVG Export Plug-In . SVG Version: 6.00 Build 0)  -->
<svg version="1.1" id="XMLID_191_" xmlns="http://www.w3.org/2000/svg" xmlns:xlink="http://www.w3.org/1999/xlink" x="0px" y="0px"
	 viewBox="-19 20 24 26" style="enable-background:new -19 20 24 26;" xml:space="preserve">
<g id="tools">
	<g>
		<path d="M-15.1,43l-3.9-3.9l9.8-9.7l-0.1-0.1c-1.8-1.8-4.7-2.4-4.7-2.5l-1.5-0.4l1.2-1.2c1.5-1.5,3.2-2.3,5-2.3
			c3,0,5.2,2.3,5.3,2.4l3.5,3.5l2-0.4L5,32l-7.2,7.1l-3.6-3.6l0.6-1.9l-0.3-0.3L-15.1,43z M-16.5,39.2l1.3,1.3l8.5-8.5L-8,30.7
			L-16.5,39.2z M-3.7,35l1.6,1.6L2.5,32l-1.6-1.6l-2,0.6l-4.3-4.2c0,0-1.8-1.9-4-1.9c-0.8,0-1.7,0.3-2.5,0.8
			c1.2,0.4,2.7,1.2,3.9,2.4l0,0l4.9,5L-3.7,35z"/>
	</g>
</g>
</svg>
