<?xml version="1.0" encoding="utf-8"?>
<!-- Generator: Adobe Illustrator 19.0.0, SVG Export Plug-In . SVG Version: 6.00 Build 0)  -->
<svg version="1.1" id="XMLID_205_" xmlns="http://www.w3.org/2000/svg" xmlns:xlink="http://www.w3.org/1999/xlink" x="0px" y="0px"
	 viewBox="-19 20 24 26" style="enable-background:new -19 20 24 26;" xml:space="preserve">
<g id="troubleshooting">
	<g>
		<path d="M1.7,45h-3.5l-2.1-7H-1v-4h-4v-2h2v-8c0-1.7,1.3-3,3-3s3,1.3,3,3v8h2v2H1v4h2.8L1.7,45z M-0.3,43h0.5l0.9-3h-2.3L-0.3,43z
			 M-1,32h2v-8c0-0.6-0.4-1-1-1s-1,0.4-1,1V32z M-13,45c-0.8,0-1.6-0.3-2.1-0.9c-0.6-0.5-0.9-1.3-0.9-2.1v-9.8c-1.8-1.1-3-3-3-5.2
			c0-2.4,1.4-4.5,3.6-5.5l1.4-0.6V26h2v-5.1l1.4,0.6c2.2,1,3.6,3.1,3.6,5.5c0,2.2-1.2,4.1-3,5.2V42C-10,43.8-11.3,45-13,45z
			 M-16,24.4c-0.6,0.7-1,1.7-1,2.6c0,1.6,0.9,3,2.4,3.7L-14,31v11c0,0.3,0.1,0.5,0.3,0.7S-13.3,43-13,43c0.6,0,1-0.4,1-1V30.9
			l0.6-0.3C-9.9,30-9,28.6-9,27c0-1-0.4-1.9-1-2.6V28h-6V24.4z"/>
	</g>
</g>
</svg>
