<?xml version="1.0" encoding="utf-8"?>
<!-- Generator: Adobe Illustrator 19.0.0, SVG Export Plug-In . SVG Version: 6.00 Build 0)  -->
<svg version="1.1" id="XMLID_218_" xmlns="http://www.w3.org/2000/svg" xmlns:xlink="http://www.w3.org/1999/xlink" x="0px" y="0px"
	 viewBox="-19 20 24 26" style="enable-background:new -19 20 24 26;" xml:space="preserve">
<style type="text/css">
	.st0{fill:none;}
</style>
<g id="update">
	<g id="_x2E_svg_2_">
		<path class="st0" d="M-19,21"/>
	</g>
	<g>
		<path d="M-7,45c-4.1,0-7.8-2-10-5.4V45h-2v-9h9v2h-5.7c1.8,3.1,5,5,8.7,5c5.5,0,10-4.5,10-10h2C5,39.6-0.4,45-7,45z M-17,33h-2
			c0-6.6,5.4-12,12-12c4.1,0,7.8,2,10,5.4V21h2v9h-9v-2h5.7c-1.8-3.1-5-5-8.7-5C-12.5,23-17,27.5-17,33z"/>
	</g>
</g>
</svg>
