<?xml version="1.0" encoding="utf-8"?>
<!-- Generator: Adobe Illustrator 19.0.0, SVG Export Plug-In . SVG Version: 6.00 Build 0)  -->
<svg version="1.1" id="XMLID_183_" xmlns="http://www.w3.org/2000/svg" xmlns:xlink="http://www.w3.org/1999/xlink" x="0px" y="0px"
	 viewBox="-19 20 24 26" style="enable-background:new -19 20 24 26;" xml:space="preserve">
<g id="user-new">
	<g>
		<path d="M0.6,44.2h-1.9v-4l-3.5,2l-0.9-1.6l3.5-2l-3.5-2l0.9-1.6l3.5,2v-4h1.9v4l3.5-2L5,36.6l-3.5,2l3.5,2l-0.9,1.6l-3.5-2V44.2z
			 M-6.9,44.2H-19v-4.6c0-3.4,2.1-6.3,5-7.6c-1.3-1-2.2-2.6-2.2-4.5c0-3.1,2.5-5.6,5.6-5.6S-5,24.4-5,27.4c0,1.8-0.8,3.4-2.2,4.5
			c0.7,0.3,1.3,0.7,1.9,1.1l-1.2,1.5c-1.1-1-2.5-1.5-4-1.5c-3.6,0-6.5,2.9-6.5,6.5v2.8h10.3V44.2z M-10.6,23.7
			c-2.1,0-3.7,1.7-3.7,3.7s1.7,3.7,3.7,3.7s3.7-1.7,3.7-3.7S-8.5,23.7-10.6,23.7z"/>
	</g>
</g>
</svg>
