<?xml version="1.0" encoding="utf-8"?>
<!-- Generator: Adobe Illustrator 19.0.0, SVG Export Plug-In . SVG Version: 6.00 Build 0)  -->
<svg version="1.1" id="XMLID_185_" xmlns="http://www.w3.org/2000/svg" xmlns:xlink="http://www.w3.org/1999/xlink" x="0px" y="0px"
	 viewBox="-19 20 24 26" style="enable-background:new -19 20 24 26;" xml:space="preserve">
<g id="user-settings">
	<g>
		<path d="M0.4,44h-1.8v-1.9c-0.4-0.1-0.6-0.2-0.9-0.4l-1.4,1.4l-1.3-1.3l1.4-1.4C-3.9,40.1-4,39.8-4,39.5h-2v-1.8h1.9
			C-4,37.3-4,37-3.8,36.8l-1.4-1.4l1.3-1.3l1.5,1.3c0.3-0.2,0.6-0.3,0.9-0.4v-2h1.8v1.9C0.8,35,1,35.1,1.3,35.3l1.4-1.4L4,35.2
			l-1.4,1.5c0.2,0.3,0.3,0.6,0.4,0.9h2v1.8H3.1c-0.1,0.4-0.2,0.6-0.4,0.9l1.4,1.4L2.8,43l-1.5-1.4C1,41.8,0.7,41.9,0.4,42V44z
			 M-0.5,36.7c-1,0-1.8,0.8-1.8,1.8s0.8,1.8,1.8,1.8s1.8-0.8,1.8-1.8S0.5,36.7-0.5,36.7z M-6.6,44H-19v-4.6c0-3.4,2-6.2,5-7.5
			c-1.3-1-2.2-2.6-2.2-4.4c0-3,2.5-5.5,5.5-5.5s5.5,2.5,5.5,5.5c0,1.7-0.8,3.4-2.2,4.4c0.6,0.3,1.3,0.6,1.8,1.1l-1.2,1.5
			c-1.1-1-2.5-1.5-4-1.5c-3.6,0-6.5,2.8-6.5,6.4v2.8h10.5C-6.6,42.2-6.6,44-6.6,44z M-10.7,23.8c-2,0-3.7,1.6-3.7,3.7
			s1.7,3.7,3.7,3.7S-7,29.5-7,27.5S-8.7,23.8-10.7,23.8z"/>
	</g>
</g>
</svg>
