<?xml version="1.0" encoding="utf-8"?>
<!-- Generator: Adobe Illustrator 19.0.0, SVG Export Plug-In . SVG Version: 6.00 Build 0)  -->
<svg version="1.1" id="XMLID_277_" xmlns="http://www.w3.org/2000/svg" xmlns:xlink="http://www.w3.org/1999/xlink" x="0px" y="0px"
	 viewBox="-19 20 24 26" style="enable-background:new -19 20 24 26;" xml:space="preserve">
<g id="user">
	<g>
		<path d="M3,45H1v-5c0-3.9-3.1-7-7-7h-2c-3.9,0-7,3.1-7,7v5h-2v-5c0-3.9,2.5-7.3,6-8.5c-1.2-1.1-2-2.7-2-4.5c0-3.3,2.7-6,6-6
			s6,2.7,6,6c0,1.8-0.8,3.4-2,4.5c3.5,1.2,6,4.6,6,8.5V45z M-7,31c2.2,0,4-1.8,4-4s-1.8-4-4-4s-4,1.8-4,4S-9.2,31-7,31z M-2,45h-2
			v-5h2V45z M-10,45h-2v-5h2V45z"/>
	</g>
</g>
</svg>
