<?xml version="1.0" encoding="utf-8"?>
<!-- Generator: Adobe Illustrator 19.0.0, SVG Export Plug-In . SVG Version: 6.00 Build 0)  -->
<svg version="1.1" id="XMLID_184_" xmlns="http://www.w3.org/2000/svg" xmlns:xlink="http://www.w3.org/1999/xlink" x="0px" y="0px"
	 viewBox="-19 20 24 26" style="enable-background:new -19 20 24 26;" xml:space="preserve">
<g id="user-expert">
	<g>
		<path d="M-6.3,45H-19v-5c0-3.7,2.1-6.8,5.3-8.2c-1.4-1.1-2.3-2.8-2.3-4.8c0-3.3,2.6-6,5.9-6s5.9,2.7,5.9,6c0,1.9-0.9,3.7-2.3,4.8
			c1.7,0.8,3.1,2.1,4.1,3.7l-1.7,1c-1.3-2.2-3.5-3.5-6-3.5c-3.8,0-6.8,3.1-6.8,7v3h10.7V45z M-10.2,23c-2.1,0-3.9,1.8-3.9,4
			s1.8,4,3.9,4s3.9-1.8,3.9-4S-8.1,23-10.2,23z M-2.4,44.4L-7,39.7l1.4-1.4l3.2,3.3l6-6.2L5,36.8L-2.4,44.4z"/>
	</g>
</g>
</svg>
