<?xml version="1.0" encoding="utf-8"?>
<!-- Generator: Adobe Illustrator 19.0.0, SVG Export Plug-In . SVG Version: 6.00 Build 0)  -->
<svg version="1.1" id="XMLID_66_" xmlns="http://www.w3.org/2000/svg" xmlns:xlink="http://www.w3.org/1999/xlink" x="0px" y="0px"
	 viewBox="-19 20 24 26" style="enable-background:new -19 20 24 26;" xml:space="preserve">
<g id="worksop">
	<g>
		<polygon points="5,38 1,38 1,36 3,36 3,24 -15,24 -15,26 -17,26 -17,22 5,22 		"/>
	</g>
	<g>
		<rect x="-9" y="21" width="6" height="4"/>
	</g>
	<g>
		<path d="M-6,45h-13v-5c0-2.3,1.3-4.4,3.3-5.4c-0.8-0.8-1.3-1.9-1.3-3.1c0-2.5,2-4.5,4.5-4.5S-8,29-8,31.5c0,0.7-0.1,1.3-0.4,1.8
			c1.4-0.6,3.4-1.8,5.7-4.1l2-2l1.4,1.4L-0.6,30l1.8,1.8l-0.3,0.6c-0.1,0.2-2.4,5.5-6.6,7.2C-5.9,39.7-6,39.8-6,40V45z M-17,43h9v-3
			c0-1,0.6-1.9,1.5-2.3c2.7-1.1,4.6-4.2,5.3-5.5L-2,31.4C-6.9,36-10.6,36-11,36h-2c-2.2,0-4,1.8-4,4V43z M-12.5,34
			c1.4,0,2.5-1.1,2.5-2.5s-1.1-2.5-2.5-2.5s-2.5,1.1-2.5,2.5C-15,32.9-13.9,34-12.5,34z"/>
	</g>
</g>
</svg>
