<?xml version="1.0" encoding="utf-8"?>
<!-- Generator: Adobe Illustrator 19.0.0, SVG Export Plug-In . SVG Version: 6.00 Build 0)  -->
<svg version="1.1" id="XMLID_143_" xmlns="http://www.w3.org/2000/svg" xmlns:xlink="http://www.w3.org/1999/xlink" x="0px" y="0px"
	 viewBox="-19 20 24 26" style="enable-background:new -19 20 24 26;" xml:space="preserve">
<g id="achievement">
	<g>
		<path d="M-1.9,44c-0.3,0-0.6,0-0.9-0.1V44h-12.9v-5.5h1.8c0.2-1.2,0.8-2.3,1.5-3c-0.8-0.6-1.5-1.5-1.9-2.5h-0.6
			c-2.5,0-4.3-1.8-4.3-4.3v-4.9h4.3V22h12v1.8h4.3v4.9c0,0.6-0.1,1-0.3,1.5C3.5,31.3,5,33.8,5,36.7C5,40.7,1.9,44-1.9,44z
			 M-1.9,31.2c-2.8,0-5.1,2.5-5.1,5.5c0,3,2.3,5.5,5.1,5.5s5.1-2.5,5.1-5.5C3.3,33.6,1,31.2-1.9,31.2z M-13.9,42.2h7.5
			C-7,41.6-7.5,41-7.9,40.2v0.1h-6V42.2z M-12.1,38.5h3.5c-0.2-0.5-0.3-1.2-0.3-1.8c-0.7,0-1.3-0.1-1.9-0.3
			C-11.3,36.9-11.8,37.6-12.1,38.5z M-13,23.8v6.4c0,2.6,2.1,4.8,4.5,4.6c0.5-2.3,2.1-4.1,4-4.9v-6H-13z M-17.3,25.7v3
			c0,1.5,1.1,2.5,2.6,2.5h0.1c0-0.3-0.1-0.6-0.1-0.9v-4.6H-17.3z M-1.9,29.3c0.5,0,1.1,0.1,1.5,0.2c0.1-0.3,0.2-0.5,0.2-0.8v-3h-2.6
			v3.8C-2.5,29.3-2.1,29.3-1.9,29.3z M-2.7,39.8l-2.9-3.1l1.2-1.3l1.7,1.8l3.3-3.6l1.2,1.3L-2.7,39.8z"/>
	</g>
</g>
</svg>
