<?xml version="1.0" encoding="utf-8"?>
<!-- Generator: Adobe Illustrator 19.0.0, SVG Export Plug-In . SVG Version: 6.00 Build 0)  -->
<svg version="1.1" id="XMLID_304_" xmlns="http://www.w3.org/2000/svg" xmlns:xlink="http://www.w3.org/1999/xlink" x="0px" y="0px"
	 viewBox="-19 20 24 26" style="enable-background:new -19 20 24 26;" xml:space="preserve">
<g id="advanced-search">
	<g>
		<path d="M0.8,44.4l-5.5-5.5C-6.1,40-8,40.7-10,40.7c-4.7,0-8.5-3.8-8.5-8.5s3.8-8.5,8.5-8.5s8.5,3.8,8.5,8.5c0,2-0.7,3.8-1.8,5.3
			L2.2,43L0.8,44.4z M-10,25.6c-3.6,0-6.5,2.9-6.5,6.5c0,3.6,2.9,6.5,6.5,6.5s6.5-2.9,6.5-6.5C-3.5,28.5-6.4,25.6-10,25.6z
			 M2.5,27.6h-2v-2h-2v-2h2v-2h2v2h2v2h-2V27.6z"/>
	</g>
</g>
</svg>
