<?xml version="1.0" encoding="utf-8"?>
<!-- Generator: Adobe Illustrator 19.0.0, SVG Export Plug-In . SVG Version: 6.00 Build 0)  -->
<svg version="1.1" id="XMLID_230_" xmlns="http://www.w3.org/2000/svg" xmlns:xlink="http://www.w3.org/1999/xlink" x="0px" y="0px"
	 viewBox="-19 20 24 26" style="enable-background:new -19 20 24 26;" xml:space="preserve">
<g id="analytics">
	<g>
		<path d="M-7,45c-6.1,0-11-4.9-11-11c0-5.7,4.4-10.4,10-11v-2h1c4.1,0,7.9,1.9,10.4,5.2L4,27l-1.6,1.2C3.4,30,4,31.9,4,34
			C4,40.1-0.9,45-7,45z M-8,25.1c-4.5,0.5-8,4.3-8,8.9c0,5,4,9,9,9s9-4,9-9c0-1.6-0.4-3.2-1.2-4.6L-8,36V25.1z M-6,23v9l7.2-5.4
			C-0.7,24.6-3.3,23.3-6,23z"/>
	</g>
</g>
</svg>
