<?xml version="1.0" encoding="utf-8"?>
<!-- Generator: Adobe Illustrator 19.0.0, SVG Export Plug-In . SVG Version: 6.00 Build 0)  -->
<svg version="1.1" id="XMLID_65_" xmlns="http://www.w3.org/2000/svg" xmlns:xlink="http://www.w3.org/1999/xlink" x="0px" y="0px"
	 viewBox="-19 20 24 26" style="enable-background:new -19 20 24 26;" xml:space="preserve">
<g id="article">
	<g>
		<path d="M1.5,43H-15c-0.2,0-0.3,0-0.5,0c-1.9,0-3.5-1.6-3.5-3.5V27h5v-4H5v16.5C5,41.4,3.4,43,1.5,43z M-12.3,41H1.5
			C2.3,41,3,40.3,3,39.5V25h-15v14.5C-12,40-12.1,40.5-12.3,41z M-17,29v10.5c0,0.8,0.7,1.5,1.5,1.5s1.5-0.7,1.5-1.5V29H-17z"/>
	</g>
	<g>
		<rect x="-4" y="27" width="5" height="6"/>
	</g>
	<g>
		<rect x="-10" y="27" width="4" height="2"/>
	</g>
	<g>
		<rect x="-10" y="31" width="4" height="2"/>
	</g>
	<g>
		<rect x="-10" y="35" width="11" height="2"/>
	</g>
</g>
</svg>
