<?xml version="1.0" encoding="utf-8"?>
<!-- Generator: Adobe Illustrator 19.0.0, SVG Export Plug-In . SVG Version: 6.00 Build 0)  -->
<svg version="1.1" id="XMLID_285_" xmlns="http://www.w3.org/2000/svg" xmlns:xlink="http://www.w3.org/1999/xlink" x="0px" y="0px"
	 viewBox="-19 20 24 26" style="enable-background:new -19 20 24 26;" xml:space="preserve">
<g id="attachment">
	<g>
		<path d="M-10.7,45.1c-1.9,0-3.6-0.7-4.9-2l-0.1-0.1c-1.3-1.3-2-3.1-2-4.9c0-1.9,0.7-3.6,2-4.9L-5,22.4c0.9-0.9,2.2-1.5,3.5-1.5
			s2.6,0.5,3.5,1.5c1,1,1.5,2.2,1.5,3.6c0,1.3-0.5,2.6-1.5,3.5L-8.6,40.2c-1.1,1.1-3.1,1.1-4.2,0c-1.2-1.2-1.2-3.1,0-4.2l9.5-9.5
			l1.4,1.4l-9.5,9.5c-0.4,0.4-0.4,1,0,1.4s1,0.4,1.4,0L0.6,28.2c0.6-0.6,0.9-1.3,0.9-2.1c0-0.8-0.3-1.5-0.9-2.1
			c-1.2-1.2-3.1-1.2-4.2-0.1l-10.7,10.7c-0.9,0.9-1.4,2.2-1.4,3.5s0.5,2.6,1.4,3.5l0.1,0.1c0.9,0.9,2.2,1.4,3.5,1.4s2.6-0.5,3.5-1.4
			l9.5-9.5l1.4,1.4l-9.5,9.5C-7.1,44.4-8.9,45.1-10.7,45.1z"/>
	</g>
</g>
</svg>
