<?xml version="1.0" encoding="utf-8"?>
<!-- Generator: Adobe Illustrator 19.0.0, SVG Export Plug-In . SVG Version: 6.00 Build 0)  -->
<svg version="1.1" id="XMLID_225_" xmlns="http://www.w3.org/2000/svg" xmlns:xlink="http://www.w3.org/1999/xlink" x="0px" y="0px"
	 viewBox="-19 20 24 26" style="enable-background:new -19 20 24 26;" xml:space="preserve">
<g id="blog">
	<g>
		<path d="M-14.5,44.5c-2.2,0-4-1.8-4-4v-8h2V37c0.6-0.3,1.3-0.5,2-0.5c2.2,0,4,1.8,4,4S-12.3,44.5-14.5,44.5z M-14.5,38.5
			c-1.1,0-2,0.9-2,2s0.9,2,2,2s2-0.9,2-2S-13.4,38.5-14.5,38.5z M4.5,40.5h-2c0-9.4-7.6-17-17-17v-2C-4,21.5,4.5,30,4.5,40.5z
			 M-0.5,40.5h-2c0-6.6-5.4-12-12-12v-2C-6.8,26.5-0.5,32.8-0.5,40.5z M-5.5,40.5h-2c0-3.9-3.1-7-7-7v-2
			C-9.5,31.5-5.5,35.5-5.5,40.5z"/>
	</g>
</g>
</svg>
