<?xml version="1.0" encoding="utf-8"?>
<!-- Generator: Adobe Illustrator 19.0.0, SVG Export Plug-In . SVG Version: 6.00 Build 0)  -->
<svg version="1.1" id="XMLID_67_" xmlns="http://www.w3.org/2000/svg" xmlns:xlink="http://www.w3.org/1999/xlink" x="0px" y="0px"
	 viewBox="-19 20 24 26" style="enable-background:new -19 20 24 26;" xml:space="preserve">
<g id="book">
	<g>
		<path d="M3,45h-16.5c-1.8,0-3.2-1.3-3.5-3l0,0V24.5c0-1.9,1.6-3.5,3.5-3.5H3v19H1.5C0.7,40,0,40.7,0,41.5S0.7,43,1.5,43H3V45z
			 M-13.5,40c-0.8,0-1.5,0.7-1.5,1.5s0.7,1.5,1.5,1.5h11.8C-1.9,42.5-2,42-2,41.5s0.1-1,0.3-1.5H-13.5z M-13.5,23
			c-0.8,0-1.5,0.7-1.5,1.5v13.8c0.5-0.2,1-0.3,1.5-0.3H1V23h-3v10.9l-4-2.7l-4,2.7V23H-13.5z M-6,28.8l2,1.3V23h-4v7.1L-6,28.8z"/>
	</g>
</g>
</svg>
