<?xml version="1.0" encoding="utf-8"?>
<!-- Generator: Adobe Illustrator 19.0.0, SVG Export Plug-In . SVG Version: 6.00 Build 0)  -->
<svg version="1.1" id="XMLID_146_" xmlns="http://www.w3.org/2000/svg" xmlns:xlink="http://www.w3.org/1999/xlink" x="0px" y="0px"
	 viewBox="-19 20 24 26" style="enable-background:new -19 20 24 26;" xml:space="preserve">
<g id="circular-view">
	<g>
		<path d="M-7,45c-1.9,0-3.5-1.6-3.5-3.5S-9,38-7,38c1.9,0,3.5,1.6,3.5,3.5S-5.1,45-7,45z M-7,40c-0.8,0-1.5,0.7-1.5,1.5
			S-7.9,43-7,43c0.8,0,1.5-0.7,1.5-1.5S-6.2,40-7,40z M1,41c-1.9,0-3.5-1.6-3.5-3.5S-1,34,1,34s3.5,1.6,3.5,3.5S2.9,41,1,41z M1,36
			c-0.8,0-1.5,0.7-1.5,1.5S0.1,39,1,39s1.5-0.7,1.5-1.5S1.8,36,1,36z M-15,41c-1.9,0-3.5-1.6-3.5-3.5S-16.9,34-15,34
			s3.5,1.6,3.5,3.5S-13.1,41-15,41z M-15,36c-0.8,0-1.5,0.7-1.5,1.5S-15.8,39-15,39s1.5-0.7,1.5-1.5S-14.2,36-15,36z M1,32
			c-1.9,0-3.5-1.6-3.5-3.5S-1,25,1,25s3.5,1.6,3.5,3.5S2.9,32,1,32z M1,27c-0.8,0-1.5,0.7-1.5,1.5S0.1,30,1,30s1.5-0.7,1.5-1.5
			S1.8,27,1,27z M-15,32c-1.9,0-3.5-1.6-3.5-3.5S-16.9,25-15,25s3.5,1.6,3.5,3.5S-13.1,32-15,32z M-15,27c-0.8,0-1.5,0.7-1.5,1.5
			S-15.8,30-15,30s1.5-0.7,1.5-1.5S-14.2,27-15,27z M-7,28c-1.9,0-3.5-1.6-3.5-3.5S-9,21-7,21c1.9,0,3.5,1.6,3.5,3.5S-5.1,28-7,28z
			 M-7,23c-0.8,0-1.5,0.7-1.5,1.5S-7.9,26-7,26c0.8,0,1.5-0.7,1.5-1.5S-6.2,23-7,23z"/>
	</g>
</g>
</svg>
