<?xml version="1.0" encoding="utf-8"?>
<!-- Generator: Adobe Illustrator 19.0.0, SVG Export Plug-In . SVG Version: 6.00 Build 0)  -->
<svg version="1.1" id="XMLID_251_" xmlns="http://www.w3.org/2000/svg" xmlns:xlink="http://www.w3.org/1999/xlink" x="0px" y="0px"
	 viewBox="-19 20 24 26" style="enable-background:new -19 20 24 26;" xml:space="preserve">
<g id="cloud">
	<path d="M-6,44.1h-3c-2.8,0-5-2.2-5-5v-0.2c-2.8-0.5-5-2.9-5-5.9c0-3.3,2.7-6,6-6l0,0c0-2.8,2.2-5,5-5h3c2.8,0,5,2.2,5,5v0.1
		C2.8,27.6,5,30,5,33c0,3.3-2.7,6-6,6h-6.7v-2H-1c2.2,0,4-1.8,4-4c0-2.2-1.8-4-4-4h-1v-2c0-1.7-1.3-3-3-3h-3c-1.7,0-3,1.3-3,3h4.6v2
		H-13c-2.2,0-4,1.8-4,4c0,2.2,1.8,4,4,4h1v2.1c0,1.7,1.3,3,3,3h3c1.7,0,3-1.3,3-3l2-0.1C-1,41.8-3.2,44.1-6,44.1z"/>
</g>
</svg>
