<?xml version="1.0" encoding="utf-8"?>
<!-- Generator: Adobe Illustrator 19.0.0, SVG Export Plug-In . SVG Version: 6.00 Build 0)  -->
<svg version="1.1" id="XMLID_156_" xmlns="http://www.w3.org/2000/svg" xmlns:xlink="http://www.w3.org/1999/xlink" x="0px" y="0px"
	 viewBox="-19 20 24 26" style="enable-background:new -19 20 24 26;" xml:space="preserve">
<g id="cloud-software">
	<g>
		<path d="M-2.4,44h-9.2V32.1h9.2V44z M-9.8,42.2h5.5v-8.3h-1.8v1.8h-1.8v-1.8h-1.8v1.8h5.5v1.8h-5.5V42.2z M-0.5,37.6v-1.8
			c2,0,3.7-1.7,3.7-3.8c0-2-1.7-3.7-3.7-3.7h-0.9v-1.8c0-1.5-1.2-2.7-2.8-2.7h-3.7c-1.6,0-2.8,1.2-2.8,2.7v0.1h4.6v1.8h-7.4
			c-2,0-3.7,1.6-3.7,3.7c0,2,1.7,3.7,3.7,3.7v1.8c-3,0-5.5-2.5-5.5-5.5c0-3,2.5-5.5,5.5-5.5h0.9v-0.1c0-2.5,2-4.5,4.6-4.5h3.7
			c2.6,0,4.6,2,4.6,4.5v0.1C3,27,5,29.3,5,32C5,35.1,2.5,37.6-0.5,37.6z"/>
	</g>
</g>
</svg>
