<?xml version="1.0" encoding="utf-8"?>
<!-- Generator: Adobe Illustrator 19.0.0, SVG Export Plug-In . SVG Version: 6.00 Build 0)  -->
<svg version="1.1" id="XMLID_157_" xmlns="http://www.w3.org/2000/svg" xmlns:xlink="http://www.w3.org/1999/xlink" x="0px" y="0px"
	 viewBox="-19 20 24 26" style="enable-background:new -19 20 24 26;" xml:space="preserve">
<g id="cloud-computer">
	<g>
		<path d="M-4.3,44h-5.6v-1.8H-8v-1.8h-3.7v-8.3h9.3v8.3h-3.7v1.8h1.9C-4.3,42.2-4.3,44-4.3,44z M-9.8,38.5h5.6v-4.6h-5.6V38.5z
			 M-0.6,37.6v-1.8c2,0,3.7-1.7,3.7-3.8c0-2-1.7-3.7-3.7-3.7h-0.9v-1.8c0-1.5-1.2-2.7-2.8-2.7H-8c-1.6,0-2.8,1.2-2.8,2.7v0.1h4.6
			v1.8h-7.4c-2,0-3.6,1.6-3.6,3.7c0,2.1,1.6,3.7,3.6,3.7v1.8c-3.1,0-5.5-2.4-5.5-5.5c0-3.1,2.4-5.5,5.5-5.5h0.9v-0.1
			c0-2.5,2-4.5,4.6-4.5h3.7c2.6,0,4.6,2,4.6,4.5v0.1C3,27,5,29.3,5,32C5,35.1,2.5,37.6-0.6,37.6z"/>
	</g>
</g>
</svg>
