<?xml version="1.0" encoding="utf-8"?>
<!-- Generator: Adobe Illustrator 19.0.0, SVG Export Plug-In . SVG Version: 6.00 Build 0)  -->
<svg version="1.1" id="XMLID_153_" xmlns="http://www.w3.org/2000/svg" xmlns:xlink="http://www.w3.org/1999/xlink" x="0px" y="0px"
	 viewBox="-19 20 24 26" style="enable-background:new -19 20 24 26;" xml:space="preserve">
<g id="compare">
	<g>
		<path d="M5,38.3h-7.4V27.7H5V38.3z M-0.5,36.5h3.7v-7h-3.7V36.5z M-11.6,38.3H-19V27.7h7.4V38.3z M-17.2,36.5h3.7v-7h-3.7V36.5z"
			/>
	</g>
	<g>
		<g>
			<path d="M-8.8,34.2V23l5.9,5.6L-8.8,34.2z M-7,27.2V30l1.5-1.4L-7,27.2z"/>
		</g>
		<g>
			<rect x="-10.7" y="27.7" width="3.7" height="1.8"/>
		</g>
	</g>
	<g>
		<g>
			<path d="M-5.2,43l-5.9-5.6l5.9-5.6C-5.2,31.8-5.2,43-5.2,43z M-8.5,37.4l1.5,1.4V36L-8.5,37.4z"/>
		</g>
		<g>
			<rect x="-7" y="36.5" width="3.7" height="1.8"/>
		</g>
	</g>
</g>
</svg>
