<?xml version="1.0" encoding="utf-8"?>
<!-- Generator: Adobe Illustrator 22.1.0, SVG Export Plug-In . SVG Version: 6.00 Build 0)  -->
<svg version="1.1" id="Filled_Icons" xmlns="http://www.w3.org/2000/svg" xmlns:xlink="http://www.w3.org/1999/xlink" x="0px"
	 y="0px" viewBox="0 0 24 24" enable-background="new 0 0 24 24" xml:space="preserve">
<g id="Configuration-Filled">
	<path d="M14.54,13.7l-8.42,8.42C5.54,22.71,4.77,23,4,23s-1.54-0.29-2.12-0.88c-1.17-1.17-1.17-3.07,0-4.24l8.42-8.42
		C10.1,8.84,10,8.18,10,7.5C10,3.91,12.91,1,16.5,1c0.8,0,1.56,0.14,2.26,0.41l-4.2,4.2l3.83,3.83l4.2-4.2C22.86,5.94,23,6.7,23,7.5
		c0,3.59-2.91,6.5-6.5,6.5C15.82,14,15.16,13.9,14.54,13.7z"/>
</g>
</svg>
