<?xml version="1.0" encoding="utf-8"?>
<!-- Generator: Adobe Illustrator 19.0.0, SVG Export Plug-In . SVG Version: 6.00 Build 0)  -->
<svg version="1.1" id="XMLID_127_" xmlns="http://www.w3.org/2000/svg" xmlns:xlink="http://www.w3.org/1999/xlink" x="0px" y="0px"
	 viewBox="-19 20 24 26" style="enable-background:new -19 20 24 26;" xml:space="preserve">
<g id="connect">
	<g>
		<path d="M-13.1,45c-1.6,0-3.1-0.6-4.2-1.7c-1.1-1.1-1.7-2.6-1.7-4.2c0-1.6,0.6-3.1,1.7-4.2l3.8-3.8l2,2l2.8-2.8l1.4,1.4l-2.8,2.8
			l1.6,1.6l2.8-2.8l1.4,1.4l-2.8,2.8l2,2l-3.7,3.8C-10,44.3-11.5,45-13.1,45z M-13.5,33.9l-2.3,2.3C-16.6,37-17,38-17,39
			s0.4,2,1.2,2.8c1.5,1.5,4.1,1.5,5.6,0l2.3-2.4L-13.5,33.9z M-0.5,34.9l-8.4-8.4l3.7-3.8c2.3-2.3,6.1-2.3,8.4,0
			C4.4,23.8,5,25.3,5,26.9S4.4,30,3.3,31.1L-0.5,34.9z M-6,26.5l5.5,5.5l2.3-2.3C2.6,28.9,3,28,3,26.9c0-1-0.4-2-1.2-2.8
			c-1.5-1.5-4-1.5-5.6,0L-6,26.5z"/>
	</g>
</g>
</svg>
