<?xml version="1.0" encoding="utf-8"?>
<!-- Generator: Adobe Illustrator 19.0.0, SVG Export Plug-In . SVG Version: 6.00 Build 0)  -->
<svg version="1.1" id="XMLID_161_" xmlns="http://www.w3.org/2000/svg" xmlns:xlink="http://www.w3.org/1999/xlink" x="0px" y="0px"
	 viewBox="-19 20 24 26" style="enable-background:new -19 20 24 26;" xml:space="preserve">
<g id="cubes">
	<g>
		<path d="M-1.5,44.5L-7,41.8l-5.5,2.7l-6.5-3.1v-7.6l5.5-2.7v-6.4l6.5-3.1l6.5,3.1V31L5,33.8v7.6L-1.5,44.5z M-0.5,37.5V42l3.7-1.8
			v-4.5L-0.5,37.5z M-6.1,40.2l3.7,1.8v-4.5l-3.7-1.8V40.2z M-11.6,37.5V42l3.7-1.8v-4.5L-11.6,37.5z M-17.2,40.2l3.7,1.8v-4.5
			l-3.7-1.8V40.2z M-4.9,34.3l3.4,1.6L2,34.3l-3.4-1.7L-4.9,34.3z M-16,34.3l3.4,1.6l3.4-1.6l-3.4-1.6L-16,34.3z M-6.1,28.4v4.4
			l3.7-1.8v-4.4L-6.1,28.4z M-11.6,31l3.7,1.8v-4.4l-3.7-1.8V31z M-10.4,25.2l3.4,1.6l3.4-1.6L-7,23.4L-10.4,25.2z"/>
	</g>
</g>
</svg>
