<?xml version="1.0" encoding="utf-8"?>
<!-- Generator: Adobe Illustrator 19.0.0, SVG Export Plug-In . SVG Version: 6.00 Build 0)  -->
<svg version="1.1" id="XMLID_258_" xmlns="http://www.w3.org/2000/svg" xmlns:xlink="http://www.w3.org/1999/xlink" x="0px" y="0px"
	 viewBox="-19 20 24 26" style="enable-background:new -19 20 24 26;" xml:space="preserve">
<g id="cut">
	<g>
		<path d="M-14.4,45c-2.5,0-4.5-2-4.5-4.5s2-4.5,4.5-4.5c1,0,1.9,0.3,2.7,0.9L-7,33l-4.7-3.9c-0.7,0.6-1.7,0.9-2.7,0.9
			c-2.5,0-4.5-2-4.5-4.5s2-4.5,4.5-4.5s4.5,2,4.5,4.5c0,0.8-0.2,1.5-0.5,2.1l4.9,4.1l9-7.5l1.3,1.5L-3.9,33l8.7,7.2l-1.3,1.5l-9-7.5
			l-4.9,4.1c0.3,0.6,0.5,1.3,0.5,2.1C-9.9,43-11.9,45-14.4,45z M-14.4,38c-1.4,0-2.5,1.1-2.5,2.5s1.1,2.5,2.5,2.5s2.5-1.1,2.5-2.5
			S-13,38-14.4,38z M-14.4,23c-1.4,0-2.5,1.1-2.5,2.5s1.1,2.5,2.5,2.5s2.5-1.1,2.5-2.5S-13,23-14.4,23z"/>
	</g>
</g>
</svg>
