<?xml version="1.0" encoding="utf-8"?>
<!-- Generator: Adobe Illustrator 19.0.0, SVG Export Plug-In . SVG Version: 6.00 Build 0)  -->
<svg version="1.1" id="XMLID_118_" xmlns="http://www.w3.org/2000/svg" xmlns:xlink="http://www.w3.org/1999/xlink" x="0px" y="0px"
	 viewBox="-19 20 24 26" style="enable-background:new -19 20 24 26;" xml:space="preserve">
<g id="defect">
	<g>
		<path d="M-6,45h-2v-0.1c-3.2-0.4-5.8-2.6-6.7-5.6c-0.8,0.3-1.7,1-2.7,2.2l-1.6-1.2c1.3-1.9,2.8-2.7,4-3.1c0-0.1,0-0.2,0-0.3V35h-4
			v-2h4v-2.3c-1.2-0.4-2.6-1.3-4-3.1l1.6-1.2c1.4,1.9,2.9,2.4,3.7,2.5c0.2-0.2,0.5-0.3,0.8-0.5c-0.1-0.5-0.2-1-0.2-1.5
			c0-3.3,2.7-6,6-6s6,2.7,6,6c0,0.5-0.1,1-0.2,1.5c0.3,0.2,0.6,0.3,0.8,0.5c0.8-0.1,2.3-0.6,3.7-2.5L5,27.7c-1.3,1.8-2.8,2.7-4,3.1
			V33h4v2H1v2.1c0,0.1,0,0.2,0,0.3c1.1,0.4,2.6,1.2,4,3.1l-1.6,1.2c-0.9-1.3-1.9-1.9-2.7-2.2C-0.2,42.3-2.8,44.5-6,45L-6,45z
			 M-13,31.1v6.1c0,2.9,2.2,5.4,5,5.8V33h2v9.9c2.8-0.5,5-2.9,5-5.8v-6.1h-0.1V31c-1.1-0.7-3-1.9-5.9-1.9l0,0
			c-2.9,0-4.8,1.2-5.9,1.9L-13,31.1C-12.9,31.1-13,31.1-13,31.1z M-7,27.1L-7,27.1c1.6,0,2.9,0.3,3.9,0.7C-3,27.5-3,27.3-3,27.1
			c0-2.2-1.8-4-4-4s-4,1.8-4,4c0,0.2,0,0.4,0.1,0.7C-9.8,27.4-8.5,27.1-7,27.1z"/>
	</g>
</g>
</svg>
