<?xml version="1.0" encoding="utf-8"?>
<!-- Generator: Adobe Illustrator 19.0.0, SVG Export Plug-In . SVG Version: 6.00 Build 0)  -->
<svg version="1.1" id="XMLID_229_" xmlns="http://www.w3.org/2000/svg" xmlns:xlink="http://www.w3.org/1999/xlink" x="0px" y="0px"
	 viewBox="-19 20 24 26" style="enable-background:new -19 20 24 26;" xml:space="preserve">
<g id="deliver">
	<g>
		<path d="M-1.4,42.5c-1.8,0-3.2-1.3-3.5-3H-10c-0.2,1.7-1.7,3-3.5,3s-3.2-1.3-3.5-3h-2v-16h16v4h3.4L5,32.1v7.4H2
			C1.8,41.2,0.3,42.5-1.4,42.5z M-2.9,39c0,0.8,0.7,1.5,1.5,1.5s1.5-0.7,1.5-1.5s-0.7-1.5-1.5-1.5S-2.9,38.2-2.9,39z M-13.4,37.5
			c-0.8,0-1.5,0.7-1.5,1.5s0.7,1.5,1.5,1.5s1.5-0.7,1.5-1.5S-12.6,37.5-13.4,37.5z M1.7,37.5H3v-4.6l-3.3-3.4h-2.6v6.3
			c0.5-0.2,1-0.3,1.5-0.3C0,35.5,1.2,36.3,1.7,37.5z M-10.3,37.5H-5v-12h-12v12h0.3c0.6-1.2,1.8-2,3.2-2S-10.8,36.3-10.3,37.5z"/>
	</g>
</g>
</svg>
