<?xml version="1.0" encoding="utf-8"?>
<!-- Generator: Adobe Illustrator 19.0.0, SVG Export Plug-In . SVG Version: 6.00 Build 0)  -->
<svg version="1.1" id="XMLID_152_" xmlns="http://www.w3.org/2000/svg" xmlns:xlink="http://www.w3.org/1999/xlink" x="0px" y="0px"
	 viewBox="-19 20 24 26" style="enable-background:new -19 20 24 26;" xml:space="preserve">
<g id="deployment">
	<g>
		<path d="M-6.6,45.1c-0.2,0-0.4,0-0.5-0.1c-0.6-0.2-1.1-0.7-1.3-1.4L-9,40.3c-0.1-0.5-0.3-0.9-0.6-1.2l-3.3-3.3
			c-0.3-0.3-0.7-0.5-1.2-0.6l-3.4-0.7c-0.7-0.1-1.2-0.6-1.4-1.3c-0.2-0.6,0-1.3,0.5-1.8l2.6-2.6c0.8-0.8,1.9-1.3,3.1-1.3h3.1
			c0.8-0.9,1.6-1.8,2.4-2.6c5.7-5.7,10.9-3.2,11.1-3.1L4.2,22l0.2,0.3c0.1,0.2,2.5,5.5-3.1,11.1c-0.9,0.9-1.8,1.7-2.6,2.4v3.1
			c0,1.2-0.5,2.2-1.3,3.1l-2.6,2.6C-5.6,44.9-6.1,45.1-6.6,45.1z M-16.8,32.6l3.1,0.6c0.8,0.2,1.6,0.6,2.2,1.2l3.3,3.3
			c0.6,0.6,1,1.4,1.2,2.2l0.6,3.1l2.4-2.4c0.4-0.4,0.7-1,0.7-1.6v-4l0.4-0.3c1-0.8,1.9-1.7,2.9-2.6c3.9-3.9,3.2-7.4,2.9-8.5
			c-1.1-0.4-4.6-1-8.5,2.9c-0.9,0.9-1.8,1.9-2.6,2.9l-0.3,0.4h-4c-0.6,0-1.2,0.2-1.6,0.7L-16.8,32.6z M-17,45.1L-17,45.1
			c-0.8,0-1.3-0.1-1.6-0.4c-0.2-0.2-0.7-0.7-0.3-3.1c0.2-1.1,0.5-2.6,1.3-3.4c1.5-1.5,4-1.5,5.4,0c1.5,1.5,1.5,3.9,0,5.4
			C-13.3,44.8-15.8,45.1-17,45.1z M-14.8,39.1c-0.5,0-1,0.2-1.3,0.5c-0.6,0.6-0.9,2.5-0.9,3.5c1,0,2.9-0.3,3.5-0.8
			c0.7-0.7,0.7-1.9,0-2.6C-13.9,39.3-14.4,39.1-14.8,39.1z"/>
	</g>
	<g>
		<path d="M-2,31.1c-1.7,0-3-1.3-3-3s1.3-3,3-3s3,1.3,3,3S-0.3,31.1-2,31.1z M-2,27.1c-0.6,0-1,0.4-1,1s0.4,1,1,1s1-0.4,1-1
			S-1.4,27.1-2,27.1z"/>
	</g>
</g>
</svg>
