<?xml version="1.0" encoding="utf-8"?>
<!-- Generator: Adobe Illustrator 19.0.0, SVG Export Plug-In . SVG Version: 6.00 Build 0)  -->
<svg version="1.1" id="XMLID_172_" xmlns="http://www.w3.org/2000/svg" xmlns:xlink="http://www.w3.org/1999/xlink" x="0px" y="0px"
	 viewBox="-19 20 24 26" style="enable-background:new -19 20 24 26;" xml:space="preserve">
<g id="directions">
	<g>
		<path d="M-6,44.8H-8v-7c0-2.8-2.1-5-4.8-5h-2.5l3.2,3.3l-1.4,1.4l-5.5-5.7l5.5-5.7l1.4,1.4l-3.2,3.3h2.5c1.9,0,3.6,0.8,4.8,2.1
			v-0.1c0-3.9,3-7,6.8-7h2.5l-3.2-3.3l1.4-1.4L5,26.8l-5.5,5.7l-1.4-1.4l3.2-3.3h-2.5c-2.7,0-4.8,2.2-4.8,5V44.8z"/>
	</g>
</g>
</svg>
