<?xml version="1.0" encoding="utf-8"?>
<!-- Generator: Adobe Illustrator 19.0.0, SVG Export Plug-In . SVG Version: 6.00 Build 0)  -->
<svg version="1.1" id="XMLID_45_" xmlns="http://www.w3.org/2000/svg" xmlns:xlink="http://www.w3.org/1999/xlink" x="0px" y="0px"
	 viewBox="-19 20 24 26" style="enable-background:new -19 20 24 26;" xml:space="preserve">
<g id="dislike">
	<g id="thumb">
		<path d="M-5,45h-3.1c-2.2,0-3.9-1.8-3.9-4v-5h-7V25c0-2.2,1.8-4,4-4H5v14h-8c-1.1,0-2,0.8-2,1.9V45z M-17,34h7v7
			c0,1.1,0.8,2,1.9,2H-7v-6.1c0-2.2,1.8-3.9,4-3.9V23h-12c-1.1,0-2,0.9-2,2V34z M-1,33h4V23h-4V33z"/>
	</g>
</g>
</svg>
