<?xml version="1.0" encoding="utf-8"?>
<!-- Generator: Adobe Illustrator 19.0.0, SVG Export Plug-In . SVG Version: 6.00 Build 0)  -->
<svg version="1.1" id="XMLID_77_" xmlns="http://www.w3.org/2000/svg" xmlns:xlink="http://www.w3.org/1999/xlink" x="0px" y="0px"
	 viewBox="-19 20 24 26" style="enable-background:new -19 20 24 26;" xml:space="preserve">
<style type="text/css">
	.st0{fill:none;}
</style>
<g id="document-image">
	<g>
		<path d="M4.5,45h-6v-2h4V29h-6v-6h-10v6h-2v-8h14.4l5.6,5.6V45z M-1.5,27h3.6l-3.6-3.6V27z M-3.5,45h-15V30.9h15V45z M-16.5,43h11
			V32.9h-11V43z"/>
	</g>
	<g>
		<polygon points="-11.1,44.1 -13.5,40.7 -15.4,43.6 -17.1,42.4 -13.5,37.3 -9.4,42.9 		"/>
	</g>
	<g>
		<polygon points="-5.4,44.1 -8.5,39.7 -11.1,43.5 -12.7,42.3 -8.5,36.3 -3.8,42.9 		"/>
	</g>
	<g>
		<circle class="st0" cx="-13.5" cy="36" r="2"/>
	</g>
</g>
</svg>
