<?xml version="1.0" encoding="utf-8"?>
<!-- Generator: Adobe Illustrator 19.0.0, SVG Export Plug-In . SVG Version: 6.00 Build 0)  -->
<svg version="1.1" id="XMLID_36_" xmlns="http://www.w3.org/2000/svg" xmlns:xlink="http://www.w3.org/1999/xlink" x="0px" y="0px"
	 viewBox="-19 20 24 26" style="enable-background:new -19 20 24 26;" xml:space="preserve">
<g id="document-cloud">
	<g>
		<polygon points="5,44.5 -2.7,44.5 -2.7,42.6 3.1,42.6 3.1,27.6 -1.1,23.4 -12.3,23.4 -12.3,27.3 -14.2,27.3 -14.2,21.5 -0.4,21.5 
			5,26.9 		"/>
	</g>
	<g>
		<polygon points="4,29.2 -2.7,29.2 -2.7,23.4 -0.8,23.4 -0.8,27.3 4,27.3 		"/>
	</g>
	<g>
		<path d="M-3.3,40.6h-6.1v-1.9h6.1c1.1,0,1.9-0.9,1.9-1.9c0-1.1-0.9-1.9-1.9-1.9h-1.9v-1.9c0-1.1-0.9-1.9-1.9-1.9h-3.8
			c-1.1,0-1.9,0.9-1.9,1.9v1h-1.9v-1c0-2.1,1.7-3.8,3.8-3.8h3.8c2.1,0,3.8,1.7,3.8,3.8c2.1,0,3.8,1.7,3.8,3.8
			C0.6,38.8-1.1,40.6-3.3,40.6z"/>
	</g>
	<g>
		<path d="M-8.4,44.4h-2.9c-2.1,0-3.8-1.7-3.8-3.8c-2.1,0-3.8-1.7-3.8-3.8c0-2.1,1.7-3.8,3.8-3.8H-9v1.9h-6.1
			c-1.1,0-1.9,0.9-1.9,1.9c0,1.1,0.9,1.9,1.9,1.9h1.9v1.9c0,1.1,0.9,1.9,1.9,1.9h2.9c1.1,0,1.9-0.9,1.9-1.9v-1h1.9v1
			C-4.6,42.7-6.3,44.4-8.4,44.4z"/>
	</g>
</g>
</svg>
