<?xml version="1.0" encoding="utf-8"?>
<!-- Generator: Adobe Illustrator 19.0.0, SVG Export Plug-In . SVG Version: 6.00 Build 0)  -->
<svg version="1.1" id="XMLID_39_" xmlns="http://www.w3.org/2000/svg" xmlns:xlink="http://www.w3.org/1999/xlink" x="0px" y="0px"
	 viewBox="-19 20 24 26" style="enable-background:new -19 20 24 26;" xml:space="preserve">
<style type="text/css">
	.st0{fill:none;stroke:#000000;stroke-width:2;stroke-miterlimit:10;}
</style>
<g id="document-txt">
	<g>
		<polygon points="5,45 -15,45 -15,43 3,43 3,27.4 -1.4,23 -13,23 -13,30 -15,30 -15,21 -0.6,21 5,26.6 		"/>
	</g>
	<g>
		<polygon points="4,29 -3,29 -3,23 -1,23 -1,27 4,27 		"/>
	</g>
	<g>
		<path class="st0" d="M-3,28"/>
	</g>
	<g>
		<rect x="-19" y="33" width="6" height="2"/>
	</g>
	<g>
		<rect x="-17" y="33" width="2" height="8"/>
	</g>
	<g>
		<rect x="-5" y="33" width="6" height="2"/>
	</g>
	<g>
		<rect x="-3" y="33" width="2" height="8"/>
	</g>
	<g>
		<polygon points="-7.6,41 -12.6,33 -10.4,33 -5.4,41 		"/>
	</g>
	<g>
		<polygon points="-10.6,41 -5.6,33 -7.8,33 -12.8,41 		"/>
	</g>
</g>
</svg>
