<?xml version="1.0" encoding="utf-8"?>
<!-- Generator: Adobe Illustrator 19.0.0, SVG Export Plug-In . SVG Version: 6.00 Build 0)  -->
<svg version="1.1" id="XMLID_33_" xmlns="http://www.w3.org/2000/svg" xmlns:xlink="http://www.w3.org/1999/xlink" x="0px" y="0px"
	 viewBox="-19 20 24 26" style="enable-background:new -19 20 24 26;" xml:space="preserve">
<g id="document-locked">
	<g>
		<polygon points="4,45 -4,45 -4,43 2,43 2,27.4 -2.4,23 -14,23 -14,29 -16,29 -16,21 -1.6,21 4,26.6 		"/>
	</g>
	<g>
		<polygon points="3,29 -4,29 -4,23 -2,23 -2,27 3,27 		"/>
	</g>
	<g>
		<path d="M-6,45h-12V35h12V45z M-16,43h8v-6h-8V43z M-11,41h-2v-2h2V41z"/>
	</g>
	<g>
		<path d="M-8,37h-8v-3c0-2.2,1.8-4,4-4s4,1.8,4,4V37z M-14,35h4v-1c0-1.1-0.9-2-2-2s-2,0.9-2,2V35z"/>
	</g>
</g>
</svg>
