<?xml version="1.0" encoding="utf-8"?>
<!-- Generator: Adobe Illustrator 19.0.0, SVG Export Plug-In . SVG Version: 6.00 Build 0)  -->
<svg version="1.1" id="XMLID_42_" xmlns="http://www.w3.org/2000/svg" xmlns:xlink="http://www.w3.org/1999/xlink" x="0px" y="0px"
	 viewBox="-19 20 24 26" style="enable-background:new -19 20 24 26;" xml:space="preserve">
<style type="text/css">
	.st0{fill:none;stroke:#000000;stroke-width:2;stroke-miterlimit:10;}
</style>
<g id="document-powerpoint">
	<g>
		<polygon points="3.1,45 -16.9,45 -16.9,43 1.1,43 1.1,27.4 -3.3,23 -14.9,23 -14.9,30 -16.9,30 -16.9,21 -2.5,21 3.1,26.6 		"/>
	</g>
	<g>
		<polygon points="2.1,29 -4.9,29 -4.9,23 -2.9,23 -2.9,27 2.1,27 		"/>
	</g>
	<g>
		<path class="st0" d="M-4.9,28"/>
	</g>
	<g>
		<g>
			<path d="M-17.1,31.9h3.7c2.1,0,3.4,1.3,3.4,3.1l0,0c0,2.1-1.6,3.2-3.6,3.2h-1.5v2.7h-2C-17.1,40.9-17.1,31.9-17.1,31.9z
				 M-13.6,36.5c1,0,1.6-0.6,1.6-1.4l0,0c0-0.9-0.6-1.4-1.6-1.4h-1.5v2.8C-15.1,36.5-13.6,36.5-13.6,36.5z"/>
		</g>
	</g>
</g>
</svg>
