<?xml version="1.0" encoding="utf-8"?>
<!-- Generator: Adobe Illustrator 19.0.0, SVG Export Plug-In . SVG Version: 6.00 Build 0)  -->
<svg version="1.1" id="XMLID_112_" xmlns="http://www.w3.org/2000/svg" xmlns:xlink="http://www.w3.org/1999/xlink" x="0px" y="0px"
	 viewBox="-19 20 24 26" style="enable-background:new -19 20 24 26;" xml:space="preserve">
<g id="document-csv">
	<g>
		<polygon points="5,45 -15,45 -15,43 3,43 3,27.4 -1.4,23 -13,23 -13,30 -15,30 -15,21 -0.6,21 5,26.6 		"/>
	</g>
	<g>
		<polygon points="4,29 -3,29 -3,23 -1,23 -1,27 4,27 		"/>
	</g>
	<g>
		<polygon points="-14,40 -19,40 -19,32 -14,32 -14,34 -17,34 -17,38 -14,38 		"/>
	</g>
	<g>
		<polygon points="-8,40 -13,40 -13,38 -10,38 -10,37 -13,37 -13,32 -8,32 -8,34 -11,34 -11,35 -8,35 		"/>
	</g>
	<g>
		<polygon points="0.7,32 -2,40 -4.1,40 -6.7,32 -4.6,32 -3,36.8 -1.4,32 		"/>
	</g>
</g>
</svg>
