<?xml version="1.0" encoding="utf-8"?>
<!-- Generator: Adobe Illustrator 19.0.0, SVG Export Plug-In . SVG Version: 6.00 Build 0)  -->
<svg version="1.1" id="XMLID_41_" xmlns="http://www.w3.org/2000/svg" xmlns:xlink="http://www.w3.org/1999/xlink" x="0px" y="0px"
	 viewBox="-19 20 24 26" style="enable-background:new -19 20 24 26;" xml:space="preserve">
<style type="text/css">
	.st0{fill:none;stroke:#000000;stroke-width:2;stroke-miterlimit:10;}
</style>
<g id="document-outlook">
	<g>
		<polygon points="3.5,45 -16.5,45 -16.5,43 1.5,43 1.5,27.4 -2.9,23 -14.5,23 -14.5,30 -16.5,30 -16.5,21 -2.1,21 3.5,26.6 		"/>
	</g>
	<g>
		<polygon points="2.5,29 -4.5,29 -4.5,23 -2.5,23 -2.5,27 2.5,27 		"/>
	</g>
	<g>
		<path class="st0" d="M-4.5,28"/>
	</g>
	<g>
		<path d="M-17.6,36.5L-17.6,36.5c0-2.7,1.7-4.8,4.1-4.8s4.1,2.1,4.1,4.7l0,0c0,2.7-1.6,4.8-4.1,4.8C-15.9,41.2-17.6,39.1-17.6,36.5
			z M-11.5,36.5L-11.5,36.5c0-1.7-0.8-3-2-3s-2,1.2-2,2.9l0,0c0,1.7,0.8,2.9,2,2.9S-11.5,38.1-11.5,36.5z"/>
	</g>
</g>
</svg>
