<?xml version="1.0" encoding="utf-8"?>
<!-- Generator: Adobe Illustrator 19.0.0, SVG Export Plug-In . SVG Version: 6.00 Build 0)  -->
<svg version="1.1" id="XMLID_78_" xmlns="http://www.w3.org/2000/svg" xmlns:xlink="http://www.w3.org/1999/xlink" x="0px" y="0px"
	 viewBox="-19 20 24 26" style="enable-background:new -19 20 24 26;" xml:space="preserve">
<g id="document-data">
	<g>
		<path d="M4,45h-6v-2h4V29h-6v-6h-10v5h-2v-7h14.4L4,26.6V45z M-2,27h3.6L-2,23.4V27z M-11,45c-3.5,0-7-1.2-7-3.5V38h0.1
			c0-0.2-0.1-0.3-0.1-0.5V34h0.1c0-0.2-0.1-0.3-0.1-0.5c0-2.3,3.5-3.5,7-3.5s7,1.2,7,3.5c0,0.2,0,0.3-0.1,0.5H-4v3.5
			c0,0.2,0,0.3-0.1,0.5H-4v3.5C-4,43.8-7.5,45-11,45z M-16,40v1.5c0,0.4,1.7,1.5,5,1.5s5-1.1,5-1.5V40C-8.7,41.3-13.3,41.3-16,40z
			 M-16,36v1.5c0,0.4,1.7,1.5,5,1.5s5-1.1,5-1.5V36C-8.7,37.3-13.3,37.3-16,36z M-11,32c-3.3,0-5,1.1-5,1.5s1.7,1.5,5,1.5
			s5-1.1,5-1.5S-7.7,32-11,32z"/>
	</g>
</g>
</svg>
