<?xml version="1.0" encoding="utf-8"?>
<!-- Generator: Adobe Illustrator 19.0.0, SVG Export Plug-In . SVG Version: 6.00 Build 0)  -->
<svg version="1.1" id="XMLID_114_" xmlns="http://www.w3.org/2000/svg" xmlns:xlink="http://www.w3.org/1999/xlink" x="0px" y="0px"
	 viewBox="-19 20 24 26" style="enable-background:new -19 20 24 26;" xml:space="preserve">
<style type="text/css">
	.st0{fill:none;}
</style>
<g id="document-word">
	<g>
		<polygon points="4.9,45 -15.1,45 -15.1,43 2.9,43 2.9,27.4 -1.5,23 -13.1,23 -13.1,30 -15.1,30 -15.1,21 -0.7,21 4.9,26.6 		"/>
	</g>
	<g>
		<polygon points="3.9,29 -3.1,29 -3.1,23 -1.1,23 -1.1,27 3.9,27 		"/>
	</g>
	<g>
		<path class="st0" d="M-3.1,28"/>
	</g>
	<g>
		<polygon points="-5.4,32 -8.4,41 -9.8,41 -12.1,35.5 -14.4,41 -15.8,41 -18.9,32 -16.8,32 -15,37.2 -12.8,32 -11.4,32 -9.3,37.2 
			-7.5,32 		"/>
	</g>
</g>
</svg>
