<?xml version="1.0" encoding="utf-8"?>
<!-- Generator: Adobe Illustrator 19.0.0, SVG Export Plug-In . SVG Version: 6.00 Build 0)  -->
<svg version="1.1" id="XMLID_38_" xmlns="http://www.w3.org/2000/svg" xmlns:xlink="http://www.w3.org/1999/xlink" x="0px" y="0px"
	 viewBox="-19 20 24 26" style="enable-background:new -19 20 24 26;" xml:space="preserve">
<style type="text/css">
	.st0{fill:none;stroke:#000000;stroke-width:2;stroke-miterlimit:10;}
</style>
<g id="document-pdf">
	<g>
		<path d="M-8,41h-4v-8h4c1.6,0,3,1.5,3,3.2v1.6C-5,39.5-6.4,41-8,41z M-10,39h2c0.5,0,1-0.6,1-1.2v-1.6c0-0.6-0.5-1.2-1-1.2h-2V39z
			 M-17,41h-2v-8h3c1.7,0,3,1.3,3,3s-1.3,3-3,3h-1V41z M-17,37h1c0.6,0,1-0.4,1-1s-0.4-1-1-1h-1V37z"/>
	</g>
	<g>
		<rect x="-4" y="33" width="6" height="2"/>
	</g>
	<g>
		<rect x="-4" y="33" width="2" height="8"/>
	</g>
	<g>
		<rect x="-4" y="37" width="5" height="2"/>
	</g>
	<g>
		<polygon points="5,45 -15,45 -15,43 3,43 3,27.4 -1.4,23 -13,23 -13,30 -15,30 -15,21 -0.6,21 5,26.6 		"/>
	</g>
	<g>
		<polygon points="4,29 -3,29 -3,23 -1,23 -1,27 4,27 		"/>
	</g>
	<g>
		<path class="st0" d="M-3,28"/>
	</g>
</g>
</svg>
