<?xml version="1.0" encoding="utf-8"?>
<!-- Generator: Adobe Illustrator 19.0.0, SVG Export Plug-In . SVG Version: 6.00 Build 0)  -->
<svg version="1.1" id="XMLID_110_" xmlns="http://www.w3.org/2000/svg" xmlns:xlink="http://www.w3.org/1999/xlink" x="0px" y="0px"
	 viewBox="-19 20 24 26" style="enable-background:new -19 20 24 26;" xml:space="preserve">
<g id="srive-cage">
	<g>
		<rect x="-1" y="25" width="2" height="2"/>
	</g>
	<g>
		<rect x="-1" y="31" width="2" height="2"/>
	</g>
	<g>
		<rect x="-1" y="37" width="2" height="2"/>
	</g>
	<g>
		<path d="M5,44H3v-2h-20v2h-2V22H5V44z M-17,40H3v-4h-20V40z M-17,34H3v-4h-20V34z M-17,28H3v-4h-20V28z M-2,39h-13v-2h13V39z
			 M-2,33h-13v-2h13V33z M-2,27h-13v-2h13V27z"/>
	</g>
</g>
</svg>
