<?xml version="1.0" encoding="utf-8"?>
<!-- Generator: Adobe Illustrator 19.0.0, SVG Export Plug-In . SVG Version: 6.00 Build 0)  -->
<svg version="1.1" id="XMLID_107_" xmlns="http://www.w3.org/2000/svg" xmlns:xlink="http://www.w3.org/1999/xlink" x="0px" y="0px"
	 viewBox="-19 20 24 26" style="enable-background:new -19 20 24 26;" xml:space="preserve">
<g id="folder-cycle">
	<g>
		<path d="M5,45H0v-2h3V31h-20v12h2v2h-4V21h9.5l3,4H5V45z M-17,29H3v-2H-7.5l-3-4H-17V29z"/>
	</g>
	<g>
		<path d="M-11,39h-2c0-3.3,2.7-6,6-6c2.3,0,4.4,1.3,5.4,3.4l-1.8,0.9C-4.1,35.9-5.5,35-7,35C-9.2,35-11,36.8-11,39z"/>
	</g>
	<g>
		<polygon points="-6,38 -1,38 -1,33 		"/>
	</g>
	<g>
		<path d="M-7,45c-2.3,0-4.4-1.3-5.4-3.4l1.8-0.9C-9.9,42.1-8.5,43-7,43c2.2,0,4-1.8,4-4h2C-1,42.3-3.7,45-7,45z"/>
	</g>
	<g>
		<polygon points="-8,40 -13,40 -13,45 		"/>
	</g>
</g>
</svg>
