<?xml version="1.0" encoding="utf-8"?>
<!-- Generator: Adobe Illustrator 19.0.0, SVG Export Plug-In . SVG Version: 6.00 Build 0)  -->
<svg version="1.1" id="XMLID_106_" xmlns="http://www.w3.org/2000/svg" xmlns:xlink="http://www.w3.org/1999/xlink" x="0px" y="0px"
	 viewBox="-19 20 24 26" style="enable-background:new -19 20 24 26;" xml:space="preserve">
<g id="grid">
	<g>
		<path d="M4.5,44.5h-23v-23h23V44.5z M-2.5,42.5h5v-5h-5V42.5z M-9.5,42.5h5v-5h-5V42.5z M-16.5,42.5h5v-5h-5V42.5z M-2.5,35.5h5
			v-5h-5V35.5z M-9.5,35.5h5v-5h-5V35.5z M-16.5,35.5h5v-5h-5V35.5z M-2.5,28.5h5v-5h-5V28.5z M-9.5,28.5h5v-5h-5V28.5z M-16.5,28.5
			h5v-5h-5V28.5z"/>
	</g>
</g>
</svg>
