<?xml version="1.0" encoding="utf-8"?>
<!-- Generator: Adobe Illustrator 19.0.0, SVG Export Plug-In . SVG Version: 6.00 Build 0)  -->
<svg version="1.1" id="XMLID_204_" xmlns="http://www.w3.org/2000/svg" xmlns:xlink="http://www.w3.org/1999/xlink" x="0px" y="0px"
	 viewBox="-19 20 24 26" style="enable-background:new -19 20 24 26;" xml:space="preserve">
<g id="group">
	<g>
		<path d="M-0.5,43h-12.9v-2.7H-19v-3.7c0-2.5,1.4-4.5,3.4-5.5c-1-0.8-1.6-2.1-1.6-3.5c0-2.5,2-4.5,4.6-4.5c1.9,0,3.6,1.2,4.3,2.9
			c0.8-0.2,1.7-0.2,2.5,0c0.6-1.7,2.3-2.9,4.3-2.9c2.6,0,4.6,2,4.6,4.5c0,1.4-0.6,2.5-1.6,3.5C3.6,32,5,34.1,5,36.5v3.7h-5.5V43z
			 M-11.6,41.2h9.2v-1.9c0-2.5-1.9-4.5-4.6-4.5s-4.6,1.9-4.6,4.5V41.2z M-0.6,38.5h3.8v-1.9c0-2.5-1.9-4.5-4.6-4.5l0,0
			c-0.5,0-0.8-0.1-1.2-0.2c-0.3,0.7-0.7,1.3-1.3,1.8C-2.1,34.6-0.8,36.4-0.6,38.5z M-17.2,38.5h3.8c0.3-2.1,1.6-3.8,3.4-4.7
			c-0.6-0.5-1-1.1-1.3-1.8c-0.4,0.1-0.7,0.2-1.2,0.2l0,0l0,0c-2.7,0-4.6,1.9-4.6,4.5L-17.2,38.5L-17.2,38.5z M-7,33
			c1.6,0,2.8-1.2,2.8-2.7c0-1.5-1.2-2.7-2.8-2.7s-2.8,1.2-2.8,2.7C-9.8,31.8-8.6,33-7,33z M-1.5,30.3L-1.5,30.3
			c1.6,0,2.8-1.3,2.8-2.7c0-1.5-1.2-2.7-2.8-2.7c-1.2,0-2.3,0.8-2.7,1.9c1,0.8,1.7,2,1.8,3.4C-2.1,30.2-1.8,30.3-1.5,30.3z
			 M-12.5,24.8c-1.6,0-2.8,1.2-2.8,2.7s1.2,2.7,2.8,2.7c0.4,0,0.6-0.1,0.9-0.2c0.1-1.4,0.7-2.5,1.8-3.4
			C-10.2,25.6-11.3,24.8-12.5,24.8z"/>
	</g>
</g>
</svg>
