<?xml version="1.0" encoding="utf-8"?>
<!-- Generator: Adobe Illustrator 19.0.0, SVG Export Plug-In . SVG Version: 6.00 Build 0)  -->
<svg version="1.1" id="XMLID_125_" xmlns="http://www.w3.org/2000/svg" xmlns:xlink="http://www.w3.org/1999/xlink" x="0px" y="0px"
	 viewBox="-19 20 24 26" style="enable-background:new -19 20 24 26;" xml:space="preserve">
<g id="grow">
	<g>
		<path d="M-2.1,45h-9.7l-1-7H-15v-2h7v-3.1c-1.9,0.3-3.8-0.2-5.2-1.4c-1.7-1.5-2.2-3.7-1.4-5.7l0.2-0.4l0.4-0.1
			c2-0.7,4.4-0.3,6,0.9c0-1.4,0.6-2.8,1.8-3.8l0,0c1.6-1.4,4.1-1.8,6.2-1.1l0.4,0.1l0.2,0.4c0.9,2,0.4,4.2-1.4,5.7
			c-1.4,1.2-3.3,1.7-5.2,1.4V30c0,0.1,0,0.3,0,0.4V36h7v2h-2.1L-2.1,45z M-10.1,43h6.3l0.7-5h-7.7L-10.1,43z M-12.9,27.1
			c-0.3,1,0.1,2.1,1,2.9c1,0.9,2.5,1.2,3.8,0.9C-8,30.7-8,30.5-8,30.3V30c0-0.8-0.4-1.5-1.1-2.1C-10.1,27.1-11.5,26.8-12.9,27.1z
			 M-5.9,26.9c1.4,0.3,2.8,0,3.8-0.9c0.9-0.8,1.3-1.9,1-2.9c-1.4-0.3-2.8,0-3.8,0.9l0,0C-5.8,24.7-6.2,25.8-5.9,26.9z"/>
	</g>
</g>
</svg>
