<?xml version="1.0" encoding="utf-8"?>
<!-- Generator: Adobe Illustrator 19.0.0, SVG Export Plug-In . SVG Version: 6.00 Build 0)  -->
<svg version="1.1" id="XMLID_71_" xmlns="http://www.w3.org/2000/svg" xmlns:xlink="http://www.w3.org/1999/xlink" x="0px" y="0px"
	 viewBox="-19 20 24 26" style="enable-background:new -19 20 24 26;" xml:space="preserve">
<g id="halt">
	<g>
		<path d="M-4,46h-6c-4.4,0-8-3.6-8-8v-7h2c0.7,0,1.4,0.2,2,0.5V26c0-1.7,1.3-3,3-3c0.4,0,0.7,0.1,1,0.2V23c0-1.7,1.3-3,3-3
			s3,1.3,3,3v0.2c0.3-0.1,0.6-0.2,1-0.2c1.7,0,3,1.3,3,3v0.2C0.3,26.1,0.6,26,1,26c1.7,0,3,1.3,3,3v9C4,42.4,0.4,46-4,46z M-16,33v5
			c0,3.3,2.7,6,6,6h6c3.3,0,6-2.7,6-6v-9c0-0.6-0.4-1-1-1s-1,0.4-1,1v6h-2v-9c0-0.6-0.4-1-1-1s-1,0.4-1,1v8h-2V23c0-0.6-0.4-1-1-1
			s-1,0.4-1,1v11h-2v-8c0-0.6-0.4-1-1-1s-1,0.4-1,1v8.9V35v4h-2v-4C-14,33.9-14.9,33-16,33z"/>
	</g>
</g>
</svg>
