<?xml version="1.0" encoding="utf-8"?>
<!-- Generator: Adobe Illustrator 19.0.0, SVG Export Plug-In . SVG Version: 6.00 Build 0)  -->
<svg version="1.1" id="XMLID_303_" xmlns="http://www.w3.org/2000/svg" xmlns:xlink="http://www.w3.org/1999/xlink" x="0px" y="0px"
	 viewBox="-19 20 24 26" style="enable-background:new -19 20 24 26;" xml:space="preserve">
<g id="help">
	<g>
		<path d="M-6,39h-2v-2.9c0-1.6,1-3,2.4-3.4C-3.4,32-2,30.1-2,28c0-2.7-2.4-5.1-5-5.1c-1.4,0-2.7,0.5-3.6,1.5
			c-0.9,0.9-1.5,2.2-1.5,3.5h-2c0-1.9,0.7-3.6,2.1-4.9s3.1-2.1,5.1-2c3.7,0.1,6.9,3.3,6.9,7.1c0,3.1-2,5.8-5,6.7
			c-0.6,0.2-1,0.8-1,1.5V39z"/>
	</g>
	<g>
		<circle cx="-7" cy="43" r="2"/>
	</g>
</g>
</svg>
