<?xml version="1.0" encoding="utf-8"?>
<!-- Generator: Adobe Illustrator 19.0.0, SVG Export Plug-In . SVG Version: 6.00 Build 0)  -->
<svg version="1.1" id="XMLID_136_" xmlns="http://www.w3.org/2000/svg" xmlns:xlink="http://www.w3.org/1999/xlink" x="0px" y="0px"
	 viewBox="-19 20 24 26" style="enable-background:new -19 20 24 26;" xml:space="preserve">
<g id="history">
	<g>
		<path d="M-7,45c-6.6,0-12-5.4-12-12h2c0,5.5,4.5,10,10,10S3,38.5,3,33S-1.5,23-7,23c-3.6,0-6.9,1.9-8.7,5h4.7v2h-8v-8h2v4.4
			c2.2-3.3,6-5.4,10-5.4c6.6,0,12,5.4,12,12S-0.4,45-7,45z M-3.7,38.8L-8,34.4V27h2v6.6l3.7,3.8L-3.7,38.8z"/>
	</g>
</g>
</svg>
