<?xml version="1.0" encoding="utf-8"?>
<!-- Generator: Adobe Illustrator 19.0.0, SVG Export Plug-In . SVG Version: 6.00 Build 0)  -->
<svg version="1.1" id="XMLID_104_" xmlns="http://www.w3.org/2000/svg" xmlns:xlink="http://www.w3.org/1999/xlink" x="0px" y="0px"
	 viewBox="-19 20 24 26" style="enable-background:new -19 20 24 26;" xml:space="preserve">
<g id="host-maintenance">
	<g>
		<polygon points="-8.2,45 -18.3,45 -18.3,21 -0.3,21 -0.3,32 -2.3,32 -2.3,23 -16.3,23 -16.3,28 -2.3,28 -2.3,30 -16.3,30 
			-16.3,33 -3.2,33 -3.2,35 -16.3,35 -16.3,38 -5.3,38 -5.3,40 -16.3,40 -16.3,43 -8.2,43 		"/>
	</g>
	<g>
		<rect x="-6.3" y="24" width="3" height="3"/>
	</g>
	<g>
		<path d="M4,35.8l-2,2l-1.4-1.4l2-2c-1.1-0.5-2.5-0.3-3.4,0.6c-0.9,0.9-1.1,2.3-0.6,3.4l-5.1,5.1l1.4,1.4L0,39.8
			c1.1,0.5,2.5,0.3,3.4-0.6C4.4,38.2,4.6,36.9,4,35.8z"/>
	</g>
</g>
</svg>
