<?xml version="1.0" encoding="utf-8"?>
<!-- Generator: Adobe Illustrator 19.0.0, SVG Export Plug-In . SVG Version: 6.00 Build 0)  -->
<svg version="1.1" id="Layer_1" xmlns:sketch="http://www.bohemiancoding.com/sketch/ns"
	 xmlns="http://www.w3.org/2000/svg" xmlns:xlink="http://www.w3.org/1999/xlink" x="0px" y="0px" viewBox="-19 21 24 26"
	 style="enable-background:new -19 21 24 26;" xml:space="preserve">
<style type="text/css">
	.st0{fill:#231F1F;}
</style>
<g>
	<path class="st0" d="M-5.4,45.9c-7.8,1-14.5-5.6-13.5-13.5c0.7-5.3,5-9.7,10.3-10.3c7.8-1,14.5,5.6,13.5,13.5
		C4.2,40.9-0.1,45.2-5.4,45.9z M-5.3,24.1C-12.1,23-18,28.9-16.9,35.7c0.7,4.1,4,7.5,8.2,8.2C-1.9,45,4,39.1,2.9,32.3
		C2.2,28.2-1.2,24.8-5.3,24.1z"/>
	<polygon class="st0" points="-0.5,41.7 -14.7,27.6 -13.3,26.2 0.9,40.3 	"/>
</g>
</svg>
