<?xml version="1.0" encoding="utf-8"?>
<!-- Generator: Adobe Illustrator 22.1.0, SVG Export Plug-In . SVG Version: 6.00 Build 0)  -->
<svg version="1.1" id="Filled_Icons" xmlns="http://www.w3.org/2000/svg" xmlns:xlink="http://www.w3.org/1999/xlink" x="0px"
	 y="0px" viewBox="0 0 24 24" enable-background="new 0 0 24 24" xml:space="preserve">
<g id="Inherit-Filled">
	<path d="M17,6c0,2.76-2.24,5-5,5S7,8.76,7,6s2.24-5,5-5S17,3.24,17,6z M4,17c-1.66,0-3,1.34-3,3s1.34,3,3,3s3-1.34,3-3
		S5.66,17,4,17z M17,20c0,1.66,1.34,3,3,3s3-1.34,3-3s-1.34-3-3-3S17,18.34,17,20z"/>
	<polygon points="17.47,19.55 12,16.17 6.53,19.55 5.47,17.85 11,14.44 11,10.71 13,10.71 13,14.44 18.53,17.85 	"/>
</g>
</svg>
