<?xml version="1.0" encoding="utf-8"?>
<!-- Generator: Adobe Illustrator 19.0.0, SVG Export Plug-In . SVG Version: 6.00 Build 0)  -->
<svg version="1.1" id="XMLID_198_" xmlns="http://www.w3.org/2000/svg" xmlns:xlink="http://www.w3.org/1999/xlink" x="0px" y="0px"
	 viewBox="-19 20 24 26" style="enable-background:new -19 20 24 26;" xml:space="preserve">
<g id="java">
	<g>
		<path d="M-10,45c-5,0-9-4-9-9v-7h18v2.5c0.6-0.3,1.3-0.5,2-0.5c2.2,0,4,1.8,4,4s-1.8,4-4,4c-0.9,0-1.6-0.3-2.3-0.7
			C-2.3,42.1-5.8,45-10,45z M-17,31v5c0,3.9,3.1,7,7,7s7-3.1,7-7v-5H-17z M-1,35c0,1.1,0.9,2,2,2s2-0.9,2-2s-0.9-2-2-2S-1,33.9-1,35
			z M-6,27h-2v-4h2V27z M-9,27h-2v-6h2V27z M-12,27h-2v-4h2V27z"/>
	</g>
</g>
</svg>
