<?xml version="1.0" encoding="utf-8"?>
<!-- Generator: Adobe Illustrator 19.0.0, SVG Export Plug-In . SVG Version: 6.00 Build 0)  -->
<svg version="1.1" id="XMLID_101_" xmlns="http://www.w3.org/2000/svg" xmlns:xlink="http://www.w3.org/1999/xlink" x="0px" y="0px"
	 viewBox="-19 20 24 26" style="enable-background:new -19 20 24 26;" xml:space="preserve">
<g id="launch">
	<g>
		<circle cx="-7" cy="28.9" r="2"/>
	</g>
	<g>
		<path d="M-14.3,45c-0.3,0-0.5-0.1-0.8-0.2c-0.6-0.3-0.9-0.9-0.9-1.6v-3.6c0-1.3,0.4-2.3,1.1-3l2-2.1C-13,33.4-13,32.2-13,31
			c0-7.8,5.4-9.8,5.7-9.9L-7,21l0.3,0.1c0.2,0.1,5.7,2,5.7,9.9c0,1.2,0,2.4-0.1,3.5l2,2.1c0.7,0.7,1.1,1.7,1.1,3v3.6
			c0,0.7-0.3,1.2-0.8,1.5C0.6,45,0,45-0.6,44.6L-3,42.8l-1.4,2.1h-5.1l-1.4-2l-2.4,1.8C-13.6,44.9-14,45-14.3,45z M-8.5,42.9h2.9
			l0.7-1h-4.3L-8.5,42.9z M-7,23.1c-1,0.5-4,2.4-4,7.8c0,1.3,0.1,2.6,0.2,3.8v0.5l-2.7,2.8c-0.4,0.4-0.5,0.9-0.5,1.6v3.1l2.3-1.8
			c0.2-0.1,0.3-0.2,0.4-0.2c0.5-0.4,1.2-0.8,2-0.8h4.6c0.9,0,1.6,0.5,2.2,0.9l0.2,0.1L0,42.6v-3c0-0.7-0.2-1.2-0.5-1.6l0,0l-2.7-2.8
			v-0.5c0.1-1.2,0.2-2.5,0.2-3.8C-3,25.5-6,23.6-7,23.1z"/>
	</g>
</g>
</svg>
