<?xml version="1.0" encoding="utf-8"?>
<!-- Generator: Adobe Illustrator 19.0.0, SVG Export Plug-In . SVG Version: 6.00 Build 0)  -->
<svg version="1.1" id="XMLID_224_" xmlns="http://www.w3.org/2000/svg" xmlns:xlink="http://www.w3.org/1999/xlink" x="0px" y="0px"
	 viewBox="-19 20 24 26" style="enable-background:new -19 20 24 26;" xml:space="preserve">
<g id="license">
	<g>
		<path d="M-13,30c-1.7,0-3-1.3-3-3s1.3-3,3-3s3,1.3,3,3S-11.3,30-13,30z M-13,26c-0.6,0-1,0.4-1,1s0.4,1,1,1s1-0.4,1-1
			S-12.4,26-13,26z"/>
	</g>
	<g>
		<path d="M5,45h-6.4L-4,42.4V41h-3v-3h-3v-3.3c-0.6,0.2-1.3,0.3-2,0.3c-3.9,0-7-3.1-7-7s3.1-7,7-7s7,3.1,7,7c0,0.5,0,1-0.1,1.4
			L5,39.6V45z M-0.6,43H3v-2.6L-7.4,30l0.2-0.6C-7.1,29-7,28.5-7,28c0-2.8-2.2-5-5-5s-5,2.2-5,5s2.2,5,5,5c0.7,0,1.4-0.1,2.1-0.4
			l0.6-0.3l1.3,1.3V36h3v3h3v2.6L-0.6,43z"/>
	</g>
</g>
</svg>
