<?xml version="1.0" encoding="utf-8"?>
<!-- Generator: Adobe Illustrator 19.0.0, SVG Export Plug-In . SVG Version: 6.00 Build 0)  -->
<svg version="1.1" id="XMLID_242_" xmlns="http://www.w3.org/2000/svg" xmlns:xlink="http://www.w3.org/1999/xlink" x="0px" y="0px"
	 viewBox="-19 20 24 26" style="enable-background:new -19 20 24 26;" xml:space="preserve">
<g id="like">
	<g>
		<path d="M1,45h-20V31h8c1.1,0,2-0.8,2-1.9V21h3.1c2.2,0,3.9,1.8,3.9,4v5h7v11C5,43.2,3.2,45,1,45z M-11,43H1c1.1,0,2-0.9,2-2v-9
			h-7v-7c0-1.1-0.8-2-1.9-2H-7v6.1c0,2.2-1.8,3.9-4,3.9V43z M-17,43h4V33h-4V43z"/>
	</g>
</g>
</svg>
