<?xml version="1.0" encoding="utf-8"?>
<!-- Generator: Adobe Illustrator 19.0.0, SVG Export Plug-In . SVG Version: 6.00 Build 0)  -->
<svg version="1.1" id="XMLID_291_" xmlns="http://www.w3.org/2000/svg" xmlns:xlink="http://www.w3.org/1999/xlink" x="0px" y="0px"
	 viewBox="-19 20 24 26" style="enable-background:new -19 20 24 26;" xml:space="preserve">
<g id="link">
	<g>
		<path d="M-13.2,45c-0.7,0-1.5-0.3-2-0.8l-2.9-2.9c-1.1-1.1-1.1-2.9,0-4l4.6-4.6c1.1-1.1,2.9-1.1,4,0l0.8,0.8l2.2-2.2l-0.8-0.8
			c-1.1-1.1-1.1-2.9,0-4l4.6-4.6c1.1-1.1,2.9-1.1,4,0l2.9,2.9c1.1,1.1,1.1,2.9,0,4l-4.6,4.6c-1.1,1.1-2.9,1.1-4,0l-0.8-0.8l-2.2,2.2
			l0.8,0.8c1.1,1.1,1.1,2.9,0,4l-4.6,4.6C-11.8,44.7-12.5,45-13.2,45z M-13.8,42.8c0.3,0.3,0.9,0.3,1.2,0l4.6-4.6
			c0.2-0.2,0.2-0.4,0.2-0.6S-7.9,37.2-8,37l-0.8-0.8l-2.5,2.5l-1.4-1.4l2.5-2.5L-11,34c-0.3-0.3-0.9-0.3-1.2,0l-4.6,4.6
			c-0.3,0.3-0.3,0.9,0,1.2L-13.8,42.8z M-3.8,31.2L-3,32c0.3,0.3,0.9,0.3,1.2,0l4.6-4.6c0.3-0.3,0.3-0.9,0-1.2l-2.9-2.9
			C-0.4,23-1,23-1.3,23.3L-6,27.8c-0.3,0.3-0.3,0.9,0,1.2l0.8,0.8l2.5-2.5l1.4,1.4L-3.8,31.2z"/>
	</g>
</g>
</svg>
