<?xml version="1.0" encoding="utf-8"?>
<!-- Generator: Adobe Illustrator 19.0.0, SVG Export Plug-In . SVG Version: 6.00 Build 0)  -->
<svg version="1.1" id="XMLID_170_" xmlns="http://www.w3.org/2000/svg" xmlns:xlink="http://www.w3.org/1999/xlink" x="0px" y="0px"
	 viewBox="-19 20 24 26" style="enable-background:new -19 20 24 26;" xml:space="preserve">
<g id="map-location">
	<g>
		<path d="M-11,28.6"/>
	</g>
	<g>
		<path d="M5,45.3l-8-3.4l-8,3l-8-3.4V24.3l5.3,2.3c0.4-3.3,3.3-5.9,6.7-5.9c3.2,0,5.8,2.2,6.6,5.1L5,28.1V45.3z M-10,35.2v7.2
			l6-2.3v-4.9c-0.4,0.4-0.8,0.8-1.2,1.2c-0.4,0.3-0.7,0.7-1.1,1L-6.9,38l-0.7-0.6C-7.7,37.3-8.8,36.5-10,35.2z M-2,40.2l5,2.1V29.5
			l-3.3-1.4c0,1.9-0.7,3.5-1.7,4.8V40.2z M-17,40.2l5,2.1v-9.6h0.1c-0.8-1.2-1.5-2.6-1.7-3.9l-3.4-1.4V40.2z M-7,22.6
			c-2.6,0-4.8,2.1-4.8,4.8c0,2.8,3,6.2,4.7,7.9c0.1-0.1,0.3-0.3,0.4-0.4c2-1.9,4.4-4.1,4.4-7.5C-2.2,24.9-4.3,22.6-7,22.6z"/>
	</g>
	<g>
		<path d="M-7,30.6c-1.7,0-3-1.3-3-3s1.3-3,3-3s3,1.3,3,3S-5.3,30.6-7,30.6z M-7,26.6c-0.6,0-1,0.4-1,1s0.4,1,1,1s1-0.4,1-1
			S-6.4,26.6-7,26.6z"/>
	</g>
</g>
</svg>
