<?xml version="1.0" encoding="utf-8"?>
<!-- Generator: Adobe Illustrator 19.0.0, SVG Export Plug-In . SVG Version: 6.00 Build 0)  -->
<svg version="1.1" id="XMLID_293_" xmlns="http://www.w3.org/2000/svg" xmlns:xlink="http://www.w3.org/1999/xlink" x="0px" y="0px"
	 viewBox="-19 20 24 26" style="enable-background:new -19 20 24 26;" xml:space="preserve">
<g id="microphone">
	<g>
		<path d="M-6,45h-2v-4.1c-4.5-0.5-8-4.3-8-8.9v-2h2v2c0,3.8,3.1,7,7,7s7-3.1,7-7v-2h2v2c0,4.6-3.5,8.4-8,8.9V45z M-7,37
			c-2.8,0-5-2.2-5-5v-6c0-2.7,2.2-5,5-5s5,2.2,5,5v6C-2,34.8-4.2,37-7,37z M-7,23c-1.7,0-3,1.3-3,3v6c0,1.6,1.3,3,3,3s3-1.3,3-3v-6
			C-4,24.3-5.3,23-7,23z"/>
	</g>
</g>
</svg>
