<?xml version="1.0" encoding="utf-8"?>
<!-- Generator: Adobe Illustrator 22.1.0, SVG Export Plug-In . SVG Version: 6.00 Build 0)  -->
<svg version="1.1" id="Filled_Icons" xmlns="http://www.w3.org/2000/svg" xmlns:xlink="http://www.w3.org/1999/xlink" x="0px"
	 y="0px" viewBox="0 0 24 24" enable-background="new 0 0 24 24" xml:space="preserve">
<g id="Microphone-Filled">
	<path d="M16,11.04V4.96C16,2.77,14.23,1,12.04,1h-0.08C9.77,1,8,2.77,8,4.96v6.08C8,13.23,9.77,15,11.96,15h0.08
		C14.23,15,16,13.23,16,11.04z"/>
	<path d="M19,9v2.04c0,3.84-3.12,6.96-7.04,6.96C8.12,18,5,14.88,5,11.04V9H3v2.04c0,4.59,3.48,8.39,8,8.9V24h2v-4.05
		c4.49-0.48,8-4.29,8-8.91V9H19z"/>
</g>
</svg>
