<?xml version="1.0" encoding="utf-8"?>
<!-- Generator: Adobe Illustrator 19.0.0, SVG Export Plug-In . SVG Version: 6.00 Build 0)  -->
<svg version="1.1" id="XMLID_169_" xmlns="http://www.w3.org/2000/svg" xmlns:xlink="http://www.w3.org/1999/xlink" x="0px" y="0px"
	 viewBox="-19 20 24 26" style="enable-background:new -19 20 24 26;" xml:space="preserve">
<g id="navigate">
	<g>
		<path d="M-4.3,44.1h-5.4V32.3h-5.7l-3.6-3.6l3.6-3.6h5.7v-0.4l2.7-2.7l2.7,2.7v3.1h5.7L5,31.4L1.4,35h-5.7
			C-4.3,35-4.3,44.1-4.3,44.1z M-7.9,42.3h1.8V25.4L-7,24.4l-0.9,0.9V42.3z M-4.3,33.2h5l1.8-1.8l-1.8-1.8h-5
			C-4.3,29.5-4.3,33.2-4.3,33.2z M-14.7,30.5h5v-3.6h-5l-1.8,1.8L-14.7,30.5z"/>
	</g>
</g>
</svg>
