<?xml version="1.0" encoding="utf-8"?>
<!-- Generator: Adobe Illustrator 19.0.0, SVG Export Plug-In . SVG Version: 6.00 Build 0)  -->
<svg version="1.1" id="XMLID_223_" xmlns="http://www.w3.org/2000/svg" xmlns:xlink="http://www.w3.org/1999/xlink" x="0px" y="0px"
	 viewBox="-19 20 24 26" style="enable-background:new -19 20 24 26;" xml:space="preserve">
<g id="optimization">
	<g>
		<path d="M-2,45.1v-13l6-0.2v13L-2,45.1z M0,34.1v9h2v-9H0z M-4,45h-6v-8h6V45z M-8,43h2v-4h-2V43z M-12,45h-6v-6h6V45z M-16,43h2
			v-2h-2V43z M-18,37v-2c7.8,0,12.8-3.4,16.1-10.9l-4.3,1.7L-7,23.9l7.5-3l3,7.3L1.6,29l-1.7-4.2C-3.7,33.1-9.4,37-18,37z"/>
	</g>
</g>
</svg>
