<?xml version="1.0" encoding="utf-8"?>
<!-- Generator: Adobe Illustrator 19.0.0, SVG Export Plug-In . SVG Version: 6.00 Build 0)  -->
<svg version="1.1" id="XMLID_187_" xmlns="http://www.w3.org/2000/svg" xmlns:xlink="http://www.w3.org/1999/xlink" x="0px" y="0px"
	 viewBox="-19 20 24 26" style="enable-background:new -19 20 24 26;" xml:space="preserve">
<g id="pan">
	<g>
		<polygon points="-7,45 -11.5,40.5 -10.2,39.1 -8,41.3 -8,34 -15.3,34 -13.1,36.2 -14.5,37.5 -19,33 -14.5,28.5 -13.1,29.8 
			-15.3,32 -8,32 -8,24.7 -10.2,26.9 -11.5,25.5 -7,21 -2.5,25.5 -3.8,26.9 -6,24.7 -6,32 1.3,32 -0.9,29.8 0.5,28.5 5,33 0.5,37.5 
			-0.9,36.2 1.3,34 -6,34 -6,41.3 -3.8,39.1 -2.5,40.5 		"/>
	</g>
</g>
</svg>
