<?xml version="1.0" encoding="utf-8"?>
<!-- Generator: Adobe Illustrator 19.0.0, SVG Export Plug-In . SVG Version: 6.00 Build 0)  -->
<svg version="1.1" id="XMLID_21_" xmlns="http://www.w3.org/2000/svg" xmlns:xlink="http://www.w3.org/1999/xlink" x="0px" y="0px"
	 viewBox="-19 20 24 26" style="enable-background:new -19 20 24 26;" xml:space="preserve">
<g id="payment-square">
	<g>
		<path d="M-2,43h-10c-2.8,0-5-2.2-5-5V28c0-2.8,2.2-5,5-5h10c2.8,0,5,2.2,5,5v10C3,40.7,0.8,43-2,43z M-12,25c-1.7,0-3,1.3-3,3v10
			c0,1.7,1.3,3,3,3h10c1.7,0,3-1.3,3-3V28c0-1.7-1.3-3-3-3C-2,25-12,25-12,25z"/>
	</g>
	<g>
		<path d="M-5,30h-4c-0.6,0-1,0.4-1,1v4c0,0.6,0.4,1,1,1h4c0.6,0,1-0.4,1-1v-4C-4,30.4-4.4,30-5,30z"/>
	</g>
</g>
</svg>
