<?xml version="1.0" encoding="utf-8"?>
<!-- Generator: Adobe Illustrator 19.0.0, SVG Export Plug-In . SVG Version: 6.00 Build 0)  -->
<svg version="1.1" id="XMLID_22_" xmlns="http://www.w3.org/2000/svg" xmlns:xlink="http://www.w3.org/1999/xlink" x="0px" y="0px"
	 viewBox="-19 20 24 26" style="enable-background:new -19 20 24 26;" xml:space="preserve">
<g id="payment-mastercard">
	<g id="path2268">
		<g>
			<path d="M-2.2,26.7c3.4,0,6.2,2.8,6.2,6.2c0,1.7-0.6,3.2-1.8,4.4c-1.2,1.2-2.7,1.8-4.4,1.8c-3.4,0-6.2-2.8-6.2-6.2
				c0-1.7,0.6-3.2,1.8-4.4C-5.4,27.3-3.8,26.7-2.2,26.7L-2.2,26.7 M-2.2,25.7L-2.2,25.7c-4,0-7.2,3.2-7.2,7.2l0,0
				c0,4,3.2,7.2,7.2,7.2l0,0c4,0,7.2-3.2,7.2-7.2l0,0C5,28.9,1.8,25.7-2.2,25.7L-2.2,25.7z"/>
		</g>
	</g>
	<path d="M-4.8,34.3h-4.5c0-0.2-0.1-0.5-0.1-0.7h4.7c0-0.2,0-0.5,0-0.7v-0.1h-4.8c0-0.2,0-0.5,0-0.7h4.7c0-0.2-0.1-0.5-0.1-0.7h-4.4
		c0.1-0.2,0.1-0.5,0.2-0.7h4c-0.1-0.2-0.2-0.6-0.3-0.8h-3.4c0.1-0.2,0.3-0.5,0.4-0.7h2.5c-0.2-0.2-0.4-0.5-0.6-0.7h-1.4
		c0.2-0.3,0.5-0.5,0.7-0.7c-1.3-1.2-3-1.9-4.8-1.9l0,0c-3.9,0-7.1,3.2-7.1,7.2s3.2,7.2,7.2,7.2c1.9,0,3.6-0.7,4.8-1.9l0,0l0,0
		c0.3-0.2,0.5-0.5,0.7-0.8h-1.5c-0.2-0.2-0.4-0.5-0.5-0.7h2.5c0.2-0.2,0.3-0.5,0.4-0.7h-3.4C-8.9,36-9,35.6-9.1,35.4h4
		C-4.9,34.9-4.8,34.6-4.8,34.3z"/>
</g>
</svg>
