<?xml version="1.0" encoding="utf-8"?>
<!-- Generator: Adobe Illustrator 19.0.0, SVG Export Plug-In . SVG Version: 6.00 Build 0)  -->
<svg version="1.1" id="XMLID_19_" xmlns="http://www.w3.org/2000/svg" xmlns:xlink="http://www.w3.org/1999/xlink" x="0px" y="0px"
	 viewBox="-19 20 24 26" style="enable-background:new -19 20 24 26;" xml:space="preserve">
<g id="payment-paypal">
	<path d="M-1.1,23.6c-1-1.1-2.7-1.6-5-1.6h-6.6c-0.5,0-0.9,0.3-0.9,0.8l-2.8,17.3c-0.1,0.3,0.2,0.7,0.6,0.7h4.1l1-6.5v0.2
		c0.1-0.5,0.5-0.8,0.9-0.8h1.9c3.8,0,6.7-1.5,7.6-6c0-0.1,0-0.3,0.1-0.4C0,25.7-0.2,24.6-1.1,23.6 M0.7,28.2L0.7,28.2
		c0,0.1,0,0.3-0.1,0.4c-0.9,4.4-3.8,6-7.6,6h-1.9c-0.5,0-0.9,0.3-0.9,0.8l-1,6.3l-0.3,1.8c0,0.3,0.2,0.6,0.5,0.6h3.4
		c0.4,0,0.7-0.3,0.8-0.7v-0.2l0.6-4.1v-0.2c0.1-0.4,0.4-0.7,0.8-0.7h0.6c3.3,0,5.9-1.3,6.7-5.2c0.3-1.6,0.2-3-0.7-3.9
		C1.3,28.7,1,28.4,0.7,28.2"/>
</g>
</svg>
