<?xml version="1.0" encoding="utf-8"?>
<!-- Generator: Adobe Illustrator 19.0.0, SVG Export Plug-In . SVG Version: 6.00 Build 0)  -->
<svg version="1.1" id="XMLID_18_" xmlns="http://www.w3.org/2000/svg" xmlns:xlink="http://www.w3.org/1999/xlink" x="0px" y="0px"
	 viewBox="-19 20 24 26" style="enable-background:new -19 20 24 26;" xml:space="preserve">
<g id="platform-apple">
	<path d="M-0.4,33.7c0,3.6,3.2,4.8,3.2,4.9c0,0.1-0.5,1.7-1.7,3.4c-1,1.5-2,2.9-3.7,2.9c-1.6,0-2.1-1-4-1c-1.8,0-2.4,0.9-3.9,1
		c-1.6,0.1-2.8-1.6-3.8-3c-2.1-3-3.6-8.4-1.5-12.1c1.1-1.8,2.9-3,5-3c1.6,0,3,1,4,1c0.9,0,2.7-1.3,4.6-1.1c0.8,0,3,0.3,4.4,2.4
		C2.1,29.3-0.4,30.7-0.4,33.7 M-3.4,24.8c0.8-1,1.4-2.4,1.2-3.8c-1.2,0-2.7,0.8-3.5,1.8c-0.8,0.9-1.5,2.3-1.3,3.7
		C-5.6,26.6-4.2,25.8-3.4,24.8"/>
</g>
</svg>
