<?xml version="1.0" encoding="utf-8"?>
<!-- Generator: Adobe Illustrator 19.0.0, SVG Export Plug-In . SVG Version: 6.00 Build 0)  -->
<svg version="1.1" id="XMLID_12_" xmlns="http://www.w3.org/2000/svg" xmlns:xlink="http://www.w3.org/1999/xlink" x="0px" y="0px"
	 viewBox="-19 20 24 26" style="enable-background:new -19 20 24 26;" xml:space="preserve">
<g id="platform-internet-explorer" transform="translate(-314.39464,-274.3971)">
	<path id="svg" d="M319.4,307.9c0-1.9-0.5-3.7-1.4-5.2c3.7-8.3-3.9-7.1-4.4-7c-1.6,0.3-3.1,0.8-4.5,1.5c-0.2,0-0.4,0-0.6,0
		c-5.1,0-9.4,3.6-10.5,8.4c2.7-3,4.6-4.3,5.7-4.7c-0.2,0.2-0.4,0.3-0.5,0.5c-0.1,0.1-0.1,0.1-0.2,0.2c-0.1,0.1-0.2,0.2-0.3,0.3
		c-0.1,0.1-0.1,0.1-0.2,0.2c-0.1,0.1-0.2,0.2-0.3,0.3c-0.1,0.1-0.1,0.1-0.2,0.2c-0.1,0.1-0.2,0.2-0.3,0.3c-0.1,0.1-0.1,0.2-0.2,0.2
		c-0.1,0.1-0.2,0.2-0.2,0.3c-0.1,0.1-0.1,0.2-0.2,0.2c-0.1,0.1-0.2,0.2-0.2,0.3c-0.1,0.1-0.1,0.2-0.2,0.2c-0.1,0.1-0.1,0.2-0.2,0.3
		c-0.1,0.1-0.1,0.2-0.2,0.3c-0.1,0.1-0.1,0.2-0.2,0.2c-0.1,0.1-0.1,0.2-0.2,0.3c0,0.1-0.1,0.1-0.1,0.2c-0.4,0.6-0.8,1.2-1.2,1.7l0,0
		c-0.1,0.1-0.2,0.3-0.3,0.4l0,0c-0.1,0.1-0.2,0.3-0.3,0.4l0,0c-0.2,0.4-0.4,0.7-0.6,1.1c-1,1.8-1.4,3-1.5,3.1
		c-3.1,11,6.5,6.3,7.8,5.6c1.4,0.7,3.1,1.1,4.8,1.1c4.7,0,8.7-3,10.2-7.2H313c-0.8,1.4-2.5,2.4-4.3,2.4c-2.7,0-4.9-2.1-4.9-4.6h15.3
		C319.4,308.8,319.4,308.3,319.4,307.9L319.4,307.9z M317.4,297.3c0.9,0.6,1.7,1.6,0.4,4.9c-1.2-2-3.1-3.5-5.3-4.4
		C313.5,297.3,316,296.3,317.4,297.3z M297.7,317.5c-0.8-0.8-0.9-2.7,0.8-6.1c0.8,2.4,2.5,4.5,4.7,5.7
		C302.1,317.7,299.3,319.1,297.7,317.5z M304,306.3c0.1-2.5,2.2-4.4,4.9-4.4c2.6,0,4.8,2,4.9,4.4H304L304,306.3z"/>
</g>
</svg>
