<?xml version="1.0" encoding="utf-8"?>
<!-- Generator: Adobe Illustrator 19.0.0, SVG Export Plug-In . SVG Version: 6.00 Build 0)  -->
<svg version="1.1" id="XMLID_15_" xmlns="http://www.w3.org/2000/svg" xmlns:xlink="http://www.w3.org/1999/xlink" x="0px" y="0px"
	 viewBox="-19 20 24 26" style="enable-background:new -19 20 24 26;" xml:space="preserve">
<g id="platform-skype">
	<path d="M3.1,34.6c0-0.5,0.1-1,0.1-1.6c0-5.6-4.6-10.2-10.2-10.2c-0.5,0-1.1,0-1.6,0.1c-0.9-0.6-2-0.9-3.2-0.9
		c-3.4,0-6.2,2.8-6.2,6.2c0,1.2,0.3,2.3,0.9,3.2c-0.1,0.5-0.1,1-0.1,1.6c0,5.6,4.6,10.2,10.2,10.2c0.5,0,1.1,0,1.6-0.1
		c0.9,0.6,2,0.9,3.2,0.9C1.2,44,4,41.2,4,37.8C4,36.7,3.6,35.6,3.1,34.6L3.1,34.6z M-2.2,37.7c-0.4,0.6-1.1,1.1-1.9,1.5
		c-0.8,0.3-1.8,0.5-2.9,0.5c-1.4,0-2.5-0.2-3.4-0.7c-0.6-0.3-1.1-0.8-1.5-1.4c-0.4-0.6-0.6-1.1-0.6-1.7c0-0.3,0.1-0.6,0.4-0.8
		c0.2-0.2,0.6-0.3,0.9-0.3c0.3,0,0.6,0.1,0.8,0.3c0.2,0.2,0.4,0.4,0.5,0.8c0.2,0.4,0.4,0.7,0.6,1c0.2,0.3,0.5,0.5,0.8,0.7
		c0.4,0.2,0.8,0.3,1.4,0.3c0.8,0,1.5-0.2,2-0.5c0.5-0.4,0.8-0.8,0.8-1.3c0-0.4-0.1-0.7-0.4-1c-0.3-0.3-0.6-0.5-1.1-0.6
		c-0.4-0.1-1-0.3-1.8-0.4c-1-0.2-1.8-0.5-2.5-0.8c-0.7-0.3-1.2-0.7-1.6-1.2c-0.4-0.5-0.6-1.1-0.6-1.9c0-0.7,0.2-1.3,0.6-1.9
		c0.4-0.6,1-1,1.8-1.3s1.7-0.4,2.8-0.4c0.8,0,1.6,0.1,2.2,0.3c0.6,0.2,1.1,0.5,1.5,0.8s0.7,0.7,0.9,1c0.2,0.4,0.3,0.7,0.3,1.1
		c0,0.3-0.1,0.6-0.4,0.9c-0.2,0.3-0.5,0.4-0.9,0.4c-0.3,0-0.6-0.1-0.8-0.2c-0.2-0.2-0.4-0.4-0.5-0.7c-0.2-0.5-0.5-0.8-0.9-1.1
		c-0.3-0.3-0.9-0.4-1.7-0.4c-0.7,0-1.3,0.1-1.7,0.4s-0.6,0.6-0.6,1c0,0.2,0.1,0.5,0.2,0.6c0.1,0.2,0.3,0.3,0.6,0.5
		c0.3,0.1,0.5,0.2,0.8,0.3c0.3,0.1,0.7,0.2,1.3,0.3c0.8,0.2,1.5,0.4,2.1,0.6c0.6,0.2,1.2,0.4,1.6,0.7c0.4,0.3,0.8,0.7,1,1.1
		c0.3,0.5,0.4,1,0.4,1.6C-1.5,36.4-1.7,37.1-2.2,37.7L-2.2,37.7z"/>
</g>
</svg>
