<?xml version="1.0" encoding="utf-8"?>
<!-- Generator: Adobe Illustrator 19.0.0, SVG Export Plug-In . SVG Version: 6.00 Build 0)  -->
<svg version="1.1" id="XMLID_11_" xmlns="http://www.w3.org/2000/svg" xmlns:xlink="http://www.w3.org/1999/xlink" x="0px" y="0px"
	 viewBox="-19 20 24 26" style="enable-background:new -19 20 24 26;" xml:space="preserve">
<g id="platform-edge">
	<path id="Microsoft-Edge-logo" d="M-13.6,27.4c-2.9,1.8-4.5,4.3-4.5,4.3s0.4-5.3,4.5-8.4C-12,22-9.8,21-6.8,21
		c1.1,0,3.5,0.2,5.6,1.5s3,2.4,3.9,4c0.4,0.7,0.7,1.6,1,2.4c0.4,1.6,0.4,3.5,0.4,3.5v2.5H-11c0,0-0.4,5.1,6.6,5.1
		c2.4,0,3.3-0.4,4-0.6C0.8,39,2,38.2,2,38.2v5.1c0,0-2.8,1.7-7.1,1.7c-1.2,0-2.5-0.1-3.7-0.5c-1.1-0.3-3.3-1.3-4.8-3.5
		c-0.5-0.8-1.1-1.8-1.4-2.8c-0.3-1.1-0.3-2.2-0.3-2.7c0-2.2,0.7-4.3,2-5.8c1.7-2,3.8-2.8,3.8-2.8s-0.7,0.8-1.1,1.8s-0.5,2-0.5,2h8.5
		c0,0,0.5-5.1-4.8-5.1C-9.4,25.6-11.9,26.3-13.6,27.4z"/>
</g>
</svg>
