<?xml version="1.0" encoding="utf-8"?>
<!-- Generator: Adobe Illustrator 19.0.0, SVG Export Plug-In . SVG Version: 6.00 Build 0)  -->
<svg version="1.1" id="XMLID_210_" xmlns="http://www.w3.org/2000/svg" xmlns:xlink="http://www.w3.org/1999/xlink" x="0px" y="0px"
	 viewBox="-19 20 24 26" style="enable-background:new -19 20 24 26;" xml:space="preserve">
<g id="power">
	<g>
		<path d="M-7,45c-6,0-11-4.9-11-11c0-4.6,2.7-8.6,7-10.2l0.7,1.9C-13.7,27-16,30.3-16,34c0,4.9,4,9,9,9s9-4,9-9
			c0-3.7-2.2-7-5.7-8.4l0.7-1.9c4.2,1.7,7,5.7,7,10.2C4,40.1-1,45-7,45z M-6,31h-2V21h2V31z"/>
	</g>
</g>
</svg>
