<?xml version="1.0" encoding="utf-8"?>
<!-- Generator: Adobe Illustrator 19.0.0, SVG Export Plug-In . SVG Version: 6.00 Build 0)  -->
<svg version="1.1" id="XMLID_70_" xmlns="http://www.w3.org/2000/svg" xmlns:xlink="http://www.w3.org/1999/xlink" x="0px" y="0px"
	 viewBox="-19 20 24 26" style="enable-background:new -19 20 24 26;" xml:space="preserve">
<g id="quick-view">
	<g>
		<path d="M-0.5,43c-3,0-5.5-2.5-5.5-5.5c0-0.2,0-0.3,0-0.5l0,0c0-0.6-0.4-1-1-1s-1,0.4-1,1l0,0c0,0.2,0,0.3,0,0.5
			c0,3-2.5,5.5-5.5,5.5s-5.5-2.5-5.5-5.5c0-0.2,0-0.3,0-0.5l0,0v-8c0-3.3,2.7-6,6-6v2c-2.2,0-4,1.8-4,4v4.3c1-0.8,2.2-1.3,3.5-1.3
			c2,0,3.7,1,4.7,2.6c1-0.8,2.6-0.8,3.6,0c1-1.6,2.7-2.6,4.7-2.6C0.8,32,2,32.5,3,33.3V29c0-2.2-1.8-4-4-4v-2c3.3,0,6,2.7,6,6v8
			c0,0.2,0,0.3,0,0.5C5,40.5,2.5,43-0.5,43z M-0.5,34C-2.4,34-4,35.6-4,37.5S-2.4,41-0.5,41S3,39.4,3,37.5S1.4,34-0.5,34z M-13.5,34
			c-1.9,0-3.5,1.6-3.5,3.5s1.6,3.5,3.5,3.5s3.5-1.6,3.5-3.5S-11.6,34-13.5,34z"/>
	</g>
</g>
</svg>
