<?xml version="1.0" encoding="utf-8"?>
<!-- Generator: Adobe Illustrator 19.0.0, SVG Export Plug-In . SVG Version: 6.00 Build 0)  -->
<svg version="1.1" id="XMLID_97_" xmlns="http://www.w3.org/2000/svg" xmlns:xlink="http://www.w3.org/1999/xlink" x="0px" y="0px"
	 viewBox="-19 20 24 26" style="enable-background:new -19 20 24 26;" xml:space="preserve">
<g id="schedule-new">
	<g>
		<path d="M1.7,45h-2v-2.8l-2.4,1.4l-1-1.7l2.4-1.4l-2.4-1.4l1-1.7l2.4,1.4V36h2v2.8L4,37.4l1,1.7l-2.4,1.4L5,41.9l-1,1.7l-2.4-1.4
			V45z M-6.2,41H-19V23h3.9v-2h2v2h5.9v-2h2v2h3.9v12h-2V25H-17v2h13.8v2H-17v10h10.8V41z M-5.2,37h-5.9v-2h5.9V37z M-13.1,37h-2v-2
			h2V37z M-5.2,33h-5.9v-2h5.9V33z M-13.1,33h-2v-2h2V33z"/>
	</g>
</g>
</svg>
