<?xml version="1.0" encoding="utf-8"?>
<!-- Generator: Adobe Illustrator 19.0.0, SVG Export Plug-In . SVG Version: 6.00 Build 0)  -->
<svg version="1.1" id="XMLID_96_" xmlns="http://www.w3.org/2000/svg" xmlns:xlink="http://www.w3.org/1999/xlink" x="0px" y="0px"
	 viewBox="-19 20 24 26" style="enable-background:new -19 20 24 26;" xml:space="preserve">
<g id="schedule-play">
	<g>
		<path d="M-1.5,45c-2.7,0-5-1.7-6-4H-19V23h4v-2h2v2h6v-2h2v2h4v9c3.4,0.3,6,3.1,6,6.5C5,42.1,2.1,45-1.5,45z M-1.5,34
			C-4,34-6,36-6,38.5S-4,43-1.5,43S3,41,3,38.5S1,34-1.5,34z M-17,39h9c0-0.2,0-0.3,0-0.5c0-0.5,0.1-1,0.2-1.5H-11v-2h4
			c0.9-1.4,2.3-2.5,4-2.9V25h-14v2h14v2h-14V39z M-13,37h-2v-2h2V37z M-5,33h-6v-2h6V33z M-13,33h-2v-2h2V33z"/>
	</g>
	<g>
		<path d="M-3,35.5c0.1,0,0,6,0,6l5-3L-3,35.5z"/>
	</g>
</g>
</svg>
