<?xml version="1.0" encoding="utf-8"?>
<!-- Generator: Adobe Illustrator 19.0.0, SVG Export Plug-In . SVG Version: 6.00 Build 0)  -->
<svg version="1.1" id="XMLID_120_" xmlns="http://www.w3.org/2000/svg" xmlns:xlink="http://www.w3.org/1999/xlink" x="0px" y="0px"
	 viewBox="-19 20 24 26" style="enable-background:new -19 20 24 26;" xml:space="preserve">
<g id="select">
	<g>
		<rect x="-11.7" y="21" width="5.8" height="2"/>
	</g>
	<g>
		<path d="M-3.2,45l-3.2-4.2l-3.1,4.1l-2.4-16.6l15.4,7.1l-5.2,1.8l3.1,4.2L-3.2,45z M-6.3,37.5l3.5,4.7l1.5-1.3l-3.6-4.8l3.2-1.1
			l-7.8-3.5l1.3,8.6L-6.3,37.5z M-13.6,38.7h-3.9v-3.9h1.9v2h1.9V38.7z M-15.6,32.8h-1.9v-5.9h1.9V32.8z M-0.2,30.8h-1.9v-3.9h1.9
			V30.8z M-0.2,24.9h-1.9v-2H-4v-2h3.9V24.9z M-15.6,24.9h-1.9V21h3.9v2h-1.9V24.9z"/>
	</g>
</g>
</svg>
