<?xml version="1.0" encoding="utf-8"?>
<!-- Generator: Adobe Illustrator 19.0.0, SVG Export Plug-In . SVG Version: 6.00 Build 0)  -->
<svg version="1.1" id="XMLID_94_" xmlns="http://www.w3.org/2000/svg" xmlns:xlink="http://www.w3.org/1999/xlink" x="0px" y="0px"
	 viewBox="-19 20 24 26" style="enable-background:new -19 20 24 26;" xml:space="preserve">
<g id="service-business">
	<g>
		<path d="M5,45h-6v-2h4V27h-20v16h2v2h-4V25h7v-4h10v4h7C5,25,5,45,5,45z M-10,24.9h6v-2h-6V24.9z M-8.6,45c-2.7,0-4.9-2.2-4.9-4.8
			c0-0.8,0.2-1.6,0.6-2.3c-1.3-0.9-2.1-2.4-2.1-4c0-2.7,2.2-4.9,4.9-4.9c1.6,0,3,0.8,3.9,2c0.7-0.4,1.5-0.6,2.4-0.6
			c2.7,0,4.8,2.2,4.8,4.9c0,2.6-2.1,4.8-4.8,4.8v0.1C-3.7,42.9-5.9,45-8.6,45z M-11,38.6c-0.3,0.4-0.4,1-0.4,1.5
			c0,1.6,1.3,2.8,2.9,2.8s2.9-1.2,2.9-2.8c0-0.6-0.1-0.9-0.1-0.9c-0.2-0.7-0.7-1.3-1.4-1.6C-8.3,38.5-9.7,38.8-11,38.6z M-4.2,38
			c0.1,0,0.2,0,0.4,0c1.6,0,2.8-1.3,2.8-2.8c0-1.6-1.3-2.9-2.8-2.9c-0.6,0-1.1,0.2-1.6,0.5c0.1,0.3,0.1,0.7,0.1,1
			c0,0.8-0.2,1.6-0.6,2.3C-5.1,36.6-4.5,37.2-4.2,38z M-10.1,30.9c-1.6,0-2.9,1.3-2.9,2.9c0,1.2,0.8,2.3,1.9,2.7
			c1,0.4,2.1,0.1,2.9-0.7l0,0c0.5-0.5,0.8-1.2,0.8-2c0-0.4-0.1-0.7-0.2-1l0,0C-7.9,31.7-8.9,30.9-10.1,30.9z"/>
	</g>
</g>
</svg>
