<?xml version="1.0" encoding="utf-8"?>
<!-- Generator: Adobe Illustrator 19.0.0, SVG Export Plug-In . SVG Version: 6.00 Build 0)  -->
<svg version="1.1" id="XMLID_221_" xmlns="http://www.w3.org/2000/svg" xmlns:xlink="http://www.w3.org/1999/xlink" x="0px" y="0px"
	 viewBox="-19 20 24 26" style="enable-background:new -19 20 24 26;" xml:space="preserve">
<g id="shield">
	<g>
		<path d="M-7,45l-4.6-3.7c-3.4-3.1-5.4-7.4-5.4-12v-3.5L-7,21l10,4.9v3.5c0,4.6-2,8.9-5.4,12L-7,45z M-14.5,33
			c0.7,2.6,2.2,4.9,4.2,6.7l2.3,1.9V33H-14.5z M-6,33v8.6l2.3-1.9c2-1.8,3.4-4.1,4.2-6.7C0.5,33-6,33-6,33z M-6,31.1h6.9
			C1,30.5,1,30,1,29.4v-2.3l-7-3.4V31.1z M-14.9,31.1H-8v-7.4l-7,3.4v2.2C-15,30-15,30.5-14.9,31.1z"/>
	</g>
</g>
</svg>
