<?xml version="1.0" encoding="utf-8"?>
<!-- Generator: Adobe Illustrator 19.0.0, SVG Export Plug-In . SVG Version: 6.00 Build 0)  -->
<svg version="1.1" id="XMLID_91_" xmlns="http://www.w3.org/2000/svg" xmlns:xlink="http://www.w3.org/1999/xlink" x="0px" y="0px"
	 viewBox="-19 20 24 26" style="enable-background:new -19 20 24 26;" xml:space="preserve">
<g id="soa">
	<g>
		<path d="M-10.4,45h-1.9v-2c-0.4-0.1-0.7-0.2-1-0.4l-1.4,1.4l-1.3-1.3l1.4-1.4c-0.2-0.3-0.3-0.7-0.4-1h-2.1v-1.9h2
			c0.1-0.4,0.2-0.7,0.4-1l-1.4-1.4l1.3-1.3l1.4,1.4c0.3-0.2,0.7-0.3,1-0.4v-2.2h1.9v2c0.4,0.1,0.7,0.2,1,0.4l1.4-1.4l1.3,1.3
			l-1.3,1.5c0.2,0.3,0.3,0.7,0.4,1h2.1v1.9h-2c-0.1,0.4-0.2,0.7-0.4,1l1.4,1.4l-1.3,1.3l-1.5-1.4c-0.3,0.2-0.7,0.3-1,0.4V45z
			 M-11.3,37.3c-1.1,0-1.9,0.9-1.9,1.9c0,1.1,0.9,1.9,1.9,1.9s1.9-0.9,1.9-1.9C-9.4,38.2-10.3,37.3-11.3,37.3z M0.2,37.3h-1.9v-2
			c-0.4-0.1-0.7-0.2-1-0.4l-1.4,1.4L-5.5,35l1.4-1.4c-0.2-0.3-0.3-0.7-0.4-1h-2.1v-1.9h2c0.1-0.4,0.2-0.7,0.4-1l-1.4-1.4l1.3-1.3
			l1.4,1.4c0.3-0.2,0.7-0.3,1-0.4v-2.2h1.9v2c0.4,0.1,0.7,0.2,1,0.4l1.4-1.4l1.3,1.3l-1.3,1.5c0.2,0.3,0.3,0.7,0.4,1H5v1.9H3
			c-0.1,0.4-0.2,0.7-0.4,1L4,34.9l-1.3,1.3l-1.5-1.4c-0.3,0.2-0.7,0.3-1,0.4V37.3z M-0.8,29.6c-1.1,0-1.9,0.9-1.9,1.9
			c0,1.1,0.9,1.9,1.9,1.9s1.9-0.9,1.9-1.9C1.2,30.5,0.3,29.6-0.8,29.6z M-12.3,32.5h-1.9v-2c-0.4-0.1-0.7-0.2-1-0.4l-1.4,1.4
			l-1.3-1.3l1.4-1.4c-0.2-0.3-0.3-0.7-0.4-1H-19v-1.9h2c0.1-0.4,0.2-0.7,0.4-1l-1.4-1.4l1.3-1.3l1.4,1.4c0.3-0.2,0.7-0.3,1-0.4V21
			h1.9v2c0.4,0.1,0.7,0.2,1,0.4L-10,22l1.3,1.3l-1.3,1.5c0.2,0.3,0.3,0.7,0.4,1h2.1v1.9h-2c-0.1,0.4-0.2,0.7-0.4,1l1.4,1.4l-1.3,1.3
			l-1.4-1.4c-0.3,0.2-0.7,0.3-1,0.4L-12.3,32.5L-12.3,32.5z M-13.2,24.8c-1.1,0-1.9,0.9-1.9,1.9s0.9,1.9,1.9,1.9s1.9-0.9,1.9-1.9
			S-12.2,24.8-13.2,24.8z"/>
	</g>
</g>
</svg>
