<?xml version="1.0" encoding="utf-8"?>
<!-- Generator: Adobe Illustrator 19.0.0, SVG Export Plug-In . SVG Version: 6.00 Build 0)  -->
<svg version="1.1" id="XMLID_4_" xmlns="http://www.w3.org/2000/svg" xmlns:xlink="http://www.w3.org/1999/xlink" x="0px" y="0px"
	 viewBox="-19 20 24 26" style="enable-background:new -19 20 24 26;" xml:space="preserve">
<g id="social-linkedin">
	<path d="M-12.5,43h-4.1V29.6h4.1V43z M-14.6,27.8c-1.3,0-2.4-1.1-2.4-2.4s1.1-2.4,2.4-2.4s2.4,1.1,2.4,2.4
		C-12.2,26.7-13.3,27.8-14.6,27.8z M3,43h-4.1v-6.5c0-1.5,0-3.5-2.2-3.5s-2.5,1.7-2.5,3.4V43h-4.1V29.6h4v1.8l0,0
		c0.6-1,1.9-2.2,3.9-2.2c4.2,0,5,2.8,5,6.4V43L3,43z"/>
</g>
</svg>
