<?xml version="1.0" encoding="utf-8"?>
<!-- Generator: Adobe Illustrator 19.0.0, SVG Export Plug-In . SVG Version: 6.00 Build 0)  -->
<svg version="1.1" id="XMLID_24_" xmlns="http://www.w3.org/2000/svg" xmlns:xlink="http://www.w3.org/1999/xlink" x="0px" y="0px"
	 viewBox="-19 20 24 26" style="enable-background:new -19 20 24 26;" xml:space="preserve">
<g id="social-google">
	<path d="M-6.4,34.6l-1.1-0.9c-0.3-0.3-0.8-0.7-0.8-1.3c0-0.7,0.5-1.1,0.9-1.5c1.3-1,2.6-2.1,2.6-4.4c0-2.4-1.5-3.6-2.2-4.2h1.9
		l2-1.3h-6.2c-1.7,0-4.1,0.4-5.9,1.9c-1.3,1.2-2,2.8-2,4.2c0,2.4,1.9,4.9,5.2,4.9c0.3,0,0.7,0,1-0.1c-0.2,0.4-0.3,0.7-0.3,1.2
		c0,1,0.5,1.6,0.9,2.1c-1.4,0.1-4,0.3-6,1.4c-1.8,1.1-2.4,2.7-2.4,3.8c0,2.3,2.2,4.5,6.7,4.5c5.4,0,8.2-3,8.2-5.9
		C-3.7,36.8-5,35.8-6.4,34.6z M-10.5,31c-2.7,0-3.9-3.5-3.9-5.6c0-0.8,0.2-1.7,0.7-2.3c0.5-0.6,1.4-1,2.2-1c2.6,0,3.9,3.5,3.9,5.8
		c0,0.6-0.1,1.6-0.8,2.3C-8.8,30.6-9.7,31-10.5,31z M-10.4,43.6c-3.3,0-5.5-1.6-5.5-3.8s2-3,2.7-3.2c1.3-0.4,3-0.5,3.3-0.5
		s0.5,0,0.7,0c2.4,1.7,3.4,2.5,3.4,4.1C-5.8,42.1-7.4,43.6-10.4,43.6z"/>
	<polygon points="1.5,31 1.5,27.8 0,27.8 0,31 -3.1,31 -3.1,32.5 0,32.5 0,35.7 1.5,35.7 1.5,32.5 4.7,32.5 4.7,31 	"/>
</g>
</svg>
