<?xml version="1.0" encoding="utf-8"?>
<!-- Generator: Adobe Illustrator 19.0.0, SVG Export Plug-In . SVG Version: 6.00 Build 0)  -->
<svg version="1.1" id="XMLID_27_" xmlns="http://www.w3.org/2000/svg" xmlns:xlink="http://www.w3.org/1999/xlink" x="0px" y="0px"
	 viewBox="-19 20 24 26" style="enable-background:new -19 20 24 26;" xml:space="preserve">
<g id="social-pinterest">
	<path d="M-15.5,29.8c0-0.9,0.2-1.8,0.6-2.7c0.4-0.9,0.9-1.8,1.7-2.5c0.7-0.8,1.7-1.4,2.9-1.9s2.5-0.7,3.9-0.7
		c2.3,0,4.2,0.7,5.7,2.2c1.5,1.4,2.2,3.1,2.2,5.1c0,2.5-0.6,4.6-1.9,6.2S-3.3,38-5.3,38c-0.7,0-1.3-0.2-1.9-0.5s-1-0.7-1.2-1.1
		l-0.9,3.5c-0.1,0.3-0.2,0.6-0.3,0.8s-0.2,0.6-0.4,0.8s-0.3,0.5-0.4,0.7c-0.1,0.2-0.3,0.5-0.4,0.7s-0.3,0.4-0.4,0.5
		s-0.2,0.3-0.3,0.4l-0.1,0.2c0,0.1-0.1,0.1-0.2,0.1c-0.1,0-0.1-0.1-0.1-0.1s0-0.1,0-0.3s0-0.4-0.1-0.6c0-0.2,0-0.5-0.1-0.8
		c0-0.3,0-0.7,0-1s0-0.7,0.1-1s0.1-0.7,0.2-1.1c0.2-0.7,0.7-3,1.6-6.9c-0.1-0.2-0.2-0.5-0.3-0.8s-0.1-0.6-0.1-0.8v-0.3
		c0-0.9,0.2-1.7,0.7-2.3s1.1-0.9,1.7-0.9c0.5,0,1,0.2,1.3,0.5c0.3,0.4,0.5,0.8,0.5,1.4c0,0.3-0.1,0.8-0.2,1.2
		c-0.2,0.1-0.3,0.7-0.5,1.3s-0.4,1.2-0.4,1.6c-0.1,0.7,0,1.2,0.4,1.7s0.9,0.7,1.6,0.7c1.2,0,2.1-0.7,2.9-2s1.1-2.9,1.1-4.8
		c0-1.4-0.5-2.6-1.4-3.5c-1-0.8-2.3-1.3-3.9-1.3c-1.8,0-3.3,0.6-4.5,1.8S-13,28.4-13,30c0,1,0.3,1.8,0.8,2.5C-12,32.8-12,33-12,33.3
		c0,0.1-0.1,0.2-0.1,0.5s-0.1,0.4-0.1,0.5c0,0.2-0.1,0.3-0.2,0.3c-0.1,0.1-0.2,0-0.4,0c-0.9-0.4-1.5-1-1.9-1.8
		C-15.3,31.9-15.5,30.9-15.5,29.8z"/>
</g>
</svg>
