<?xml version="1.0" encoding="utf-8"?>
<!-- Generator: Adobe Illustrator 19.0.0, SVG Export Plug-In . SVG Version: 6.00 Build 0)  -->
<svg version="1.1" id="XMLID_178_" xmlns="http://www.w3.org/2000/svg" xmlns:xlink="http://www.w3.org/1999/xlink" x="0px" y="0px"
	 viewBox="-19 20 24 26" style="enable-background:new -19 20 24 26;" xml:space="preserve">
<g id="street-view">
	<g>
		<path d="M1,45h-16v-2h4v-4h-3v-3.1c0-2.6,1.6-4.9,3.8-6.1c-1.1-0.9-1.8-2.3-1.8-3.8c0-2.8,2.2-5,5-5s5,2.2,5,5
			c0,1.5-0.7,2.9-1.8,3.8C-1.5,31,0,33.3,0,35.9V39h-3v4h4V45z M-9,43h4v-6h3v-1.1c0-2.6-2.3-4.9-5-4.9s-5,2.3-5,4.9V37h3V43z
			 M-7,23c-1.7,0-3,1.3-3,3s1.3,3,3,3s3-1.3,3-3S-5.3,23-7,23z"/>
	</g>
</g>
</svg>
