<?xml version="1.0" encoding="utf-8"?>
<!-- Generator: Adobe Illustrator 19.0.0, SVG Export Plug-In . SVG Version: 6.00 Build 0)  -->
<svg version="1.1" id="XMLID_220_" xmlns="http://www.w3.org/2000/svg" xmlns:xlink="http://www.w3.org/1999/xlink" x="0px" y="0px"
	 viewBox="-19 20 24 26" style="enable-background:new -19 20 24 26;" xml:space="preserve">
<g id="support">
	<g>
		<path d="M-7,45c-6.6,0-12-5.4-12-12s5.4-12,12-12S5,26.4,5,33S-0.4,45-7,45z M-9,42.8c1.3,0.3,2.7,0.3,4,0v-4.1
			c-1.3,0.4-2.7,0.4-4,0V42.8z M-3,37.5v4.7c2.3-1,4.2-2.9,5.2-5.2h-4.7C-2.7,37.2-2.8,37.3-3,37.5z M-16.2,37
			c1,2.3,2.9,4.2,5.2,5.2v-4.7c-0.2-0.1-0.3-0.3-0.5-0.5H-16.2z M-7,29c-2.2,0-4,1.8-4,4s1.8,4,4,4s4-1.8,4-4S-4.8,29-7,29z
			 M-1.3,35h4.1C2.9,34.4,3,33.7,3,33s-0.1-1.4-0.2-2h-4.1c0.2,0.6,0.3,1.3,0.3,2C-1,33.7-1.1,34.4-1.3,35z M-16.8,35h4.1
			c-0.2-0.6-0.3-1.3-0.3-2s0.1-1.4,0.3-2h-4.1c-0.1,0.6-0.2,1.3-0.2,2S-16.9,34.4-16.8,35z M-2.5,29h4.7c-1-2.3-2.9-4.2-5.2-5.2v4.7
			C-2.8,28.7-2.7,28.8-2.5,29z M-16.2,29h4.7c0.1-0.2,0.3-0.3,0.5-0.5v-4.7C-13.3,24.8-15.2,26.7-16.2,29z M-7,27
			c0.7,0,1.4,0.1,2,0.3v-4.1c-1.3-0.3-2.7-0.3-4,0v4.1C-8.4,27.1-7.7,27-7,27z"/>
	</g>
</g>
</svg>
