<?xml version="1.0" encoding="utf-8"?>
<!-- Generator: Adobe Illustrator 19.0.0, SVG Export Plug-In . SVG Version: 6.00 Build 0)  -->
<svg version="1.1" id="XMLID_208_" xmlns="http://www.w3.org/2000/svg" xmlns:xlink="http://www.w3.org/1999/xlink" x="0px" y="0px"
	 viewBox="-19 20 24 26" style="enable-background:new -19 20 24 26;" xml:space="preserve">
<g id="system">
	<g>
		<path d="M0,45h-14v-2h2v-2h-7V21H5v20h-7v2h2C0,43,0,45,0,45z M-10,43h6v-2h-6V43z M-2,39h5V23h-20v16H-2z M-6,37h-2v-2.1
			c-0.4-0.1-0.7-0.2-1-0.4l-1.5,1.5l-1.4-1.4l1.5-1.5c-0.2-0.3-0.3-0.7-0.4-1H-13v-2h2.1c0.1-0.4,0.2-0.7,0.4-1l-1.5-1.5l1.4-1.4
			l1.5,1.5c0.3-0.2,0.7-0.3,1-0.4V25h2v2.1c0.4,0.1,0.7,0.2,1,0.4l1.5-1.5l1.4,1.4L-3.6,29c0.2,0.3,0.3,0.7,0.4,1H-1v2h-2.1
			c-0.1,0.4-0.2,0.7-0.4,1l1.5,1.5l-1.4,1.4L-5,34.4c-0.3,0.2-0.7,0.3-1,0.4C-6,34.8-6,37-6,37z M-7,29c-1.1,0-2,0.9-2,2
			c0,1.1,0.9,2,2,2s2-0.9,2-2S-5.9,29-7,29z"/>
	</g>
</g>
</svg>
