<?xml version="1.0" encoding="utf-8"?>
<!-- Generator: Adobe Illustrator 19.0.0, SVG Export Plug-In . SVG Version: 6.00 Build 0)  -->
<svg version="1.1" id="XMLID_129_" xmlns="http://www.w3.org/2000/svg" xmlns:xlink="http://www.w3.org/1999/xlink" x="0px" y="0px"
	 viewBox="-19 20 24 26" style="enable-background:new -19 20 24 26;" xml:space="preserve">
<g id="task">
	<g>
		<path d="M-15.1,44.6l-3.7-3.7l1.4-1.4l2.3,2.3l4.3-4.3l1.4,1.4L-15.1,44.6z M4.9,42.2h-12v-2h12V42.2z M-15.1,36.6l-3.7-3.7
			l1.4-1.4l2.3,2.3l4.3-4.3l1.4,1.4L-15.1,36.6z M4.9,34.2h-12v-2h12V34.2z M-15.1,28.5l-3.7-3.7l1.4-1.4l2.3,2.3l4.3-4.3l1.4,1.4
			L-15.1,28.5z M4.9,26.1h-12v-2h12V26.1z"/>
	</g>
</g>
</svg>
