<?xml version="1.0" encoding="utf-8"?>
<!-- Generator: Adobe Illustrator 19.0.0, SVG Export Plug-In . SVG Version: 6.00 Build 0)  -->
<svg version="1.1" id="XMLID_245_" xmlns="http://www.w3.org/2000/svg" xmlns:xlink="http://www.w3.org/1999/xlink" x="0px" y="0px"
	 viewBox="-19 20 24 26" style="enable-background:new -19 20 24 26;" xml:space="preserve">
<g id="ticket">
	<g>
		<path d="M5,42h-24v-7h1c1.1,0,2-0.9,2-2c0-1.1-0.9-2-2-2h-1v-7H5v7H4c-1.1,0-2,0.9-2,2c0,1.1,0.9,2,2,2h1V42z M-17,40H3v-3.1
			c-1.7-0.4-3-2-3-3.9s1.3-3.4,3-3.9V26h-20v3.1c1.7,0.4,3,2,3,3.9c0,1.9-1.3,3.4-3,3.9V40z M-1,38h-12V28h12V38z M-11,36h8v-6h-8
			V36z"/>
	</g>
</g>
</svg>
