<?xml version="1.0" encoding="utf-8"?>
<!-- Generator: Adobe Illustrator 19.0.0, SVG Export Plug-In . SVG Version: 6.00 Build 0)  -->
<svg version="1.1" id="XMLID_182_" xmlns="http://www.w3.org/2000/svg" xmlns:xlink="http://www.w3.org/1999/xlink" x="0px" y="0px"
	 viewBox="-19 20 24 26" style="enable-background:new -19 20 24 26;" xml:space="preserve">
<g id="user-admin">
	<g>
		<path d="M-5.5,44.2c-1.8,0-3.3-1.5-3.3-3.3c0-1.8,1.5-3.3,3.3-3.3c0.6,0,1.1,0.2,1.6,0.4l5.4-5.4L5,36.1l-1.3,1.3l-2.1-2.1l-1,1
			l2.1,2.1l-1.3,1.3l-2.1-2.1l-1.8,1.8c0.3,0.5,0.4,1,0.4,1.6C-2.2,42.7-3.7,44.2-5.5,44.2z M-5.5,39.5c-0.7,0-1.4,0.7-1.4,1.4
			c0,0.7,0.7,1.4,1.4,1.4s1.4-0.7,1.4-1.4C-4.1,40.2-4.7,39.5-5.5,39.5z M-10.6,44.2H-19v-4.6c0-3.4,2.1-6.3,5-7.6
			c-1.3-1-2.2-2.6-2.2-4.5c0-3.1,2.5-5.6,5.6-5.6S-5,24.4-5,27.4c0,1.8-0.8,3.4-2.2,4.5c1.1,0.5,2.1,1.2,2.9,2.1l-1.4,1.2
			c-1.2-1.4-3-2.2-4.9-2.2c-3.6,0-6.5,2.9-6.5,6.5v2.8h6.5V44.2z M-10.6,23.7c-2.1,0-3.7,1.7-3.7,3.7s1.7,3.7,3.7,3.7
			s3.7-1.7,3.7-3.7S-8.5,23.7-10.6,23.7z"/>
	</g>
</g>
</svg>
