<?xml version="1.0" encoding="utf-8"?>
<!-- Generator: Adobe Illustrator 19.0.0, SVG Export Plug-In . SVG Version: 6.00 Build 0)  -->
<svg version="1.1" id="XMLID_202_" xmlns="http://www.w3.org/2000/svg" xmlns:xlink="http://www.w3.org/1999/xlink" x="0px" y="0px"
	 viewBox="-19 20 24 26" style="enable-background:new -19 20 24 26;" xml:space="preserve">
<g id="user-add">
	<g>
		<path d="M-1,44.5h-2v-4c0-3.9-3.1-7-7-7s-7,3.1-7,7v4h-2v-4c0-3.7,2.2-6.8,5.4-8.2c-1.4-1.1-2.4-2.8-2.4-4.8c0-3.3,2.7-6,6-6
			s6,2.7,6,6c0,1.9-0.9,3.7-2.4,4.8c3.2,1.4,5.4,4.6,5.4,8.2V44.5z M-10,23.5c-2.2,0-4,1.8-4,4s1.8,4,4,4s4-1.8,4-4
			S-7.8,23.5-10,23.5z M-5,44.5h-2v-4h2V44.5z M-13,44.5h-2v-4h2V44.5z M2,35.5H0v-3h-3v-2h3v-3h2v3h3v2H2V35.5z"/>
	</g>
</g>
</svg>
