<?xml version="1.0" encoding="utf-8"?>
<!-- Generator: Adobe Illustrator 19.0.0, SVG Export Plug-In . SVG Version: 6.00 Build 0)  -->
<svg version="1.1" id="XMLID_181_" xmlns="http://www.w3.org/2000/svg" xmlns:xlink="http://www.w3.org/1999/xlink" x="0px" y="0px"
	 viewBox="-19 20 24 26" style="enable-background:new -19 20 24 26;" xml:space="preserve">
<g id="user-worker">
	<g>
		<path d="M2,45h-18v-3c0-3,1.4-5.7,3.8-7.3c-1-1.2-1.7-2.8-1.8-4.7h-2v-2h1.1c0.5-3.9,3.9-7,7.9-7s7.4,3.1,7.9,7H2v2H0
			c-0.1,1.8-0.7,3.4-1.8,4.6c0.4,0.3,0.8,0.6,1.2,1C1.1,37.3,2,39.6,2,42V45z M-14,43H0v-1c0-1.9-0.7-3.6-2-5
			c-0.4-0.4-0.9-0.8-1.3-1c-1,0.6-2.3,1-3.6,1s-2.6-0.4-3.6-1c-2.1,1.3-3.4,3.5-3.4,6v1H-14z M-12,30c0.2,2.9,2.2,5,5,5s4.8-2.1,5-5
			H-12z M-12.9,28h11.8c-0.3-1.8-1.4-3.3-2.9-4.2V25h-2v-1.9c-0.7-0.1-1.3-0.1-2,0V25h-2v-1.2C-11.5,24.7-12.6,26.2-12.9,28z"/>
	</g>
</g>
</svg>
