<?xml version="1.0" encoding="utf-8"?>
<!-- Generator: Adobe Illustrator 19.0.0, SVG Export Plug-In . SVG Version: 6.00 Build 0)  -->
<svg version="1.1" id="XMLID_179_" xmlns="http://www.w3.org/2000/svg" xmlns:xlink="http://www.w3.org/1999/xlink" x="0px" y="0px"
	 viewBox="-19 20 24 26" style="enable-background:new -19 20 24 26;" xml:space="preserve">
<g id="user-police">
	<g>
		<path d="M2,45.1h-18v-2c0-3,1.4-5.7,3.8-7.3c-1.1-1.3-1.8-3.1-1.8-5.1v-0.6h2v0.6c0,3.1,2.1,5.4,5,5.4s5-2.3,5-5.4v-0.6h2v0.6
			c0,2-0.7,3.8-1.8,5.1c0.4,0.3,0.8,0.6,1.2,1C1.1,38.3,2,40.7,2,43.1V45.1z M-14,43.1H0c0-1.9-0.7-3.6-2-5c-0.4-0.4-0.9-0.8-1.3-1
			c-1,0.6-2.3,1-3.6,1s-2.6-0.4-3.6-1C-12.7,38.3-14,40.6-14,43.1z M0,30.1h-14l-3.2-3.6l0.4-0.7c2-2.9,5.8-4.8,9.8-4.8
			s7.8,1.8,9.8,4.8l0.4,0.7L0,30.1z M-13.1,28.1h12.3l1.6-1.7C-1,24.3-3.9,23.1-7,23.1s-6,1.2-7.7,3.3L-13.1,28.1z"/>
	</g>
	<g>
		<path d="M-7,24.1h-2c0,0-0.1,3,2,3c2,0,2-3,2-3H-7z"/>
	</g>
</g>
</svg>
