<?xml version="1.0" encoding="utf-8"?>
<!-- Generator: Adobe Illustrator 19.0.0, SVG Export Plug-In . SVG Version: 6.00 Build 0)  -->
<svg version="1.1" id="XMLID_180_" xmlns="http://www.w3.org/2000/svg" xmlns:xlink="http://www.w3.org/1999/xlink" x="0px" y="0px"
	 viewBox="-19 20 24 26" style="enable-background:new -19 20 24 26;" xml:space="preserve">
<g id="user-manager">
	<g>
		<path d="M2,45h-18v-5c0-3,1.4-5.7,3.8-7.3c-1.1-1.2-1.8-2.9-1.8-4.7c0-3.9,3.1-7,7-7s7,3.1,7,7c0,1.8-0.7,3.4-1.8,4.7
			c0.4,0.3,0.8,0.6,1.1,1C1.1,35.3,2,37.6,2,40V45z M-6,43h6v-3c0-1.7-0.6-3.4-1.8-4.7l-4.2,5V43z M-14,43h6v-2.6l-4.2-5
			c-1.1,1.3-1.8,2.9-1.8,4.7V43z M-10.6,34l3.7,4.4l3.7-4.4c0,0,0,0-0.1,0c-1.1,0.6-2.3,1-3.6,1C-8.3,35-9.5,34.6-10.6,34L-10.6,34z
			 M-11.6,30c0.8,1.8,2.5,3,4.6,3s3.9-1.3,4.6-3.1c-1.4-0.3-2.7-1-3.6-2c-1.3,1.3-3.1,2.1-5,2.1C-11.2,30-11.4,30-11.6,30z
			 M-12,27.9c0.3,0.1,0.7,0.1,1,0.1c1.7,0,3.2-0.8,4.2-2.2l0.8-1.3l0.8,1.3c0.7,1.1,1.9,1.9,3.2,2.1c0-2.7-2.3-4.9-5-4.9
			S-11.9,25.2-12,27.9z"/>
	</g>
</g>
</svg>
