<?xml version="1.0" encoding="utf-8"?>
<!-- Generator: Adobe Illustrator 19.0.0, SVG Export Plug-In . SVG Version: 6.00 Build 0)  -->
<svg version="1.1" id="XMLID_201_" xmlns="http://www.w3.org/2000/svg" xmlns:xlink="http://www.w3.org/1999/xlink" x="0px" y="0px"
	 viewBox="-19 20 24 26" style="enable-background:new -19 20 24 26;" xml:space="preserve">
<g id="view">
	<g>
		<path d="M-7,41.5c-4.9,0-8.8-2.6-11.8-8L-19,33l0.2-0.5c3-5.4,6.8-8,11.8-8s8.8,2.6,11.8,8L5,33l-0.3,0.5
			C1.7,38.9-2.1,41.5-7,41.5z M-16.7,33c2.6,4.4,5.7,6.6,9.8,6.6s7.2-2.2,9.8-6.6c-2.6-4.4-5.7-6.6-9.8-6.6S-14.3,28.6-16.7,33z
			 M-7,37.7c-2.8,0-4.9-2.1-4.9-4.7s2.2-4.7,4.9-4.7s4.9,2.1,4.9,4.7S-4.3,37.7-7,37.7z M-7,30.2c-1.7,0-3,1.2-3,2.8s1.3,2.8,3,2.8
			s3-1.2,3-2.8S-5.4,30.2-7,30.2z"/>
	</g>
</g>
</svg>
