<?xml version="1.0" encoding="utf-8"?>
<!-- Generator: Adobe Illustrator 19.0.0, SVG Export Plug-In . SVG Version: 6.00 Build 0)  -->
<svg version="1.1" id="XMLID_142_" xmlns="http://www.w3.org/2000/svg" xmlns:xlink="http://www.w3.org/1999/xlink" x="0px" y="0px"
	 viewBox="-19 20 24 26" style="enable-background:new -19 20 24 26;" xml:space="preserve">
<g id="virtual-machine">
	<g>
		<path d="M-4,45h-15V30h5v-9H1v5h4v15h-9V45z M-17,43h11v-2h-4v-5h-4v-4h-3V43z M-4,39h7V28H1v8h-5V39z M-8,39h2v-3h-2V39z M-4,34
			h3v-6h-7v2h4V34z M-8,34h2v-2h-2V34z M-12,34h2v-2h-2V34z M-12,30h2v-4h9v-3h-11V30z"/>
	</g>
</g>
</svg>
