<?xml version="1.0" encoding="utf-8"?>
<!-- Generator: Adobe Illustrator 19.0.0, SVG Export Plug-In . SVG Version: 6.00 Build 0)  -->
<svg version="1.1" id="XMLID_141_" xmlns="http://www.w3.org/2000/svg" xmlns:xlink="http://www.w3.org/1999/xlink" x="0px" y="0px"
	 viewBox="-19 20 24 26" style="enable-background:new -19 20 24 26;" xml:space="preserve">
<g id="vm-maintenance">
	<g>
		<path d="M-5.2,43.8L-8,41l5.2-5.2c-0.4-1.3,0-2.8,1-3.7c1.2-1.2,3-1.4,4.4-0.8l1.2,0.6l-2.2,2.2l0,0L4,31.8l0.6,1.2
			c0.8,1.4,0.4,3.3-0.8,4.4c-1,1-2.4,1.3-3.7,1L-5.2,43.8z M-5.2,41L-5.2,41l4.8-4.7l0.6,0.3c0.5,0.2,1,0.3,1.3,0.1l-2.3-2.4
			c-0.1,0.5-0.1,1,0.1,1.3l0.3,0.6L-5.2,41z M2.8,35.9l-0.6,0.6c0.1-0.1,0.2-0.2,0.3-0.3C2.6,36.1,2.7,36,2.8,35.9z M0,33.1
			c-0.1,0.1-0.2,0.2-0.3,0.3s-0.2,0.2-0.3,0.3L0,33.1z"/>
	</g>
	<g>
		<path d="M-7.5,40.5H-19V29h3.8v-6.7h11.5v3.8h2.9v4.8h-1.9V28h-1v5.8h-3.8v1.9h1.9v1.9h-1.9V40.5z M-17.1,38.6h7.7v-1h-2.9v-3.8
			h-2.9v-2.9h-1.9V38.6z M-10.4,35.7h1v-1.9h-1V35.7z M-7.5,31.8h1.9V28h-4.8v1h2.9V31.8z M-10.4,31.8h1v-1h-1V31.8z M-13.2,31.8h1
			v-1h-1V31.8z M-13.2,29h1v-2.9h6.7v-1.9h-7.7V29z"/>
	</g>
</g>
</svg>
