<?xml version="1.0" encoding="utf-8"?>
<!-- Generator: Adobe Illustrator 19.0.0, SVG Export Plug-In . SVG Version: 6.00 Build 0)  -->
<svg version="1.1" id="XMLID_234_" xmlns="http://www.w3.org/2000/svg" xmlns:xlink="http://www.w3.org/1999/xlink" x="0px" y="0px"
	 viewBox="-19 20 24 26" style="enable-background:new -19 20 24 26;" xml:space="preserve">
<g id="volume">
	<g>
		<path d="M-6,44.1l-7.4-6.1H-19V28h5.6l7.4-6.1C-6,21.9-6,44.1-6,44.1z M-17,36h4.4l4.6,3.9V26.1l-4.6,3.9H-17V36z M-4,42v-2
			c3.9,0,7-3.1,7-7s-3.1-7-7-7v-2c5,0,9,4,9,9S1,42-4,42z M-4,38v-2c1.7,0,3-1.3,3-3s-1.3-3-3-3v-2c2.8,0,5,2.2,5,5S-1.2,38-4,38z"
			/>
	</g>
</g>
</svg>
