<?xml version="1.0" encoding="utf-8"?>
<!-- Generator: Adobe Illustrator 18.1.1, SVG Export Plug-In . SVG Version: 6.00 Build 0)  -->
<svg version="1.1" xmlns="http://www.w3.org/2000/svg" xmlns:xlink="http://www.w3.org/1999/xlink" x="0px" y="0px" width="103px"
	 height="44px" viewBox="0 0 103 44" enable-background="new 0 0 103 44" xml:space="preserve">
<g id="Layer_1">
	<g>
		<path id="element" fill="#00B388" d="M0,0v11l0,0h36l0-11H0z M33,8H3V3h30V8z"/>
		<path fill="#FFFFFF" d="M2,27H0V17l2,0v4h4v-4h2v10H6v-4H2V27z M12.8,27c-2.6,0-3.8-2-3.7-3.7c0-1.5,1.3-3.3,3.6-3.3
			c1.4,0,3.4,0.9,3.4,3.1l0,0.9h-5c0.3,1.1,1.3,1.6,2.1,1.6c0.8,0,1.1-0.1,1.8-0.6H15l0,1.4C14.4,26.8,13.8,27,12.8,27z M11,23h3
			c0-0.8-0.3-1.7-1.5-1.7C11.6,21.3,11,22,11,23z M22,23l-1,4h-1.8L17,20.1V20l1.9,0l1.1,5l1.2-5h1.7l1.1,5l1.1-5H27v0.1L25,27h-1.9
			L22,23z M30.2,27c-1.7,0-2.2-0.5-2.2-2.1V17h2l0,7.7c0,0.5,0.1,0.6,0.5,0.6c0.1,0,0.4,0,0.5-0.1h0v1.8C30.8,26.9,30.5,27,30.2,27z
			 M48,20h2v1.4l-2,0v2.9c0,0.6,0.2,0.9,0.9,0.9c0.2,0,0.4,0,0.6-0.1h0v1.7c-0.3,0.1-0.7,0.2-1.3,0.2c-1.7,0-2.2-0.7-2.2-2.5v-3
			l-3,0v2.9c0,0.6,0.4,0.9,1,0.9c0.2,0,0.4,0,0.6-0.1h0v1.7C44.4,26.9,44,27,43.4,27c-1.7,0-2.4-0.7-2.4-2.6v-3l-1,0l0-1.4h1v-2h2v2
			h3v-2h2V20z M59,20.5c0,2-1,3.5-3.3,3.5H54v3h-2V17h4C58,17,59,18.5,59,20.5z M55.4,22c1.1,0,1.6-0.6,1.6-1.5
			c0-0.9-0.5-1.5-1.6-1.5H54v3H55.4z M65,26.3c-0.5,0.6-1.3,0.7-2,0.7c-1.4,0-2-1.2-2-2.2c0-0.8,0.8-1.7,2.2-1.7c0.5,0,1.1,0,1.8,0
			l0,0c0-0.8-0.6-1.5-1.7-1.4c-0.5,0-1.5,0.1-2.1,0.4H61v-1.6c0.5-0.3,1.7-0.4,2.6-0.4c2.2,0,3.3,1.6,3.3,3.4V27h-2V26.3z M65,25.2
			l0-1.2c-0.3-0.2-0.8-0.2-1.2-0.1c-0.7,0.1-1.1,0.6-1.1,1.1c0,0.6,0.4,0.9,1,0.9C64.3,25.8,64.8,25.7,65,25.2z M68,23.4
			c0-1.9,1.6-3.4,3.8-3.4c0.8,0,1.6,0,2.2,0.4V22h-0.1c-0.5-0.4-1.1-0.4-1.9-0.4c-1.1,0-2.1,0.4-2,1.8c0,1.2,1,2,2,2
			c0.6,0,1.5-0.1,2-0.5H74l0,1.4c-0.5,0.4-1.4,0.6-2.2,0.6C69.7,27,68.1,25.7,68,23.4z M77,24v3h-2V17h2v5.6l2.3-2.6h2.4v0.1L79,23
			l2.4,3.9V27H79L77,24z M93,21c0.3-0.8,0.6-1,1.3-1c0.3,0,0.6,0.1,0.7,0.1l0,1.9h-0.1c-0.2-0.1-0.4-0.2-0.8-0.2
			c-0.7,0-1,0.5-1.2,1.1l0,4l-2,0l0-7h2V21z M101,26.1c-0.5,0.6-1.2,0.9-2.2,0.9C97,27,96,25.6,96,23.5c0-2.1,1.1-3.5,3-3.5
			c0.9,0,1.5,0,2,0.6V17l2,0v10h-2L101,26.1z M101,24.3V22c-0.4-0.5-0.9-0.7-1.5-0.7c-0.9,0-1.6,0.7-1.6,1.9c0,1.2,0.6,1.9,1.6,1.9
			C100.1,25.1,100.6,24.8,101,24.3z M0,31h6v1.2l-4.6,0l0,2.8h4.4l0,1.4H1.4l0,3.4l4.6,0V41l-6,0V31z M11.3,34
			c1.6,0,2.7,0.8,2.7,2.5l0,4.5l-1.2,0v-4.4c0-0.9-0.5-1.1-1.5-1.1c-1.5,0-2.1,0.6-2.2,1.5v4L8,41l0-7h1l0,0.9
			C9.4,34.3,10.3,34,11.3,34z M17.5,34l1.8,0l0,1h-1.8l0,3.7c0,0.8,0.2,1.1,1,1.1c0.2,0,0.2-0.1,0.4-0.1h0v1.1
			c-0.2,0.1-0.3,0.2-0.7,0.2c-1.7,0-2.3-0.7-2.3-2.1l0-3.9h-1v-1h1v-2h1.5L17.5,34z M23.6,41c-2.1,0-3.5-1.4-3.5-3.6
			c0-2.2,1-3.3,2.9-3.3c1.9,0,3,1.3,3,3.4V38l-4.7,0c0.1,0.8,1.2,1.8,2.5,1.8c0.8,0,1.3-0.2,1.9-0.7h0v1.2
			C25.1,40.8,24.4,41,23.6,41z M21.2,36.9h3.5c0-1-0.6-1.9-1.7-1.9C22,35,21.3,35.8,21.2,36.9z M29.3,35.2c0.3-0.8,1-1.2,1.8-1.2
			c0.3,0,0.6,0,0.7,0.1v1.3h0c-0.2-0.1-0.5-0.1-0.8-0.1c-0.7,0-1.3,0.5-1.6,1.3l0,4.4H28l0-7h1.3L29.3,35.2z M36.5,34
			c2.1,0,3.2,1.6,3.2,3.6c0,2-1.1,3.4-3.2,3.4c-0.9,0-1.6-0.5-2-0.9l0,4H33l0-10h1.5v0.8C34.9,34.3,35.7,34,36.5,34z M36.3,39.8
			c1.3,0,2.1-0.8,2.1-2.2c0-1.4-0.8-2.4-2.1-2.4c-0.7,0-1.4,0.3-1.8,1v2.5C34.9,39.4,35.6,39.8,36.3,39.8z M42.3,35.2
			c0.3-0.8,1-1.2,1.8-1.2c0.3,0,0.6,0,0.7,0.1v1.3h0c-0.2-0.1-0.5-0.1-0.8-0.1c-0.7,0-1.3,0.5-1.6,1.3l0,4.4H41l0-7h1.3L42.3,35.2z
			 M46.5,30.7c0.5,0,0.9,0.4,0.9,0.8c0,0.5-0.4,0.8-0.9,0.8c-0.5,0-0.9-0.4-0.9-0.8C45.7,31,46.1,30.7,46.5,30.7z M46,34h1.3l0,7H46
			V34z M52,36.7c1,0.3,2.1,0.7,2.1,2.1c0,1.4-1.2,2.2-2.7,2.2c-0.9,0-1.9-0.2-2.4-0.6v-1.3h0.1c0.6,0.5,1.5,0.8,2.3,0.8
			c0.8,0,1.4-0.3,1.4-0.9c0-0.6-0.6-0.8-1.7-1.1c-1-0.3-2.1-0.7-2.1-2c0-1.4,1.1-2.2,2.6-2.2c0.8,0,1.7,0.3,2.3,0.7v1.3h0
			c-0.6-0.5-1.4-0.8-2.3-0.8c-0.8,0-1.3,0.4-1.3,0.9C50.4,36.2,50.9,36.3,52,36.7z M58.5,41c-2.1,0-3.5-1.4-3.5-3.6
			c0-2.2,1.1-3.4,3.1-3.4c1.9,0,2.9,1.3,2.9,3.4V38l-4.6,0c0.1,1.4,1.1,1.8,2.3,1.8c0.8,0,1.4-0.2,2-0.6h0v1.2
			C60.1,40.8,59.4,41,58.5,41z M56.4,36.9l3.3,0c0-1-0.5-1.8-1.6-1.8C57.1,35,56.6,35.8,56.4,36.9z"/>
	</g>
	<path fill="#FFFFFF" d="M35.7,27c-2.6,0-3.8-2-3.7-3.7c0-1.5,1.3-3.3,3.6-3.3c1.4,0,3.4,0.9,3.4,3.1l0,0.9h-5
		c0.3,1.1,1.3,1.6,2.1,1.6c0.8,0,1.1-0.1,1.8-0.6H38l0,1.4C37.4,26.8,36.7,27,35.7,27z M34,23h3c0-0.8-0.3-1.7-1.5-1.7
		C34.6,21.3,34,22,34,23z"/>
	<path fill="#FFFFFF" d="M87,26.3c-0.5,0.6-1.3,0.7-2,0.7c-1.4,0-2-1.2-2-2.2c0-0.8,0.8-1.7,2.2-1.7c0.5,0,1.1,0,1.8,0l0,0
		c0-0.8-0.6-1.5-1.7-1.4c-0.5,0-1.5,0.1-2.1,0.4H83v-1.6c0.5-0.3,1.7-0.4,2.6-0.4c2.2,0,3.3,1.6,3.3,3.4V27h-2V26.3z M87,25.2l0-1.2
		c-0.3-0.2-0.8-0.2-1.2-0.1c-0.7,0.1-1.1,0.6-1.1,1.1c0,0.6,0.4,0.9,1,0.9C86.3,25.8,86.8,25.7,87,25.2z"/>
</g>
<g id="Layer_2">
</g>
</svg>
