<?xml version="1.0" encoding="utf-8"?>
<!-- Generator: Adobe Illustrator 19.0.0, SVG Export Plug-In . SVG Version: 6.00 Build 0)  -->
<svg version="1.1" id="XMLID_312_" xmlns="http://www.w3.org/2000/svg" xmlns:xlink="http://www.w3.org/1999/xlink" x="0px" y="0px"
	 viewBox="-19 20 24 26" style="enable-background:new -19 20 24 26;" xml:space="preserve">
<g id="actions">
	<g>
		<path d="M-6,45h-2v-3.1c-1.7-0.2-3.3-0.9-4.6-1.9l-2.2,2.2l-1.4-1.4l2.2-2.2c-1-1.3-1.7-2.9-1.9-4.6H-19v-2h3.1
			c0.2-1.7,0.9-3.3,1.9-4.6l-2.2-2.2l1.4-1.4l2.2,2.2c1.3-1,2.9-1.7,4.6-1.9V21h2v3.1c1.7,0.2,3.3,0.9,4.6,1.9l2.2-2.2l1.4,1.4
			L0,27.4c1,1.3,1.7,2.9,1.9,4.6H5v2H1.9C1.7,35.7,1,37.3,0,38.6l2.2,2.2l-1.4,1.4L-1.4,40c-1.3,1-2.9,1.7-4.6,1.9V45z M-7,26
			c-3.9,0-7,3.1-7,7s3.1,7,7,7s7-3.1,7-7S-3.1,26-7,26z M-7,37c-2.2,0-4-1.8-4-4s1.8-4,4-4s4,1.8,4,4S-4.8,37-7,37z M-7,31
			c-1.1,0-2,0.9-2,2c0,1.1,0.9,2,2,2s2-0.9,2-2C-5,31.9-5.9,31-7,31z"/>
	</g>
</g>
</svg>
