<?xml version="1.0" encoding="utf-8"?>
<!-- Generator: Adobe Illustrator 19.0.0, SVG Export Plug-In . SVG Version: 6.00 Build 0)  -->
<svg version="1.1" id="XMLID_74_" xmlns="http://www.w3.org/2000/svg" xmlns:xlink="http://www.w3.org/1999/xlink" x="0px" y="0px"
	 viewBox="-19 20 24 26" style="enable-background:new -19 20 24 26;" xml:space="preserve">
<g id="assistant">
	<g>
		<path d="M-10,33.5h-1c-0.6,0-1-0.4-1-1v-1c0-0.6,0.4-1,1-1h1c0.6,0,1,0.4,1,1v1C-9,33.1-9.4,33.5-10,33.5z"/>
	</g>
	<g>
		<path d="M-3,33.5h-1c-0.6,0-1-0.4-1-1v-1c0-0.6,0.4-1,1-1h1c0.6,0,1,0.4,1,1v1C-2,33.1-2.4,33.5-3,33.5z"/>
	</g>
	<g>
		<circle cx="-7" cy="22.5" r="2"/>
	</g>
	<g>
		<path d="M-7,45.5c-2.7,0-4.9-2.1-5-4.7c-1.1-0.3-2.3-0.8-3.5-1.4l-0.5-0.3v-4.6c0-4.6,3.5-8.4,8-8.9v-3.1h2v3.1
			c4.5,0.5,8,4.3,8,8.9v4.6l-0.5,0.3c-0.9,0.5-2.1,1-3.5,1.4C-2.1,43.4-4.3,45.5-7,45.5z M-9.9,41.2c0.4,1.3,1.5,2.3,2.9,2.3
			s2.6-1,2.9-2.3C-5.7,41.5-7.4,41.6-9.9,41.2z M-14,37.9c2.7,1.3,5.3,1.6,7,1.6c3,0,5.4-0.8,7-1.6v-1.5c-1.8,0.9-4.5,1.1-7,1.1
			s-5.2-0.2-7-1.1V37.9z M-13.9,33.8c0.1,0.7,2.2,1.7,7,1.7c4.3,0,6.9-0.9,7-1.7c-0.3-3.5-3.3-6.3-7-6.3S-13.6,30.3-13.9,33.8z"/>
	</g>
</g>
</svg>
