<?xml version="1.0" encoding="utf-8"?>
<!-- Generator: Adobe Illustrator 19.0.0, SVG Export Plug-In . SVG Version: 6.00 Build 0)  -->
<svg version="1.1" id="XMLID_262_" xmlns="http://www.w3.org/2000/svg" xmlns:xlink="http://www.w3.org/1999/xlink" x="0px" y="0px"
	 viewBox="-19 20 24 26" style="enable-background:new -19 20 24 26;" xml:space="preserve">
<g id="camera">
	<g>
		<path d="M5,44h-24V26h5.4l2-4h9.2l2,4H5V44z M-17,42H3V28h-4.6l-2-4h-6.8l-2,4H-17V42z M-7,40c-3.3,0-6-2.7-6-6s2.7-6,6-6
			s6,2.7,6,6S-3.7,40-7,40z M-7,30c-2.2,0-4,1.8-4,4s1.8,4,4,4s4-1.8,4-4S-4.8,30-7,30z"/>
	</g>
</g>
</svg>
