<?xml version="1.0" encoding="utf-8"?>
<!-- Generator: Adobe Illustrator 19.0.0, SVG Export Plug-In . SVG Version: 6.00 Build 0)  -->
<svg version="1.1" id="XMLID_44_" xmlns="http://www.w3.org/2000/svg" xmlns:xlink="http://www.w3.org/1999/xlink" x="0px" y="0px"
	 viewBox="-19 20 24 26" style="enable-background:new -19 20 24 26;" xml:space="preserve">
<style type="text/css">
	.st0{fill:none;stroke:#000000;stroke-width:2;stroke-miterlimit:10;}
</style>
<g id="document-excel">
	<g>
		<polygon points="3.7,45 -16.3,45 -16.3,43 1.7,43 1.7,27.4 -2.7,23 -14.3,23 -14.3,30 -16.3,30 -16.3,21 -1.9,21 3.7,26.6 		"/>
	</g>
	<g>
		<polygon points="2.7,29 -4.3,29 -4.3,23 -2.3,23 -2.3,27 2.7,27 		"/>
	</g>
	<g>
		<path class="st0" d="M-4.3,28"/>
	</g>
	<g>
		<path d="M-14.5,36.4l-3-4.4h2.3l1.9,2.9l1.9-2.9h2.3l-3,4.4L-9,41h-2.3l-2-3.1l-2,3.1h-2.3L-14.5,36.4z"/>
	</g>
</g>
</svg>
