<?xml version="1.0" encoding="utf-8"?>
<!-- Generator: Adobe Illustrator 19.0.0, SVG Export Plug-In . SVG Version: 6.00 Build 0)  -->
<svg version="1.1" id="XMLID_298_" xmlns="http://www.w3.org/2000/svg" xmlns:xlink="http://www.w3.org/1999/xlink" x="0px" y="0px"
	 viewBox="-19 20 24 26" style="enable-background:new -19 20 24 26;" xml:space="preserve">
<g id="favorite_1_">
	<g id="favorite">
		<path d="M-7,44.1l-0.6-0.5c-2.7-2-11.4-9.2-11.4-15.4c0-3.5,2.9-6.3,6.5-6.3c2.2,0,4.3,1.1,5.5,2.9l0,0l0,0
			c1.2-1.8,3.3-2.9,5.5-2.9c3.6,0,6.5,2.8,6.5,6.3c0,6.3-8.7,13.4-11.4,15.5L-7,44.1z M-12.5,23.8c-2.5,0-4.5,1.9-4.5,4.3
			c0,4.1,5.1,9.5,10,13.4c4.9-3.9,10-9.3,10-13.4c0-2.4-2-4.3-4.5-4.3c-1.6,0-3,0.8-3.8,2L-7,28.5l-1.7-2.6
			C-9.5,24.6-10.9,23.8-12.5,23.8z"/>
	</g>
</g>
</svg>
