<?xml version="1.0" encoding="utf-8"?>
<!-- Generator: Adobe Illustrator 19.0.0, SVG Export Plug-In . SVG Version: 6.00 Build 0)  -->
<svg version="1.1" id="XMLID_238_" xmlns="http://www.w3.org/2000/svg" xmlns:xlink="http://www.w3.org/1999/xlink" x="0px" y="0px"
	 viewBox="-19 20 24 26" style="enable-background:new -19 20 24 26;" xml:space="preserve">
<g id="location">
	<g>
		<path d="M-7,45.2l-0.7-0.6C-8,44.3-16,37.3-16,29.8c0-5,4-9,9-9s9,4,9,9c0,7.5-8,14.5-8.3,14.8L-7,45.2z M-7,22.9
			c-3.9,0-7,3.1-7,7c0,5.4,5.1,10.8,7,12.6c1.9-1.8,7-7.2,7-12.6C0,26-3.2,22.9-7,22.9z M-7,33.9c-2.2,0-4-1.8-4-4s1.8-4,4-4
			s4,1.8,4,4S-4.8,33.9-7,33.9z M-7,27.9c-1.1,0-2,0.9-2,2s0.9,2,2,2s2-0.9,2-2S-5.9,27.9-7,27.9z"/>
	</g>
</g>
</svg>
