<?xml version="1.0" encoding="utf-8"?>
<!-- Generator: Adobe Illustrator 19.0.0, SVG Export Plug-In . SVG Version: 6.00 Build 0)  -->
<svg version="1.1" id="XMLID_100_" xmlns="http://www.w3.org/2000/svg" xmlns:xlink="http://www.w3.org/1999/xlink" x="0px" y="0px"
	 viewBox="-19 20 24 26" style="enable-background:new -19 20 24 26;" xml:space="preserve">
<g id="resources">
	<g>
		<path d="M-7,44l-12-6l4.9-2.5L-19,33l4.9-2.5L-19,28l12-6l12,6l-4.9,2.5L5,33l-4.9,2.5L5,38L-7,44z M-14.6,38l7.7,3.9L0.7,38
			l-2.8-1.4L-7,39l-4.9-2.5L-14.6,38z M-14.6,33l7.7,3.9L0.7,33l-2.8-1.4L-7,34.1l-4.9-2.5L-14.6,33z M-14.6,28l7.7,3.9L0.7,28
			L-7,24.2L-14.6,28z"/>
	</g>
</g>
</svg>
