<?xml version="1.0" encoding="utf-8"?>
<!-- Generator: Adobe Illustrator 19.0.0, SVG Export Plug-In . SVG Version: 6.00 Build 0)  -->
<svg version="1.1" id="XMLID_130_" xmlns="http://www.w3.org/2000/svg" xmlns:xlink="http://www.w3.org/1999/xlink" x="0px" y="0px"
	 viewBox="-19 20 24 26" style="enable-background:new -19 20 24 26;" xml:space="preserve">
<g id="servers">
	<g>
		<rect x="-12" y="39" width="2" height="2"/>
	</g>
	<g>
		<rect x="-1" y="39" width="2" height="2"/>
	</g>
	<g>
		<path d="M5,45h-24V21H5V45z M-6,43h9V23h-9V43z M-17,43h9V23h-9V43z M1,35h-5v-2h5V35z M-10,35h-5v-2h5V35z M1,31h-5v-2h5V31z
			 M-10,31h-5v-2h5V31z M1,27h-5v-2h5V27z M-10,27h-5v-2h5V27z"/>
	</g>
</g>
</svg>
