<?xml version="1.0" encoding="utf-8"?>
<!-- Generator: Adobe Illustrator 19.0.0, SVG Export Plug-In . SVG Version: 6.00 Build 0)  -->
<svg version="1.1" id="XMLID_219_" xmlns="http://www.w3.org/2000/svg" xmlns:xlink="http://www.w3.org/1999/xlink" x="0px" y="0px"
	 viewBox="-19 20 24 26" style="enable-background:new -19 20 24 26;" xml:space="preserve">
<g id="threats">
	<g>
		<path d="M-8,46c-5,0-9-4-9-9c0-3.5,1.9-6.5,5-8.1V26h3v-3c0-1.7,1.3-3,3-3h1c1.7,0,3,1.3,3,3c0,0.6,0.4,1,1,1h1c0.6,0,1-0.4,1-1
			v-1h2v1c0,1.7-1.3,3-3,3h-1c-1.7,0-3-1.3-3-3c0-0.6-0.4-1-1-1h-1c-0.6,0-1,0.4-1,1v3h3v2.9c3.1,1.5,5,4.6,5,8.1C1,42-3,46-8,46z
			 M-10,28v2.3l-0.6,0.3c-2.7,1.1-4.4,3.6-4.4,6.5c0,3.9,3.1,7,7,7s7-3.1,7-7c0-2.9-1.7-5.4-4.4-6.5L-6,30.3V28H-10z M-5.7,40.7
			L-8,38.4l-2.3,2.3l-1.4-1.4l2.3-2.3l-2.3-2.3l1.4-1.4l2.3,2.3l2.3-2.3l1.4,1.4L-6.6,37l2.3,2.3L-5.7,40.7z"/>
	</g>
</g>
</svg>
