<?xml version="1.0" encoding="utf-8"?>
<!-- Generator: Adobe Illustrator 18.0.0, SVG Export Plug-In . SVG Version: 6.00 Build 0)  -->
<!DOCTYPE svg PUBLIC "-//W3C//DTD SVG 1.1//EN" "http://www.w3.org/Graphics/SVG/1.1/DTD/svg11.dtd">
<svg version="1.1" id="Layer_1" xmlns="http://www.w3.org/2000/svg" xmlns:xlink="http://www.w3.org/1999/xlink" x="0px" y="0px"
	 viewBox="0 0 20 24" enable-background="new 0 0 20 24" xml:space="preserve">
<path fill="none" stroke="#231F20" stroke-width="2" stroke-miterlimit="10" d="M-198,34v-8 M-194,29l-4-4l-4,4 M-194,31h2.1
	c2.8,0,5-2.2,5-5s-2-5-5-5v-1c0-2.2-1.7-4-3.9-4h-3c-2.2,0-4.1,1.8-4.1,4v1 M-198,21h-5.9c-2.8,0-5,2.2-5,5s2.2,5,5,5h-0.1"/>
<path fill="none" stroke="#231F20" stroke-width="7" stroke-miterlimit="10" d="M-84.5,116V89 M-69.5,98.9l-14.1-14.1l-14.1,14.1
	 M-70,107.5h7.8c9.7,0,16.5-8.6,16.5-18.4s-7.8-18.4-18.8-18.4L-65,67c0-7.8-8.2-11.5-16-11.5h-5.7c-7.8,0-15.8,4-15.8,11.7V71
	 M-83,71.5h-21.2c-9.7,0-17.7,8.3-17.7,18s7.8,18,17.6,18h-0.7"/>
<path fill="none" stroke="#231F20" stroke-width="2" stroke-miterlimit="10" d="M19,23H1V1h12l3,3l3,3V23z M12,1v7h7"/>
</svg>
