<svg width="84" height="84" viewBox="0 0 84 84" fill="none" xmlns="http://www.w3.org/2000/svg">
<path fill-rule="evenodd" clip-rule="evenodd" d="M42 84C65.196 84 84 65.196 84 42C84 18.804 65.196 0 42 0C18.804 0 0 18.804 0 42C0 65.196 18.804 84 42 84ZM30.7369 29.6811V44.4545C30.7369 46.1287 30.3803 47.5807 29.6673 48.8106C28.9542 50.03 27.931 50.9602 26.5979 51.6009C25.2647 52.2417 23.6887 52.562 21.8698 52.562C19.1207 52.562 16.9556 51.8489 15.3744 50.4228C13.7932 48.9966 12.9871 47.0433 12.9561 44.563V29.6811H18.4283V44.6715C18.4903 47.1415 19.6375 48.3765 21.8698 48.3765C22.9962 48.3765 23.8488 48.0665 24.4276 47.4464C25.0063 46.8263 25.2957 45.8187 25.2957 44.4235V29.6811H30.7369ZM45.674 48.0355H38.2175L36.9154 52.252H31.1021L39.3802 29.6811H44.4958L52.8359 52.252H46.9916L45.674 48.0355ZM39.5197 43.8344H44.3718L41.938 36.0059L39.5197 43.8344ZM70.9664 44.4545V29.6811H65.5252V44.4235C65.5252 45.8187 65.2358 46.8263 64.6571 47.4464C64.0783 48.0665 63.2257 48.3765 62.0992 48.3765C59.8669 48.3765 58.7198 47.1415 58.6578 44.6715V29.6811H53.1856V44.563C53.2166 47.0433 54.0227 48.9966 55.6039 50.4228C57.1851 51.8489 59.3502 52.562 62.0992 52.562C63.9181 52.562 65.4942 52.2417 66.8273 51.6009C68.1605 50.9602 69.1836 50.03 69.8967 48.8106C70.6098 47.5807 70.9664 46.1287 70.9664 44.4545Z" fill="#0073E7"/>
</svg>
