<?xml version="1.0" encoding="utf-8"?>
<!-- Generator: Adobe Illustrator 23.0.3, SVG Export Plug-In . SVG Version: 6.00 Build 0)  -->
<svg version="1.1" id="XMLID_117_" xmlns="http://www.w3.org/2000/svg" xmlns:xlink="http://www.w3.org/1999/xlink" x="0px" y="0px"
	 viewBox="0 0 24 24" enable-background="new 0 0 24 24" xml:space="preserve">
<g id="_x33_d">
	<path d="M12,24L1,19.7V12h2v6.3l9,3.5l9-3.5V12h2v7.7L12,24z M19,17h-2v-2.4c-2.5,2.1-7.1,4-11.6,0.2l1.3-1.5
		c3.9,3.3,7.6,1,9.1-0.2H13v-2h6V17L19,17z M23,12h-2V6.5l-9,3.7L3,6.5V12H1V4.3L12,0l11,4.3V12z M4.6,5L12,8l7.4-3L12,2L4.6,5z"/>
</g>
</svg>
