<?xml version="1.0" encoding="utf-8"?>
<!-- Generator: Adobe Illustrator 23.0.3, SVG Export Plug-In . SVG Version: 6.00 Build 0)  -->
<svg version="1.1" id="XMLID_312_" xmlns="http://www.w3.org/2000/svg" xmlns:xlink="http://www.w3.org/1999/xlink" x="0px" y="0px"
	 viewBox="0 0 24 24" style="enable-background:new 0 0 24 24;" xml:space="preserve">
<g id="actions">
	<g>
		<path d="M13,24h-2v-3.1C9.3,20.7,7.7,20,6.4,19l-2.2,2.2l-1.4-1.4L5,17.6c-1-1.3-1.7-2.9-1.9-4.6H0v-2h3.1C3.3,9.3,4,7.7,5,6.4
			L2.8,4.2l1.4-1.4L6.4,5C7.7,4,9.3,3.3,11,3.1V0h2v3.1C14.7,3.3,16.3,4,17.6,5l2.2-2.2l1.4,1.4L19,6.4c1,1.3,1.7,2.9,1.9,4.6H24v2
			h-3.1c-0.2,1.7-0.9,3.3-1.9,4.6l2.2,2.2l-1.4,1.4L17.6,19c-1.3,1-2.9,1.7-4.6,1.9V24z M12,5c-3.9,0-7,3.1-7,7s3.1,7,7,7s7-3.1,7-7
			S15.9,5,12,5z M12,16c-2.2,0-4-1.8-4-4s1.8-4,4-4s4,1.8,4,4S14.2,16,12,16z M12,10c-1.1,0-2,0.9-2,2c0,1.1,0.9,2,2,2s2-0.9,2-2
			C14,10.9,13.1,10,12,10z"/>
	</g>
</g>
</svg>
