<?xml version="1.0" encoding="utf-8"?>
<!-- Generator: Adobe Illustrator 24.1.3, SVG Export Plug-In . SVG Version: 6.00 Build 0)  -->
<svg version="1.1" id="Address_Book" xmlns="http://www.w3.org/2000/svg" xmlns:xlink="http://www.w3.org/1999/xlink" x="0px"
	 y="0px" viewBox="0 0 24 24" enable-background="new 0 0 24 24" xml:space="preserve">
<path d="M20,24.01c-0.1,0-0.19,0-0.29-0.01H5.5C3.57,24,2,22.43,2,20.5v-17C2,1.57,3.57,0,5.5,0H22v19l-2,0.01
	c-0.83,0-1.5,0.67-1.5,1.5c0,0.76,0.57,1.4,1.31,1.49H22v2L20,24.01z M4,20.5C4,21.33,4.67,22,5.5,22h11.33
	c-0.21-0.45-0.33-0.96-0.33-1.49c0-0.54,0.12-1.05,0.34-1.51H5.5C4.67,19,4,19.67,4,20.5z M5.5,2C4.67,2,4,2.67,4,3.5v13.84
	C4.46,17.12,4.96,17,5.5,17H20V2H5.5z M17.12,16H6.88v-2.45c0-1.77,0.95-3.34,2.38-4.25C8.63,8.63,8.25,7.74,8.25,6.75
	C8.25,4.68,9.93,3,12,3s3.75,1.68,3.75,3.75c0,0.98-0.38,1.88-1,2.55c1.43,0.9,2.38,2.47,2.38,4.25V16z M12,14h3.12v-0.45
	c0-1.63-1.42-3.03-3.11-3.05c-1.7,0.02-3.14,1.41-3.14,3.05V14H12z M12,5c-0.96,0-1.75,0.79-1.75,1.75S11.04,8.5,12,8.5
	s1.75-0.79,1.75-1.75S12.96,5,12,5z"/>
</svg>
