<?xml version="1.0" encoding="utf-8"?>
<!-- Generator: Adobe Illustrator 23.0.3, SVG Export Plug-In . SVG Version: 6.00 Build 0)  -->
<svg version="1.1" id="XMLID_304_" xmlns="http://www.w3.org/2000/svg" xmlns:xlink="http://www.w3.org/1999/xlink" x="0px" y="0px"
	 viewBox="0 0 24 24" enable-background="new 0 0 24 24" xml:space="preserve">
<g id="advanced-search">
	<g>
		<path d="M20.3,22.8l-5.5-5.5c-1.4,1.1-3.3,1.8-5.3,1.8c-4.7,0-8.5-3.8-8.5-8.5s3.8-8.5,8.5-8.5S18,5.9,18,10.6
			c0,2-0.7,3.8-1.8,5.3l5.5,5.5L20.3,22.8z M9.5,4C5.9,4,3,6.9,3,10.5S5.9,17,9.5,17s6.5-2.9,6.5-6.5S13.1,4,9.5,4z M22,6h-2V4h-2V2
			h2V0h2v2h2v2h-2V6z"/>
	</g>
</g>
</svg>
