<?xml version="1.0" encoding="utf-8"?>
<!-- Generator: Adobe Illustrator 23.0.3, SVG Export Plug-In . SVG Version: 6.00 Build 0)  -->
<svg version="1.1" id="XMLID_231_" xmlns="http://www.w3.org/2000/svg" xmlns:xlink="http://www.w3.org/1999/xlink" x="0px" y="0px"
	 viewBox="0 0 24 24" style="enable-background:new 0 0 24 24;" xml:space="preserve">
<g id="aggregate">
	<g>
		<path d="M15.5,24c-4.2,0-7.7-3-8.4-7H7v-0.1c-4-0.7-7-4.2-7-8.4C0,3.8,3.8,0,8.5,0c4.2,0,7.7,3,8.4,7H17v0.1c4,0.7,7,4.2,7,8.4
			C24,20.2,20.2,24,15.5,24z M9.2,17c0.7,2.9,3.3,5,6.3,5c3.6,0,6.5-2.9,6.5-6.5c0-3.1-2.1-5.6-5-6.3V17H9.2z M9,15h6V9H9V15z
			 M8.5,2C4.9,2,2,4.9,2,8.5c0,3.1,2.1,5.6,5,6.3V7h7.8C14.1,4.1,11.6,2,8.5,2z"/>
	</g>
</g>
</svg>
