<?xml version="1.0" encoding="utf-8"?>
<!-- Generator: Adobe Illustrator 23.0.3, SVG Export Plug-In . SVG Version: 6.00 Build 0)  -->
<svg version="1.1" id="XMLID_230_" xmlns="http://www.w3.org/2000/svg" xmlns:xlink="http://www.w3.org/1999/xlink" x="0px" y="0px"
	 viewBox="0 0 24 24" style="enable-background:new 0 0 24 24;" xml:space="preserve">
<g id="analytics">
	<g>
		<path d="M12,24C5.9,24,1,19.1,1,13C1,7.3,5.4,2.6,11,2V0h1c4.1,0,7.9,1.9,10.4,5.2L23,6l-1.6,1.2C22.4,9,23,10.9,23,13
			C23,19.1,18.1,24,12,24z M11,4.1C6.5,4.6,3,8.4,3,13c0,5,4,9,9,9s9-4,9-9c0-1.6-0.4-3.2-1.2-4.6L11,15V4.1z M13,2v9l7.2-5.4
			C18.3,3.6,15.7,2.3,13,2z"/>
	</g>
</g>
</svg>
