<?xml version="1.0" encoding="utf-8"?>
<!-- Generator: Adobe Illustrator 23.0.3, SVG Export Plug-In . SVG Version: 6.00 Build 0)  -->
<svg version="1.1" id="XMLID_264_" xmlns="http://www.w3.org/2000/svg" xmlns:xlink="http://www.w3.org/1999/xlink" x="0px" y="0px"
	 viewBox="0 0 24 24" style="enable-background:new 0 0 24 24;" xml:space="preserve">
<g id="announcement">
	<g>
		<path d="M12,24H6v-7c-3.3,0-6-2.7-6-6s2.7-6,6-6h5c3.6,0,7.3-3.4,7.3-3.4L20,0v7c2.2,0,4,1.8,4,4s-1.8,4-4,4v6.8l-1.7-1.5
			c0,0-3.1-2.8-6.3-3.3V24z M8,22h2v-5H8V22z M12,15.1c2.4,0.3,4.6,1.5,6,2.5V4.4c-1.4,1-3.6,2.3-6,2.6V15.1z M6,15h4V7H6
			c-2.2,0-4,1.8-4,4S3.8,15,6,15z M20,11v2c1.1,0,2-0.9,2-2s-0.9-2-2-2V11z"/>
	</g>
</g>
</svg>
