<?xml version="1.0" encoding="utf-8"?>
<!-- Generator: Adobe Illustrator 23.0.3, SVG Export Plug-In . SVG Version: 6.00 Build 0)  -->
<svg version="1.1" id="XMLID_65_" xmlns="http://www.w3.org/2000/svg" xmlns:xlink="http://www.w3.org/1999/xlink" x="0px" y="0px"
	 viewBox="0 0 24 24" style="enable-background:new 0 0 24 24;" xml:space="preserve">
<g id="article">
	<g>
		<path d="M20.5,22H4c-0.2,0-0.3,0-0.5,0C1.6,22,0,20.4,0,18.5V6h5V2h19v16.5C24,20.4,22.4,22,20.5,22z M6.7,20h13.8
			c0.8,0,1.5-0.7,1.5-1.5V4H7v14.5C7,19,6.9,19.5,6.7,20z M2,8v10.5C2,19.3,2.7,20,3.5,20S5,19.3,5,18.5V8H2z"/>
	</g>
	<g>
		<rect x="15" y="6" width="5" height="6"/>
	</g>
	<g>
		<rect x="9" y="6" width="4" height="2"/>
	</g>
	<g>
		<rect x="9" y="10" width="4" height="2"/>
	</g>
	<g>
		<rect x="9" y="14" width="11" height="2"/>
	</g>
</g>
</svg>
