<?xml version="1.0" encoding="utf-8"?>
<!-- Generator: Adobe Illustrator 23.0.3, SVG Export Plug-In . SVG Version: 6.00 Build 0)  -->
<svg version="1.1" xmlns="http://www.w3.org/2000/svg" xmlns:xlink="http://www.w3.org/1999/xlink" x="0px" y="0px"
	 viewBox="0 0 24 24" style="enable-background:new 0 0 24 24;" xml:space="preserve">
<g id="attachment">
	<path d="M8,24c-1.8,0-3.5-0.7-4.9-2L3,21.9c-1.3-1.3-2-3-2-4.9c0-1.8,0.7-3.6,2-4.9L13.7,1.4C14.6,0.5,15.9,0,17.2,0
		c1.3,0,2.6,0.5,3.5,1.4c2,2,2,5.1,0.1,7.1L10.1,19.1c-1.2,1.2-3,1.2-4.2,0c-1.2-1.2-1.2-3.1,0-4.2l9.4-9.4l1.4,1.4l-9.4,9.4
		c-0.4,0.4-0.4,1,0,1.4c0.4,0.4,1,0.4,1.4,0L19.3,7.1c1.1-1.1,1.1-3,0-4.2c-1.2-1.2-3.1-1.2-4.2-0.1L4.4,13.5C3.5,14.4,3,15.7,3,17
		c0,1.3,0.5,2.6,1.4,3.5l0.1,0.1c1.9,1.9,5,1.9,7,0l9.5-9.5l1.4,1.4L12.9,22C11.6,23.3,9.8,24,8,24z"/>
</g>
</svg>
