<?xml version="1.0" encoding="utf-8"?>
<!-- Generator: Adobe Illustrator 23.0.3, SVG Export Plug-In . SVG Version: 6.00 Build 0)  -->
<svg version="1.1" id="XMLID_225_" xmlns="http://www.w3.org/2000/svg" xmlns:xlink="http://www.w3.org/1999/xlink" x="0px" y="0px"
	 viewBox="0 0 24 24" enable-background="new 0 0 24 24" xml:space="preserve">
<g id="blog">
	<g>
		<path d="M5,23c-2.2,0-4-1.8-4-4v-8h2v4.5C3.6,15.2,4.3,15,5,15c2.2,0,4,1.8,4,4S7.2,23,5,23z M5,17c-1.1,0-2,0.9-2,2s0.9,2,2,2
			s2-0.9,2-2S6.1,17,5,17z M24,19h-2C22,9.6,14.4,2,5,2V0C15.5,0,24,8.5,24,19z M19,19h-2c0-6.6-5.4-12-12-12V5
			C12.7,5,19,11.3,19,19z M14,19h-2c0-3.9-3.1-7-7-7v-2C10,10,14,14,14,19z"/>
	</g>
</g>
</svg>
