<?xml version="1.0" encoding="utf-8"?>
<!-- Generator: Adobe Illustrator 24.1.3, SVG Export Plug-In . SVG Version: 6.00 Build 0)  -->
<svg version="1.1" id="Icon" xmlns="http://www.w3.org/2000/svg" xmlns:xlink="http://www.w3.org/1999/xlink" x="0px" y="0px"
	 viewBox="0 0 24 24" enable-background="new 0 0 24 24" xml:space="preserve">
<path d="M18.18,10.89C19,10.42,21,9.88,21,5.94C21,0.28,14.45,0,14.45,0H2v24c0,0,8.28,0,13.03,0c4.41,0,6.99-2.93,6.99-7.2
	C22.02,12.73,19.1,11.47,18.18,10.89z M8,5h4.56c0,0,1.75,0.13,1.75,1.98c0,1.85-1.23,2.02-1.75,2.02S8,9,8,9V5z M13.17,19
	C12.57,19,8,19,8,19v-5h5.17c0,0,2.06,0.1,2.06,2.48C15.23,18.51,13.76,19,13.17,19z"/>
</svg>
