<?xml version="1.0" encoding="utf-8"?>
<!-- Generator: Adobe Illustrator 23.0.3, SVG Export Plug-In . SVG Version: 6.00 Build 0)  -->
<svg version="1.1" id="XMLID_67_" xmlns="http://www.w3.org/2000/svg" xmlns:xlink="http://www.w3.org/1999/xlink" x="0px" y="0px"
	 viewBox="0 0 24 24" style="enable-background:new 0 0 24 24;" xml:space="preserve">
<g id="book">
	<g>
		<path d="M22,24H5.5c-1.8,0-3.2-1.3-3.5-3l0,0V3.5C2,1.6,3.6,0,5.5,0H22v19h-1.5c-0.8,0-1.5,0.7-1.5,1.5s0.7,1.5,1.5,1.5H22V24z
			 M5.5,19C4.7,19,4,19.7,4,20.5S4.7,22,5.5,22h11.8c-0.2-0.5-0.3-1-0.3-1.5s0.1-1,0.3-1.5H5.5z M5.5,2C4.7,2,4,2.7,4,3.5v13.8
			C4.5,17.1,5,17,5.5,17H20V2h-3v10.9l-4-2.7l-4,2.7V2H5.5z M13,7.8l2,1.3V2h-4v7.1L13,7.8z"/>
	</g>
</g>
</svg>
