<?xml version="1.0" encoding="utf-8"?>
<!-- Generator: Adobe Illustrator 23.0.3, SVG Export Plug-In . SVG Version: 6.00 Build 0)  -->
<svg version="1.1" id="XMLID_166_" xmlns="http://www.w3.org/2000/svg" xmlns:xlink="http://www.w3.org/1999/xlink" x="0px" y="0px"
	 viewBox="0 0 24 24" style="enable-background:new 0 0 24 24;" xml:space="preserve">
<g id="bundle">
	<g>
		<path d="M18,23H6v-1H0V2h6V1h12v1h6v20h-6V23z M8,21h8v-7H8V21z M18,20h4v-2h-4V20z M2,20h4v-2H2V20z M18,16h4v-2h-4V16z M2,16h4
			v-2H2V16z M18,12h4V4h-4V12z M8,12h8V3H8V12z M2,12h4V4H2V12z"/>
	</g>
</g>
</svg>
