<?xml version="1.0" encoding="utf-8"?>
<!-- Generator: Adobe Illustrator 23.0.3, SVG Export Plug-In . SVG Version: 6.00 Build 0)  -->
<svg version="1.1" id="XMLID_262_" xmlns="http://www.w3.org/2000/svg" xmlns:xlink="http://www.w3.org/1999/xlink" x="0px" y="0px"
	 viewBox="0 0 24 24" style="enable-background:new 0 0 24 24;" xml:space="preserve">
<g id="camera">
	<g>
		<path d="M24,23H0V5h5.4l2-4h9.2l2,4H24V23z M2,21h20V7h-4.6l-2-4H8.6l-2,4H2V21z M12,19c-3.3,0-6-2.7-6-6s2.7-6,6-6s6,2.7,6,6
			S15.3,19,12,19z M12,9c-2.2,0-4,1.8-4,4s1.8,4,4,4s4-1.8,4-4S14.2,9,12,9z"/>
	</g>
</g>
</svg>
