<?xml version="1.0" encoding="utf-8"?>
<!-- Generator: Adobe Illustrator 23.0.3, SVG Export Plug-In . SVG Version: 6.00 Build 0)  -->
<svg version="1.1" xmlns="http://www.w3.org/2000/svg" xmlns:xlink="http://www.w3.org/1999/xlink" x="0px" y="0px"
	 viewBox="0 0 24 24" enable-background="new 0 0 24 24" xml:space="preserve">
<g id="chart-sankey">
	<path d="M8.1,24c-0.2,0-0.4,0-0.5,0H0V0h8v12c0.1,0,1.2-0.1,1.8-1.4c0.9-1.9,2.6-7.8,2.6-7.9C12.6,1.8,13.7,0,16,0v2
		c-1.3,0-1.7,1.2-1.7,1.3c-0.1,0.3-1.8,6.1-2.7,8.1C10.4,14,8.1,14,8,14v4c0,0,1.2,0,1.8-1c0.8-1.4,2.6-5.8,2.6-5.9
		C12.8,10.3,13.9,9,16,9v2c-1.3,0-1.7,0.8-1.8,0.9c0,0.1-1.8,4.5-2.7,6.1c-1.2,2-3.4,2-3.5,2v2c0.5,0,1.5-0.1,1.9-0.6
		c0.8-0.8,2.5-2.9,2.5-2.9c0.1-0.1,1.1-1.5,3.6-1.5v2c-1.4,0-2,0.7-2,0.7c-0.1,0.1-1.7,2.2-2.6,3.1C10.4,23.9,8.9,24,8.1,24z M2,22
		h4v-8H2V22z M2,12h4V2H2V12z M24,24h-8V0h8V24z M18,22h4v-3h-4V22z M18,17h4v-6h-4V17z M18,9h4V2h-4V9z"/>
</g>
</svg>
