<?xml version="1.0" encoding="utf-8"?>
<!-- Generator: Adobe Illustrator 23.0.3, SVG Export Plug-In . SVG Version: 6.00 Build 0)  -->
<svg version="1.1" id="XMLID_270_" xmlns="http://www.w3.org/2000/svg" xmlns:xlink="http://www.w3.org/1999/xlink" x="0px" y="0px"
	 viewBox="0 0 24 24" enable-background="new 0 0 24 24" xml:space="preserve">
<g id="chat-attachment">
	<path d="M22.6,12.1L14,20.7c-0.8,0.8-1.9,1.3-3.1,1.3s-2.3-0.5-3.1-1.3l-0.1-0.1c-1.7-1.7-1.7-4.5,0-6.2l2.2-2.2h2.3l-3.3,3.3
		c-1.1,1.1-1.1,2.9,0,4c1.1,1.1,2.9,1.1,4,0l9.7-9.7c1.8-1.8,1.8-4.7-0.1-6.5c-1.8-1.8-4.7-1.8-6.5,0l-1,1V0H0v12.2h1.9v3.7l4.8-3.2
		L6.3,13c-2.5,2.5-2.5,6.5,0,9l0.1,0.1c1.2,1.2,2.8,1.9,4.5,1.9s3.3-0.7,4.5-1.9l8.6-8.6L22.6,12.1z M15,7.1l2.4-2.4
		c1-1,2.7-1,3.7,0.1c1,1,1,2.7,0,3.7l-9.7,9.7c-0.3,0.3-0.8,0.3-1.2,0c-0.3-0.3-0.3-0.8,0-1.1l8.6-8.6L17.5,7L15,9.4V7.1z M2,10.2V2
		h11v8.2H6.7l-2.8,1.9v-1.9H2z"/>
</g>
</svg>
