<?xml version="1.0" encoding="utf-8"?>
<!-- Generator: Adobe Illustrator 24.1.3, SVG Export Plug-In . SVG Version: 6.00 Build 0)  -->
<svg version="1.1" id="Icon" xmlns="http://www.w3.org/2000/svg" xmlns:xlink="http://www.w3.org/1999/xlink" x="0px" y="0px"
	 viewBox="0 0 24 24" enable-background="new 0 0 24 24" xml:space="preserve">
<path d="M12,0C5.37,0,0,5.37,0,12c0,6.63,5.37,12,12,12s12-5.37,12-12C24,5.37,18.63,0,12,0z M6,13.66c0,0.55-0.45,1-1,1
	s-1-0.45-1-1v-3.33c0-0.55,0.45-1,1-1s1,0.45,1,1V13.66z M9,16.65c0,0.55-0.45,1-1,1s-1-0.45-1-1v-9.3c0-0.55,0.45-1,1-1s1,0.45,1,1
	V16.65z M12,19.53c0,0.55-0.45,1-1,1s-1-0.45-1-1V4.47c0-0.55,0.45-1,1-1s1,0.45,1,1V19.53z M15,16.37c0,0.55-0.45,1-1,1
	s-1-0.45-1-1V7.63c0-0.55,0.45-1,1-1s1,0.45,1,1V16.37z M18,17.89c0,0.55-0.45,1-1,1s-1-0.45-1-1V6.11c0-0.55,0.45-1,1-1s1,0.45,1,1
	V17.89z M20,14.66c-0.55,0-1-0.45-1-1v-3.33c0-0.55,0.45-1,1-1s1,0.45,1,1v3.33C21,14.22,20.55,14.66,20,14.66z"/>
</svg>
