<?xml version="1.0" encoding="utf-8"?>
<!-- Generator: Adobe Illustrator 23.0.3, SVG Export Plug-In . SVG Version: 6.00 Build 0)  -->
<svg version="1.1" id="XMLID_146_" xmlns="http://www.w3.org/2000/svg" xmlns:xlink="http://www.w3.org/1999/xlink" x="0px" y="0px"
	 viewBox="0 0 24 24" style="enable-background:new 0 0 24 24;" xml:space="preserve">
<g id="circular-view">
	<g>
		<path d="M11.5,24C9.6,24,8,22.4,8,20.5S9.5,17,11.5,17c1.9,0,3.5,1.6,3.5,3.5S13.4,24,11.5,24z M11.5,19c-0.8,0-1.5,0.7-1.5,1.5
			s0.6,1.5,1.5,1.5c0.8,0,1.5-0.7,1.5-1.5S12.3,19,11.5,19z M19.5,20c-1.9,0-3.5-1.6-3.5-3.5s1.5-3.5,3.5-3.5s3.5,1.6,3.5,3.5
			S21.4,20,19.5,20z M19.5,15c-0.8,0-1.5,0.7-1.5,1.5s0.6,1.5,1.5,1.5s1.5-0.7,1.5-1.5S20.3,15,19.5,15z M3.5,20
			C1.6,20,0,18.4,0,16.5S1.6,13,3.5,13S7,14.6,7,16.5S5.4,20,3.5,20z M3.5,15C2.7,15,2,15.7,2,16.5S2.7,18,3.5,18S5,17.3,5,16.5
			S4.3,15,3.5,15z M19.5,11C17.6,11,16,9.4,16,7.5S17.5,4,19.5,4S23,5.6,23,7.5S21.4,11,19.5,11z M19.5,6C18.7,6,18,6.7,18,7.5
			S18.6,9,19.5,9S21,8.3,21,7.5S20.3,6,19.5,6z M3.5,11C1.6,11,0,9.4,0,7.5S1.6,4,3.5,4S7,5.6,7,7.5S5.4,11,3.5,11z M3.5,6
			C2.7,6,2,6.7,2,7.5S2.7,9,3.5,9S5,8.3,5,7.5S4.3,6,3.5,6z M11.5,7C9.6,7,8,5.4,8,3.5S9.5,0,11.5,0C13.4,0,15,1.6,15,3.5
			S13.4,7,11.5,7z M11.5,2C10.7,2,10,2.7,10,3.5S10.6,5,11.5,5C12.3,5,13,4.3,13,3.5S12.3,2,11.5,2z"/>
	</g>
</g>
</svg>
