<?xml version="1.0" encoding="utf-8"?>
<!-- Generator: Adobe Illustrator 23.0.3, SVG Export Plug-In . SVG Version: 6.00 Build 0)  -->
<svg version="1.1" id="Layer_1" xmlns="http://www.w3.org/2000/svg" xmlns:xlink="http://www.w3.org/1999/xlink" x="0px" y="0px"
	 viewBox="0 0 24 24" enable-background="new 0 0 24 24" xml:space="preserve">
<g id="cloud-download_1_">
	<path d="M12,21.4l-4.7-4.7l1.4-1.4l2.3,2.3V11h2v6.6l2.3-2.3l1.4,1.4L12,21.4z M18.1,19L18,17h0.1c2.2,0,3.9-1.8,3.9-4
		c0-2.3-1.7-4-4-4h-1V7c0-1.7-1.3-3-2.9-3h-3C9.4,4,8,5.4,8,7h4v2H6.1C3.8,9,2,10.8,2,13s1.8,4,4,4v2c-3.3,0-6-2.7-6-6s2.7-5.9,6-6
		l0,0c0-2.8,2.3-5,5.1-5h3C16.8,2,19,4.2,19,7v0.1c2.9,0.4,5,2.8,5,5.9C24,16.3,21.4,19,18.1,19z"/>
</g>
</svg>
