<?xml version="1.0" encoding="utf-8"?>
<!-- Generator: Adobe Illustrator 23.0.3, SVG Export Plug-In . SVG Version: 6.00 Build 0)  -->
<svg version="1.1" id="Layer_1" xmlns="http://www.w3.org/2000/svg" xmlns:xlink="http://www.w3.org/1999/xlink" x="0px" y="0px"
	 viewBox="0 0 24 24" style="enable-background:new 0 0 24 24;" xml:space="preserve">
<g id="cloud-upload">
	<path d="M13,21h-2v-6.6l-2.3,2.3l-1.4-1.4l4.8-4.7l4.7,4.7l-1.4,1.4L13,14.4V21z M6,19c-3.5,0-6-2.9-6-6c0-3.3,2.7-5.9,6-6l0,0
		c0-2.8,2.2-5,5-5h3c2.8,0,5,2.2,5,5v0.1c2.9,0.4,5,2.8,5,5.9c0,3.3-2.7,6-6,6v-2l0,0c2.2,0,4-1.8,4-4c0-2.3-1.7-4-4-4h-1V7
		c0-1.7-1.3-3-3-3h-3C9.4,4,8,5.4,8,7h4v2H6.1C3.8,9,2,10.8,2,13s1.8,4,4,4V19"/>
</g>
</svg>
