<?xml version="1.0" encoding="utf-8"?>
<!-- Generator: Adobe Illustrator 23.0.3, SVG Export Plug-In . SVG Version: 6.00 Build 0)  -->
<svg version="1.1" xmlns="http://www.w3.org/2000/svg" xmlns:xlink="http://www.w3.org/1999/xlink" x="0px" y="0px"
	 viewBox="0 0 24 24" enable-background="new 0 0 24 24" xml:space="preserve">
<g id="cloud-software">
	<path d="M19,5.1L19,5.1C19,2.2,17.1,0,14.5,0h-3.8C8.1,0,6,2.2,6,4.9V5c-3.2,0-6,2.8-6,6s2.8,6,6,6v-2c-2.1,0-4-1.9-4-4s1.9-4,4-4
		h7V5H8V4.9C8,3.3,9.2,2,10.8,2h3.8C16.2,2,17,3.5,17,5v2h1c2.1,0,4,1.9,4,4c0,2.1-1.9,4-4,4v2c3.3,0,6-2.7,6-6
		C24,8.1,21.8,5.6,19,5.1z"/>
	<path d="M7,24h10V11H7V24z M15,15h-2v-2h2V15z M9,13h2v2H9V13z M9,17h6v5H9V17z"/>
</g>
</svg>
