<?xml version="1.0" encoding="utf-8"?>
<!-- Generator: Adobe Illustrator 23.0.3, SVG Export Plug-In . SVG Version: 6.00 Build 0)  -->
<svg version="1.1" id="XMLID_251_" xmlns="http://www.w3.org/2000/svg" xmlns:xlink="http://www.w3.org/1999/xlink" x="0px" y="0px"
	 viewBox="0 0 24 24" style="enable-background:new 0 0 24 24;" xml:space="preserve">
<g id="cloud">
	<path d="M13,23h-3c-2.8,0-5-2.1-5-4.9V18c-2.8-0.5-5-3-5-6c0-3.3,2.7-6,6-6l0,0c0-2.8,2.2-5,5-5h3c2.8,0,5,2.2,5,5v0.1
		c2.8,0.5,5,2.9,5,5.9c0,3.3-2.7,6-6,6h-7v-2h7c2.2,0,4-1.8,4-4s-1.8-4-4-4h-1V6c0-1.7-1.3-3-3-3h-3C9.3,3,8,4.3,8,6h5v2H6
		c-2.2,0-4,1.8-4,4s1.8,4,4,4h1v2.1c0,1.7,1.3,2.9,3,2.9h3c1.7,0,3-1.3,3-3h2C18,20.8,15.8,23,13,23z"/>
</g>
</svg>
