<?xml version="1.0" encoding="utf-8"?>
<!-- Generator: Adobe Illustrator 23.0.3, SVG Export Plug-In . SVG Version: 6.00 Build 0)  -->
<svg version="1.1" id="XMLID_157_" xmlns="http://www.w3.org/2000/svg" xmlns:xlink="http://www.w3.org/1999/xlink" x="0px" y="0px"
	 viewBox="0 0 24 24" style="enable-background:new 0 0 24 24;" xml:space="preserve">
<g id="cloud-computer">
	<path d="M19,5.1L19,5.1C19,2.2,16.8,0,14,0h-3C8.2,0,6,2.2,6,5c-3.3,0.1-6,2.7-6,6c0,3.1,2.5,6,6,6v-2c-2.2,0-4-1.8-4-4
		s1.8-4,4.1-4H12V5H8c0-1.6,1.4-3,3-3h3c1.7,0,3,1.3,3,3v2h1c2.3,0,4,1.7,4,4c0,2.2-1.8,4-4,4v2c3.3,0,6-2.7,6-6
		C24,7.9,21.9,5.5,19,5.1z"/>
	<path d="M7,20h4v2H9v2h6c0,0-0.1-2,0-2h-2v-2h4v-9H7V20z M9,13h6v5H9V13z"/>
</g>
</svg>
