<?xml version="1.0" encoding="utf-8"?>
<!-- Generator: Adobe Illustrator 23.0.3, SVG Export Plug-In . SVG Version: 6.00 Build 0)  -->
<svg version="1.1" id="XMLID_259_" xmlns="http://www.w3.org/2000/svg" xmlns:xlink="http://www.w3.org/1999/xlink" x="0px" y="0px"
	 viewBox="0 0 24 24" style="enable-background:new 0 0 24 24;" xml:space="preserve">
<g id="configuration">
	<g>
		<path d="M4,24c-1.1,0-2.1-0.4-2.8-1.2C0.5,22.1,0,21,0,20s0.4-2.1,1.2-2.8l8-8C9.1,8.7,9,8.1,9,7.5C9,3.4,12.4,0,16.5,0
			c0.9,0,1.8,0.2,2.6,0.5L20.6,1L16,5.6L18.4,8L23,3.4l0.6,1.4C23.8,5.7,24,6.6,24,7.5c0,4.1-3.4,7.5-7.5,7.5
			c-0.6,0-1.1-0.1-1.7-0.2l-8,8C6.1,23.6,5.1,24,4,24z M16.5,2c-3,0-5.5,2.5-5.5,5.5c0,0.6,0.1,1.1,0.3,1.7l0.2,0.6l-8.9,8.9
			C2.2,19,2,19.5,2,20s0.2,1,0.6,1.4c0.7,0.8,2.1,0.8,2.8,0l8.9-8.9l0.6,0.2c0.5,0.2,1.1,0.3,1.7,0.3c3,0,5.5-2.5,5.5-5.5
			c0-0.1,0-0.2,0-0.3l-3.6,3.6l-5.2-5.2L16.9,2C16.7,2,16.6,2,16.5,2z"/>
	</g>
</g>
</svg>
