<?xml version="1.0" encoding="utf-8"?>
<!-- Generator: Adobe Illustrator 23.0.3, SVG Export Plug-In . SVG Version: 6.00 Build 0)  -->
<svg version="1.1" xmlns="http://www.w3.org/2000/svg" xmlns:xlink="http://www.w3.org/1999/xlink" x="0px" y="0px"
	 viewBox="0 0 24 24" style="enable-background:new 0 0 24 24;" xml:space="preserve">
<g id="cubes">
	<path d="M17,23.1l-5-2.5l-5,2.5l-6-3v-7.2l5-2.8V3.9l6-3l6,3v6.5l5,2.5v7.2L17,23.1z M18,16.6v3.8l3-1.5v-3.8L18,16.6z M13,18.9
		l3,1.5v-3.8l-3-1.5V18.9z M8,16.6v3.8l3-1.5v-3.8L8,16.6z M3,18.9l3,1.5v-3.8l-3-1.5V18.9z M14.2,13.5l2.8,1.4l2.8-1.4L17,12.1
		L14.2,13.5z M4.1,13.4L7,14.9l2.9-1.4L7,11.8L4.1,13.4z M13,7.6v4.3l3-1.5V6.1L13,7.6z M8,10.1l3,1.7V7.6L8,6.1V10.1z M9.2,4.5
		L12,5.9l2.8-1.4L12,3.1L9.2,4.5z"/>
</g>
</svg>
