<?xml version="1.0" encoding="utf-8"?>
<!-- Generator: Adobe Illustrator 23.0.3, SVG Export Plug-In . SVG Version: 6.00 Build 0)  -->
<svg version="1.1" id="XMLID_258_" xmlns="http://www.w3.org/2000/svg" xmlns:xlink="http://www.w3.org/1999/xlink" x="0px" y="0px"
	 viewBox="0 0 24 24" style="enable-background:new 0 0 24 24;" xml:space="preserve">
<g id="cut">
	<g>
		<path d="M4.5,24C2,24,0,22,0,19.5S2,15,4.5,15c1,0,1.9,0.3,2.7,0.9l4.7-3.9L7.2,8.1C6.5,8.7,5.5,9,4.5,9C2,9,0,7,0,4.5S2,0,4.5,0
			S9,2,9,4.5C9,5.3,8.8,6,8.5,6.6l4.9,4.1l9-7.5l1.3,1.5L15,12l8.7,7.2l-1.3,1.5l-9-7.5l-4.9,4.1C8.8,17.9,9,18.6,9,19.4
			C9,22,7,24,4.5,24z M4.5,17C3.1,17,2,18.1,2,19.5S3.1,22,4.5,22S7,20.9,7,19.5S5.9,17,4.5,17z M4.5,2C3.1,2,2,3.1,2,4.5
			S3.1,7,4.5,7S7,5.9,7,4.5S5.9,2,4.5,2z"/>
	</g>
</g>
</svg>
