<?xml version="1.0" encoding="utf-8"?>
<!-- Generator: Adobe Illustrator 23.0.3, SVG Export Plug-In . SVG Version: 6.00 Build 0)  -->
<svg version="1.1" id="XMLID_256_" xmlns="http://www.w3.org/2000/svg" xmlns:xlink="http://www.w3.org/1999/xlink" x="0px" y="0px"
	 viewBox="0 0 24 24" style="enable-background:new 0 0 24 24;" xml:space="preserve">
<g id="dashboard">
	<g>
		<path d="M12,24C5.4,24,0,18.6,0,12S5.4,0,12,0s12,5.4,12,12S18.6,24,12,24z M3.3,17c1.7,3,5,5,8.7,5s6.9-2,8.7-5H3.3z M2.5,15h19
			c0.2-0.6,0.3-1.3,0.4-2H20v-2h2c-0.2-2-1-3.8-2.2-5.3l-1.4,1.4L17,5.6l1.4-1.4C16.8,3,15,2.3,13,2v2h-2V2C8.9,2.2,7,3.1,5.5,4.4
			l1.2,1.2L5.3,7L4.1,5.8C3,7.2,2.2,9,2,10.9h2v2H2C2.1,13.7,2.3,14.4,2.5,15z M16,15h-2c0-1.1-0.9-2-2-2s-2,0.9-2,2H8
			c0-1.9,1.3-3.4,3-3.9V6h2v5.1C14.7,11.6,16,13.1,16,15z"/>
	</g>
</g>
</svg>
