<?xml version="1.0" encoding="utf-8"?>
<!-- Generator: Adobe Illustrator 23.0.3, SVG Export Plug-In . SVG Version: 6.00 Build 0)  -->
<svg version="1.1" id="XMLID_118_" xmlns="http://www.w3.org/2000/svg" xmlns:xlink="http://www.w3.org/1999/xlink" x="0px" y="0px"
	 viewBox="0 0 24 24" style="enable-background:new 0 0 24 24;" xml:space="preserve">
<g id="defect">
	<g>
		<path d="M13,24h-2l0,0c-3.2-0.4-5.8-2.7-6.7-5.7c-0.8,0.3-1.7,1-2.7,2.2L0,19.3c1.3-1.9,2.8-2.7,4-3.1c0-0.1,0-0.2,0-0.3V14H0v-2
			h4V9.7C2.8,9.3,1.4,8.4,0,6.6l1.6-1.2C3,7.3,4.5,7.8,5.3,7.9c0.2-0.2,0.5-0.3,0.8-0.5C6,6.9,5.9,6.4,5.9,5.9c0-3.3,2.7-5.9,6-5.9
			s6,2.6,6,5.9c0,0.5-0.1,1-0.2,1.5c0.3,0.2,0.6,0.3,0.8,0.5c0.8-0.1,2.5-0.6,3.9-2.5L24,6.6c-1.3,1.8-2.8,2.8-4,3.2V12h4v2h-4v2.1
			c0,0.1,0,0.2,0,0.3c1.1,0.4,2.6,1.2,4,3.1l-1.6,1.2c-0.9-1.3-1.9-1.9-2.7-2.2C18.8,21.3,16.2,23.5,13,24L13,24z M6,10.1v6.1
			c0,2.9,2.2,5.4,5,5.8V12h2v10c2.8-0.5,5-3,5-5.9V10h-0.1v0c-1.1-0.7-3-1.9-5.9-1.9l0,0c-2.9,0-4.8,1.2-5.9,1.9L6,10.1
			C6.1,10.1,6,10.1,6,10.1z M12,6.1L12,6.1c1.6,0,2.9,0.3,3.9,0.7C16,6.5,16,6.3,16,6.1C16,3.9,14.2,2,12,2S8,3.9,8,6.1
			c0,0.2,0,0.4,0.1,0.7C9.2,6.4,10.5,6.1,12,6.1z"/>
	</g>
</g>
</svg>
