<?xml version="1.0" encoding="utf-8"?>
<!-- Generator: Adobe Illustrator 23.0.3, SVG Export Plug-In . SVG Version: 6.00 Build 0)  -->
<svg version="1.1" id="XMLID_229_" xmlns="http://www.w3.org/2000/svg" xmlns:xlink="http://www.w3.org/1999/xlink" x="0px" y="0px"
	 viewBox="0 0 24 24" style="enable-background:new 0 0 24 24;" xml:space="preserve">
<g id="deliver">
	<g>
		<path d="M17.6,22c-1.8,0-3.2-1.3-3.5-3H9c-0.2,1.7-1.7,3-3.5,3S2.3,20.7,2,19H0V3h16v4h3.4l4.6,4.6V19h-3
			C20.8,20.7,19.3,22,17.6,22z M16.1,18.5c0,0.8,0.7,1.5,1.5,1.5c0.8,0,1.5-0.7,1.5-1.5S18.4,17,17.6,17
			C16.8,17,16.1,17.7,16.1,18.5z M5.6,17c-0.8,0-1.5,0.7-1.5,1.5S4.8,20,5.6,20s1.5-0.7,1.5-1.5S6.4,17,5.6,17z M20.7,17H22v-4.6
			L18.7,9h-2.6v6.3c0.5-0.2,1-0.3,1.5-0.3C19,15,20.2,15.8,20.7,17z M8.7,17H14V5H2v12h0.3c0.6-1.2,1.8-2,3.2-2S8.2,15.8,8.7,17z"/>
	</g>
</g>
</svg>
