<?xml version="1.0" encoding="utf-8"?>
<!-- Generator: Adobe Illustrator 23.0.3, SVG Export Plug-In . SVG Version: 6.00 Build 0)  -->
<svg version="1.1" id="XMLID_137_" xmlns="http://www.w3.org/2000/svg" xmlns:xlink="http://www.w3.org/1999/xlink" x="0px" y="0px"
	 viewBox="0 0 24 24" style="enable-background:new 0 0 24 24;" xml:space="preserve">
<g id="detach">
	<g>
		<path d="M8,24c-1.9,0-3.6-0.7-4.9-2l0,0C1.7,20.7,1,18.9,1,17.1s0.7-3.6,2-4.9l2.5-2.5l1.4,1.4l-2.5,2.5C3.5,14.5,3,15.8,3,17.1
			s0.5,2.6,1.4,3.5l0,0c1,1,2.2,1.5,3.5,1.5s2.6-0.5,3.5-1.4l2.6-2.6l1.4,1.4L12.9,22C11.6,23.3,9.8,24,8,24z M19.2,20.8L3.3,4.9
			l1.4-1.4L8.2,7l5.5-5.5C14.5,0.6,15.8,0,17.1,0l0,0c1.3,0,2.6,0.5,3.5,1.5c1,1,1.5,2.2,1.5,3.6c0,1.3-0.5,2.6-1.5,3.5L15.1,14
			l1.4,1.4l4.4-4.3l1.4,1.4L18,16.8l2.6,2.6L19.2,20.8z M12.4,11.2l1.4,1.4l5.5-5.5c0.6-0.6,0.9-1.3,0.9-2.1c0-0.8-0.3-1.5-0.9-2.1
			C18.6,2.3,17.8,2,17.1,2l0,0c-0.8,0-1.5,0.3-2.1,0.9L9.6,8.4L11,9.8l4.3-4.3l1.4,1.4L12.4,11.2z M8,20c-0.8,0-1.5-0.3-2.1-0.9
			C5.3,18.5,5,17.8,5,17c0-0.8,0.3-1.5,0.9-2.1l2.5-2.5l1.4,1.4l-2.5,2.5C7.1,16.5,7,16.7,7,17c0,0.3,0.1,0.5,0.3,0.7
			c0.4,0.4,1,0.4,1.4,0l2.5-2.5l1.4,1.4l-2.5,2.5C9.5,19.7,8.7,20,8,20z"/>
	</g>
</g>
</svg>
