<?xml version="1.0" encoding="utf-8"?>
<!-- Generator: Adobe Illustrator 23.0.3, SVG Export Plug-In . SVG Version: 6.00 Build 0)  -->
<svg version="1.1" id="XMLID_172_" xmlns="http://www.w3.org/2000/svg" xmlns:xlink="http://www.w3.org/1999/xlink" x="0px" y="0px"
	 viewBox="0 0 24 24" style="enable-background:new 0 0 24 24;" xml:space="preserve">
<g id="directions">
	<g>
		<path d="M13,24h-2v-7c0-2.8-2.1-5-4.8-5H3.7l3.2,3.3l-1.4,1.4L0,11l5.5-5.7l1.4,1.4L3.7,10h2.5c1.9,0,3.6,0.8,4.8,2.1V12
			c0-3.9,3-7,6.8-7h2.5l-3.2-3.3l1.4-1.4L24,6l-5.5,5.7l-1.4-1.4L20.3,7h-2.5C15.1,7,13,9.2,13,12V24z"/>
	</g>
</g>
</svg>
