<?xml version="1.0" encoding="utf-8"?>
<!-- Generator: Adobe Illustrator 23.0.3, SVG Export Plug-In . SVG Version: 6.00 Build 0)  -->
<svg version="1.1" id="XMLID_38_" xmlns="http://www.w3.org/2000/svg" xmlns:xlink="http://www.w3.org/1999/xlink" x="0px" y="0px"
	 viewBox="0 0 24 24" style="enable-background:new 0 0 24 24;" xml:space="preserve">
<g id="document-pdf">
	<g>
		<path d="M11,20H7v-8h4c1.6,0,3,1.5,3,3.2v1.6C14,18.5,12.6,20,11,20z M9,18h2c0.5,0,1-0.6,1-1.2v-1.6c0-0.6-0.5-1.2-1-1.2H9V18z
			 M2,20H0v-8h3c1.7,0,3,1.3,3,3s-1.3,3-3,3H2V20z M2,16h1c0.6,0,1-0.4,1-1s-0.4-1-1-1H2V16z"/>
	</g>
	<g>
		<rect x="15" y="12" width="6" height="2"/>
	</g>
	<g>
		<rect x="15" y="12" width="2" height="8"/>
	</g>
	<g>
		<rect x="15" y="16" width="5" height="2"/>
	</g>
	<g>
		<polygon points="24,24 4,24 4,22 22,22 22,6.4 17.6,2 6,2 6,9 4,9 4,0 18.4,0 24,5.6 		"/>
	</g>
	<g>
		<polygon points="23,8 16,8 16,2 18,2 18,6 23,6 		"/>
	</g>
</g>
</svg>
