<?xml version="1.0" encoding="utf-8"?>
<!-- Generator: Adobe Illustrator 23.0.3, SVG Export Plug-In . SVG Version: 6.00 Build 0)  -->
<svg version="1.1" id="XMLID_79_" xmlns="http://www.w3.org/2000/svg" xmlns:xlink="http://www.w3.org/1999/xlink" x="0px" y="0px"
	 viewBox="0 0 24 24" style="enable-background:new 0 0 24 24;" xml:space="preserve">
<g id="document-time">
	<g>
		<path d="M24,24h-8v-2h6V8h-6V2H6v4H4V0h14.4L24,5.6V24z M18,6h3.6L18,2.4V6z M8,24c-4.4,0-8-3.6-8-8s3.6-8,8-8s8,3.6,8,8
			S12.4,24,8,24z M8,10c-3.3,0-6,2.7-6,6s2.7,6,6,6s6-2.7,6-6S11.3,10,8,10z M10.3,19.7L7,16.4V12h2v3.6l2.7,2.7L10.3,19.7z"/>
	</g>
</g>
</svg>
