<?xml version="1.0" encoding="utf-8"?>
<!-- Generator: Adobe Illustrator 23.0.3, SVG Export Plug-In . SVG Version: 6.00 Build 0)  -->
<svg version="1.1" id="XMLID_33_" xmlns="http://www.w3.org/2000/svg" xmlns:xlink="http://www.w3.org/1999/xlink" x="0px" y="0px"
	 viewBox="0 0 24 24" style="enable-background:new 0 0 24 24;" xml:space="preserve">
<g id="document-locked">
	<g>
		<polygon points="23,24 15,24 15,22 21,22 21,6.4 16.6,2 5,2 5,8 3,8 3,0 17.4,0 23,5.6 		"/>
	</g>
	<g>
		<polygon points="22,8 15,8 15,2 17,2 17,6 22,6 		"/>
	</g>
	<g>
		<path d="M13,24H1V14h12V24z M3,22h8v-6H3V22z M8,20H6v-2h2V20z"/>
	</g>
	<g>
		<path d="M11,16H3v-3c0-2.2,1.8-4,4-4s4,1.8,4,4V16z M5,14h4v-1c0-1.1-0.9-2-2-2s-2,0.9-2,2V14z"/>
	</g>
</g>
</svg>
