<?xml version="1.0" encoding="utf-8"?>
<!-- Generator: Adobe Illustrator 23.0.3, SVG Export Plug-In . SVG Version: 6.00 Build 0)  -->
<svg version="1.1" id="XMLID_80_" xmlns="http://www.w3.org/2000/svg" xmlns:xlink="http://www.w3.org/1999/xlink" x="0px" y="0px"
	 viewBox="0 0 24 24" style="enable-background:new 0 0 24 24;" xml:space="preserve">
<g id="document-threat">
	<g>
		<path d="M24,24H14v-2h8V8h-6V2H6v2H4V0h14.4L24,5.6V24z M18,6h3.6L18,2.4C18,2.4,18,6,18,6z M7.3,24c-3.6,0-6.5-2.8-6.5-6.3
			c0-2.4,1.2-4.5,3.2-5.6V10h2V7.6c0-1.4,1.1-2.5,2.5-2.5h0.7c1.4,0,2.5,1.1,2.5,2.5c0,0.3,0.2,0.5,0.5,0.5h0.3
			c0.3,0,0.5-0.2,0.5-0.5h2c0,1.4-1.1,2.5-2.5,2.5h-0.3c-1.4,0-2.5-1.1-2.5-2.5c0-0.3-0.2-0.5-0.5-0.5H8.5C8.2,7.1,8,7.3,8,7.6V10h2
			v2.1c2.1,1.1,3.5,3.3,3.5,5.6C13.5,21.2,10.8,24,7.3,24z M6,12v1.4l-0.6,0.3c-1.6,0.6-2.6,2.2-2.6,4c0,2.3,2,4.3,4.5,4.3
			c2.4,0,4.3-1.9,4.3-4.3c0-1.7-1.2-3.3-2.9-4l-0.6-0.3V12H6z"/>
	</g>
</g>
</svg>
