<?xml version="1.0" encoding="utf-8"?>
<!-- Generator: Adobe Illustrator 23.0.3, SVG Export Plug-In . SVG Version: 6.00 Build 0)  -->
<svg version="1.1" id="XMLID_39_" xmlns="http://www.w3.org/2000/svg" xmlns:xlink="http://www.w3.org/1999/xlink" x="0px" y="0px"
	 viewBox="0 0 24 24" style="enable-background:new 0 0 24 24;" xml:space="preserve">
<g id="document-txt">
	<g>
		<polygon points="24,24 4,24 4,22 22,22 22,6.4 17.6,2 6,2 6,9 4,9 4,0 18.4,0 24,5.6 		"/>
	</g>
	<g>
		<polygon points="23,8 16,8 16,2 18,2 18,6 23,6 		"/>
	</g>
	<g>
		<rect y="12" width="6" height="2"/>
	</g>
	<g>
		<rect x="2" y="12" width="2" height="8"/>
	</g>
	<g>
		<rect x="14" y="12" width="6" height="2"/>
	</g>
	<g>
		<rect x="16" y="12" width="2" height="8"/>
	</g>
	<g>
		<polygon points="11.4,20 6.4,12 8.6,12 13.6,20 		"/>
	</g>
	<g>
		<polygon points="8.4,20 13.4,12 11.2,12 6.2,20 		"/>
	</g>
</g>
</svg>
