<?xml version="1.0" encoding="utf-8"?>
<!-- Generator: Adobe Illustrator 23.0.3, SVG Export Plug-In . SVG Version: 6.00 Build 0)  -->
<svg version="1.1" id="XMLID_115_" xmlns="http://www.w3.org/2000/svg" xmlns:xlink="http://www.w3.org/1999/xlink" x="0px" y="0px"
	 viewBox="0 0 24 24" style="enable-background:new 0 0 24 24;" xml:space="preserve">
<g id="document-compress">
	<g>
		<path d="M23,24H3v-2h18V8h-6V2H5v7H3V0h14.4L23,5.6C23,5.6,23,24,23,24z M17,6h3.6L17,2.4V6z M14,19h-2v-8h4c1.7,0,3,1.3,3,3
			s-1.3,3-3,3h-2V19z M14,15h2c0.6,0,1-0.4,1-1s-0.4-1-1-1h-2V15z M10,19H8v-8h2V19z M6,19H0v-2.4L3.6,13H0v-2h6v2.4L2.4,17H6V19z"
			/>
	</g>
</g>
</svg>
