<?xml version="1.0" encoding="utf-8"?>
<!-- Generator: Adobe Illustrator 23.0.3, SVG Export Plug-In . SVG Version: 6.00 Build 0)  -->
<svg version="1.1" id="XMLID_32_" xmlns="http://www.w3.org/2000/svg" xmlns:xlink="http://www.w3.org/1999/xlink" x="0px" y="0px"
	 viewBox="0 0 24 24" style="enable-background:new 0 0 24 24;" xml:space="preserve">
<g id="document-update">
	<g>
		<polygon points="24,24 16,24 16,22 22,22 22,6.4 17.6,2 6,2 6,8 4,8 4,0 18.4,0 24,5.6 		"/>
	</g>
	<g>
		<polygon points="23,8 16,8 16,2 18,2 18,6 23,6 		"/>
	</g>
	<g>
		<path d="M9,24c-4.4,0-8-3.6-8-8s3.6-8,8-8s8,3.6,8,8S13.4,24,9,24z M9,10c-3.3,0-6,2.7-6,6s2.7,6,6,6s6-2.7,6-6S12.3,10,9,10z
			 M10,20H8v-4.6l-1.3,1.3l-1.4-1.4L9,11.6l3.7,3.7l-1.4,1.4L10,15.4V20z"/>
	</g>
</g>
</svg>
