<?xml version="1.0" encoding="utf-8"?>
<!-- Generator: Adobe Illustrator 23.0.3, SVG Export Plug-In . SVG Version: 6.00 Build 0)  -->
<svg version="1.1" id="XMLID_78_" xmlns="http://www.w3.org/2000/svg" xmlns:xlink="http://www.w3.org/1999/xlink" x="0px" y="0px"
	 viewBox="0 0 24 24" style="enable-background:new 0 0 24 24;" xml:space="preserve">
<g id="document-data">
	<g>
		<path d="M22,24h-6v-2h4V8h-6V2H4v5H2V0h14.4L22,5.6V24z M16,6h3.6L16,2.4V6z M7,24c-3.5,0-7-1.2-7-3.5V17l0,0c0-0.2,0-0.3,0-0.5
			V13l0,0c0-0.2,0-0.3,0-0.5C0,10.2,3.5,9,7,9s7,1.2,7,3.5c0,0.2,0,0.3,0,0.5l0,0v3.5c0,0.2,0,0.3,0,0.5l0,0v3.5
			C14,22.8,10.5,24,7,24z M2,19v1.5C2,20.9,3.7,22,7,22s5-1.1,5-1.5V19C9.3,20.3,4.7,20.3,2,19z M2,15v1.5C2,16.9,3.7,18,7,18
			s5-1.1,5-1.5V15C9.3,16.3,4.7,16.3,2,15z M7,11c-3.3,0-5,1.1-5,1.5S3.7,14,7,14s5-1.1,5-1.5S10.3,11,7,11z"/>
	</g>
</g>
</svg>
