<?xml version="1.0" encoding="utf-8"?>
<!-- Generator: Adobe Illustrator 23.0.3, SVG Export Plug-In . SVG Version: 6.00 Build 0)  -->
<svg version="1.1" id="XMLID_44_" xmlns="http://www.w3.org/2000/svg" xmlns:xlink="http://www.w3.org/1999/xlink" x="0px" y="0px"
	 viewBox="0 0 24 24" style="enable-background:new 0 0 24 24;" xml:space="preserve">
<g id="document-excel">
	<g>
		<polygon points="23,24 3,24 3,22 21,22 21,6.4 16.6,2 5,2 5,9 3,9 3,0 17.4,0 23,5.6 		"/>
	</g>
	<g>
		<polygon points="22,8 15,8 15,2 17,2 17,6 22,6 		"/>
	</g>
	<g>
		<path d="M4.8,15.4l-3-4.4h2.3L6,13.9L7.9,11h2.3l-3,4.4l3.1,4.6H8l-2-3.1L4,20H1.7L4.8,15.4z"/>
	</g>
</g>
</svg>
