<?xml version="1.0" encoding="utf-8"?>
<!-- Generator: Adobe Illustrator 23.0.3, SVG Export Plug-In . SVG Version: 6.00 Build 0)  -->
<svg version="1.1" id="XMLID_116_" xmlns="http://www.w3.org/2000/svg" xmlns:xlink="http://www.w3.org/1999/xlink" x="0px" y="0px"
	 viewBox="0 0 24 24" style="enable-background:new 0 0 24 24;" xml:space="preserve">
<g id="document-config">
	<path d="M23,24h-9v-2h7V8h-6V2H5v9H3V0h14.4L23,5.6V24z M17,6h3.6L17,2.4V6z M8,24H6v-2.1c-0.4-0.1-0.7-0.2-1-0.4l-1.5,1.5
		l-1.4-1.4L3.6,20c-0.2-0.3-0.3-0.7-0.4-1H1v-2h2.1c0.1-0.4,0.2-0.7,0.4-1l-1.5-1.5l1.4-1.4L5,14.6c0.3-0.2,0.7-0.3,1-0.4V12h2v2.1
		c0.4,0.1,0.7,0.2,1,0.4l1.5-1.5l1.4,1.4L10.4,16c0.2,0.3,0.3,0.7,0.4,1H13v2h-2.1c-0.1,0.4-0.2,0.7-0.4,1l1.5,1.5l-1.4,1.4L9,21.4
		c-0.3,0.2-0.7,0.3-1,0.4V24z M7,16c-1.1,0-2,0.9-2,2s0.9,2,2,2s2-0.9,2-2S8.1,16,7,16z"/>
</g>
</svg>
