<?xml version="1.0" encoding="utf-8"?>
<!-- Generator: Adobe Illustrator 23.0.3, SVG Export Plug-In . SVG Version: 6.00 Build 0)  -->
<svg version="1.1" id="XMLID_112_" xmlns="http://www.w3.org/2000/svg" xmlns:xlink="http://www.w3.org/1999/xlink" x="0px" y="0px"
	 viewBox="0 0 24 24" style="enable-background:new 0 0 24 24;" xml:space="preserve">
<g id="document-csv">
	<g>
		<polygon points="24,24 4,24 4,22 22,22 22,6.4 17.6,2 6,2 6,9 4,9 4,0 18.4,0 24,5.6 		"/>
	</g>
	<g>
		<polygon points="23,8 16,8 16,2 18,2 18,6 23,6 		"/>
	</g>
	<g>
		<polygon points="5,19 0,19 0,11 5,11 5,13 2,13 2,17 5,17 		"/>
	</g>
	<g>
		<polygon points="11,19 6,19 6,17 9,17 9,16 6,16 6,11 11,11 11,13 8,13 8,14 11,14 		"/>
	</g>
	<g>
		<polygon points="19.7,11 17,19 14.9,19 12.3,11 14.4,11 16,15.8 17.6,11 		"/>
	</g>
</g>
</svg>
