<?xml version="1.0" encoding="utf-8"?>
<!-- Generator: Adobe Illustrator 23.0.3, SVG Export Plug-In . SVG Version: 6.00 Build 0)  -->
<svg version="1.1" xmlns="http://www.w3.org/2000/svg" xmlns:xlink="http://www.w3.org/1999/xlink" x="0px" y="0px"
	 viewBox="0 0 24 24" style="enable-background:new 0 0 24 24;" xml:space="preserve">
<g id="document-user_1_">
	<path d="M24,24H14v-2h8V8h-6V2H6v5H4V0h14.4L24,5.6V24z M18,6h3.6L18,2.4V6z M12,24H0v-3.4c0-2.2,1.3-4,3.1-5C2.5,15,2,14,2,13
		c0-2.2,1.8-4,4-4s4,1.8,4,4c0,1.1-0.4,2-1.1,2.7c1.9,1,3.1,2.8,3.1,5V24z M2,22h8v-1.4c0-2-1.8-3.6-3.9-3.6H5.9
		C3.7,17,2,18.6,2,20.6V22z M6,11c-1.1,0-2,0.9-2,2c0,1.1,0.9,2,2,2s2-0.9,2-2C8,11.9,7.1,11,6,11z"/>
</g>
</svg>
