<?xml version="1.0" encoding="utf-8"?>
<!-- Generator: Adobe Illustrator 23.0.3, SVG Export Plug-In . SVG Version: 6.00 Build 0)  -->
<svg version="1.1" id="XMLID_34_" xmlns="http://www.w3.org/2000/svg" xmlns:xlink="http://www.w3.org/1999/xlink" x="0px" y="0px"
	 viewBox="0 0 24 24" style="enable-background:new 0 0 24 24;" xml:space="preserve">
<g id="document-sound">
	<g>
		<polygon points="24,24 19,24 19,22 22,22 22,6.4 17.6,2 6,2 6,8 4,8 4,0 18.4,0 24,5.6 		"/>
	</g>
	<g>
		<polygon points="23,8 16,8 16,2 18,2 18,6 23,6 		"/>
	</g>
	<g>
		<path d="M11.5,20v-2c1.1,0,2-0.9,2-2s-0.9-2-2-2v-2c2.2,0,4,1.8,4,4S13.7,20,11.5,20z"/>
	</g>
	<g>
		<path d="M11.5,24v-2c3.3,0,6-2.7,6-6s-2.7-6-6-6V8c4.4,0,8,3.6,8,8S15.9,24,11.5,24z"/>
	</g>
	<g>
		<path d="M10,24.1L3.6,19H0v-6h3.6L10,7.9V24.1z M2,17h2.4L8,19.9v-7.8L4.4,15H2V17z"/>
	</g>
</g>
</svg>
