<?xml version="1.0" encoding="utf-8"?>
<!-- Generator: Adobe Illustrator 23.0.3, SVG Export Plug-In . SVG Version: 6.00 Build 0)  -->
<svg version="1.1" id="XMLID_36_" xmlns="http://www.w3.org/2000/svg" xmlns:xlink="http://www.w3.org/1999/xlink" x="0px" y="0px"
	 viewBox="0 0 24 24" style="enable-background:new 0 0 24 24;" xml:space="preserve">
<g id="document-cloud">
	<g>
		<path d="M24,24h-8v-2h6V8h-6V2H6v4H4V0h14.4L24,5.6C24,5.6,24,24,24,24z M18,6h3.6L18,2.4C18,2.4,18,6,18,6z"/>
	</g>
	<g>
		<path d="M15.2,20h-6v-2h6c1.1,0,1.9-0.9,1.9-2c0-1.2-0.9-2-1.9-2h-1.9v-2c0-1.2-0.9-2-1.9-2H7.7c-1.1,0-1.9,0.9-1.9,2v1.1H4V12
			c0-2.2,1.7-4,3.7-4h3.7c2.1,0,3.7,1.8,3.7,4c2.1,0,3.7,1.8,3.7,4C19.1,18.1,17.4,20,15.2,20z"/>
	</g>
	<g>
		<path d="M10.5,24H7.6c-2.1,0-3.8-1.8-3.8-4C1.7,20,0,18.2,0,16s1.7-4,3.8-4h6.1v2H3.8c-1.1,0-1.9,0.9-1.9,2c0,1.2,0.9,2,1.9,2H6v2
			c0,1.2,0.6,2,1.6,2h2.9c1.1,0,1.9-0.9,1.9-2v-1.1h1.9V20C14.3,22.2,12.6,24,10.5,24z"/>
	</g>
</g>
</svg>
