<?xml version="1.0" encoding="utf-8"?>
<!-- Generator: Adobe Illustrator 23.0.3, SVG Export Plug-In . SVG Version: 6.00 Build 0)  -->
<svg version="1.1" id="XMLID_114_" xmlns="http://www.w3.org/2000/svg" xmlns:xlink="http://www.w3.org/1999/xlink" x="0px" y="0px"
	 viewBox="0 0 24 24" style="enable-background:new 0 0 24 24;" xml:space="preserve">
<g id="document-word">
	<g>
		<polygon points="24,24 4,24 4,22 22,22 22,6.4 17.6,2 6,2 6,9 4,9 4,0 18.4,0 24,5.6 		"/>
	</g>
	<g>
		<polygon points="23,8 16,8 16,2 18,2 18,6 23,6 		"/>
	</g>
	<g>
		<polygon points="13.7,11 10.7,20 9.3,20 7,14.5 4.7,20 3.3,20 0.2,11 2.3,11 4.1,16.2 6.3,11 7.7,11 9.8,16.2 11.6,11 		"/>
	</g>
</g>
</svg>
