<?xml version="1.0" encoding="utf-8"?>
<!-- Generator: Adobe Illustrator 23.0.3, SVG Export Plug-In . SVG Version: 6.00 Build 0)  -->
<svg version="1.1" id="XMLID_42_" xmlns="http://www.w3.org/2000/svg" xmlns:xlink="http://www.w3.org/1999/xlink" x="0px" y="0px"
	 viewBox="0 0 24 24" style="enable-background:new 0 0 24 24;" xml:space="preserve">
<g id="document-powerpoint">
	<g>
		<polygon points="22,24 2,24 2,22 20,22 20,6.4 15.6,2 4,2 4,9 2,9 2,0 16.4,0 22,5.6 		"/>
	</g>
	<g>
		<polygon points="21,8 14,8 14,2 16,2 16,6 21,6 		"/>
	</g>
	<g>
		<g>
			<path d="M1.8,10.9h3.7c2.1,0,3.4,1.3,3.4,3.1l0,0c0,2.1-1.6,3.2-3.6,3.2H3.8v2.7h-2V10.9z M5.3,15.5c1,0,1.6-0.6,1.6-1.4l0,0
				c0-0.9-0.6-1.4-1.6-1.4H3.8v2.8H5.3z"/>
		</g>
	</g>
</g>
</svg>
