<?xml version="1.0" encoding="utf-8"?>
<!-- Generator: Adobe Illustrator 23.0.3, SVG Export Plug-In . SVG Version: 6.00 Build 0)  -->
<svg version="1.1" id="XMLID_31_" xmlns="http://www.w3.org/2000/svg" xmlns:xlink="http://www.w3.org/1999/xlink" x="0px" y="0px"
	 viewBox="0 0 24 24" style="enable-background:new 0 0 24 24;" xml:space="preserve">
<g id="document-executable">
	<path d="M2,14v1h3v2H2v1h4v2H2H0v-2v-1v-2v-1v-2h2h4v2H2z M20,14v-2h-4h-2v2v1v2v1v2h2h4v-2h-4v-1h3v-2h-3v-1H20z M13.6,20L11,15.8
		l2.4-3.8h-2.2l-1.3,2.1L8.6,12H6.4l2.4,3.8L6.2,20h2.2l1.5-2.4l1.5,2.4H13.6z"/>
	<path d="M18.4,0H4v8h2V2h10v6h6v14H5v2h19V5.6L18.4,0z M18,2.4L21.6,6H18V2.4z"/>
</g>
</svg>
