<?xml version="1.0" encoding="utf-8"?>
<!-- Generator: Adobe Illustrator 23.0.3, SVG Export Plug-In . SVG Version: 6.00 Build 0)  -->
<svg version="1.1" id="XMLID_39_" xmlns="http://www.w3.org/2000/svg" xmlns:xlink="http://www.w3.org/1999/xlink" x="0px" y="0px"
	 viewBox="0 0 24 24" style="enable-background:new 0 0 24 24;" xml:space="preserve">
<g id="document-txt">
	<path d="M18.4,0H4v9h2V2h10v6h6v14H4v2h20V5.6L18.4,0z M18,2.4L21.6,6H18V2.4z"/>
	<path d="M6,14H4v6H2v-6H0v-2h2h2h2V14z M20,12h-2h-2h-2v2h2v6h2v-6h2V12z M13.6,20L11,15.8l2.4-3.8h-2.2l-1.3,2.1L8.6,12H6.4
		l2.4,3.8L6.2,20h2.2l1.5-2.4l1.5,2.4H13.6z"/>
</g>
</svg>
