<?xml version="1.0" encoding="utf-8"?>
<!-- Generator: Adobe Illustrator 24.1.3, SVG Export Plug-In . SVG Version: 6.00 Build 0)  -->
<svg version="1.1" id="Icon" xmlns="http://www.w3.org/2000/svg" xmlns:xlink="http://www.w3.org/1999/xlink" x="0px" y="0px"
	 viewBox="0 0 24 24" enable-background="new 0 0 24 24" xml:space="preserve">
<path d="M11.27,13.33c0.7-0.05,1.83-1.17,1.66-1.86c-0.06-0.25-0.39-0.52-0.78-0.59c-0.7-0.12-1.64,0.03-2.3,0.37
	c-1.38,0.7-2.38,1.91-2.95,3.28c-0.48,1.15,0.2,2.07,1.49,2.22c1.35,0.16,2.59-0.19,3.74-0.84c1.97-1.11,3.44-2.65,4.46-4.59
	c0.12-0.23,0.22-0.47,0.3-0.71c0.57-1.71-0.3-2.96-2.2-3.16c-1.39-0.15-2.72,0.09-3.96,0.66c-3.31,1.49-5.75,3.83-7.39,6.91
	c-0.01,0.02-0.02,0.05-0.03,0.07c-1.43,3.03,0,5.11,3.5,5.1c1.93,0,3.95-0.42,5.59-1.31c3.83-2.08,6.69-4.82,8.35-8.75
	c0.39-0.92,0.47-2.23,0.39-3.21c-0.14-1.73-1.42-2.84-3.26-3c-0.91-0.08-1.83,0.06-2.75,0.07c-0.25,0-0.6-0.05-0.73-0.15
	c-0.21-0.18-0.11-0.59,0-0.77c0.39-0.67,0.92-1.04,1.51-1.2c1.66-0.46,3.38-0.5,5.05,0.07c2.47,0.84,3.26,2.81,3,5.14
	c-0.18,1.56-0.83,3.02-1.72,4.37c-3.01,4.54-6.91,8.11-12.24,10.13c-1.86,0.7-3.79,1.04-5.81,0.88c-3.09-0.24-4.74-2.33-4.01-5.19
	c0.59-2.31,1.94-4.23,3.57-5.98c2.55-2.72,5.5-4.91,9.31-5.82c1.11-0.26,2.32-0.33,3.47-0.26c2.5,0.14,3.8,1.9,3.16,4.18
	c-0.72,2.58-2.43,4.57-4.45,6.33c-1.82,1.59-3.89,2.82-6.38,3.23c-0.79,0.13-1.64,0.15-2.43,0.05c-1.87-0.24-2.66-1.55-2-3.28
	c1.27-3.36,3.8-5.7,7.38-6.87C12.53,8.59,13.2,8.54,14,8.59c1.39,0.09,1.95,1.02,1.48,2.25c-0.86,2.3-2.39,3.69-4.86,4.58
	c-0.72,0.26-1.8,0.23-2.19-0.19c-0.51-0.55-0.03-1.48,0.45-2.12c0.23-0.31,0.55-0.59,0.88-0.78c0.44-0.24,0.93-0.44,1.36-0.26
	C11.79,12.4,10.86,13.27,11.27,13.33z"/>
</svg>
