<?xml version="1.0" encoding="utf-8"?>
<!-- Generator: Adobe Illustrator 23.0.3, SVG Export Plug-In . SVG Version: 6.00 Build 0)  -->
<svg version="1.1" id="XMLID_108_" xmlns="http://www.w3.org/2000/svg" xmlns:xlink="http://www.w3.org/1999/xlink" x="0px" y="0px"
	 viewBox="0 0 24 24" style="enable-background:new 0 0 24 24;" xml:space="preserve">
<g id="fan">
	<g>
		<path d="M5.4,22.8L5.4,22.8c-0.9,0-1.7-0.4-2.3-1c-0.7-0.7-1.3-1.5-1.8-2.4c-0.4-0.8-0.8-1.6-1-2.4c-0.3-0.9-0.2-1.9,0.3-2.6
			C1,13.7,1.7,13.2,2.4,13c1.1-0.3,2.1-0.5,3.1-0.8l1.8-0.5c0.2-0.5,0.5-1,0.9-1.5L6.8,5.3C6.6,4.5,6.7,3.7,7.1,3
			c0.4-0.7,1.2-1.3,2-1.5c0.9-0.2,1.9-0.4,3-0.3c0.9,0,1.8,0.1,2.6,0.3c0.9,0.2,1.7,0.8,2.1,1.5c0.4,0.7,0.5,1.5,0.3,2.3l-1.4,4.9
			c0.4,0.4,0.7,0.9,0.9,1.5l4.9,1.3c0.8,0.2,1.5,0.7,1.9,1.4c0.4,0.8,0.5,1.6,0.3,2.5c-0.3,1-0.7,1.9-1.2,2.7s-1,1.5-1.6,2.1
			c-0.6,0.7-1.5,1.1-2.4,1.1c0,0,0,0-0.1,0c-0.8,0-1.6-0.3-2.1-0.9l-3.6-3.7c-0.5,0.1-1.1,0.1-1.6,0l-3.6,3.7
			C7,22.5,6.2,22.8,5.4,22.8z M7,13.7L6,14c-1,0.3-2.1,0.5-3.1,0.8c-0.3,0.1-0.5,0.3-0.6,0.5c-0.2,0.3-0.2,0.7-0.1,1.1
			c0.2,0.7,0.5,1.4,0.9,2c0.4,0.7,0.9,1.4,1.5,2c0.3,0.3,0.6,0.4,0.9,0.4c0.2,0,0.5-0.1,0.7-0.3l3.1-3.1C8,16.6,7.2,15.3,7,13.7z
			 M14.8,17.4l3,3.1c0.2,0.2,0.5,0.3,0.7,0.3c0.3,0,0.7-0.2,1-0.5c0.5-0.5,1-1.1,1.3-1.8c0.4-0.7,0.7-1.5,1-2.3
			c0.1-0.3,0.1-0.7-0.1-1c-0.1-0.2-0.4-0.4-0.6-0.5l-4.1-1C16.8,15.3,16,16.6,14.8,17.4z M12,10.3c-1.7,0-3,1.3-3,3s1.3,3,3,3
			s3-1.3,3-3S13.7,10.3,12,10.3z M12,3c-0.8,0-1.6,0.1-2.4,0.3C9.2,3.4,9,3.6,8.8,3.9C8.7,4.1,8.6,4.4,8.7,4.7l1.1,4.1
			c1.3-0.6,3-0.6,4.3,0l1.1-4.1c0.1-0.3,0-0.6-0.1-0.8c-0.1-0.3-0.4-0.5-0.8-0.6C13.6,3.1,12.9,3,12.1,3H12z"/>
	</g>
</g>
</svg>
