<?xml version="1.0" encoding="utf-8"?>
<!-- Generator: Adobe Illustrator 23.0.3, SVG Export Plug-In . SVG Version: 6.00 Build 0)  -->
<svg version="1.1" id="XMLID_298_" xmlns="http://www.w3.org/2000/svg" xmlns:xlink="http://www.w3.org/1999/xlink" x="0px" y="0px"
	 viewBox="0 0 24 24" style="enable-background:new 0 0 24 24;" xml:space="preserve">
<g id="favorite">
	<path d="M12,23.2l-0.6-0.5C8.7,20.7,0,13.5,0,7.3C0,3.8,2.9,1,6.5,1c2.2,0,4.3,1.1,5.5,2.9l0,0l0,0C13.2,2.1,15.3,1,17.5,1
		C21.1,1,24,3.8,24,7.3c0,6.3-8.7,13.4-11.4,15.5L12,23.2z M6.5,2.9C4,2.9,2,4.8,2,7.2c0,4.1,5.1,9.5,10,13.4
		c4.9-3.9,10-9.3,10-13.4c0-2.4-2-4.3-4.5-4.3c-1.6,0-3,0.8-3.8,2L12,7.6L10.3,5C9.5,3.7,8.1,2.9,6.5,2.9z"/>
</g>
</svg>
