<?xml version="1.0" encoding="utf-8"?>
<!-- Generator: Adobe Illustrator 23.0.3, SVG Export Plug-In . SVG Version: 6.00 Build 0)  -->
<svg version="1.1" id="XMLID_267_" xmlns="http://www.w3.org/2000/svg" xmlns:xlink="http://www.w3.org/1999/xlink" x="0px" y="0px"
	 viewBox="0 0 24 24" style="enable-background:new 0 0 24 24;" xml:space="preserve">
<g id="flag">
	<g>
		<path d="M3,24H1V1.4l0.5-0.3C4.8-1,7.9,0.2,10.9,1.4c3.4,1.4,6.5,2.6,10.5-0.3L23,0v14.5l-0.4,0.3c-4.9,3.6-8.9,2-12.5,0.5
			c-2.6-1-4.8-1.9-7.1-0.8V24z M5.3,12c1.9,0,3.8,0.7,5.6,1.5c3.2,1.3,6.3,2.5,10.1,0V3.8C16.8,6,13.3,4.6,10.1,3.3
			C7.5,2.3,5.3,1.4,3,2.5v9.8C3.8,12.1,4.5,12,5.3,12z"/>
	</g>
</g>
</svg>
