<?xml version="1.0" encoding="utf-8"?>
<!-- Generator: Adobe Illustrator 23.0.3, SVG Export Plug-In . SVG Version: 6.00 Build 0)  -->
<svg version="1.1" id="XMLID_107_" xmlns="http://www.w3.org/2000/svg" xmlns:xlink="http://www.w3.org/1999/xlink" x="0px" y="0px"
	 viewBox="0 0 24 24" style="enable-background:new 0 0 24 24;" xml:space="preserve">
<g id="folder-cycle">
	<path d="M24,24h-5v-2h3V10H2v12h2v2H0V0h9.5l3,4H24V24z M2,8h20V6H11.5l-3-4H2V8z"/>
	<path d="M18,12v5h-5l1.8-1.8C14.1,14.5,13.1,14,12,14c-2.2,0-4,1.8-4,4H6c0-3.3,2.7-6,6-6c1.6,0,3.1,0.7,4.2,1.8L18,12z M16,18
		c0,2.2-1.8,4-4,4c-1.1,0-2.1-0.5-2.8-1.2L11,19H6v5l1.8-1.8C8.9,23.3,10.4,24,12,24c3.3,0,6-2.7,6-6H16z"/>
</g>
</svg>
