<?xml version="1.0" encoding="utf-8"?>
<!-- Generator: Adobe Illustrator 23.0.3, SVG Export Plug-In . SVG Version: 6.00 Build 0)  -->
<svg version="1.1" id="XMLID_107_" xmlns="http://www.w3.org/2000/svg" xmlns:xlink="http://www.w3.org/1999/xlink" x="0px" y="0px"
	 viewBox="0 0 24 24" style="enable-background:new 0 0 24 24;" xml:space="preserve">
<g id="folder-cycle">
	<g>
		<path d="M24,24h-5v-2h3V10H2v12h2v2H0V0h9.5l3,4H24V24z M2,8h20V6H11.5l-3-4H2V8z"/>
	</g>
	<g>
		<path d="M8,18H6c0-3.3,2.7-6,6-6c2.3,0,4.4,1.3,5.4,3.4l-1.8,0.9C14.9,14.9,13.5,14,12,14C9.8,14,8,15.8,8,18z"/>
	</g>
	<g>
		<polygon points="13,17 18,17 18,12 		"/>
	</g>
	<g>
		<path d="M12,24c-2.3,0-4.4-1.3-5.4-3.4l1.8-0.9C9.1,21.1,10.5,22,12,22c2.2,0,4-1.8,4-4h2C18,21.3,15.3,24,12,24z"/>
	</g>
	<g>
		<polygon points="11,19 6,19 6,24 		"/>
	</g>
</g>
</svg>
