<?xml version="1.0" encoding="utf-8"?>
<!-- Generator: Adobe Illustrator 25.0.1, SVG Export Plug-In . SVG Version: 6.00 Build 0)  -->
<svg version="1.1" id="Icon" xmlns="http://www.w3.org/2000/svg" xmlns:xlink="http://www.w3.org/1999/xlink" x="0px" y="0px"
	 viewBox="0 0 24 24" enable-background="new 0 0 24 24" xml:space="preserve">
<path d="M24,10c0,3.02-1.34,5.71-3.45,7.55C22.07,15.79,23,13.51,23,11c0-5.52-4.48-10-10-10c-2.51,0-4.79,0.93-6.55,2.45
	C8.29,1.34,10.98,0,14,0C19.52,0,24,4.48,24,10z M12,2C8.98,2,6.29,3.34,4.45,5.45C6.21,3.93,8.49,3,11,3c5.52,0,10,4.48,10,10
	c0,2.51-0.93,4.79-2.45,6.55C20.66,17.71,22,15.02,22,12C22,6.48,17.52,2,12,2z M20,14c0,5.52-4.48,10-10,10S0,19.52,0,14
	C0,8.48,4.48,4,10,4S20,8.48,20,14z M16,13.32h-5.3V8H9.3v5.32H4v1.31h5.3V20h1.39v-5.37H16V13.32z"/>
</svg>
