<?xml version="1.0" encoding="utf-8"?>
<!-- Generator: Adobe Illustrator 23.0.3, SVG Export Plug-In . SVG Version: 6.00 Build 0)  -->
<svg version="1.1" id="XMLID_125_" xmlns="http://www.w3.org/2000/svg" xmlns:xlink="http://www.w3.org/1999/xlink" x="0px" y="0px"
	 viewBox="0 0 24 24" style="enable-background:new 0 0 24 24;" xml:space="preserve">
<g id="grow">
	<g>
		<path d="M16.9,24H7.2l-1-7H4v-2h7v-3.1c-1.9,0.3-3.8-0.2-5.2-1.4C4.1,9,3.6,6.8,4.4,4.8l0.2-0.4L5,4.3C7,3.6,9.4,4,11,5.2
			c0-1.4,0.6-2.8,1.8-3.8l0,0c1.1-0.9,2.6-1.4,4-1.4c0.7,0,1.5,0.1,2.2,0.3l0.4,0.1l0.2,0.4c0.9,2,0.4,4.2-1.4,5.7
			c-1.4,1.2-3.3,1.7-5.2,1.4V9c0,0.1,0,0.3,0,0.4V15h7v2h-2.1L16.9,24z M8.9,22h6.3l0.7-5H8.2L8.9,22z M6.1,6.1
			c-0.3,1,0.1,2.1,1,2.9c1,0.9,2.5,1.2,3.8,0.9C11,9.7,11,9.5,11,9.3V9c0-0.8-0.4-1.5-1.1-2.1C8.9,6.1,7.5,5.8,6.1,6.1z M13.1,5.9
			c1.4,0.3,2.8,0,3.8-0.9c0.9-0.8,1.3-1.9,1-2.9c-1.4-0.3-2.8,0-3.8,0.9l0,0C13.2,3.7,12.8,4.8,13.1,5.9z"/>
	</g>
</g>
</svg>
