<?xml version="1.0" encoding="utf-8"?>
<!-- Generator: Adobe Illustrator 23.0.3, SVG Export Plug-In . SVG Version: 6.00 Build 0)  -->
<svg version="1.1" id="XMLID_71_" xmlns="http://www.w3.org/2000/svg" xmlns:xlink="http://www.w3.org/1999/xlink" x="0px" y="0px"
	 viewBox="0 0 24 24" enable-background="new 0 0 24 24" xml:space="preserve">
<g id="halt">
	<g>
		<path d="M15,24H9c-4.4,0-8-3.6-8-8V9h2c0.7,0,1.4,0.2,2,0.5V6c0-1.7,1.3-3,3-3c0.4,0,0.7,0.1,1,0.2V3c0-1.7,1.3-3,3-3s3,1.3,3,3
			v0.2C15.3,3.1,15.6,3,16,3c1.7,0,3,1.3,3,3v0.2C19.3,6.1,19.6,6,20,6c1.7,0,3,1.3,3,3v7C23,20.4,19.4,24,15,24z M3,11v5
			c0,3.3,2.7,6,6,6h6c3.3,0,6-2.7,6-6V9c0-0.6-0.4-1-1-1s-1,0.4-1,1v5h-2V6c0-0.6-0.4-1-1-1s-1,0.4-1,1v7h-2V3c0-0.6-0.4-1-1-1
			s-1,0.4-1,1v10H9V6c0-0.6-0.4-1-1-1S7,5.4,7,6v6.9V15v2H5v-4C5,11.9,4.1,11,3,11z"/>
	</g>
</g>
</svg>
