<?xml version="1.0" encoding="utf-8"?>
<!-- Generator: Adobe Illustrator 23.0.3, SVG Export Plug-In . SVG Version: 6.00 Build 0)  -->
<svg version="1.1" id="XMLID_281_" xmlns="http://www.w3.org/2000/svg" xmlns:xlink="http://www.w3.org/1999/xlink" x="0px" y="0px"
	 viewBox="0 0 24 24" style="enable-background:new 0 0 24 24;" xml:space="preserve">
<g>
	<path d="M12,24C5.4,24,0,18.6,0,12S5.4,0,12,0s12,5.4,12,12S18.6,24,12,24z M12,2C6.5,2,2,6.5,2,12s4.5,10,10,10s10-4.5,10-10
		S17.5,2,12,2z"/>
</g>
<g>
	<path d="M12.4,11.7c-1.1,1.2-1.4,1.8-1.5,3.1h2.4c0-0.5,0.2-1,1-1.9c1.1-1.2,2.4-2.4,2.4-4.2c0-2.7-1.8-4.2-4.6-4.2
		c-1.8,0-3.4,0.7-4.4,1.8v2.5c1-1,2.5-2,4.3-2c1.5,0,2.3,0.7,2.3,2S13.2,10.8,12.4,11.7z M10.3,17.9c0,0.9,0.7,1.7,1.6,1.7
		s1.6-0.7,1.6-1.7s-0.7-1.7-1.6-1.7S10.3,17,10.3,17.9z"/>
</g>
</svg>
