<?xml version="1.0" encoding="utf-8"?>
<!-- Generator: Adobe Illustrator 23.0.3, SVG Export Plug-In . SVG Version: 6.00 Build 0)  -->
<svg version="1.1" id="XMLID_303_" xmlns="http://www.w3.org/2000/svg" xmlns:xlink="http://www.w3.org/1999/xlink" x="0px" y="0px"
	 viewBox="0 0 24 24" enable-background="new 0 0 24 24" xml:space="preserve">
<g id="help">
	<path d="M13,18h-2v-2.9c0-1.6,1-3,2.4-3.4C15.6,11,17,9.1,17,7c0-2.7-2.4-5.1-5-5.1c-1.4,0-2.7,0.5-3.6,1.5
		C7.5,4.3,6.9,5.6,6.9,6.9h-2C4.9,5,5.6,3.3,7,2s2.9-2,5-2c3.7,0,7,3.3,7,7.1c0,3.1-2,5.8-5,6.7c-0.6,0.2-1,0.8-1,1.5V18z"/>
	<path d="M12,20c1.1,0,2,0.9,2,2s-0.9,2-2,2s-2-0.9-2-2S10.9,20,12,20z"/>
</g>
</svg>
