<?xml version="1.0" encoding="utf-8"?>
<!-- Generator: Adobe Illustrator 23.0.6, SVG Export Plug-In . SVG Version: 6.00 Build 0)  -->
<svg version="1.1" id="Layer_1" xmlns="http://www.w3.org/2000/svg" xmlns:xlink="http://www.w3.org/1999/xlink" x="0px" y="0px"
	 viewBox="0 0 24 24" enable-background="new 0 0 24 24" xml:space="preserve">
<g id="Highlighting">
	<path d="M13.67,7.29L19.07,0h-2.49l-5.83,7.87l-0.02,0.01c0,0,0,0,0,0.01V7.9l0.01,0.01c1.53,2.57,1.7,3.72,0.87,5.85l-0.31,0.8
		l0.87,0.51L10.6,18H0v3v3h11.09H16v-3h0.26l1.48-2.69l0.83,0.48l0.51-0.83c1.15-1.86,2.6-2.43,4.92-2.22v-2.49L13.67,7.29z
		 M15.08,19h-2.74l1.57-2.93l2.11,1.23L15.08,19z M17.93,16.1l-4.17-2.43c0.46-1.51,0.43-2.74,0.03-4l7.31,4.22
		C19.84,14.24,18.81,14.95,17.93,16.1z"/>
</g>
</svg>
