<?xml version="1.0" encoding="utf-8"?>
<!-- Generator: Adobe Illustrator 23.0.3, SVG Export Plug-In . SVG Version: 6.00 Build 0)  -->
<svg version="1.1" id="XMLID_68_" xmlns="http://www.w3.org/2000/svg" xmlns:xlink="http://www.w3.org/1999/xlink" x="0px" y="0px"
	 viewBox="0 0 24 24" style="enable-background:new 0 0 24 24;" xml:space="preserve">
<g id="indicator">
	<g>
		<path d="M15,24H9v-4c0-2.7-1.4-5.1-2.6-6.3C4.9,12.2,4,10.1,4,8c0-2.4,1.1-4.6,2.9-6.2C8.3,0.6,10.2,0,12.1,0c0.5,0,1,0,1.5,0.1
			c3.1,0.6,5.7,3.1,6.3,6.3C20,6.9,20,7.5,20,8c0,2.1-0.8,4.1-2.3,5.7C16.4,14.9,15,17.3,15,20V24z M11,22h2v-2
			c0-3.3,1.6-6.2,3.2-7.7C17.4,11.1,18,9.6,18,8c0-0.4,0-0.8-0.1-1.2c-0.5-2.4-2.4-4.3-4.7-4.7C12.8,2,12.4,2,12,2
			c-1.4,0-2.7,0.5-3.8,1.4C6.8,4.5,6,6.2,6,8c0,1.6,0.6,3.1,1.8,4.3C9.4,13.8,11,16.7,11,20V22z M12,12c-2.2,0-4-1.8-4-4s1.8-4,4-4
			s4,1.8,4,4S14.2,12,12,12z M12,6c-1.1,0-2,0.9-2,2s0.9,2,2,2s2-0.9,2-2S13.1,6,12,6z"/>
	</g>
</g>
</svg>
