<?xml version="1.0" encoding="utf-8"?>
<!-- Generator: Adobe Illustrator 23.0.3, SVG Export Plug-In . SVG Version: 6.00 Build 0)  -->
<svg version="1.1" id="XMLID_233_" xmlns="http://www.w3.org/2000/svg" xmlns:xlink="http://www.w3.org/1999/xlink" x="0px" y="0px"
	 viewBox="0 0 24 24" style="enable-background:new 0 0 24 24;" xml:space="preserve">
<g id="information">
	<g>
		<path d="M12,24c-2.2,0-4-1.8-4-4v-2.6c0-1.4-0.6-2.7-1.5-3.6C4.9,12.3,4,10.2,4,8s0.9-4.2,2.4-5.7C8,0.8,10,0,12.2,0
			c4.2,0.1,7.7,3.6,7.8,7.7c0.1,2.3-0.8,4.4-2.4,5.9c-1,1-1.6,2.3-1.6,3.7V20C16,22.2,14.2,24,12,24z M10,19v1c0,1.1,0.9,2,2,2
			s2-0.9,2-2v-1H10z M10,17h4c0.1-1.8,0.9-3.4,2.2-4.7c1.2-1.2,1.8-2.8,1.8-4.5c-0.1-3.1-2.7-5.7-5.9-5.8c-1.6,0-3.2,0.6-4.3,1.7
			C6.6,4.8,6,6.4,6,8c0,1.7,0.7,3.2,1.8,4.3C9.1,13.6,9.9,15.2,10,17z"/>
	</g>
</g>
</svg>
