<?xml version="1.0" encoding="utf-8"?>
<!-- Generator: Adobe Illustrator 23.0.3, SVG Export Plug-In . SVG Version: 6.00 Build 0)  -->
<svg version="1.1" id="XMLID_135_" xmlns="http://www.w3.org/2000/svg" xmlns:xlink="http://www.w3.org/1999/xlink" x="0px" y="0px"
	 viewBox="0 0 24 24" style="enable-background:new 0 0 24 24;" xml:space="preserve">
<g id="inherit">
	<g>
		<path d="M20,24c-2.2,0-4-1.8-4-4c0-0.5,0.1-1,0.3-1.4L12,16.2l-4.3,2.4C7.9,19,8,19.5,8,20c0,2.2-1.8,4-4,4s-4-1.8-4-4s1.8-4,4-4
			c1,0,1.9,0.4,2.6,0.9l4.4-2.5v-2.5C8.2,11.4,6,9,6,6c0-3.3,2.7-6,6-6s6,2.7,6,6c0,3-2.2,5.4-5,5.9v2.5l4.4,2.5
			C18.1,16.3,19,16,20,16c2.2,0,4,1.8,4,4S22.2,24,20,24z M20,18c-1.1,0-2,0.9-2,2s0.9,2,2,2s2-0.9,2-2S21.1,18,20,18z M4,18
			c-1.1,0-2,0.9-2,2s0.9,2,2,2s2-0.9,2-2S5.1,18,4,18z M12,2C9.8,2,8,3.8,8,6s1.8,4,4,4s4-1.8,4-4S14.2,2,12,2z"/>
	</g>
</g>
</svg>
