<?xml version="1.0" encoding="utf-8"?>
<!-- Generator: Adobe Illustrator 23.0.3, SVG Export Plug-In . SVG Version: 6.00 Build 0)  -->
<svg version="1.1" xmlns="http://www.w3.org/2000/svg" xmlns:xlink="http://www.w3.org/1999/xlink" x="0px" y="0px"
	 viewBox="0 0 24 24" enable-background="new 0 0 24 24" xml:space="preserve">
<g id="input-to-process">
	<path d="M23,13c0-1.304-0.837-2.403-2-2.816V7.858c1.721-0.447,3-2,3-3.858c0-2.206-1.794-4-4-4s-4,1.794-4,4
		c0,1.858,1.279,3.411,3,3.858v2.326c-1.163,0.413-2,1.512-2,2.816s0.837,2.403,2,2.816v2.367c-1.163,0.413-2,1.512-2,2.816
		c0,1.657,1.343,3,3,3s3-1.343,3-3c0-1.304-0.837-2.403-2-2.816v-2.367C22.163,15.403,23,14.304,23,13z M18,4c0-1.103,0.897-2,2-2
		s2,0.897,2,2s-0.897,2-2,2S18,5.103,18,4z"/>
	<path d="M15.842,4.228L10.886,1.5l0.837,2.887C10.185,5.007,8,6.92,8,11H6V9H0v6h6v-2h2v6H6v-2H0v6h6v-2h2v3h2V11
		c0-3.123,1.506-4.278,2.287-4.667l0.827,2.851L15.842,4.228z M4,13H2v-2h2V13z M4,21H2v-2h2V21z"/>
</g>
</svg>
