<?xml version="1.0" encoding="utf-8"?>
<!-- Generator: Adobe Illustrator 23.0.3, SVG Export Plug-In . SVG Version: 6.00 Build 0)  -->
<svg version="1.1" xmlns="http://www.w3.org/2000/svg" xmlns:xlink="http://www.w3.org/1999/xlink" x="0px" y="0px"
	 viewBox="0 0 24 24" enable-background="new 0 0 24 24" xml:space="preserve">
<g id="install">
	<path d="M12,21.5l-8-4.7v-3.8l-4-2.4l5-4.7l7-3.3l7.2,3.3l4.8,4.7l-4,2.3v3.8L12,21.5z M13,12.2V19l5-3v-2l-2.1,1.2L13,12.2z M6,16
		l5,3v-6.8l-3.1,3L6,14V16z M13.4,10.5l2.9,2.7l5.2-3.1l-3-2.8L13.4,10.5z M2.6,10.1l5.1,3.1l2.9-2.7L5.5,7.3L2.6,10.1z M7.1,6.5
		l4.9,3l4.9-3L12,4.1L7.1,6.5z"/>
</g>
</svg>
