<?xml version="1.0" encoding="utf-8"?>
<!-- Generator: Adobe Illustrator 23.0.3, SVG Export Plug-In . SVG Version: 6.00 Build 0)  -->
<svg version="1.1" id="XMLID_101_" xmlns="http://www.w3.org/2000/svg" xmlns:xlink="http://www.w3.org/1999/xlink" x="0px" y="0px"
	 viewBox="0 0 24 24" style="enable-background:new 0 0 24 24;" xml:space="preserve">
<g id="launch">
	<g>
		<circle cx="12" cy="7.9" r="2"/>
	</g>
	<g>
		<path d="M4.7,24c-0.3,0-0.5-0.1-0.8-0.2C3.3,23.5,3,22.9,3,22.2v-3.6c0-1.3,0.4-2.3,1.1-3l2-2.1C6,12.4,6,11.2,6,10
			c0-7.8,5.4-9.8,5.7-9.9L12,0l0.3,0.1c0.2,0.1,5.7,2,5.7,9.9c0,1.2,0,2.4-0.1,3.5l2,2.1c0.7,0.7,1.1,1.7,1.1,3v3.6
			c0,0.7-0.3,1.2-0.8,1.5C19.6,24,19,24,18.4,23.6L16,21.8l-1.4,2.1H9.5l-1.4-2l-2.4,1.8C5.4,23.9,5,24,4.7,24z M10.5,21.9h2.9
			l0.7-1H9.8L10.5,21.9z M12,2.1c-1,0.5-4,2.4-4,7.8c0,1.3,0.1,2.6,0.2,3.8v0.5L5.5,17C5.1,17.4,5,17.9,5,18.6v3.1l2.3-1.8
			c0.2-0.1,0.3-0.2,0.4-0.2c0.5-0.4,1.2-0.8,2-0.8h4.6c0.9,0,1.6,0.5,2.2,0.9l0.2,0.1l2.3,1.7v-3c0-0.7-0.2-1.2-0.5-1.6l0,0
			l-2.7-2.8v-0.5c0.1-1.2,0.2-2.5,0.2-3.8C16,4.5,13,2.6,12,2.1z"/>
	</g>
</g>
</svg>
