<?xml version="1.0" encoding="utf-8"?>
<!-- Generator: Adobe Illustrator 23.0.3, SVG Export Plug-In . SVG Version: 6.00 Build 0)  -->
<svg version="1.1" id="XMLID_242_" xmlns="http://www.w3.org/2000/svg" xmlns:xlink="http://www.w3.org/1999/xlink" x="0px" y="0px"
	 viewBox="0 0 24 24" style="enable-background:new 0 0 24 24;" xml:space="preserve">
<g id="like">
	<g>
		<path d="M20,24H0V10h8c1.1,0,2-0.8,2-1.9V0h3.1C15.3,0,17,1.8,17,4v5h7v11C24,22.2,22.2,24,20,24z M8,22h12c1.1,0,2-0.9,2-2v-9h-7
			V4c0-1.1-0.8-2-1.9-2H12v6.1c0,2.2-1.8,3.9-4,3.9V22z M2,22h4V12H2V22z"/>
	</g>
</g>
</svg>
