<?xml version="1.0" encoding="utf-8"?>
<!-- Generator: Adobe Illustrator 23.0.3, SVG Export Plug-In . SVG Version: 6.00 Build 0)  -->
<svg version="1.1" id="XMLID_291_" xmlns="http://www.w3.org/2000/svg" xmlns:xlink="http://www.w3.org/1999/xlink" x="0px" y="0px"
	 viewBox="0 0 24 24" style="enable-background:new 0 0 24 24;" xml:space="preserve">
<g id="link">
	<g>
		<path d="M5.8,24c-0.7,0-1.5-0.3-2-0.8l-2.9-2.9c-1.1-1.1-1.1-2.9,0-4l4.6-4.6c1.1-1.1,2.9-1.1,4,0l0.8,0.8l2.2-2.2l-0.8-0.8
			c-1.1-1.1-1.1-2.9,0-4l4.6-4.6c1.1-1.1,2.9-1.1,4,0l2.9,2.9c1.1,1.1,1.1,2.9,0,4l-4.6,4.6c-1.1,1.1-2.9,1.1-4,0l-0.8-0.8l-2.2,2.2
			l0.8,0.8c1.1,1.1,1.1,2.9,0,4l-4.6,4.6C7.2,23.7,6.5,24,5.8,24z M5.2,21.8c0.3,0.3,0.9,0.3,1.2,0l4.6-4.6c0.2-0.2,0.2-0.4,0.2-0.6
			S11.1,16.2,11,16l-0.8-0.8l-2.5,2.5l-1.4-1.4l2.5-2.5L8,13c-0.3-0.3-0.9-0.3-1.2,0l-4.6,4.6c-0.3,0.3-0.3,0.9,0,1.2L5.2,21.8z
			 M15.2,10.2L16,11c0.3,0.3,0.9,0.3,1.2,0l4.6-4.6c0.3-0.3,0.3-0.9,0-1.2l-2.9-2.9C18.6,2,18,2,17.7,2.3L13,6.8
			c-0.3,0.3-0.3,0.9,0,1.2l0.8,0.8l2.5-2.5l1.4,1.4L15.2,10.2z"/>
	</g>
</g>
</svg>
