<?xml version="1.0" encoding="utf-8"?>
<!-- Generator: Adobe Illustrator 23.0.3, SVG Export Plug-In . SVG Version: 6.00 Build 0)  -->
<svg version="1.1" id="XMLID_228_" xmlns="http://www.w3.org/2000/svg" xmlns:xlink="http://www.w3.org/1999/xlink" x="0px" y="0px"
	 viewBox="0 0 24 24" style="enable-background:new 0 0 24 24;" xml:space="preserve">
<g id="list">
	<path d="M8,1h14v2H8V1z M8,6h14v2H8V6z M8,11h14v2H8V11z M8,16h14v2H8V16z M8,21h14v2H8V21z M2,1h4v2H2V1z M2,6h4v2H2V6z M2,11h4v2
		H2V11z M2,16h4v2H2V16z M2,21h4v2H2V21z"/>
</g>
</svg>
