<?xml version="1.0" encoding="utf-8"?>
<!-- Generator: Adobe Illustrator 23.0.3, SVG Export Plug-In . SVG Version: 6.00 Build 0)  -->
<svg version="1.1" id="XMLID_128_" xmlns="http://www.w3.org/2000/svg" xmlns:xlink="http://www.w3.org/1999/xlink" x="0px" y="0px"
	 viewBox="0 0 24 24" style="enable-background:new 0 0 24 24;" xml:space="preserve">
<g id="location-pin">
	<g>
		<path d="M12,24l-0.6-0.4C11,23.3,2,17.2,2,10C2,4.5,6.5,0,12,0s10,4.5,10,10c0,7.2-9,13.3-9.4,13.6L12,24z M12,2c-4.4,0-8,3.6-8,8
			c0,5.2,6.1,10.1,8,11.6c1.9-1.5,8-6.4,8-11.6C20,5.6,16.4,2,12,2z M12,14c-2.2,0-4-1.8-4-4s1.8-4,4-4s4,1.8,4,4S14.2,14,12,14z
			 M12,8c-1.1,0-2,0.9-2,2s0.9,2,2,2s2-0.9,2-2S13.1,8,12,8z"/>
	</g>
</g>
</svg>
