<?xml version="1.0" encoding="utf-8"?>
<!-- Generator: Adobe Illustrator 23.0.3, SVG Export Plug-In . SVG Version: 6.00 Build 0)  -->
<svg version="1.1" id="XMLID_133_" xmlns="http://www.w3.org/2000/svg" xmlns:xlink="http://www.w3.org/1999/xlink" x="0px" y="0px"
	 viewBox="0 0 24 24" style="enable-background:new 0 0 24 24;" xml:space="preserve">
<g id="manual">
	<g>
		<path d="M21,24H3v-5h3v-3h3V9C7.8,8.1,7,6.6,7,5c0-2.8,2.2-5,5-5s5,2.2,5,5c0,1.6-0.8,3.1-2,4l0,0v7h3v3h3V24z M5,22h14v-1H5V22z
			 M8,19h8v-1H8V19z M11,16h2V9.9c-0.6,0.1-1.4,0.1-2,0V16z M12,2c-1.7,0-3,1.3-3,3s1.3,3,3,3s3-1.3,3-3S13.7,2,12,2z"/>
	</g>
</g>
</svg>
