<?xml version="1.0" encoding="utf-8"?>
<!-- Generator: Adobe Illustrator 23.0.3, SVG Export Plug-In . SVG Version: 6.00 Build 0)  -->
<svg version="1.1" id="XMLID_293_" xmlns="http://www.w3.org/2000/svg" xmlns:xlink="http://www.w3.org/1999/xlink" x="0px" y="0px"
	 viewBox="0 0 24 24" style="enable-background:new 0 0 24 24;" xml:space="preserve">
<g id="microphone">
	<g>
		<path d="M13,24h-2v-4.1c-4.5-0.5-8-4.3-8-8.9V9h2v2c0,3.8,3.1,7,7,7s7-3.1,7-7V9h2v2c0,4.6-3.5,8.4-8,8.9V24z M12,16
			c-2.8,0-5-2.2-5-5V5c0-2.7,2.2-5,5-5s5,2.2,5,5v6C17,13.8,14.8,16,12,16z M12,2c-1.7,0-3,1.3-3,3v6c0,1.6,1.3,3,3,3s3-1.3,3-3V5
			C15,3.3,13.7,2,12,2z"/>
	</g>
</g>
</svg>
