<?xml version="1.0" encoding="utf-8"?>
<!-- Generator: Adobe Illustrator 23.0.3, SVG Export Plug-In . SVG Version: 6.00 Build 0)  -->
<svg version="1.1" id="XMLID_169_" xmlns="http://www.w3.org/2000/svg" xmlns:xlink="http://www.w3.org/1999/xlink" x="0px" y="0px"
	 viewBox="0 0 24 24" style="enable-background:new 0 0 24 24;" xml:space="preserve">
<g id="navigate">
	<g>
		<path d="M15,24H9V11H3.5L0,7.5L3.5,4H9V3l3-3l3,3v4h5.5l3.5,3.5L20.5,14H15C15,14,15,24,15,24z M11,22h2V3.8l-1-1l-1,1V22z M15,12
			h4.7l1.5-1.5L19.7,9H15C15,8.9,15,12,15,12z M4.3,9H9V6H4.3L2.8,7.5L4.3,9z"/>
	</g>
</g>
</svg>
