<?xml version="1.0" encoding="utf-8"?>
<!-- Generator: Adobe Illustrator 23.0.3, SVG Export Plug-In . SVG Version: 6.00 Build 0)  -->
<svg version="1.1" id="XMLID_266_" xmlns="http://www.w3.org/2000/svg" xmlns:xlink="http://www.w3.org/1999/xlink" x="0px" y="0px"
	 viewBox="0 0 24 24" style="enable-background:new 0 0 24 24;" xml:space="preserve">
<g id="notification">
	<g>
		<path d="M12,24c-2.2,0-4-1.8-4-4H0v-2h3V9c0-5,4-9,9-9s9,4,9,9v9h3v2h-8C16,22.2,14.2,24,12,24z M10,20c0,1.1,0.9,2,2,2s2-0.9,2-2
			H10z M5,18h14V9c0-3.9-3.1-7-7-7S5,5.1,5,9V18z"/>
	</g>
</g>
</svg>
