<?xml version="1.0" encoding="utf-8"?>
<!-- Generator: Adobe Illustrator 23.0.3, SVG Export Plug-In . SVG Version: 6.00 Build 0)  -->
<svg version="1.1" xmlns="http://www.w3.org/2000/svg" xmlns:xlink="http://www.w3.org/1999/xlink" x="0px" y="0px"
	 viewBox="0 0 24 24" style="enable-background:new 0 0 24 24;" xml:space="preserve">
<g id="overview_1_">
	<path d="M23.6,14.3l-3.7-10l0,0C19.3,3,18,2,16.5,2C14.6,2,13,3.6,13,5.5V6h-2V5.5C11,3.6,9.4,2,7.5,2C6,2,4.7,3,4.2,4.4l0,0
		l-3.7,10C0.2,15,0,15.7,0,16.5c0,3,2.5,5.5,5.5,5.5c2.9,0,5.2-2.2,5.5-5H13c0.3,2.8,2.6,5,5.5,5c3,0,5.5-2.5,5.5-5.5
		C24,15.7,23.8,15,23.6,14.3z M5.5,20C3.6,20,2,18.4,2,16.5S3.6,13,5.5,13S9,14.6,9,16.5S7.4,20,5.5,20z M9,8.6v3.6
		C8,11.5,6.8,11,5.5,11c-0.6,0-1.2,0.1-1.8,0.3l2.1-5.5l0.3-0.7l0,0c0,0,0,0,0,0c0.1-0.3,0.3-0.6,0.5-0.8c0,0,0,0,0,0
		C6.7,4.2,6.8,4.1,7,4.1c0,0,0,0,0.1,0C7.2,4,7.3,4,7.5,4C8.3,4,9,4.7,9,5.5V8.6z M13,8v7h-2V8H13z M15,8.6V5.5
		C15,4.7,15.7,4,16.5,4c0.2,0,0.3,0,0.4,0.1c0,0,0,0,0.1,0c0.1,0,0.3,0.1,0.4,0.2c0,0,0,0,0,0c0.2,0.2,0.4,0.5,0.5,0.8c0,0,0,0,0,0
		l0,0l0.3,0.7l2.1,5.5c-0.6-0.2-1.2-0.3-1.8-0.3c-1.3,0-2.5,0.5-3.5,1.3V8.6z M18.5,20c-1.9,0-3.5-1.6-3.5-3.5s1.6-3.5,3.5-3.5
		s3.5,1.6,3.5,3.5S20.4,20,18.5,20z"/>
</g>
</svg>
