<?xml version="1.0" encoding="utf-8"?>
<!-- Generator: Adobe Illustrator 23.0.3, SVG Export Plug-In . SVG Version: 6.00 Build 0)  -->
<svg version="1.1" id="XMLID_187_" xmlns="http://www.w3.org/2000/svg" xmlns:xlink="http://www.w3.org/1999/xlink" x="0px" y="0px"
	 viewBox="0 0 24 24" style="enable-background:new 0 0 24 24;" xml:space="preserve">
<g id="pan">
	<g>
		<polygon points="12,24 7.5,19.5 8.8,18.1 11,20.3 11,13 3.7,13 5.9,15.2 4.5,16.5 0,12 4.5,7.5 5.9,8.8 3.7,11 11,11 11,3.7 
			8.8,5.9 7.5,4.5 12,0 16.5,4.5 15.2,5.9 13,3.7 13,11 20.3,11 18.1,8.8 19.5,7.5 24,12 19.5,16.5 18.1,15.2 20.3,13 13,13 
			13,20.3 15.2,18.1 16.5,19.5 		"/>
	</g>
</g>
</svg>
