<?xml version="1.0" encoding="utf-8"?>
<!-- Generator: Adobe Illustrator 23.0.3, SVG Export Plug-In . SVG Version: 6.00 Build 0)  -->
<svg version="1.1" id="XMLID_21_" xmlns="http://www.w3.org/2000/svg" xmlns:xlink="http://www.w3.org/1999/xlink" x="0px" y="0px"
	 viewBox="0 0 24 24" style="enable-background:new 0 0 24 24;" xml:space="preserve">
<g id="payment-square">
	<g>
		<path d="M17,22H7c-2.8,0-5-2.2-5-5V7c0-2.8,2.2-5,5-5h10c2.8,0,5,2.2,5,5v10C22,19.7,19.8,22,17,22z M7,4C5.3,4,4,5.3,4,7v10
			c0,1.7,1.3,3,3,3h10c1.7,0,3-1.3,3-3V7c0-1.7-1.3-3-3-3H7z"/>
	</g>
	<g>
		<path d="M14,9h-4c-0.6,0-1,0.4-1,1v4c0,0.6,0.4,1,1,1h4c0.6,0,1-0.4,1-1v-4C15,9.4,14.6,9,14,9z"/>
	</g>
</g>
</svg>
