<?xml version="1.0" encoding="utf-8"?>
<!-- Generator: Adobe Illustrator 23.0.3, SVG Export Plug-In . SVG Version: 6.00 Build 0)  -->
<svg version="1.1" id="XMLID_19_" xmlns="http://www.w3.org/2000/svg" xmlns:xlink="http://www.w3.org/1999/xlink" x="0px" y="0px"
	 viewBox="0 0 24 24" style="enable-background:new 0 0 24 24;" xml:space="preserve">
<g id="payment-paypal">
	<path d="M17.9,2.6c-1-1.1-2.7-1.6-5-1.6H6.3C5.8,1,5.4,1.3,5.4,1.8L2.6,19c-0.1,0.3,0.2,0.7,0.6,0.7h4.1l1-6.3l0,0
		c0.1-0.5,0.5-0.8,0.9-0.8h1.9c3.8,0,6.7-1.5,7.6-6c0-0.1,0.1-0.3,0.1-0.4C19,4.7,18.8,3.6,17.9,2.6 M19.7,7.2L19.7,7.2
		c0,0.1-0.1,0.2-0.1,0.4c-0.9,4.4-3.8,6-7.6,6h-1.9c-0.5,0-0.8,0.3-0.9,0.8l-1,6.3l-0.3,1.8c0,0.3,0.2,0.6,0.5,0.6h3.4
		c0.4,0,0.7-0.3,0.8-0.7v-0.2l0.6-4.1v-0.2c0.1-0.4,0.4-0.7,0.8-0.7h0.6c3.3,0,5.9-1.3,6.7-5.2c0.3-1.6,0.2-3-0.7-3.9
		C20.3,7.7,20,7.4,19.7,7.2"/>
</g>
</svg>
