<?xml version="1.0" encoding="utf-8"?>
<!-- Generator: Adobe Illustrator 23.0.3, SVG Export Plug-In . SVG Version: 6.00 Build 0)  -->
<svg version="1.1" id="XMLID_20_" xmlns="http://www.w3.org/2000/svg" xmlns:xlink="http://www.w3.org/1999/xlink" x="0px" y="0px"
	 viewBox="0 0 24 24" style="enable-background:new 0 0 24 24;" xml:space="preserve">
<g id="payment-google-wallet">
	<path id="path34" d="M9.5,10.8C8.1,8.9,6.2,7.3,4.1,6.1C3.8,5.9,3.4,5.8,3,5.8C2.2,5.8,1.4,6.3,1,7c-0.6,1.1-0.2,2.5,0.9,3.1
		c3.3,1.8,5.5,5.2,5.7,9.1l0,0c0-0.4,0-0.9,0.2-1.3c0-0.1,0.1-0.1,0.1-0.2C8.9,16,9.5,14,9.5,12C9.5,11.6,9.5,11.2,9.5,10.8"/>
	<path id="path36" d="M22.6,6.5c-0.4-1.8-1-3.5-1.8-5.1C20.4,0.5,19.5,0,18.5,0c-0.4,0-0.7,0.1-1.1,0.2c-1.3,0.6-1.8,2.1-1.2,3.3
		c1.3,2.7,1.9,5.5,1.9,8.5c0,2.9-0.6,5.8-1.9,8.4c0,0-0.2,0.5-0.2,1c0,0.2,0,0.4,0.1,0.6c0.2,0.7,0.6,1.4,1.4,1.7
		c0.3,0.3,0.7,0.3,1.1,0.3c0.9,0,1.8-0.5,2.2-1.3c0.5-0.9,1-2.2,1.4-3.8c0.1-0.5,0.3-0.9,0.4-1.4c0.4-1.8,0.6-3.6,0.6-5.5
		C23.2,10.2,23,8.3,22.6,6.5"/>
	<path id="path38" d="M12,3.9c0-0.1-0.1-0.1-0.1-0.2c-0.2-0.2-0.4-0.4-0.6-0.6c-0.4-0.2-0.8-0.4-1.3-0.4c-0.4,0-0.6,0.1-0.9,0.2
		C8.8,3,8.5,3.2,8.2,3.5C7.9,3.8,7.8,4.1,7.7,4.4C7.5,5,7.5,5.8,7.9,6.4c0.8,1.3,1.3,2.9,1.5,4.4c0.1,0.4,0.1,0.8,0.1,1.3
		c0,2-0.5,4-1.6,5.7c0,0.1-0.1,0.1-0.1,0.2c-0.2,0.4-0.3,0.9-0.2,1.3c0.1,0.7,0.5,1.4,1.1,1.8c0.2,0.1,0.4,0.2,0.5,0.2
		c0.2,0.1,0.5,0.1,0.7,0.1c0.8,0,1.6-0.4,2-1.1c1.3-2.2,2.1-4.6,2.2-7.1c0-0.3,0-0.7,0-1C14.3,9.1,13.5,6.3,12,3.9"/>
	<path id="path40" d="M16.3,20.4c1.3-2.6,1.9-5.5,1.9-8.4c0-1-0.1-1.7-0.1-2.2c-1.6-2.6-4-5-6.8-6.7c0,0,0.1,0,0.1,0.1
		c0.2,0.1,0.3,0.3,0.5,0.5c0,0.1,0.1,0.1,0.1,0.2c1.5,2.5,2.3,5.3,2.3,8.1c0,0.3,0,0.7,0,1c1.2,2.3,1.8,4.8,1.8,7.5
		c0,0.2,0,0.6,0,0.8C16.1,21,16.2,20.7,16.3,20.4C16.3,20.5,16.3,20.4,16.3,20.4"/>
</g>
</svg>
