<?xml version="1.0" encoding="utf-8"?>
<!-- Generator: Adobe Illustrator 23.0.3, SVG Export Plug-In . SVG Version: 6.00 Build 0)  -->
<svg version="1.1" id="XMLID_22_" xmlns="http://www.w3.org/2000/svg" xmlns:xlink="http://www.w3.org/1999/xlink" x="0px" y="0px"
	 viewBox="0 0 24 24" style="enable-background:new 0 0 24 24;" xml:space="preserve">
<g id="payment-mastercard">
	<path d="M24,12c0,3.9-3.1,7-7,7c-1.6,0-3.1-0.5-4.3-1.4c1.4-1.4,2.3-3.4,2.3-5.6s-0.9-4.1-2.3-5.6C13.9,5.5,15.4,5,17,5
		C20.9,5,24,8.1,24,12z M12,7.1c-1.2,1.3-2,3-2,4.9s0.8,3.6,2,4.9c1.2-1.3,2-3,2-4.9S13.2,8.4,12,7.1z M9,12c0-2.2,0.9-4.1,2.3-5.6
		C10.1,5.5,8.6,5,7,5c-3.9,0-7,3.1-7,7s3.1,7,7,7c1.6,0,3.1-0.5,4.3-1.4C9.9,16.1,9,14.2,9,12z"/>
</g>
</svg>
