<?xml version="1.0" encoding="utf-8"?>
<!-- Generator: Adobe Illustrator 23.0.3, SVG Export Plug-In . SVG Version: 6.00 Build 0)  -->
<svg version="1.1" id="XMLID_16_" xmlns="http://www.w3.org/2000/svg" xmlns:xlink="http://www.w3.org/1999/xlink" x="0px" y="0px"
	 viewBox="0 0 24 24" style="enable-background:new 0 0 24 24;" xml:space="preserve">
<g id="platform-firefox">
	<path d="M23.9,7.5l-0.3,1.8c0,0-0.4-3.3-0.9-4.5c-0.7-1.9-1.1-1.9-1.1-1.9c0.5,1.3,0.4,2,0.4,2s-0.9-2.4-3.2-3.2
		c-2.6-0.9-4-0.6-4.2-0.6c0,0,0,0-0.1,0c0,0,0,0,0.1,0l0,0c0,0,2.9,0.5,3.4,1.2c0,0-1.2,0-2.4,0.3c-0.1,0,4.4,0.6,5.4,5.1
		c0,0-0.5-1-1.1-1.2c0.4,1.2,0.3,3.5-0.1,4.7c0,0.1-0.1-0.6-0.9-1c0.2,1.7,0,4.5-1.2,5.2c-0.1,0.1,0.8-2.7,0.2-1.6
		c-3.3,5.1-7.3,2.4-9.1,1.2c0.9,0.2,2.6,0,3.4-0.6l0,0c0.8-0.6,1.3-1,1.8-0.9c0.4,0.1,0.7-0.3,0.4-0.7c-0.3-0.4-1.2-0.9-2.3-0.6
		c-0.8,0.2-1.8,1.1-3.3,0.2c-1.2-0.7-1.3-1.3-1.3-1.6c0-0.1,0.1-0.3,0.1-0.4C7.7,10,8.1,9.9,8.4,9.8c0.4,0.1,0.7,0.2,1.1,0.4
		c0-0.1,0-0.3,0-0.4s0-0.3,0-0.5S9.4,8.8,9.3,8.6l0,0l0,0l0,0l0,0l0,0c0-0.1,0.3-0.3,0.6-0.5s0.6-0.4,0.9-0.6
		c0.2-0.1,0.4-0.3,0.5-0.3c0,0,0,0,0.1,0l0,0l0,0c0.1-0.1,0.3-0.3,0.4-0.7l0,0l0,0l0,0l0,0l0,0l0,0V6.4c0,0,0,0,0-0.1l0,0l0,0l0,0
		l0,0l0,0l0,0c0-0.1-0.2-0.1-0.8-0.1l0,0l0,0c-0.3,0-0.6,0-1,0c-0.8,0-1.2-0.8-1.3-1.1c0.2-1,0.7-1.8,1.6-2.3l0,0
		c0.2-0.1-2.1,0-3.2,1.3C6.2,3.9,5.4,3.9,4.6,4C4.5,4,4.3,4,4.1,3.9C3.6,3.5,3,2.7,2.9,1.8l0,0l0,0c0,0-1.4,1.1-1.2,4.1V6
		C1.3,6.5,1.1,7,1.1,7.1c-0.3,0.7-0.7,1.7-1,3.3c0,0,0.2-0.6,0.6-1.3c-0.3,0.9-0.5,2.3-0.4,4.4c0,0,0-0.5,0.2-1.1
		c0.1,1.3,0.5,2.9,1.6,4.8c2.1,3.6,5.3,5.4,8.8,5.7c0.6,0.1,1.3,0.1,1.9,0c0.1,0,0.1,0,0.2,0c0.7-0.1,1.5-0.2,2.2-0.3
		C24.9,19.5,23.9,7.5,23.9,7.5z"/>
</g>
</svg>
