<?xml version="1.0" encoding="utf-8"?>
<!-- Generator: Adobe Illustrator 23.0.3, SVG Export Plug-In . SVG Version: 6.00 Build 0)  -->
<svg version="1.1" xmlns="http://www.w3.org/2000/svg" xmlns:xlink="http://www.w3.org/1999/xlink" x="0px" y="0px"
	 viewBox="0 0 24 24" enable-background="new 0 0 24 24" xml:space="preserve">
<g id="platform-skype">
	<path d="M22.08,13.59c0.08-0.52,0.13-1.05,0.13-1.59c0-5.64-4.57-10.21-10.21-10.21c-0.54,0-1.07,0.04-1.59,0.13
		C9.47,1.34,8.36,1,7.17,1C3.76,1,1,3.76,1,7.17c0,1.19,0.34,2.3,0.92,3.24C1.84,10.93,1.79,11.46,1.79,12
		c0,5.64,4.57,10.21,10.21,10.21c0.54,0,1.07-0.04,1.59-0.12c0.94,0.58,2.05,0.92,3.24,0.92c3.41,0,6.17-2.76,6.17-6.17
		C23,15.64,22.66,14.53,22.08,13.59L22.08,13.59z M16.85,16.64c-0.43,0.62-1.07,1.11-1.89,1.46c-0.83,0.35-1.81,0.52-2.95,0.52
		c-1.36,0-2.48-0.24-3.37-0.72C8,17.56,7.49,17.1,7.1,16.52c-0.4-0.57-0.6-1.13-0.6-1.68c0-0.32,0.12-0.61,0.36-0.84
		c0.24-0.23,0.56-0.35,0.93-0.35c0.3,0,0.56,0.09,0.77,0.27c0.21,0.18,0.39,0.44,0.53,0.79c0.17,0.4,0.36,0.74,0.56,1
		c0.2,0.26,0.48,0.49,0.84,0.66c0.36,0.17,0.83,0.26,1.43,0.26c0.82,0,1.47-0.18,1.98-0.52c0.51-0.35,0.75-0.78,0.75-1.29
		c0-0.41-0.13-0.74-0.4-0.99c-0.27-0.26-0.62-0.45-1.06-0.59s-1.02-0.29-1.76-0.44c-0.99-0.22-1.81-0.47-2.48-0.75
		c-0.67-0.29-1.2-0.68-1.6-1.18S6.76,9.74,6.76,9c0-0.71,0.21-1.34,0.63-1.89c0.42-0.57,1.02-1,1.81-1.29
		c0.78-0.29,1.71-0.44,2.77-0.44c0.85,0,1.58,0.1,2.2,0.29c0.62,0.2,1.13,0.46,1.54,0.78c0.41,0.32,0.71,0.67,0.9,1.02
		c0.19,0.36,0.29,0.71,0.29,1.05c0,0.32-0.12,0.61-0.36,0.86s-0.55,0.38-0.91,0.38c-0.32,0-0.58-0.07-0.76-0.23
		c-0.17-0.15-0.35-0.4-0.55-0.74c-0.25-0.47-0.54-0.84-0.89-1.11C13.1,7.43,12.55,7.3,11.78,7.3c-0.71,0-1.28,0.15-1.71,0.43
		C9.64,8.02,9.43,8.35,9.43,8.75C9.43,9,9.5,9.2,9.64,9.38s0.35,0.33,0.6,0.46c0.26,0.13,0.52,0.24,0.79,0.31
		c0.27,0.08,0.71,0.19,1.33,0.33c0.77,0.17,1.47,0.35,2.1,0.56c0.63,0.2,1.17,0.45,1.61,0.74c0.45,0.29,0.8,0.66,1.05,1.11
		s0.38,1,0.38,1.65C17.5,15.32,17.28,16.02,16.85,16.64L16.85,16.64z"/>
</g>
</svg>
