<?xml version="1.0" encoding="utf-8"?>
<!-- Generator: Adobe Illustrator 23.0.3, SVG Export Plug-In . SVG Version: 6.00 Build 0)  -->
<svg version="1.1" id="XMLID_9_" xmlns="http://www.w3.org/2000/svg" xmlns:xlink="http://www.w3.org/1999/xlink" x="0px" y="0px"
	 viewBox="0 0 24 24" style="enable-background:new 0 0 24 24;" xml:space="preserve">
<g id="platform-dropbox">
	<polygon points="16,1.4 12,3.4 20,7.4 24,5.4 	"/>
	<polygon points="16,15.1 15.3,14.8 12,13.1 8.7,14.8 8,15.1 7.3,14.8 4,13.1 4,18.5 12,22.5 12,22.5 20,18.5 20,13.1 16.7,14.8 	
		"/>
	<polygon points="8,13.5 12,11.5 4,7.4 12,3.4 8,1.4 0,5.4 4,7.4 0,9.4 	"/>
	<polygon points="12,11.5 16,13.5 24,9.4 20,7.4 	"/>
</g>
</svg>
