<?xml version="1.0" encoding="utf-8"?>
<!-- Generator: Adobe Illustrator 23.0.3, SVG Export Plug-In . SVG Version: 6.00 Build 0)  -->
<svg version="1.1" xmlns="http://www.w3.org/2000/svg" xmlns:xlink="http://www.w3.org/1999/xlink" x="0px" y="0px"
	 viewBox="0 0 24 24" enable-background="new 0 0 24 24" xml:space="preserve">
<g id="platform-internet-explorer" transform="translate(-314.39464,-274.3971)">
	<path d="M338.37,286.98c0-1.9-0.49-3.68-1.35-5.23c3.67-8.3-3.93-7.08-4.35-7c-1.61,0.31-3.1,0.82-4.47,1.46
		c-0.2-0.01-0.41-0.02-0.61-0.02c-5.12,0-9.41,3.57-10.51,8.37c2.7-3.03,4.59-4.25,5.72-4.74c-0.18,0.16-0.36,0.32-0.53,0.49
		c-0.06,0.05-0.11,0.11-0.17,0.17c-0.11,0.11-0.23,0.22-0.34,0.33c-0.07,0.07-0.13,0.13-0.2,0.2c-0.1,0.1-0.2,0.2-0.29,0.3
		c-0.07,0.07-0.14,0.14-0.2,0.22c-0.09,0.1-0.18,0.19-0.27,0.29c-0.07,0.08-0.14,0.15-0.2,0.23c-0.08,0.09-0.17,0.19-0.25,0.28
		c-0.07,0.08-0.13,0.16-0.2,0.23c-0.08,0.09-0.15,0.18-0.23,0.27c-0.07,0.08-0.13,0.16-0.2,0.24c-0.07,0.09-0.14,0.17-0.21,0.26
		c-0.07,0.08-0.13,0.17-0.2,0.25c-0.06,0.08-0.12,0.16-0.18,0.24c-0.07,0.09-0.14,0.18-0.21,0.27c-0.05,0.06-0.09,0.13-0.14,0.19
		c-0.43,0.58-0.82,1.15-1.17,1.7l0,0c-0.09,0.14-0.18,0.29-0.27,0.43c0,0.01-0.01,0.02-0.01,0.02c-0.09,0.14-0.17,0.28-0.25,0.42
		l-0.01,0.01c-0.22,0.37-0.43,0.73-0.61,1.06c-0.97,1.76-1.44,2.99-1.46,3.06c-3.07,10.97,6.51,6.34,7.84,5.64
		c1.44,0.71,3.06,1.11,4.77,1.11c4.69,0,8.68-2.99,10.16-7.17h-5.67c-0.84,1.42-2.45,2.38-4.31,2.38c-2.72,0-4.92-2.06-4.92-4.6
		h15.43C338.34,287.92,338.37,287.45,338.37,286.98L338.37,286.98z M336.36,276.37c0.93,0.63,1.67,1.61,0.39,4.93
		c-1.23-1.97-3.07-3.52-5.27-4.37C332.49,276.44,334.96,275.42,336.36,276.37z M316.62,296.64c-0.76-0.78-0.89-2.67,0.78-6.11
		c0.84,2.42,2.52,4.45,4.7,5.74C321.02,296.86,318.15,298.2,316.62,296.64z M322.84,285.42c0.09-2.47,2.23-4.44,4.87-4.44
		c2.64,0,4.79,1.98,4.87,4.44H322.84L322.84,285.42z"/>
</g>
</svg>
