<?xml version="1.0" encoding="utf-8"?>
<!-- Generator: Adobe Illustrator 23.0.3, SVG Export Plug-In . SVG Version: 6.00 Build 0)  -->
<svg version="1.1" id="XMLID_210_" xmlns="http://www.w3.org/2000/svg" xmlns:xlink="http://www.w3.org/1999/xlink" x="0px" y="0px"
	 viewBox="0 0 24 24" style="enable-background:new 0 0 24 24;" xml:space="preserve">
<g>
	<path d="M12,24C6,24,1,19.1,1,13C1,8.4,3.7,4.4,8,2.8l0.7,1.9C5.3,6,3,9.3,3,13c0,4.9,4,9,9,9s9-4,9-9c0-3.7-2.2-7-5.7-8.4L16,2.7
		c4.2,1.7,7,5.8,7,10.3C23,19.2,18,24,12,24z M13,10h-2V0h2V10z"/>
</g>
</svg>
