<?xml version="1.0" encoding="utf-8"?>
<!-- Generator: Adobe Illustrator 23.0.3, SVG Export Plug-In . SVG Version: 6.00 Build 0)  -->
<svg version="1.1" id="XMLID_70_" xmlns="http://www.w3.org/2000/svg" xmlns:xlink="http://www.w3.org/1999/xlink" x="0px" y="0px"
	 viewBox="0 0 24 24" style="enable-background:new 0 0 24 24;" xml:space="preserve">
<g>
	<path d="M18.5,22c-3,0-5.5-2.5-5.5-5.5c0-0.2,0-0.3,0-0.5l0,0c0-0.6-0.4-1-1-1s-1,0.4-1,1l0,0c0,0.2,0,0.3,0,0.5
		c0,3-2.5,5.5-5.5,5.5S0,19.5,0,16.5c0-0.2,0-0.3,0-0.5l0,0V8c0-3.3,2.7-6,6-6v2C3.8,4,2,5.8,2,8v4.3C3,11.5,4.2,11,5.5,11
		c2,0,3.7,1,4.7,2.6c1-0.8,2.6-0.8,3.6,0c1-1.6,2.7-2.6,4.7-2.6c1.3,0,2.5,0.5,3.5,1.3V8c0-2.2-1.8-4-4-4V2c3.3,0,6,2.7,6,6v8
		c0,0.2,0,0.3,0,0.5C24,19.5,21.5,22,18.5,22z M18.5,13c-1.9,0-3.5,1.6-3.5,3.5s1.6,3.5,3.5,3.5s3.5-1.6,3.5-3.5S20.4,13,18.5,13z
		 M5.5,13C3.6,13,2,14.6,2,16.5S3.6,20,5.5,20S9,18.4,9,16.5S7.4,13,5.5,13z"/>
</g>
</svg>
