<?xml version="1.0" encoding="utf-8"?>
<!-- Generator: Adobe Illustrator 24.1.3, SVG Export Plug-In . SVG Version: 6.00 Build 0)  -->
<svg version="1.1" id="Icon" xmlns="http://www.w3.org/2000/svg" xmlns:xlink="http://www.w3.org/1999/xlink" x="0px" y="0px"
	 viewBox="0 0 24 24" enable-background="new 0 0 24 24" xml:space="preserve">
<path d="M10.76,8.7c0.12,0.23,0.04,0.51-0.19,0.64c-0.23,0.12-0.52,0.04-0.64-0.19C9.8,8.92,9.89,8.63,10.12,8.51
	C10.34,8.38,10.63,8.47,10.76,8.7C10.75,8.7,10.75,8.7,10.76,8.7L10.76,8.7z M8.43,12.38c-0.13,0.07-0.18,0.24-0.11,0.38
	c0.07,0.13,0.24,0.18,0.37,0.11c0,0,0,0,0.01,0c0.13-0.07,0.19-0.23,0.12-0.37c0,0,0-0.01,0-0.01C8.73,12.36,8.56,12.31,8.43,12.38z
	 M8.38,11.25c-0.16,0.09-0.21,0.28-0.13,0.44c0.09,0.16,0.28,0.22,0.44,0.13c0.16-0.09,0.22-0.28,0.13-0.44
	C8.74,11.22,8.54,11.16,8.38,11.25C8.38,11.25,8.38,11.25,8.38,11.25z M8.68,10.16c-0.18,0.1-0.25,0.32-0.15,0.5
	c0.1,0.18,0.32,0.25,0.5,0.15c0.18-0.1,0.25-0.32,0.15-0.5c0,0,0,0,0,0C9.08,10.13,8.85,10.06,8.68,10.16z M9.27,9.22
	C9.07,9.32,9,9.58,9.1,9.78c0,0,0,0,0,0.01c0.11,0.2,0.36,0.28,0.56,0.17c0.2-0.11,0.28-0.36,0.17-0.56c0,0,0,0,0,0
	C9.73,9.19,9.48,9.11,9.27,9.22C9.28,9.22,9.28,9.22,9.27,9.22L9.27,9.22z M8.82,13.46c-0.11,0.06-0.15,0.2-0.09,0.31c0,0,0,0,0,0
	c0.06,0.11,0.2,0.15,0.31,0.09c0.11-0.06,0.15-0.2,0.09-0.32C9.07,13.44,8.93,13.4,8.82,13.46z M14.17,9.6
	c0.07,0.13,0.24,0.18,0.38,0.11c0.13-0.07,0.18-0.24,0.11-0.38c-0.07-0.13-0.24-0.18-0.37-0.11c0,0,0,0,0,0
	C14.15,9.29,14.1,9.46,14.17,9.6C14.17,9.6,14.17,9.6,14.17,9.6L14.17,9.6z M13.23,9c0.08,0.16,0.28,0.21,0.44,0.13
	c0.16-0.09,0.22-0.28,0.13-0.44c-0.08-0.16-0.28-0.22-0.44-0.13C13.21,8.64,13.15,8.84,13.23,9L13.23,9z M12.14,8.71
	c0.09,0.18,0.32,0.24,0.49,0.15c0,0,0,0,0,0c0.18-0.1,0.25-0.32,0.15-0.5c0,0,0,0,0,0c-0.1-0.18-0.32-0.25-0.49-0.15c0,0,0,0,0,0
	C12.11,8.3,12.05,8.53,12.14,8.71C12.14,8.71,12.14,8.71,12.14,8.71L12.14,8.71z M11.01,8.75c0.11,0.2,0.36,0.28,0.56,0.17
	c0,0,0,0,0,0c0.2-0.11,0.28-0.36,0.17-0.57c-0.11-0.2-0.37-0.27-0.57-0.15C10.98,8.32,10.91,8.56,11.01,8.75z M14.88,10.45
	c0.06,0.11,0.2,0.15,0.31,0.09c0.11-0.06,0.15-0.19,0.1-0.31c0,0,0,0,0,0c-0.06-0.11-0.2-0.16-0.31-0.1
	C14.86,10.19,14.81,10.34,14.88,10.45L14.88,10.45z M14.08,14.85c-0.12-0.23-0.4-0.32-0.63-0.2c0,0,0,0-0.01,0
	c-0.23,0.12-0.31,0.4-0.19,0.63c0,0,0,0,0,0.01c0.12,0.23,0.41,0.31,0.64,0.19C14.12,15.36,14.2,15.08,14.08,14.85L14.08,14.85z
	 M9.83,14.4c-0.07-0.13-0.24-0.18-0.37-0.11c-0.13,0.07-0.18,0.24-0.11,0.37c0,0,0,0,0,0c0.07,0.13,0.23,0.18,0.37,0.11
	c0,0,0,0,0.01,0C9.85,14.7,9.9,14.53,9.83,14.4C9.83,14.4,9.83,14.4,9.83,14.4z M10.77,14.99c-0.09-0.16-0.28-0.21-0.44-0.13
	c-0.16,0.08-0.22,0.27-0.13,0.43c0,0,0,0,0,0.01c0.08,0.16,0.28,0.22,0.44,0.13C10.8,15.35,10.86,15.15,10.77,14.99z M11.86,15.29
	c-0.09-0.18-0.32-0.24-0.5-0.15c-0.18,0.1-0.24,0.32-0.15,0.5c0.1,0.18,0.32,0.25,0.5,0.15C11.89,15.69,11.96,15.47,11.86,15.29
	C11.87,15.29,11.86,15.29,11.86,15.29L11.86,15.29z M13,15.24c-0.11-0.2-0.36-0.28-0.56-0.17c-0.2,0.11-0.27,0.36-0.16,0.56
	c0.1,0.2,0.35,0.28,0.55,0.17c0,0,0.01,0,0.01-0.01C13.03,15.7,13.1,15.44,13,15.24z M15.57,11.62c0.14-0.08,0.19-0.25,0.12-0.38
	c-0.07-0.13-0.24-0.18-0.37-0.11c0,0,0,0,0,0c-0.13,0.07-0.19,0.24-0.12,0.37c0,0,0,0,0,0.01C15.27,11.63,15.44,11.68,15.57,11.62
	L15.57,11.62z M15.62,12.75c0.16-0.09,0.21-0.28,0.13-0.44c-0.08-0.16-0.28-0.22-0.43-0.13c0,0,0,0,0,0
	c-0.16,0.09-0.22,0.28-0.13,0.44C15.27,12.77,15.47,12.83,15.62,12.75L15.62,12.75z M15.33,13.84c0.18-0.1,0.25-0.32,0.15-0.5
	c-0.1-0.18-0.32-0.25-0.5-0.15c-0.18,0.1-0.25,0.32-0.15,0.5C14.93,13.86,15.15,13.93,15.33,13.84L15.33,13.84z M14.73,14.77
	c0.2-0.1,0.28-0.36,0.17-0.56c-0.11-0.2-0.36-0.28-0.56-0.17c-0.2,0.11-0.28,0.36-0.17,0.56c0,0,0,0,0,0
	C14.28,14.81,14.52,14.88,14.73,14.77C14.73,14.78,14.73,14.78,14.73,14.77L14.73,14.77z M13.93,7.57c-0.09,0.32-0.43,0.5-0.75,0.41
	c0,0,0,0,0,0c-0.32-0.09-0.5-0.43-0.41-0.75c0,0,0,0,0-0.01c0.1-0.32,0.43-0.5,0.75-0.41C13.85,6.92,14.03,7.25,13.93,7.57z M8.13,9
	C7.97,8.96,7.8,9.05,7.75,9.21C7.71,9.37,7.81,9.53,7.97,9.57c0.15,0.04,0.31-0.05,0.36-0.2C8.38,9.22,8.28,9.05,8.13,9L8.13,9z
	 M9.18,7.85C8.98,7.79,8.78,7.9,8.72,8.1c0,0,0,0,0,0C8.66,8.29,8.77,8.5,8.97,8.56c0,0,0,0,0,0c0.2,0.06,0.4-0.06,0.46-0.25
	C9.48,8.11,9.37,7.91,9.18,7.85L9.18,7.85z M10.52,7.03c-0.25-0.07-0.51,0.07-0.58,0.32c-0.07,0.25,0.07,0.51,0.32,0.58
	c0.25,0.07,0.51-0.07,0.58-0.31c0,0,0,0,0,0C10.91,7.37,10.77,7.11,10.52,7.03L10.52,7.03z M12.01,6.7
	c-0.28-0.08-0.57,0.07-0.66,0.35c0,0,0,0,0,0c-0.08,0.28,0.08,0.57,0.35,0.65c0,0,0,0,0,0c0.28,0.08,0.57-0.08,0.65-0.36
	C12.45,7.08,12.3,6.78,12.01,6.7C12.02,6.7,12.02,6.7,12.01,6.7L12.01,6.7z M7.46,10.43c-0.12-0.03-0.24,0.03-0.27,0.15c0,0,0,0,0,0
	c-0.04,0.12,0.03,0.24,0.15,0.28c0,0,0,0,0,0c0.12,0.03,0.24-0.03,0.28-0.15C7.65,10.59,7.58,10.47,7.46,10.43
	C7.46,10.43,7.46,10.43,7.46,10.43L7.46,10.43z M16.51,11.78c-0.05,0.16,0.04,0.32,0.2,0.37c0,0,0,0,0,0
	c0.16,0.05,0.32-0.04,0.37-0.2c0.05-0.16-0.04-0.32-0.2-0.37C16.72,11.53,16.56,11.62,16.51,11.78z M16.16,10.28
	c-0.06,0.2,0.05,0.4,0.25,0.46c0,0,0,0,0,0c0.2,0.06,0.4-0.05,0.46-0.25c0.06-0.2-0.05-0.4-0.25-0.46
	C16.43,9.98,16.22,10.09,16.16,10.28C16.16,10.28,16.16,10.28,16.16,10.28L16.16,10.28z M15.35,8.94c-0.07,0.25,0.07,0.51,0.32,0.58
	c0.25,0.07,0.51-0.07,0.58-0.32c0.07-0.25-0.07-0.51-0.31-0.58c0,0,0,0,0,0C15.68,8.55,15.42,8.69,15.35,8.94L15.35,8.94z
	 M14.2,7.89c-0.08,0.28,0.08,0.57,0.36,0.65c0.28,0.08,0.57-0.08,0.65-0.36l0,0c0.08-0.28-0.08-0.57-0.35-0.65c0,0,0,0,0,0
	C14.58,7.45,14.29,7.61,14.2,7.89z M16.39,13.29c-0.03,0.12,0.03,0.24,0.15,0.28c0.12,0.04,0.24-0.03,0.28-0.15c0,0,0,0,0,0
	c0.04-0.12-0.03-0.24-0.15-0.28c0,0,0,0,0,0C16.55,13.1,16.42,13.17,16.39,13.29L16.39,13.29z M11.23,16.77
	c0.1-0.32-0.09-0.66-0.41-0.75c0,0,0,0,0,0c-0.32-0.09-0.66,0.09-0.75,0.41c0,0,0,0,0,0c-0.1,0.32,0.09,0.66,0.41,0.75c0,0,0,0,0,0
	C10.8,17.28,11.14,17.09,11.23,16.77z M7.49,12.22c0.05-0.16-0.04-0.32-0.2-0.37c-0.16-0.05-0.32,0.05-0.37,0.2
	c-0.05,0.16,0.04,0.32,0.2,0.37c0,0,0,0,0,0C7.28,12.47,7.44,12.38,7.49,12.22C7.49,12.22,7.49,12.22,7.49,12.22z M7.84,13.71
	c0.06-0.19-0.05-0.4-0.25-0.45c0,0,0,0,0,0c-0.19-0.06-0.4,0.05-0.46,0.24c0,0,0,0.01,0,0.01c-0.06,0.2,0.06,0.4,0.25,0.46
	C7.58,14.02,7.78,13.91,7.84,13.71L7.84,13.71z M8.65,15.06c0.07-0.25-0.07-0.51-0.32-0.59c-0.25-0.07-0.51,0.07-0.58,0.32
	c-0.07,0.25,0.07,0.51,0.31,0.58c0,0,0,0,0,0C8.32,15.45,8.58,15.31,8.65,15.06C8.65,15.06,8.65,15.06,8.65,15.06L8.65,15.06z
	 M9.8,16.11c0.08-0.28-0.08-0.57-0.36-0.66c-0.28-0.08-0.57,0.08-0.65,0.35c0,0,0,0,0,0.01c-0.08,0.28,0.08,0.57,0.36,0.65
	c0,0,0,0,0,0C9.42,16.55,9.72,16.39,9.8,16.11z M15.88,15c0.16,0.05,0.33-0.04,0.37-0.2c0.05-0.16-0.04-0.32-0.2-0.37
	c-0.16-0.05-0.32,0.05-0.37,0.2C15.63,14.78,15.72,14.95,15.88,15z M14.83,16.15c0.19,0.06,0.4-0.05,0.46-0.25
	c0.06-0.19-0.05-0.4-0.24-0.46c0,0,0,0,0,0c-0.2-0.06-0.4,0.05-0.46,0.25C14.52,15.89,14.63,16.09,14.83,16.15z M13.48,16.97
	c0.25,0.07,0.51-0.07,0.58-0.32c0,0,0,0,0,0c0.07-0.25-0.07-0.51-0.32-0.58c0,0,0,0,0,0c-0.25-0.07-0.51,0.07-0.58,0.32
	C13.09,16.63,13.23,16.89,13.48,16.97L13.48,16.97z M11.99,17.3c0.28,0.08,0.57-0.07,0.65-0.35c0,0,0,0,0-0.01
	c0.08-0.28-0.08-0.57-0.36-0.66c-0.28-0.08-0.57,0.08-0.66,0.36C11.55,16.93,11.71,17.22,11.99,17.3z M16.95,7.88
	c-0.3,0.31-0.79,0.33-1.1,0.03c-0.31-0.29-0.33-0.78-0.03-1.1c0,0,0,0,0,0c0.29-0.31,0.78-0.33,1.1-0.04c0,0,0,0,0,0
	C17.23,7.07,17.25,7.57,16.95,7.88L16.95,7.88z M9.19,6.11C9.04,5.97,8.8,5.97,8.65,6.13C8.5,6.28,8.51,6.52,8.66,6.67
	c0.15,0.14,0.4,0.14,0.54-0.02C9.35,6.5,9.35,6.26,9.19,6.11L9.19,6.11z M11.14,5.37c-0.19-0.18-0.49-0.17-0.67,0.02
	c-0.18,0.19-0.17,0.49,0.02,0.67c0,0,0,0,0,0c0.19,0.18,0.49,0.17,0.67-0.02C11.34,5.85,11.33,5.55,11.14,5.37L11.14,5.37z
	 M13.22,5.22C12.98,4.99,12.6,5,12.37,5.24c-0.22,0.25-0.2,0.63,0.05,0.85c0.24,0.21,0.6,0.2,0.83-0.02
	C13.48,5.83,13.46,5.45,13.22,5.22z M15.2,5.73c-0.27-0.26-0.7-0.25-0.96,0.03c0,0,0,0,0,0c-0.26,0.27-0.24,0.7,0.03,0.96
	c0,0,0,0,0,0c0.27,0.26,0.7,0.24,0.96-0.03C15.48,6.41,15.47,5.98,15.2,5.73L15.2,5.73z M7.54,7.41c-0.12-0.11-0.3-0.1-0.4,0.01
	c-0.11,0.11-0.1,0.29,0.01,0.4c0,0,0,0,0,0c0.11,0.11,0.29,0.1,0.4-0.01c0,0,0,0,0,0C7.66,7.7,7.66,7.52,7.54,7.41z M17.5,14.47
	c-0.15,0.15-0.14,0.4,0.02,0.54c0.16,0.14,0.4,0.13,0.54-0.03c0.14-0.15,0.13-0.39-0.02-0.53C17.89,14.31,17.65,14.31,17.5,14.47z
	 M18,12.49c-0.18,0.19-0.17,0.49,0.02,0.67c0.19,0.18,0.49,0.17,0.67-0.02c0,0,0,0,0,0c0.18-0.19,0.17-0.49-0.02-0.67c0,0,0,0,0,0
	C18.47,12.29,18.18,12.3,18,12.49z M17.84,10.4c-0.23,0.24-0.22,0.62,0.02,0.85c0,0,0,0,0,0c0.24,0.23,0.62,0.22,0.85-0.02
	c0,0,0,0,0,0c0.22-0.25,0.2-0.63-0.04-0.85C18.44,10.15,18.07,10.17,17.84,10.4L17.84,10.4z M17.12,8.46
	c-0.26,0.27-0.24,0.7,0.03,0.96c0.27,0.26,0.7,0.24,0.96-0.03c0.26-0.27,0.24-0.7-0.03-0.96c0,0,0,0,0,0
	C17.8,8.18,17.37,8.19,17.12,8.46z M16.45,16.19c-0.11,0.12-0.1,0.3,0.01,0.4c0.11,0.11,0.29,0.1,0.4-0.01c0,0,0,0,0,0
	c0.11-0.11,0.1-0.29-0.01-0.4c0,0,0,0-0.01-0.01C16.74,16.07,16.56,16.07,16.45,16.19C16.45,16.18,16.45,16.19,16.45,16.19
	L16.45,16.19z M8.18,17.19c0.29-0.32,0.27-0.81-0.04-1.1c-0.31-0.29-0.8-0.27-1.09,0.03c-0.29,0.32-0.26,0.81,0.06,1.1
	C7.42,17.49,7.89,17.48,8.18,17.19L8.18,17.19z M6.5,9.53c0.15-0.15,0.14-0.4-0.02-0.54C6.33,8.84,6.09,8.85,5.94,9
	C5.79,9.16,5.8,9.4,5.96,9.55C6.11,9.69,6.35,9.68,6.5,9.53L6.5,9.53z M6.01,11.51c0.18-0.19,0.17-0.49-0.02-0.67
	c-0.2-0.17-0.49-0.16-0.67,0.04c-0.17,0.19-0.16,0.47,0.02,0.65C5.53,11.71,5.83,11.7,6.01,11.51L6.01,11.51z M6.16,13.6
	c0.23-0.24,0.22-0.62-0.03-0.85c-0.24-0.23-0.62-0.22-0.85,0.03c-0.23,0.24-0.22,0.62,0.03,0.85C5.55,13.85,5.93,13.84,6.16,13.6z
	 M6.89,15.54c0.26-0.27,0.24-0.7-0.03-0.96c-0.27-0.26-0.7-0.24-0.95,0.03c0,0,0,0,0,0c-0.26,0.27-0.25,0.7,0.02,0.96c0,0,0,0,0,0
	C6.2,15.82,6.63,15.81,6.89,15.54L6.89,15.54z M14.81,17.89c0.15,0.15,0.4,0.14,0.54-0.02c0,0,0,0,0,0
	c0.14-0.15,0.14-0.39-0.02-0.54c0,0,0,0,0,0c-0.15-0.15-0.39-0.14-0.54,0.01c0,0,0,0,0,0C14.65,17.5,14.66,17.74,14.81,17.89
	L14.81,17.89z M12.87,18.63c0.19,0.18,0.49,0.17,0.67-0.02c0.18-0.19,0.17-0.49-0.02-0.67c0,0,0,0,0,0
	c-0.19-0.18-0.49-0.17-0.67,0.02C12.67,18.15,12.68,18.45,12.87,18.63z M10.78,18.78c0.24,0.23,0.62,0.22,0.85-0.02
	c0.23-0.24,0.22-0.62-0.02-0.85c0,0,0,0,0,0c-0.24-0.23-0.62-0.22-0.85,0.02C10.52,18.17,10.54,18.55,10.78,18.78
	C10.78,18.78,10.78,18.78,10.78,18.78z M8.81,18.27c0.27,0.26,0.7,0.24,0.95-0.03c0,0,0,0,0,0c0.26-0.27,0.24-0.7-0.03-0.96
	c-0.27-0.26-0.7-0.24-0.96,0.03l0,0C8.52,17.59,8.54,18.02,8.81,18.27C8.81,18.27,8.81,18.27,8.81,18.27z M20.11,9.53
	c-0.48,0.21-1.03-0.02-1.24-0.49C18.67,8.56,18.89,8,19.36,7.8c0,0,0,0,0,0c0.48-0.2,1.03,0.04,1.23,0.52
	C20.78,8.78,20.57,9.32,20.11,9.53z M13.49,3.53c-0.06-0.28-0.33-0.46-0.61-0.41c0,0,0,0,0,0c-0.28,0.05-0.46,0.33-0.41,0.61
	c0,0,0,0,0,0c0.07,0.28,0.35,0.45,0.63,0.39C13.36,4.06,13.53,3.8,13.49,3.53z M15.72,4.01c-0.09-0.34-0.43-0.54-0.76-0.46
	c0,0,0,0,0,0c-0.34,0.08-0.54,0.43-0.46,0.76c0,0,0,0,0,0c0.09,0.34,0.43,0.54,0.77,0.45C15.61,4.69,15.81,4.35,15.72,4.01
	L15.72,4.01z M17.78,5.01c-0.13-0.41-0.57-0.64-0.98-0.52c0,0,0,0,0,0c-0.41,0.13-0.65,0.57-0.52,0.98c0,0,0,0,0,0
	c0.14,0.41,0.59,0.63,1,0.49C17.68,5.83,17.9,5.41,17.78,5.01L17.78,5.01z M19.43,6.47c-0.17-0.45-0.66-0.68-1.11-0.51c0,0,0,0,0,0
	c-0.45,0.16-0.68,0.66-0.51,1.11c0,0,0,0,0,0c0.17,0.45,0.66,0.68,1.11,0.51C19.36,7.42,19.59,6.92,19.43,6.47L19.43,6.47z
	 M9.01,4.11c-0.08-0.19-0.31-0.28-0.5-0.2c0,0,0,0,0,0C8.32,4,8.23,4.22,8.32,4.41c0.08,0.19,0.31,0.28,0.5,0.2l0,0
	C9.01,4.53,9.1,4.3,9.01,4.11L9.01,4.11z M18.46,16.61c-0.23,0.17-0.28,0.5-0.11,0.73c0.17,0.22,0.48,0.28,0.71,0.12
	c0.23-0.17,0.29-0.49,0.12-0.72c0,0,0,0,0,0C19.02,16.5,18.69,16.44,18.46,16.61C18.46,16.61,18.46,16.61,18.46,16.61z M19.49,14.58
	c-0.3,0.18-0.39,0.57-0.21,0.87c0.18,0.3,0.57,0.39,0.87,0.21c0.01,0,0.01-0.01,0.02-0.01c0.29-0.19,0.37-0.58,0.18-0.87
	C20.16,14.49,19.78,14.4,19.49,14.58z M19.98,12.29c-0.38,0.21-0.51,0.69-0.3,1.07c0.21,0.38,0.69,0.51,1.07,0.3c0,0,0,0,0,0
	c0.38-0.21,0.51-0.69,0.3-1.07c0,0,0,0,0,0C20.84,12.22,20.36,12.08,19.98,12.29C19.99,12.29,19.98,12.29,19.98,12.29L19.98,12.29z
	 M19.95,10c-0.43,0.21-0.6,0.73-0.39,1.16c0.21,0.43,0.73,0.6,1.16,0.39c0,0,0,0,0,0c0.43-0.21,0.6-0.73,0.39-1.16c0,0,0,0,0,0
	C20.9,9.97,20.38,9.79,19.95,10L19.95,10z M15.19,19.39c-0.19,0.08-0.28,0.31-0.2,0.5c0.08,0.19,0.31,0.28,0.5,0.2
	c0.19-0.08,0.28-0.31,0.2-0.5C15.6,19.4,15.38,19.31,15.19,19.39z M4.64,16.2c0.48-0.21,0.7-0.76,0.49-1.24
	c-0.21-0.48-0.76-0.7-1.24-0.49c0,0,0,0,0,0c-0.48,0.2-0.7,0.76-0.49,1.24c0,0,0,0,0,0C3.6,16.19,4.16,16.41,4.64,16.2z M5.54,7.39
	C5.78,7.23,5.83,6.9,5.66,6.67c0,0,0,0,0,0C5.5,6.43,5.18,6.38,4.94,6.54c0,0,0,0,0,0C4.71,6.71,4.65,7.03,4.81,7.26c0,0,0,0,0,0
	C4.98,7.5,5.31,7.56,5.54,7.39L5.54,7.39z M4.51,9.42C4.8,9.23,4.89,8.84,4.7,8.55c0,0,0,0,0,0C4.52,8.26,4.13,8.17,3.83,8.35
	S3.45,8.93,3.64,9.22C3.82,9.52,4.21,9.61,4.51,9.42L4.51,9.42z M4.02,11.71c0.38-0.2,0.53-0.68,0.33-1.06
	c-0.2-0.38-0.68-0.53-1.06-0.33c-0.01,0.01-0.03,0.01-0.04,0.02c-0.38,0.21-0.51,0.69-0.3,1.07C3.16,11.78,3.64,11.92,4.02,11.71z
	 M4.05,14c0.43-0.21,0.6-0.73,0.39-1.16c-0.21-0.43-0.73-0.6-1.16-0.39c0,0,0,0-0.01,0c-0.43,0.21-0.6,0.73-0.39,1.16c0,0,0,0,0,0
	C3.1,14.03,3.62,14.21,4.05,14z M10.51,20.47c0.06,0.28,0.33,0.47,0.61,0.41c0,0,0,0,0,0c0.28-0.06,0.46-0.33,0.41-0.61
	c-0.06-0.28-0.33-0.46-0.61-0.41C10.64,19.92,10.46,20.19,10.51,20.47L10.51,20.47z M8.28,19.99c0.08,0.34,0.43,0.54,0.76,0.46
	c0,0,0,0,0,0c0.34-0.09,0.54-0.43,0.45-0.77c-0.09-0.34-0.43-0.54-0.77-0.45C8.4,19.31,8.19,19.65,8.28,19.99
	C8.28,19.99,8.28,19.99,8.28,19.99L8.28,19.99z M6.22,18.99c0.13,0.41,0.56,0.64,0.98,0.52c0,0,0,0,0.01,0
	c0.41-0.13,0.65-0.57,0.52-0.98c0,0,0,0,0,0c-0.13-0.41-0.57-0.65-0.99-0.52C6.32,18.14,6.09,18.58,6.22,18.99
	C6.22,18.99,6.22,18.99,6.22,18.99z M4.58,17.53c0.16,0.45,0.66,0.68,1.11,0.51c0,0,0,0,0.01,0c0.45-0.17,0.66-0.68,0.49-1.12
	c-0.17-0.43-0.65-0.65-1.09-0.5C4.64,16.58,4.41,17.08,4.58,17.53z M16.97,18.29c-0.17,0.14-0.19,0.4-0.05,0.57
	c0.14,0.16,0.38,0.19,0.55,0.06c0.18-0.13,0.22-0.39,0.08-0.57s-0.39-0.22-0.57-0.08C16.99,18.28,16.98,18.29,16.97,18.29z
	 M13.16,19.93c-0.22,0.03-0.38,0.24-0.34,0.46c0.03,0.22,0.24,0.38,0.46,0.34c0,0,0,0,0,0c0.22-0.03,0.38-0.24,0.34-0.46
	c0,0,0,0,0,0C13.59,20.06,13.39,19.9,13.16,19.93C13.16,19.93,13.16,19.93,13.16,19.93L13.16,19.93z M11.18,3.6
	c-0.03-0.22-0.24-0.38-0.46-0.34c0,0,0,0,0,0c-0.22,0.03-0.38,0.24-0.34,0.46c0.03,0.22,0.24,0.38,0.46,0.34
	C11.06,4.03,11.22,3.83,11.18,3.6L11.18,3.6z M7.09,5.14C6.95,4.96,6.7,4.93,6.52,5.07c-0.18,0.14-0.21,0.4-0.07,0.57
	c0.14,0.18,0.4,0.21,0.57,0.07C7.2,5.57,7.23,5.31,7.09,5.14C7.09,5.14,7.09,5.14,7.09,5.14z M22.79,13.21
	c-0.67,0-1.21-0.54-1.21-1.21c0-0.67,0.54-1.21,1.2-1.21c0,0,0,0,0.01,0c0.67,0,1.21,0.54,1.21,1.2c0,0,0,0,0,0
	C24,12.67,23.46,13.21,22.79,13.21L22.79,13.21z M18.05,2.79C18.13,2.43,17.9,2.08,17.54,2c0,0,0,0,0,0
	c-0.36-0.08-0.71,0.15-0.79,0.51c0,0,0,0,0,0c-0.08,0.36,0.15,0.71,0.51,0.79C17.62,3.38,17.97,3.15,18.05,2.79z M20.43,4.49
	c0.07-0.44-0.23-0.85-0.67-0.92c0,0,0,0,0,0c-0.44-0.06-0.85,0.25-0.91,0.69c-0.06,0.43,0.23,0.83,0.66,0.9
	C19.95,5.24,20.36,4.94,20.43,4.49z M23.54,9.26c0.03-0.61-0.44-1.13-1.05-1.17c0,0,0,0,0,0c-0.61-0.03-1.13,0.43-1.17,1.04
	c0,0,0,0,0,0c-0.04,0.61,0.43,1.14,1.04,1.18c0.61,0.04,1.14-0.43,1.18-1.04C23.54,9.28,23.54,9.27,23.54,9.26L23.54,9.26z
	 M12.49,1.21c0-0.27-0.22-0.48-0.49-0.48c-0.27,0.01-0.48,0.23-0.47,0.5c0.01,0.25,0.21,0.46,0.47,0.47
	C12.27,1.69,12.49,1.48,12.49,1.21z M17.26,20.7c-0.36,0.08-0.59,0.43-0.51,0.79c0.08,0.36,0.43,0.59,0.79,0.51s0.59-0.43,0.51-0.79
	S17.62,20.62,17.26,20.7L17.26,20.7z M19.51,18.83c-0.44,0.07-0.75,0.48-0.68,0.92c0.07,0.44,0.48,0.75,0.92,0.68
	c0.01,0,0.01,0,0.02,0c0.44-0.07,0.74-0.49,0.66-0.93C20.35,19.07,19.94,18.77,19.51,18.83z M21.24,16.39
	c-0.55,0.06-0.95,0.55-0.9,1.11s0.55,0.95,1.11,0.9c0.55-0.06,0.95-0.55,0.9-1.1c0,0,0,0,0,0C22.29,16.74,21.79,16.34,21.24,16.39z
	 M22.37,13.68c-0.61,0.03-1.08,0.56-1.05,1.17c0.03,0.61,0.55,1.08,1.16,1.05c0,0,0,0,0.01,0c0.61-0.03,1.08-0.55,1.05-1.16
	c0,0,0,0,0,0C23.5,14.12,22.98,13.65,22.37,13.68z M12,22.31c-0.27,0.01-0.48,0.23-0.47,0.5c0.01,0.26,0.21,0.47,0.47,0.47
	c0.27,0,0.48-0.22,0.48-0.48S12.27,22.31,12,22.31z M1.21,13.21c0.67,0,1.21-0.54,1.21-1.21c0-0.67-0.54-1.21-1.2-1.21c0,0,0,0,0,0
	C0.54,10.79,0,11.33,0,12c0,0,0,0,0,0C0,12.67,0.54,13.21,1.21,13.21z M6.74,3.3C7.1,3.23,7.33,2.87,7.26,2.51
	C7.18,2.15,6.83,1.92,6.47,2c0,0,0,0,0,0C6.1,2.08,5.87,2.43,5.95,2.79S6.38,3.38,6.74,3.3z M4.5,5.17C4.94,5.1,5.24,4.68,5.17,4.24
	C5.1,3.8,4.68,3.5,4.24,3.57c0,0,0,0,0,0C3.8,3.64,3.5,4.05,3.57,4.49c0,0,0,0,0,0C3.64,4.93,4.06,5.24,4.5,5.17z M2.76,7.6
	C3.31,7.53,3.7,7.03,3.63,6.48C3.56,5.94,3.08,5.56,2.55,5.6C2,5.66,1.6,6.15,1.65,6.7c0,0,0,0,0,0C1.71,7.26,2.21,7.66,2.76,7.6
	C2.76,7.6,2.76,7.6,2.76,7.6z M21.71,7.6c0.55-0.07,0.94-0.58,0.87-1.13c-0.07-0.53-0.54-0.92-1.08-0.87
	c-0.55,0.06-0.95,0.55-0.9,1.1c0,0,0,0,0,0C20.66,7.26,21.16,7.66,21.71,7.6C21.71,7.6,21.71,7.6,21.71,7.6z M1.63,10.31
	c0.61-0.03,1.08-0.55,1.05-1.17C2.65,8.54,2.13,8.07,1.52,8.1c0,0,0,0-0.01,0C0.9,8.13,0.43,8.65,0.46,9.26c0,0,0,0,0,0
	C0.5,9.88,1.02,10.35,1.63,10.31z M5.95,21.21C5.87,21.57,6.1,21.92,6.46,22c0.36,0.08,0.71-0.15,0.79-0.51
	c0.08-0.36-0.15-0.71-0.51-0.79C6.38,20.62,6.03,20.85,5.95,21.21z M3.57,19.5c-0.07,0.44,0.23,0.85,0.67,0.92c0,0,0,0,0,0
	c0.44,0.07,0.85-0.23,0.92-0.67c0.07-0.44-0.23-0.85-0.67-0.92C4.06,18.76,3.64,19.06,3.57,19.5C3.57,19.5,3.57,19.5,3.57,19.5z
	 M1.65,17.29c-0.06,0.55,0.34,1.05,0.89,1.11c0,0,0,0,0,0c0.55,0.06,1.05-0.34,1.11-0.89c0,0,0,0,0,0c0.06-0.55-0.34-1.05-0.9-1.11
	c0,0,0,0,0,0C2.21,16.34,1.71,16.74,1.65,17.29C1.65,17.29,1.65,17.29,1.65,17.29L1.65,17.29z M0.46,14.73
	c-0.03,0.61,0.44,1.13,1.05,1.17c0,0,0,0,0,0c0.61,0.03,1.13-0.43,1.17-1.04c0,0,0,0,0-0.01c0.03-0.61-0.44-1.13-1.05-1.17
	C1.02,13.65,0.5,14.12,0.46,14.73z M14.66,21.92c-0.28,0.07-0.44,0.36-0.37,0.64c0.07,0.28,0.36,0.44,0.64,0.37
	c0.28-0.07,0.44-0.36,0.37-0.64c0,0,0,0,0,0C15.22,22.01,14.94,21.85,14.66,21.92L14.66,21.92z M9.34,21.92
	c-0.28-0.07-0.56,0.1-0.63,0.38c-0.07,0.27,0.09,0.55,0.36,0.62c0.28,0.08,0.57-0.08,0.65-0.35c0.08-0.28-0.08-0.57-0.35-0.65
	C9.36,21.92,9.35,21.92,9.34,21.92z M15.3,1.71c0.07-0.28-0.09-0.56-0.37-0.64c0,0,0,0,0,0c-0.28-0.06-0.56,0.11-0.62,0.4
	C14.25,1.73,14.4,2,14.66,2.08C14.94,2.15,15.22,1.99,15.3,1.71C15.3,1.71,15.3,1.71,15.3,1.71z M9.71,1.44
	C9.64,1.16,9.35,1,9.07,1.07c0,0,0,0,0,0C8.79,1.15,8.63,1.43,8.7,1.71c0,0,0,0,0,0c0.07,0.28,0.36,0.44,0.64,0.37
	C9.62,2,9.79,1.72,9.71,1.44z"/>
</svg>
