<?xml version="1.0" encoding="utf-8"?>
<!-- Generator: Adobe Illustrator 23.0.3, SVG Export Plug-In . SVG Version: 6.00 Build 0)  -->
<svg version="1.1" id="XMLID_168_" xmlns="http://www.w3.org/2000/svg" xmlns:xlink="http://www.w3.org/1999/xlink" x="0px" y="0px"
	 viewBox="0 0 24 24" style="enable-background:new 0 0 24 24;" xml:space="preserve">
<g id="satellite">
	<g>
		<path d="M14,24H0v-1c0-3,2.2-5.8,5.1-6.6c-1.5-2-2.3-4.4-2.3-6.9c0-3.1,1.2-6,3.4-8.2l0.7-0.7l7.5,7.5l2.9-2.9
			C17.2,4.7,17,4.1,17,3.5C17,1.6,18.6,0,20.5,0S24,1.6,24,3.5S22.4,7,20.5,7c-0.6,0-1.2-0.2-1.7-0.4l-2.9,2.9l7.5,7.5l-0.7,0.7
			c-2.2,2.2-5.1,3.4-8.2,3.4c-0.3,0-0.6,0-0.8,0c0.2,0.5,0.3,1.2,0.3,1.9V24z M2.1,22h9.7c-0.1-0.4-0.3-0.9-0.7-1.4
			c-1.7-0.5-3.2-1.3-4.5-2.5C4.6,18.3,2.6,20,2.1,22z M7,3.5c-1.4,1.7-2.1,3.8-2.1,6c0,2.6,1,5,2.8,6.8s4.2,2.8,6.8,2.8
			c2.2,0,4.3-0.8,6-2.1L7,3.5z M20.5,2C19.7,2,19,2.7,19,3.5S19.7,5,20.5,5S22,4.3,22,3.5S21.3,2,20.5,2z"/>
	</g>
</g>
</svg>
