<?xml version="1.0" encoding="utf-8"?>
<!-- Generator: Adobe Illustrator 23.0.3, SVG Export Plug-In . SVG Version: 6.00 Build 0)  -->
<svg version="1.1" xmlns="http://www.w3.org/2000/svg" xmlns:xlink="http://www.w3.org/1999/xlink" x="0px" y="0px"
	 viewBox="0 0 24 24" style="enable-background:new 0 0 24 24;" xml:space="preserve">
<g id="schedule-new">
	<path d="M20,24h-2v-2.8l-2.4,1.4l-1-1.7l2.4-1.4l-2.4-1.4l1-1.7l2.4,1.4V15h2v2.8l2.4-1.4l1,1.7L21,19.5l2.4,1.4l-1,1.7L20,21.2V24
		z M13,20H0V2h4V0h2v2h6V0h2v2h4v12h-2V4H2v2h14v2H2v10h11V20z M14,16H8v-2h6V16z M6,16H4v-2h2V16z M14,12H8v-2h6V12z M6,12H4v-2h2
		V12z"/>
</g>
</svg>
