<?xml version="1.0" encoding="utf-8"?>
<!-- Generator: Adobe Illustrator 23.0.3, SVG Export Plug-In . SVG Version: 6.00 Build 0)  -->
<svg version="1.1" id="XMLID_98_" xmlns="http://www.w3.org/2000/svg" xmlns:xlink="http://www.w3.org/1999/xlink" x="0px" y="0px"
	 viewBox="0 0 24 24" style="enable-background:new 0 0 24 24;" xml:space="preserve">
<g id="schedule-clone">
	<g>
		<path d="M24,24H6v-4H0V2h4V0h2v2h6V0h2v2h4v4h6V24z M8,22h14V12h-4v8H8V22z M2,18h14V4H2v2h14v2H2V18z M18,10h4V8h-4V10z M14,16H8
			v-2h6V16z M6,16H4v-2h2V16z M14,12H8v-2h6V12z M6,12H4v-2h2V12z"/>
	</g>
</g>
</svg>
