<?xml version="1.0" encoding="utf-8"?>
<!-- Generator: Adobe Illustrator 23.0.3, SVG Export Plug-In . SVG Version: 6.00 Build 0)  -->
<svg version="1.1" id="XMLID_95_" xmlns="http://www.w3.org/2000/svg" xmlns:xlink="http://www.w3.org/1999/xlink" x="0px" y="0px"
	 viewBox="0 0 24 24" style="enable-background:new 0 0 24 24;" xml:space="preserve">
<g id="service-start">
	<g>
		<path d="M6,4.5c0.1,0,0,6,0,6l5-3L6,4.5z"/>
	</g>
	<g>
		<path d="M9.7,23c-3.6,0-6.5-2.9-6.5-6.5c0-1.2,0.3-2.4,1-3.4C2.3,12,1,9.8,1,7.5C1,3.9,3.9,1,7.5,1c2.3,0,4.3,1.2,5.5,3
			c1-0.7,2.2-1,3.5-1C20.1,3,23,5.9,23,9.5S20.1,16,16.5,16c-0.1,0-0.2,0-0.3,0c0,0.2,0,0.4,0,0.6C16.2,20.2,13.3,23,9.7,23z
			 M6.1,13.8c-0.6,0.8-0.9,1.7-0.9,2.7c0,2.5,2,4.5,4.5,4.5s4.5-1.9,4.5-4.4c0-0.3,0-0.5,0-0.7L14,15.3c0-0.1,0-0.1-0.1-0.2V15
			c-0.4-1.2-1.1-2-2.3-2.5C10.5,13.5,9,14,7.5,14C7,14,6.5,13.9,6.1,13.8z M15.6,13.9c0.3,0.1,0.6,0.1,0.9,0.1C19,14,21,12,21,9.5
			S19,5,16.5,5c-1,0-1.9,0.3-2.7,0.9c0.1,0.5,0.2,1,0.2,1.6c0,1.3-0.4,2.5-1,3.5C14.2,11.6,15.1,12.6,15.6,13.9z M7.5,3
			C5,3,3,5,3,7.5c0,1.9,1.2,3.6,3,4.3c1.5,0.6,3.4,0.1,4.6-1l0,0c0.8-0.8,1.3-2,1.3-3.2c0-0.6-0.1-1.1-0.3-1.6l0,0
			C11.1,4.2,9.4,3,7.5,3z"/>
	</g>
</g>
</svg>
