<?xml version="1.0" encoding="utf-8"?>
<!-- Generator: Adobe Illustrator 23.1.1, SVG Export Plug-In . SVG Version: 6.00 Build 0)  -->
<svg version="1.1" id="Icon" xmlns="http://www.w3.org/2000/svg" xmlns:xlink="http://www.w3.org/1999/xlink" x="0px" y="0px"
	 viewBox="0 0 24 24" enable-background="new 0 0 24 24" xml:space="preserve">
<path d="M17,10c-0.34,0-0.67,0.03-1,0.08V0H0v24h17c3.86,0,7-3.14,7-7S20.86,10,17,10z M2,22V2h12v8.68c-0.75,0.36-1.43,0.84-2,1.43
	V12H4v2h6.68C10.25,14.91,10,15.93,10,17c0,1.96,0.81,3.73,2.11,5H2z M17,22c-2.76,0-5-2.24-5-5s2.24-5,5-5s5,2.24,5,5
	S19.76,22,17,22z"/>
<rect x="4" y="4" width="8" height="2"/>
<rect x="4" y="8" width="8" height="2"/>
<path d="M15.36,13.73c0.06,0.05,0,6.55,0,6.55L20.82,17L15.36,13.73z"/>
</svg>
