<?xml version="1.0" encoding="utf-8"?>
<!-- Generator: Adobe Illustrator 23.0.3, SVG Export Plug-In . SVG Version: 6.00 Build 0)  -->
<svg version="1.1" id="XMLID_139_" xmlns="http://www.w3.org/2000/svg" xmlns:xlink="http://www.w3.org/1999/xlink" x="0px" y="0px"
	 viewBox="0 0 24 24" style="enable-background:new 0 0 24 24;" xml:space="preserve">
<g id="server-cluster">
	<g>
		<path d="M24,23H0V0h24V23z M2,21h20v-5H2V21z M2,14h20V9H2V14z M2,7h20V2H2V7z"/>
	</g>
	<g>
		<rect x="13" y="3" width="2" height="3"/>
	</g>
	<g>
		<rect x="16" y="3" width="2" height="3"/>
	</g>
	<g>
		<rect x="19" y="3" width="2" height="3"/>
	</g>
	<g>
		<rect x="13" y="10" width="2" height="3"/>
	</g>
	<g>
		<rect x="16" y="10" width="2" height="3"/>
	</g>
	<g>
		<rect x="19" y="10" width="2" height="3"/>
	</g>
	<g>
		<rect x="13" y="17" width="2" height="3"/>
	</g>
	<g>
		<rect x="16" y="17" width="2" height="3"/>
	</g>
	<g>
		<rect x="19" y="17" width="2" height="3"/>
	</g>
</g>
</svg>
