<?xml version="1.0" encoding="utf-8"?>
<!-- Generator: Adobe Illustrator 23.0.3, SVG Export Plug-In . SVG Version: 6.00 Build 0)  -->
<svg version="1.1" id="XMLID_94_" xmlns="http://www.w3.org/2000/svg" xmlns:xlink="http://www.w3.org/1999/xlink" x="0px" y="0px"
	 viewBox="0 0 24 24" style="enable-background:new 0 0 24 24;" xml:space="preserve">
<g id="service-business">
	<g>
		<path d="M24,24h-6v-2h4V6H2v16h2v2H0V4h7V0h10v4h7V24z M9,4h6V2H9V4z M10.4,24c-2.7,0-4.9-2.2-4.9-4.8c0-0.8,0.2-1.6,0.6-2.3
			C4.8,16,4,14.5,4,12.9C4,10.2,6.2,8,8.9,8c1.6,0,3,0.8,3.9,2c0.7-0.4,1.5-0.6,2.4-0.6c2.7,0,4.8,2.2,4.8,4.9
			c0,2.6-2.1,4.8-4.8,4.8v0.1C15.3,21.9,13.1,24,10.4,24z M8,17.6c-0.3,0.4-0.4,1-0.4,1.5c0,1.6,1.3,2.8,2.9,2.8s2.9-1.2,2.9-2.8
			c0-0.6-0.1-0.9-0.1-0.9c-0.2-0.7-0.7-1.3-1.4-1.6C10.7,17.5,9.3,17.8,8,17.6z M14.8,17c0.1,0,0.2,0,0.4,0c1.6,0,2.8-1.3,2.8-2.8
			c0-1.6-1.3-2.9-2.8-2.9c-0.6,0-1.1,0.2-1.6,0.5c0.1,0.3,0.1,0.7,0.1,1c0,0.8-0.2,1.6-0.6,2.3C13.9,15.6,14.5,16.2,14.8,17z
			 M8.9,9.9C7.3,9.9,6,11.2,6,12.8c0,1.2,0.8,2.3,1.9,2.7c1,0.4,2.1,0.1,2.9-0.7l0,0c0.5-0.5,0.8-1.2,0.8-2c0-0.4-0.1-0.7-0.2-1l0,0
			C11.1,10.7,10.1,9.9,8.9,9.9z"/>
	</g>
</g>
</svg>
