<?xml version="1.0" encoding="utf-8"?>
<!-- Generator: Adobe Illustrator 23.0.3, SVG Export Plug-In . SVG Version: 6.00 Build 0)  -->
<svg version="1.1" id="XMLID_130_" xmlns="http://www.w3.org/2000/svg" xmlns:xlink="http://www.w3.org/1999/xlink" x="0px" y="0px"
	 viewBox="0 0 24 24" style="enable-background:new 0 0 24 24;" xml:space="preserve">
<g id="servers">
	<g>
		<rect x="7" y="18" width="2" height="2"/>
	</g>
	<g>
		<rect x="18" y="18" width="2" height="2"/>
	</g>
	<g>
		<path d="M24,24H0V0h24V24z M13,22h9V2h-9V22z M2,22h9V2H2V22z M20,14h-5v-2h5V14z M9,14H4v-2h5V14z M20,10h-5V8h5V10z M9,10H4V8h5
			V10z M20,6h-5V4h5V6z M9,6H4V4h5V6z"/>
	</g>
</g>
</svg>
