<?xml version="1.0" encoding="utf-8"?>
<!-- Generator: Adobe Illustrator 23.0.3, SVG Export Plug-In . SVG Version: 6.00 Build 0)  -->
<svg version="1.1" id="XMLID_221_" xmlns="http://www.w3.org/2000/svg" xmlns:xlink="http://www.w3.org/1999/xlink" x="0px" y="0px"
	 viewBox="0 0 24 24" style="enable-background:new 0 0 24 24;" xml:space="preserve">
<g id="shield">
	<path d="M12,24l-4.6-3.7C4,17.2,2,12.9,2,8.3V4.8L12,0l10,4.9v3.5c0,4.6-2,8.9-5.4,12L12,24z M4.5,12c0.7,2.6,2.2,4.9,4.2,6.7
		l2.3,1.9V12H4.5z M13,12v8.6l2.3-1.9c2-1.8,3.4-4.1,4.2-6.7C19.5,12,13,12,13,12z M13,10.1h6.9C20,9.5,20,9,20,8.4V6.1l-7-3.4V10.1
		z M4.1,10.1H11V2.7L4,6.1v2.2C4,9,4,9.5,4.1,10.1z"/>
</g>
</svg>
