<?xml version="1.0" encoding="utf-8"?>
<!-- Generator: Adobe Illustrator 23.0.3, SVG Export Plug-In . SVG Version: 6.00 Build 0)  -->
<svg version="1.1" xmlns="http://www.w3.org/2000/svg" xmlns:xlink="http://www.w3.org/1999/xlink" x="0px" y="0px"
	 viewBox="0 0 24 24" style="enable-background:new 0 0 24 24;" xml:space="preserve">
<g id="shield-configure">
	<path d="M12,24l-4.6-3.7C4,17.2,2,12.8,2,8.3V4.8L12,0l10,4.8v3.5c0,4.6-2,8.9-5.4,12L12,24z M4,6v2.2c0,4,1.7,7.8,4.7,10.5
		l3.3,2.7l3.3-2.7c3-2.6,4.7-6.4,4.7-10.4V6l-8-3.8L4,6z M13,17h-2v-2.1c-0.4-0.1-0.7-0.2-1-0.4l-1.5,1.5l-1.4-1.4L8.6,13
		c-0.2-0.3-0.3-0.7-0.4-1H6v-2h2.1c0.1-0.4,0.2-0.7,0.4-1L7.1,7.5l1.4-1.4L10,7.6c0.3-0.2,0.7-0.3,1-0.4V5h2v2.1
		c0.4,0.1,0.7,0.2,1,0.4l1.5-1.5l1.4,1.4L15.4,9c0.2,0.3,0.3,0.7,0.4,1H18v2h-2.1c-0.1,0.4-0.2,0.7-0.4,1l1.5,1.5l-1.4,1.4L14,14.4
		c-0.3,0.2-0.7,0.3-1,0.4V17z M12,9c-1.1,0-2,0.9-2,2s0.9,2,2,2c1.1,0,2-0.9,2-2S13.1,9,12,9z"/>
</g>
</svg>
