<?xml version="1.0" encoding="utf-8"?>
<!-- Generator: Adobe Illustrator 25.0.1, SVG Export Plug-In . SVG Version: 6.00 Build 0)  -->
<svg version="1.1" id="Layer_1" xmlns="http://www.w3.org/2000/svg" xmlns:xlink="http://www.w3.org/1999/xlink" x="0px" y="0px"
	 viewBox="0 0 24 24" enable-background="new 0 0 24 24" xml:space="preserve">
<path d="M12,0C5.38,0,0,5.38,0,12c0,6.62,5.38,12,12,12c6.62,0,12-5.38,12-12C24,5.38,18.62,0,12,0z M12,22C6.49,22,2,17.51,2,12
	C2,6.49,6.49,2,12,2c5.51,0,10,4.49,10,10C22,17.51,17.51,22,12,22z M20,11v2H4v-2H20z"/>
</svg>
