<?xml version="1.0" encoding="utf-8"?>
<!-- Generator: Adobe Illustrator 23.0.3, SVG Export Plug-In . SVG Version: 6.00 Build 0)  -->
<svg version="1.1" xmlns="http://www.w3.org/2000/svg" xmlns:xlink="http://www.w3.org/1999/xlink" x="0px" y="0px"
	 viewBox="0 0 24 24" enable-background="new 0 0 24 24" xml:space="preserve">
<g id="soa">
	<g>
		<path d="M19,17h-2v-2.1c-0.4-0.1-0.7-0.2-1-0.4l-1.5,1.5l-1.4-1.4l1.5-1.5c-0.2-0.3-0.3-0.7-0.4-1H12v-2h2.1
			c0.1-0.4,0.2-0.7,0.4-1l-1.5-1.5l1.4-1.4L16,7.6c0.3-0.2,0.7-0.3,1-0.4V5h2v2.1c0.4,0.1,0.7,0.2,1,0.4l1.5-1.5l1.4,1.4L21.4,9
			c0.2,0.3,0.3,0.7,0.4,1H24v2h-2.1c-0.1,0.4-0.2,0.7-0.4,1l1.5,1.5l-1.4,1.4L20,14.4c-0.3,0.2-0.7,0.3-1,0.4V17z M18,9
			c-1.1,0-2,0.9-2,2c0,1.1,0.9,2,2,2s2-0.9,2-2C20,9.9,19.1,9,18,9z"/>
	</g>
	<g>
		<path d="M7,12H5V9.9C4.6,9.8,4.3,9.6,4,9.4l-1.5,1.5L1.1,9.5L2.6,8C2.4,7.7,2.2,7.4,2.1,7H0V5h2.1c0.1-0.4,0.2-0.7,0.4-1L1.1,2.5
			l1.4-1.4L4,2.6c0.3-0.2,0.7-0.3,1-0.4V0h2v2.1c0.4,0.1,0.7,0.2,1,0.4l1.5-1.5l1.4,1.4L9.4,4c0.2,0.3,0.3,0.7,0.4,1H12v2H9.9
			C9.8,7.4,9.6,7.7,9.4,8l1.5,1.5l-1.4,1.4L8,9.4C7.7,9.6,7.4,9.8,7,9.9V12z M6,4C4.9,4,4,4.9,4,6s0.9,2,2,2s2-0.9,2-2S7.1,4,6,4z"
			/>
	</g>
	<g>
		<path d="M9,24H7v-2.1c-0.4-0.1-0.7-0.2-1-0.4l-1.5,1.5l-1.4-1.4L4.6,20c-0.2-0.3-0.3-0.7-0.4-1H2v-2h2.1c0.1-0.4,0.2-0.7,0.4-1
			l-1.5-1.5l1.4-1.4L6,14.6c0.3-0.2,0.7-0.3,1-0.4V12h2v2.1c0.4,0.1,0.7,0.2,1,0.4l1.5-1.5l1.4,1.4L11.4,16c0.2,0.3,0.3,0.7,0.4,1
			H14v2h-2.1c-0.1,0.4-0.2,0.7-0.4,1l1.5,1.5l-1.4,1.4L10,21.4c-0.3,0.2-0.7,0.3-1,0.4V24z M8,16c-1.1,0-2,0.9-2,2s0.9,2,2,2
			s2-0.9,2-2S9.1,16,8,16z"/>
	</g>
</g>
</svg>
