<?xml version="1.0" encoding="utf-8"?>
<!-- Generator: Adobe Illustrator 24.0.3, SVG Export Plug-In . SVG Version: 6.00 Build 0)  -->
<svg version="1.1" id="Icon" xmlns="http://www.w3.org/2000/svg" xmlns:xlink="http://www.w3.org/1999/xlink" x="0px" y="0px"
	 viewBox="0 0 24 24" enable-background="new 0 0 24 24" xml:space="preserve">
<path d="M20.59,8.96c0.18,0.18,0.4,0.33,0.64,0.43c0.5,0.21,1.06,0.21,1.55,0c0.48-0.2,0.86-0.59,1.07-1.07
	c0.21-0.5,0.21-1.06,0-1.55c-0.2-0.48-0.59-0.86-1.07-1.07c-0.5-0.21-1.06-0.21-1.55,0c-0.48,0.2-0.86,0.59-1.07,1.07
	c-0.21,0.5-0.21,1.06,0,1.55C20.26,8.56,20.4,8.77,20.59,8.96L20.59,8.96z M20,11.06v6.47h1c0.34,0,0.69-0.04,1.02-0.1
	c0.34-0.06,0.67-0.19,0.97-0.36c0.29-0.17,0.53-0.4,0.72-0.69c0.2-0.32,0.3-0.69,0.28-1.07v-4.24H20z M16.34,8.34
	c0.28,0,0.56-0.06,0.83-0.17c0.51-0.22,0.92-0.63,1.13-1.15c0.22-0.53,0.22-1.14,0-1.67c-0.22-0.52-0.62-0.93-1.13-1.15
	c-0.26-0.11-0.54-0.17-0.83-0.17c-0.28,0-0.56,0.06-0.82,0.17C15.33,4.3,15.27,4.4,15,4.54v3.32c0.27,0.13,0.33,0.24,0.52,0.32
	C15.78,8.29,16.06,8.34,16.34,8.34L16.34,8.34z M15,19.24c0.27,0.06,0.36,0.1,0.55,0.13c0.21,0.03,0.42,0.05,0.63,0.05
	c0.32,0,0.65-0.04,0.96-0.1c0.32-0.07,0.63-0.19,0.91-0.36c0.28-0.17,0.51-0.41,0.68-0.68c0.19-0.32,0.28-0.7,0.27-1.07V9.71h-4
	L15,19.24L15,19.24z M0,2.43V21.3L14,24V0L0,2.43z M10.25,8.9L8,9.01v7.08l-2-0.09V9.07l-2.22,0.1V7.67l6.47-0.39V8.9z"/>
</svg>
