<?xml version="1.0" encoding="utf-8"?>
<!-- Generator: Adobe Illustrator 24.0.3, SVG Export Plug-In . SVG Version: 6.00 Build 0)  -->
<svg version="1.1" id="Icon" xmlns="http://www.w3.org/2000/svg" xmlns:xlink="http://www.w3.org/1999/xlink" x="0px" y="0px"
	 viewBox="0 0 24 24" enable-background="new 0 0 24 24" xml:space="preserve">
<path d="M23.1,10.81c-0.05,0-0.1,0-0.16,0c-0.92,0-7.56,0.73-7.22,1.41c0.33,0.67,4.42,0.99,7.33,1c0.61-0.11,1.05-0.66,1.01-1.29
	C24.01,11.37,23.61,10.93,23.1,10.81 M20.85,17.83c-2.55-1.4-6.29-3.08-6.9-2.65c-0.62,0.43,4.85,4.26,5.66,4.71
	c0.05,0.03,0.1,0.05,0.14,0.07c0.51,0.15,1.07-0.05,1.37-0.51C21.45,18.91,21.33,18.22,20.85,17.83 M20.85,6.31
	c0.48-0.39,0.61-1.08,0.27-1.61c-0.3-0.47-0.86-0.66-1.37-0.51c-0.04,0.02-0.09,0.05-0.14,0.07c-0.81,0.45-6.27,4.28-5.66,4.71
	C14.56,9.39,18.29,7.71,20.85,6.31z M5.53,16.57c-0.76,2.15-1.46,3.15-3.08,3.15c-0.16,0-0.7-0.03-0.73-0.04
	c-0.52-0.03-1.01,0.31-1.15,0.84c-0.16,0.6,0.19,1.21,0.78,1.38C1.78,21.97,2.22,22,2.61,22c2.98,0,3.96-1.71,4.95-4.22l5.81-14.5
	c0.21-0.66-0.16-1.36-0.81-1.57c-0.64-0.2-1.32,0.14-1.55,0.76L6.93,13.27H6.86L2.57,2.39C2.28,1.78,1.56,1.48,0.91,1.72
	C0.25,1.97-0.1,2.7,0.12,3.37L5.53,16.57z"/>
</svg>
