<?xml version="1.0" encoding="utf-8"?>
<!-- Generator: Adobe Illustrator 24.0.3, SVG Export Plug-In . SVG Version: 6.00 Build 0)  -->
<svg version="1.1" id="Icon" xmlns="http://www.w3.org/2000/svg" xmlns:xlink="http://www.w3.org/1999/xlink" x="0px" y="0px"
	 viewBox="0 0 24 24" enable-background="new 0 0 24 24" xml:space="preserve">
<path d="M19,14c-0.5,0-1-0.5-1-1s0.5-1,1-1c0.5,0,1,0.5,1,1S19.5,14,19,14 M15,14c-0.5,0-1-0.5-1-1s0.5-1,1-1
	c0.5,0,1,0.5,1,1S15.5,14,15,14 M21.5,19.23c1.52-1.1,2.5-2.74,2.5-4.55c0-3.33-3.24-6.02-7.23-6.02c-3.99,0-7.23,2.7-7.23,6.02
	s3.24,6.02,7.23,6.02c0.82,0,1.62-0.12,2.36-0.33c0.07-0.02,0.14-0.03,0.21-0.03c0.14,0,0.26,0.04,0.38,0.11l1.58,0.91
	c0.04,0.03,0.09,0.04,0.14,0.04c0.13,0,0.24-0.11,0.24-0.24c0-0.06-0.02-0.12-0.04-0.18c-0.01-0.03-0.2-0.76-0.33-1.22
	c-0.01-0.05-0.03-0.1-0.03-0.15C21.3,19.46,21.38,19.32,21.5,19.23"/>
<path d="M11,8c-0.57,0-1-0.43-1-1s0.43-1,1-1s1,0.43,1,1S11.57,8,11,8 M6,8C5.43,8,5,7.57,5,7s0.43-1,1-1
	c0.57,0,1,0.43,1,1S6.57,8,6,8 M8.67,2C3.88,2,0,5.24,0,9.23c0,2.18,1.17,4.14,3,5.46c0.15,0.1,0.24,0.28,0.24,0.47
	c0,0.06-0.01,0.12-0.03,0.18c-0.15,0.54-0.38,1.42-0.39,1.46c-0.02,0.07-0.05,0.14-0.05,0.21c0,0.16,0.13,0.29,0.29,0.29
	c0.06,0,0.11-0.02,0.17-0.05l1.9-1.1c0.14-0.08,0.29-0.13,0.46-0.13c0.09,0,0.17,0.01,0.26,0.04c0.89,0.25,1.84,0.4,2.83,0.4
	c0.16,0,0.32,0,0.48-0.01c-0.19-0.56-0.29-1.16-0.29-1.77c0-3.64,3.54-6.59,7.91-6.59c0.16,0,0.32,0.01,0.47,0.01
	C16.59,4.64,13,2,8.67,2"/>
</svg>
