<?xml version="1.0" encoding="utf-8"?>
<!-- Generator: Adobe Illustrator 24.3.0, SVG Export Plug-In . SVG Version: 6.00 Build 0)  -->
<svg version="1.1" id="Icon" xmlns="http://www.w3.org/2000/svg" xmlns:xlink="http://www.w3.org/1999/xlink" x="0px" y="0px"
	 viewBox="0 0 24 24" enable-background="new 0 0 24 24" xml:space="preserve">
<path d="M8.5,10.35c0,0.83-0.67,1.5-1.5,1.5s-1.5-0.67-1.5-1.5s0.67-1.5,1.5-1.5S8.5,9.52,8.5,10.35z M12,8.85
	c-0.83,0-1.5,0.67-1.5,1.5s0.67,1.5,1.5,1.5s1.5-0.67,1.5-1.5S12.83,8.85,12,8.85z M17,8.85c-0.83,0-1.5,0.67-1.5,1.5
	s0.67,1.5,1.5,1.5s1.5-0.67,1.5-1.5S17.83,8.85,17,8.85z M24,10.32c0,5.36-5.38,9.71-12,9.71c-1.06,0-2.11-0.11-3.12-0.33
	l-6.59,3.69l1.84-5.73C1.5,15.82,0,13.18,0,10.32c0-5.36,5.38-9.71,12-9.71S24,4.96,24,10.32z M22,10.32c0-4.25-4.49-7.71-10-7.71
	S2,6.07,2,10.32c0,2.38,1.4,4.59,3.84,6.07l0.67,0.41l-0.76,2.37l2.83-1.59l0.38,0.09c0.98,0.24,2,0.36,3.03,0.36
	C17.51,18.03,22,14.57,22,10.32z"/>
</svg>
