<?xml version="1.0" encoding="utf-8"?>
<!-- Generator: Adobe Illustrator 24.0.3, SVG Export Plug-In . SVG Version: 6.00 Build 0)  -->
<svg version="1.1" id="Icon" xmlns="http://www.w3.org/2000/svg" xmlns:xlink="http://www.w3.org/1999/xlink" x="0px" y="0px"
	 viewBox="0 0 24 24" enable-background="new 0 0 24 24" xml:space="preserve">
<path d="M15,3.89v5.67c1.09-0.17,1.98-0.96,2.28-2.02c0.92,0.38,1.7,1.04,2.23,1.87c-1,0.48-1.63,1.49-1.63,2.59
	c0,1.13,0.67,2.11,1.62,2.58c-0.54,0.83-1.32,1.47-2.23,1.85c-0.31-1.04-1.19-1.81-2.27-1.98v5.67c1.34-0.22,2.33-1.32,2.39-2.71
	c1.28-0.46,2.37-1.36,3.06-2.53c0.1,0.01,0.21,0.01,0.31,0.01c1.59,0,2.88-1.29,2.88-2.88c0-1.59-1.3-2.88-2.89-2.88
	c-0.09,0-0.19,0-0.28,0.01c-0.69-1.2-1.79-2.11-3.09-2.58C17.31,5.18,16.32,4.1,15,3.89z M0,2.6l0,18.7L14,24V0L0,2.6z M9.74,15.12
	c-0.19,0.34-0.44,0.62-0.78,0.81c-0.34,0.19-0.66,0.34-1.1,0.43c-0.43,0.1-0.87,0.15-1.35,0.15s-0.96-0.05-1.39-0.15
	c-0.38-0.05-0.75-0.16-1.1-0.33v-1.96c0.34,0.29,0.73,0.52,1.16,0.66c0.43,0.14,0.81,0.24,1.24,0.24c0.24,0,0.48,0,0.67-0.05
	c0.19-0.05,0.34-0.1,0.48-0.2c0.14-0.1,0.24-0.19,0.29-0.28c0.05-0.1,0.09-0.23,0.09-0.33c0-0.19-0.04-0.34-0.13-0.48
	c-0.1-0.14-0.25-0.25-0.39-0.39c-0.19-0.1-0.39-0.23-0.63-0.33s-0.48-0.2-0.76-0.34c-0.67-0.29-1.19-0.62-1.53-1.05
	c-0.34-0.43-0.53-0.91-0.53-1.49c0-0.48,0.09-0.86,0.29-1.2C4.45,8.5,4.69,8.25,5.03,8.01c0.34-0.19,0.68-0.38,1.11-0.48
	C6.57,7.43,6.99,7.4,7.47,7.4h0c0.48,0,0.86,0.04,1.2,0.09c0.34,0.05,0.67,0.14,0.96,0.24V9.6C9.49,9.5,9.34,9.41,9.15,9.32
	C8.99,9.23,8.81,9.16,8.63,9.12C8.44,9.07,8.25,9.03,8.1,9.03C7.93,8.99,7.75,8.97,7.58,8.97c-0.24,0-0.44,0.01-0.63,0.06
	C6.76,9.08,6.61,9.11,6.47,9.21c-0.14,0.1-0.24,0.2-0.29,0.3c-0.05,0.1-0.11,0.23-0.11,0.38c0,0.14,0.06,0.29,0.11,0.39
	c0.1,0.1,0.19,0.23,0.33,0.33c0.14,0.1,0.33,0.19,0.53,0.28c0.19,0.1,0.43,0.2,0.67,0.3c0.34,0.14,0.67,0.29,0.96,0.48
	C8.96,11.81,9.2,12,9.39,12.24c0.19,0.19,0.34,0.43,0.48,0.72c0.1,0.29,0.15,0.58,0.15,0.91C9.97,14.4,9.88,14.78,9.74,15.12z"/>
</svg>
