<?xml version="1.0" encoding="utf-8"?>
<!-- Generator: Adobe Illustrator 23.0.3, SVG Export Plug-In . SVG Version: 6.00 Build 0)  -->
<svg version="1.1" id="XMLID_1_" xmlns="http://www.w3.org/2000/svg" xmlns:xlink="http://www.w3.org/1999/xlink" x="0px" y="0px"
	 viewBox="0 0 24 24" style="enable-background:new 0 0 24 24;" xml:space="preserve">
<g id="social-vimeo">
	<path d="M21.9,7.3c-0.5,2.9-1.7,5.5-3.8,8c-2,2.5-3.8,4.3-5.5,5.4c-1,0.5-1.8,0.5-2.5,0c-0.7-0.4-1.3-1.1-1.7-1.9
		c-0.2-0.4-0.8-2.3-1.7-5.4c-0.9-3.2-1.4-4.9-1.6-5.1C4.9,8,4.6,8,4,8.3S3,8.8,2.8,9L2,7.9l0.9-1.1C3.6,6,4.4,5.3,5.4,4.5
		S7.2,3.3,8,3.1c1-0.2,1.7,0.3,2.2,1.5c0.3,0.7,0.6,2,0.9,3.8c0,0.4,0.2,0.9,0.4,1.8c0.7,2.8,1.2,4.3,1.6,4.3c0.6,0,1.5-1.3,2.8-3.8
		c0.6-1.1,0.6-2.1,0.1-2.8c-0.5-0.7-1.3-0.8-2.5,0c0.2-1.2,0.7-2.2,1.5-3c1.5-1.6,3.1-2.2,4.8-1.8C21.6,3.4,22.3,4.8,21.9,7.3
		L21.9,7.3z"/>
</g>
</svg>
