<?xml version="1.0" encoding="utf-8"?>
<!-- Generator: Adobe Illustrator 24.0.3, SVG Export Plug-In . SVG Version: 6.00 Build 0)  -->
<svg version="1.1" id="Icon" xmlns="http://www.w3.org/2000/svg" xmlns:xlink="http://www.w3.org/1999/xlink" x="0px" y="0px"
	 viewBox="0 0 24 24" enable-background="new 0 0 24 24" xml:space="preserve">
<path d="M8.31,14.96c3.42-0.21,6.33-1.27,8.38-4.3c1.94-2.87,1.89-5.68,0.07-8.15c-2.12-2.87-7.01-2.4-7.01-2.4s4.53-0.88,8.85,2.33
	c4.32,3.21,5.6,8.89,3.24,13.36s-6.56,6.27-11.04,5.89C7.74,24.15,4.02,24,4.02,24s1.42-1.29,2.96-3.25
	C5,19.92,1.46,17.72,0.79,13.6c-0.67-4.12,1.2-5.92,1.2-5.92C-0.28,12.28,4.57,15.19,8.31,14.96z M17.79,7.34
	c0,0,0.74-5.07-4.51-6.73C10.5-0.27,7.16,0.5,5.22,1.87C3.21,3.29,2.26,5.46,2.39,5.82C2.55,6.28,4.02,4.5,6.89,3.8
	C9.88,3.07,14.6,3.67,17.79,7.34z M14.28,12.76C14.04,7.77,8.02,4.06,3.59,6.46c3.12-1.27,6.08,0.26,6.94,4.12
	c0.44,1.96-0.05,3.8-0.05,3.8S13.09,13.93,14.28,12.76z M10.41,10.94C9.58,4.76,2.13,5.05,1.6,9.19c-0.31,2.42,1.02,3.33,1.02,3.33
	C4.36,9.32,8.93,9.86,10.41,10.94z"/>
</svg>
