<?xml version="1.0" encoding="utf-8"?>
<!-- Generator: Adobe Illustrator 23.0.3, SVG Export Plug-In . SVG Version: 6.00 Build 0)  -->
<svg version="1.1" xmlns="http://www.w3.org/2000/svg" xmlns:xlink="http://www.w3.org/1999/xlink" x="0px" y="0px"
	 viewBox="0 0 24 24" style="enable-background:new 0 0 24 24;" xml:space="preserve">
<g id="social-slack">
	<path d="M11,4v2H9C7.9,6,7,5.1,7,4s0.9-2,2-2S11,2.9,11,4z M9,7H4C2.9,7,2,7.9,2,9s0.9,2,2,2h5c1.1,0,2-0.9,2-2S10.1,7,9,7z M21,9
		c0-1.1-0.9-2-2-2s-2,0.9-2,2v2h2C20.1,11,21,10.1,21,9z M14,11c1.1,0,2-0.9,2-2V4c0-1.1-0.9-2-2-2s-2,0.9-2,2v5
		C12,10.1,12.9,11,14,11z M14,17h-2v2c0,1.1,0.9,2,2,2s2-0.9,2-2S15.1,17,14,17z M19,12h-5c-1.1,0-2,0.9-2,2s0.9,2,2,2h5
		c1.1,0,2-0.9,2-2S20.1,12,19,12z M2,14c0,1.1,0.9,2,2,2s2-0.9,2-2v-2H4C2.9,12,2,12.9,2,14z M9,12c-1.1,0-2,0.9-2,2v5
		c0,1.1,0.9,2,2,2s2-0.9,2-2v-5C11,12.9,10.1,12,9,12z"/>
</g>
</svg>
