<?xml version="1.0" encoding="utf-8"?>
<!-- Generator: Adobe Illustrator 24.0.3, SVG Export Plug-In . SVG Version: 6.00 Build 0)  -->
<svg version="1.1" id="Icon" xmlns="http://www.w3.org/2000/svg" xmlns:xlink="http://www.w3.org/1999/xlink" x="0px" y="0px"
	 viewBox="0 0 24 24" enable-background="new 0 0 24 24" xml:space="preserve">
<path fill-rule="evenodd" clip-rule="evenodd" d="M20.48,16.95c-0.32,0.38-0.89,0.96-1.81,0.96c-1.29,0-1.7-0.92-2.09-1.89
	l-1.93-4.73l-1.93,4.73c-0.33,0.81-0.68,1.9-2.09,1.9c-1.41,0-1.77-1.09-2.1-1.9L5.28,8.06h2.74l2.61,6.55l1.94-4.77
	c0.31-0.76,0.67-1.9,2.08-1.9c1.4,0,1.77,1.14,2.08,1.9L18.84,15c0.85-1.28,1.35-2.81,1.35-4.46c0-4.46-3.64-8.08-8.12-8.08
	c-2.56,0-4.97,0.99-6.78,2.79C3.47,7.06,2.48,9.45,2.48,12s1,4.94,2.81,6.74c1.81,1.8,4.22,2.79,6.78,2.79
	c0.88,0,1.75-0.12,2.59-0.35v2.53C13.8,23.91,12.94,24,12.07,24c-1.63,0-3.21-0.32-4.7-0.94c-1.44-0.6-2.73-1.47-3.83-2.57
	c-1.11-1.1-1.98-2.38-2.58-3.81C0.32,15.19,0,13.62,0,12s0.32-3.19,0.95-4.67C1.56,5.9,2.43,4.62,3.53,3.51
	c1.11-1.1,2.4-1.97,3.83-2.57C8.85,0.32,10.43,0,12.06,0c5.85,0,10.6,4.72,10.6,10.54C22.66,12.95,21.85,15.17,20.48,16.95
	L20.48,16.95z"/>
</svg>
