<?xml version="1.0" encoding="utf-8"?>
<!-- Generator: Adobe Illustrator 23.0.3, SVG Export Plug-In . SVG Version: 6.00 Build 0)  -->
<svg version="1.1" xmlns="http://www.w3.org/2000/svg" xmlns:xlink="http://www.w3.org/1999/xlink" x="0px" y="0px"
	 viewBox="0 0 24 24" style="enable-background:new 0 0 24 24;" xml:space="preserve">
<g id="social-medium">
	<path class="st0" d="M0,0v24h24V0H0z M19.9,5.7l-1.3,1.2c-0.1,0.1-0.1,0.2-0.1,0.4v9.1c0,0.1,0,0.3,0.1,0.4l1.3,1.2v0.3h-6.3v-0.3
		l1.3-1.3c0.1-0.1,0.1-0.2,0.1-0.4V9l-3.6,9.2h-0.5L6.7,9v6.2c0,0.3,0.1,0.5,0.2,0.7l1.7,2.1v0.3H3.8v-0.3l1.7-2.1
		c0.2-0.2,0.3-0.5,0.2-0.7V8c0-0.2-0.1-0.4-0.2-0.5L4,5.7V5.4h4.7l3.6,7.9l3.2-7.9h4.5V5.7z"/>
</g>
</svg>
