<?xml version="1.0" encoding="utf-8"?>
<!-- Generator: Adobe Illustrator 24.0.3, SVG Export Plug-In . SVG Version: 6.00 Build 0)  -->
<svg version="1.1" id="Icon" xmlns="http://www.w3.org/2000/svg" xmlns:xlink="http://www.w3.org/1999/xlink" x="0px" y="0px"
	 viewBox="0 0 24 24" enable-background="new 0 0 24 24" xml:space="preserve">
<path d="M23.12,13.96c0.12-0.64,0.16-1.28,0.16-1.96c0-6.24-5.04-11.28-11.28-11.28c-0.68,0-1.32,0.04-1.96,0.16
	C9.04,0.32,7.92,0,6.72,0C3,0,0,3,0,6.72c0,1.2,0.32,2.36,0.88,3.32C0.76,10.68,0.72,11.32,0.72,12c0,6.24,5.04,11.28,11.28,11.28
	c0.68,0,1.32-0.04,1.96-0.16c1,0.56,2.12,0.88,3.32,0.88C21,24,24,21,24,17.28C24,16.08,23.68,14.96,23.12,13.96L23.12,13.96z
	 M17.28,22.28c-0.88,0-1.72-0.24-2.48-0.64l-0.52-0.32l-0.6,0.12C13.16,21.52,12.6,21.6,12,21.6c-5.28,0-9.56-4.28-9.56-9.56
	c0-0.56,0.04-1.12,0.16-1.68l0.12-0.6L2.36,9.2C1.92,8.44,1.72,7.6,1.72,6.72c0-2.76,2.24-5,5-5c0.88,0,1.72,0.24,2.48,0.64
	l0.52,0.32l0.6-0.12C10.88,2.48,11.44,2.4,12,2.4c5.28,0,9.56,4.28,9.56,9.56c0,0.56-0.04,1.12-0.16,1.68l-0.12,0.6l0.32,0.52
	c0.44,0.76,0.64,1.6,0.64,2.48C22.28,20.04,20.04,22.28,17.28,22.28L17.28,22.28z M14.04,10.92l-2.52-0.56
	c-0.96-0.24-2.04-0.52-2.04-1.44s0.76-1.56,2.16-1.56c2.84,0,2.6,1.96,4,1.96c0.72,0,1.36-0.4,1.36-1.16c0-1.76-2.8-3.08-5.2-3.08
	c-2.56,0-5.28,1.04-5.28,4c0,1.4,0.48,2.92,3.24,3.64l3.44,0.88c1.04,0.24,1.36,0.84,1.36,1.36c0,0.88-0.92,1.84-2.48,1.84
	c-3.08,0-2.64-2.44-4.28-2.44c-0.72,0-1.32,0.52-1.32,1.24c0,1.44,1.76,3.4,5.6,3.4c3.68,0,5.52-1.84,5.52-4.24
	C17.56,13.16,16.84,11.56,14.04,10.92L14.04,10.92z"/>
</svg>
