<?xml version="1.0" encoding="utf-8"?>
<!-- Generator: Adobe Illustrator 25.0.1, SVG Export Plug-In . SVG Version: 6.00 Build 0)  -->
<svg version="1.1" id="Icon" xmlns="http://www.w3.org/2000/svg" xmlns:xlink="http://www.w3.org/1999/xlink" x="0px" y="0px"
	 viewBox="0 0 24 24" enable-background="new 0 0 24 24" xml:space="preserve">
<path d="M17,10.051v6c0,1.105-0.895,2-2,2H4c-2.209,0-4-1.791-4-4v-6c0-1.105,0.895-2,2-2h11C15.209,6.051,17,7.842,17,10.051z
	 M23.651,6.356c-0.466-0.406-1.222-0.407-1.689-0.002l-3.149,2.732C18.293,9.537,18,10.15,18,10.79v2.522
	c0,0.639,0.293,1.252,0.813,1.704l3.149,2.732c0.224,0.194,0.527,0.303,0.843,0.303c0.66,0,1.194-0.465,1.194-1.038V7.089
	C24,6.814,23.875,6.551,23.651,6.356z"/>
</svg>
