<?xml version="1.0" encoding="utf-8"?>
<!-- Generator: Adobe Illustrator 25.0.1, SVG Export Plug-In . SVG Version: 6.00 Build 0)  -->
<svg version="1.1" id="Icon" xmlns="http://www.w3.org/2000/svg" xmlns:xlink="http://www.w3.org/1999/xlink" x="0px" y="0px"
	 viewBox="0 0 24 24" enable-background="new 0 0 24 24" xml:space="preserve">
<path d="M0.086,12L12,23.914L23.914,12L12,0.086L0.086,12z M14.598,18.488c-0.091-1.03-0.507-2.014-1.23-2.941L16.914,12
	l-4.207-4.207c-0.894-0.894-1.339-1.826-1.325-2.771c0.012-0.817,0.359-1.531,0.691-2.034L21.086,12L14.598,18.488z M12,9.914
	L14.086,12L12,14.086L9.914,12L12,9.914z M9.402,5.512c0.091,1.03,0.507,2.014,1.23,2.941L7.086,12l4.207,4.207
	c0.894,0.894,1.339,1.826,1.325,2.771c-0.012,0.817-0.359,1.531-0.691,2.034L2.914,12L9.402,5.512z"/>
</svg>
