<?xml version="1.0" encoding="utf-8"?>
<!-- Generator: Adobe Illustrator 23.0.3, SVG Export Plug-In . SVG Version: 6.00 Build 0)  -->
<svg version="1.1" xmlns="http://www.w3.org/2000/svg" xmlns:xlink="http://www.w3.org/1999/xlink" x="0px" y="0px"
	 viewBox="0 0 24 24" style="enable-background:new 0 0 24 24;" xml:space="preserve">
<g id="social-linkedin">
	<path d="M22.2,0H1.8C0.8,0,0,0.8,0,1.8v20.5c0,1,0.8,1.8,1.8,1.8h20.5c1,0,1.8-0.8,1.8-1.8V1.8C24,0.8,23.2,0,22.2,0z M7.2,20.4
		H3.5V9h3.6V20.4z M5.3,7.4c-1.1,0-2.1-0.9-2.1-2.1s0.9-2.1,2.1-2.1s2.1,0.9,2.1,2.1S6.5,7.4,5.3,7.4z M20.5,20.5h-3.6v-6.3
		c0-1.8-0.8-2.4-1.8-2.4c-1.1,0-2.1,0.8-2.1,2.5v6.2H9.3V9h3.5v1.6h0c0.3-0.7,1.6-1.9,3.4-1.9c2,0,4.2,1.2,4.2,4.7V20.5z"/>
</g>
</svg>
