<?xml version="1.0" encoding="utf-8"?>
<!-- Generator: Adobe Illustrator 24.0.3, SVG Export Plug-In . SVG Version: 6.00 Build 0)  -->
<svg version="1.1" id="Icon" xmlns="http://www.w3.org/2000/svg" xmlns:xlink="http://www.w3.org/1999/xlink" x="0px" y="0px"
	 viewBox="0 0 24 24" enable-background="new 0 0 24 24" xml:space="preserve">
<path d="M23,11.58c0,2.78-2.26,5.04-5.04,5.04c-0.19,0-0.38-0.01-0.57-0.04c-0.7,1.16-1.96,1.87-3.32,1.87
	c-0.43,0-0.85-0.07-1.25-0.21c-0.74,1.25-2.09,2.04-3.56,2.04c-1.57,0-3.02-0.92-3.7-2.31C3.1,18.24,1,16.29,1,13.88
	c0-1.27,0.58-2.46,1.58-3.24c-0.13-0.44-0.2-0.89-0.2-1.34c0-2.53,2.06-4.58,4.58-4.58c1.33,0,2.59,0.57,3.46,1.58
	c0.72-0.72,1.71-1.12,2.73-1.12c1.26,0,2.45,0.62,3.18,1.65c0.52-0.18,1.07-0.27,1.63-0.27C20.74,6.54,23,8.8,23,11.58z"/>
</svg>
