<?xml version="1.0" encoding="utf-8"?>
<!-- Generator: Adobe Illustrator 23.0.3, SVG Export Plug-In . SVG Version: 6.00 Build 0)  -->
<svg version="1.1" xmlns="http://www.w3.org/2000/svg" xmlns:xlink="http://www.w3.org/1999/xlink" x="0px" y="0px"
	 viewBox="0 0 24 24" style="enable-background:new 0 0 24 24;" xml:space="preserve">
<g id="social-reddit">
	<path d="M12,0C5.4,0,0,5.4,0,12s5.4,12,12,12s12-5.4,12-12S18.6,0,12,0z M18.9,13.6c0,0.2,0,0.4,0,0.6c0,2.7-3.1,4.9-7,4.9
		s-7-2.2-7-4.9c0-0.2,0-0.4,0-0.5C4.4,13.3,4,12.7,4,12c0-1,0.8-1.7,1.7-1.7c0.5,0,0.9,0.2,1.2,0.5c1.2-0.9,2.9-1.5,4.8-1.5l0.9-4.2
		c0-0.2,0.2-0.3,0.4-0.2l2.9,0.6C16.1,5,16.5,4.8,17,4.8c0.7,0,1.3,0.6,1.3,1.3S17.7,7.3,17,7.3c-0.7,0-1.2-0.5-1.2-1.2l-2.6-0.6
		l-0.8,3.7c1.8,0.1,3.5,0.6,4.7,1.5c0.3-0.3,0.7-0.5,1.2-0.5c1,0,1.7,0.8,1.7,1.7C20,12.7,19.6,13.3,18.9,13.6z"/>
	<circle cx="9.2" cy="13.3" r="1.3"/>
	<circle cx="14.7" cy="13.3" r="1.3"/>
	<path d="M14.6,16.1c0,0-0.1,0.1-0.1,0.1c-0.3,0.3-0.7,0.7-2.5,0.7c-1.6,0-2.5-0.8-2.5-0.8c-0.1-0.1-0.3-0.1-0.4,0
		c-0.1,0.1-0.1,0.3,0,0.4c0,0,1,0.9,2.9,0.9c2.1,0,2.6-0.5,2.9-0.8c0,0,0.1-0.1,0.1-0.1c0.1-0.1,0.1-0.3,0-0.4
		C14.9,16,14.7,15.9,14.6,16.1z"/>
</g>
</svg>
