<?xml version="1.0" encoding="utf-8"?>
<!-- Generator: Adobe Illustrator 23.0.3, SVG Export Plug-In . SVG Version: 6.00 Build 0)  -->
<svg version="1.1" xmlns="http://www.w3.org/2000/svg" xmlns:xlink="http://www.w3.org/1999/xlink" x="0px" y="0px"
	 viewBox="0 0 24 24" enable-background="new 0 0 24 24" xml:space="preserve">
<g id="stakeholder">
	<path d="M18,1.9l-6,3V12l6,3l6-3V4.8L18,1.9z M20.7,5.5L18,6.8l-2.7-1.3L18,4.1L20.7,5.5z M14,7.1l3,1.5v3.7l-3-1.5V7.1z M19,12.2
		V8.5l3-1.5v3.7L19,12.2z"/>
	<path d="M8.9,13.8C9.6,13.1,10,12.1,10,11c0-2.2-1.8-4-4-4s-4,1.8-4,4c0,1.1,0.4,2.1,1.1,2.8C1.3,14.9,0,16.9,0,19.2V22h2.7h0.8H12
		v-2.8C12,16.8,10.7,14.8,8.9,13.8z M4,11c0-1.1,0.9-2,2-2s2,0.9,2,2c0,1.1-0.9,2-2,2S4,12.1,4,11z M10,20H3.5H2.7H2v-0.8
		C2,16.9,3.8,15,6,15c2.2,0,4,1.9,4,4.2V20z"/>
</g>
</svg>
