<?xml version="1.0" encoding="utf-8"?>
<!-- Generator: Adobe Illustrator 23.0.3, SVG Export Plug-In . SVG Version: 6.00 Build 0)  -->
<svg version="1.1" id="XMLID_51_" xmlns="http://www.w3.org/2000/svg" xmlns:xlink="http://www.w3.org/1999/xlink" x="0px" y="0px"
	 viewBox="0 0 24 24" style="enable-background:new 0 0 24 24;" xml:space="preserve">
<g id="star-half">
	<g>
		<path d="M12,4.5l2.2,4.4l0.6,1.1H16h3.3l-2.8,2.9l-0.8,0.8l0.3,1.1l1.2,5L13,17.2l-1-0.6l-1,0.6l-4.3,2.6l1.2-5l0.3-1.1l-0.8-0.8
			L4.6,10h3.3h1.2l0.6-1.1L12,4.5 M12,0L8,8H0l6,6.3L3.6,24l8.4-5.1l8.4,5.1L18,14.3L24,8h-8L12,0L12,0z"/>
	</g>
	<polygon points="12,18.9 3.6,24 6,14.3 0,8 8,8 12,0 	"/>
</g>
</svg>
