<?xml version="1.0" encoding="utf-8"?>
<!-- Generator: Adobe Illustrator 23.0.1, SVG Export Plug-In . SVG Version: 6.00 Build 0)  -->
<svg version="1.1" id="Filled_Icons" xmlns="http://www.w3.org/2000/svg" xmlns:xlink="http://www.w3.org/1999/xlink" x="0px"
	 y="0px" viewBox="0 0 24 24" enable-background="new 0 0 24 24" xml:space="preserve">
<g id="Status-Warning-Filled_1_">
	<path d="M23.89,22.57L23.89,22.57l-11-22.02h-0.01C12.71,0.23,12.39,0,12,0s-0.71,0.23-0.88,0.55h-0.01L0.1,22.56l0.01,0.01
		C0.04,22.7,0,22.84,0,23c0,0.55,0.45,1,1,1h22.02l0,0c0.54-0.01,0.98-0.45,0.98-1C24,22.84,23.96,22.7,23.89,22.57z M13.5,20h-3v-3
		h3V20z M13.5,15h-3V7h3V15z"/>
</g>
</svg>
