<?xml version="1.0" encoding="utf-8"?>
<!-- Generator: Adobe Illustrator 22.1.0, SVG Export Plug-In . SVG Version: 6.00 Build 0)  -->
<svg version="1.1" id="Filled_Icons" xmlns="http://www.w3.org/2000/svg" xmlns:xlink="http://www.w3.org/1999/xlink" x="0px"
	 y="0px" viewBox="0 0 24 24" enable-background="new 0 0 24 24" xml:space="preserve">
<g id="Street-View-Filled">
	<path d="M20,24H4v-2h16V24z M12,1C9.79,1,8,2.79,8,5s1.79,4,4,4s4-1.79,4-4S14.21,1,12,1z M12,9c0,0,0.04,0,0.02,0
		C8.79,9.03,6,11.66,6,14.89V17h3v5h6v-5h3v-2.11c0-3.23-2.76-5.86-5.98-5.89C12,9,12,9,12,9"/>
</g>
</svg>
