<?xml version="1.0" encoding="utf-8"?>
<!-- Generator: Adobe Illustrator 23.0.3, SVG Export Plug-In . SVG Version: 6.00 Build 0)  -->
<svg version="1.1" id="XMLID_178_" xmlns="http://www.w3.org/2000/svg" xmlns:xlink="http://www.w3.org/1999/xlink" x="0px" y="0px"
	 viewBox="0 0 24 24" style="enable-background:new 0 0 24 24;" xml:space="preserve">
<g id="street-view">
	<g>
		<path d="M20,24H4v-2h4v-4H5v-3.1c0-2.6,1.6-4.9,3.8-6.1C7.7,7.9,7,6.5,7,5c0-2.8,2.2-5,5-5s5,2.2,5,5c0,1.5-0.7,2.9-1.8,3.8
			c2.3,1.2,3.8,3.5,3.8,6.1V18h-3v4h4V24z M10,22h4v-6h3v-1.1c0-2.6-2.3-4.9-5-4.9s-5,2.3-5,4.9V16h3V22z M12,2c-1.7,0-3,1.3-3,3
			s1.3,3,3,3s3-1.3,3-3S13.7,2,12,2z"/>
	</g>
</g>
</svg>
