<?xml version="1.0" encoding="utf-8"?>
<!-- Generator: Adobe Illustrator 23.0.3, SVG Export Plug-In . SVG Version: 6.00 Build 0)  -->
<svg version="1.1" id="XMLID_220_" xmlns="http://www.w3.org/2000/svg" xmlns:xlink="http://www.w3.org/1999/xlink" x="0px" y="0px"
	 viewBox="0 0 24 24" style="enable-background:new 0 0 24 24;" xml:space="preserve">
<g id="support">
	<g>
		<path d="M12,24C5.4,24,0,18.6,0,12S5.4,0,12,0s12,5.4,12,12S18.6,24,12,24z M10,21.8c1.3,0.3,2.7,0.3,4,0v-4.1
			c-1.3,0.4-2.7,0.4-4,0V21.8z M16,16.5v4.7c2.3-1,4.2-2.9,5.2-5.2h-4.7C16.3,16.2,16.2,16.3,16,16.5z M2.8,16
			c1,2.3,2.9,4.2,5.2,5.2v-4.7c-0.2-0.1-0.3-0.3-0.5-0.5H2.8z M12,8c-2.2,0-4,1.8-4,4s1.8,4,4,4s4-1.8,4-4S14.2,8,12,8z M17.7,14
			h4.1c0.1-0.6,0.2-1.3,0.2-2s-0.1-1.4-0.2-2h-4.1c0.2,0.6,0.3,1.3,0.3,2S17.9,13.4,17.7,14z M2.2,14h4.1C6.1,13.4,6,12.7,6,12
			s0.1-1.4,0.3-2H2.2C2.1,10.6,2,11.3,2,12S2.1,13.4,2.2,14z M16.5,8h4.7c-1-2.3-2.9-4.2-5.2-5.2v4.7C16.2,7.7,16.3,7.8,16.5,8z
			 M2.8,8h4.7C7.6,7.8,7.8,7.7,8,7.5V2.8C5.7,3.8,3.8,5.7,2.8,8z M12,6c0.7,0,1.4,0.1,2,0.3V2.2c-1.3-0.3-2.7-0.3-4,0v4.1
			C10.6,6.1,11.3,6,12,6z"/>
	</g>
</g>
</svg>
