<?xml version="1.0" encoding="utf-8"?>
<!-- Generator: Adobe Illustrator 24.3.0, SVG Export Plug-In . SVG Version: 6.00 Build 0)  -->
<svg version="1.1" id="Icon" xmlns="http://www.w3.org/2000/svg" xmlns:xlink="http://www.w3.org/1999/xlink" x="0px" y="0px"
	 viewBox="0 0 24 24" enable-background="new 0 0 24 24" xml:space="preserve">
<path d="M16.55,5.15L16.24,5c-1.14-0.49-2.41-0.69-3.64-0.77c-1.57-0.07-2.57,0.03-4.07,0.48C8.28,4.79,7.68,5.04,7.43,5.13l0,3.01
	l12.39,3.57l-0.02,4.67c-0.02,1.94-0.67,2.87-2.29,3.78c-1.75,0.92-3.78,1.96-5.53,2.87c0,0-3.79-1.96-5.56-2.9
	c-1.18-0.63-1.94-1.6-2.17-2.94c-0.05-0.28-0.06-0.57-0.07-0.85c-0.01-0.78,0-2.55,0-2.67c0.11,0.03,3.24,0.96,3.24,0.96v1.71
	c-0.02,0.58,0.22,0.86,0.59,1.04L12,19.33l4.02-1.98c0.42-0.21,0.54-0.47,0.54-0.93l-0.01-2.46L4.19,10.39
	c0-1.83-0.01-3.89,0.01-5.71C4.2,3.68,4.66,2.96,5.54,2.49c1.42-0.75,2.94-1.18,4.53-1.38c1.02-0.13,2.05-0.15,3.07-0.08
	C15,1.16,16.78,1.6,18.44,2.49c0.65,0.35,1.12,0.85,1.28,1.59c0.04,0.2,0.07,0.41,0.07,0.61c0.01,1.17,0.02,3.73,0.02,3.73
	l-3.25-0.95"/>
</svg>
