<?xml version="1.0" encoding="utf-8"?>
<!-- Generator: Adobe Illustrator 23.0.3, SVG Export Plug-In . SVG Version: 6.00 Build 0)  -->
<svg version="1.1" id="XMLID_208_" xmlns="http://www.w3.org/2000/svg" xmlns:xlink="http://www.w3.org/1999/xlink" x="0px" y="0px"
	 viewBox="0 0 24 24" enable-background="new 0 0 24 24" xml:space="preserve">
<g id="system">
	<g>
		<path d="M19,24H5v-2h2v-2H0V0h24v20h-7v2h2V24z M9,22h6v-2H9V22z M17,18h5V2H2v16H17z M13,16h-2v-2.1c-0.4-0.1-0.7-0.2-1-0.4
			L8.5,15l-1.4-1.4l1.5-1.5c-0.2-0.3-0.3-0.7-0.4-1H6v-2h2.1c0.1-0.4,0.2-0.7,0.4-1L7,6.6l1.4-1.4l1.5,1.5c0.3-0.2,0.7-0.3,1-0.4V4
			h2v2.1c0.4,0.1,0.7,0.2,1,0.4L15.4,5l1.4,1.4L15.4,8c0.2,0.3,0.3,0.7,0.4,1H18v2h-2.1c-0.1,0.4-0.2,0.7-0.4,1l1.5,1.5l-1.4,1.4
			L14,13.4c-0.3,0.2-0.7,0.3-1,0.4C13,13.8,13,16,13,16z M12,8c-1.1,0-2,0.9-2,2c0,1.1,0.9,2,2,2s2-0.9,2-2S13.1,8,12,8z"/>
	</g>
</g>
</svg>
