<?xml version="1.0" encoding="utf-8"?>
<!-- Generator: Adobe Illustrator 23.0.3, SVG Export Plug-In . SVG Version: 6.00 Build 0)  -->
<svg version="1.1" id="XMLID_88_" xmlns="http://www.w3.org/2000/svg" xmlns:xlink="http://www.w3.org/1999/xlink" x="0px" y="0px"
	 viewBox="0 0 24 24" enable-background="new 0 0 24 24" xml:space="preserve">
<g id="table">
	<g>
		<path d="M23,24H0V0h23V24z M16,22h5v-4h-5V22z M9,22h5v-4H9V22z M2,22h5v-4H2V22z M16,16h5V6h-5v4h5v2h-5V16z M9,16h5v-4H9V16z
			 M2,16h5v-4H2V16z M9,10h5V6H9V10z M2,10h5V6H2V10z M2,4h19V2H2V4z"/>
	</g>
</g>
</svg>
