<?xml version="1.0" encoding="utf-8"?>
<!-- Generator: Adobe Illustrator 23.0.3, SVG Export Plug-In . SVG Version: 6.00 Build 0)  -->
<svg version="1.1" xmlns="http://www.w3.org/2000/svg" xmlns:xlink="http://www.w3.org/1999/xlink" x="0px" y="0px"
	 viewBox="0 0 24 24" style="enable-background:new 0 0 24 24;" xml:space="preserve">
<g id="table-add">
	<path d="M22,12.1V6V4V0H-1v4v2v18h14h2h2c3.9,0,7-3.1,7-7C24,15.1,23.2,13.4,22,12.1z M20,10h-5V6h5V10z M10.1,18
		c0.2,1.6,1,2.9,2,4H8v-4H10.1z M10.1,16H8v-4h4.1C11,13.1,10.3,14.4,10.1,16z M6,16H1v-4h5V16z M13,6v4H8V6H13z M1,2h19v2H1V2z
		 M6,6v4H1V6H6z M1,18h5v4H1V18z M17,22c-2.8,0-5-2.2-5-5s2.2-5,5-5s5,2.2,5,5S19.8,22,17,22z"/>
	<polygon points="18,13.6 16,13.6 16,16 13.6,16 13.6,18 16,18 16,20.4 18,20.4 18,18 20.4,18 20.4,16 18,16 	"/>
</g>
</svg>
