<?xml version="1.0" encoding="utf-8"?>
<!-- Generator: Adobe Illustrator 23.0.3, SVG Export Plug-In . SVG Version: 6.00 Build 0)  -->
<svg version="1.1" id="XMLID_177_" xmlns="http://www.w3.org/2000/svg" xmlns:xlink="http://www.w3.org/1999/xlink" x="0px" y="0px"
	 viewBox="0 0 24 24" style="enable-background:new 0 0 24 24;" xml:space="preserve">
<g id="target">
	<g>
		<path d="M12,24C5.4,24,0,18.6,0,12S5.4,0,12,0s12,5.4,12,12S18.6,24,12,24z M12,2C6.5,2,2,6.5,2,12s4.5,10,10,10s10-4.5,10-10
			S17.5,2,12,2z M12,19c-3.9,0-7-3.1-7-7s3.1-7,7-7s7,3.1,7,7S15.9,19,12,19z M12,7c-2.8,0-5,2.2-5,5s2.2,5,5,5s5-2.2,5-5
			S14.8,7,12,7z M12,14c-1.1,0-2-0.9-2-2c0-1.1,0.9-2,2-2s2,0.9,2,2C14,13.1,13.1,14,12,14z M12,12L12,12h1H12z"/>
	</g>
</g>
</svg>
