<?xml version="1.0" encoding="utf-8"?>
<!-- Generator: Adobe Illustrator 23.0.3, SVG Export Plug-In . SVG Version: 6.00 Build 0)  -->
<svg version="1.1" id="XMLID_119_" xmlns="http://www.w3.org/2000/svg" xmlns:xlink="http://www.w3.org/1999/xlink" x="0px" y="0px"
	 viewBox="0 0 24 24" style="enable-background:new 0 0 24 24;" xml:space="preserve">
<g id="tesxt-wrap">
	<g>
		<path d="M24,23H0v-2h24V23z M24,19H0v-2h24V19z M24,15h-7v-2h7V15z M24,11h-7V9h7V11z M24,7h-7V5h7V7z M24,3h-7V1h7V3z"/>
	</g>
	<g>
		<path d="M15,15H0V1h15V15z M2,13h11V3H2V13z"/>
	</g>
	<g>
		<polyline points="2.2,13 5,9 8.2,13.5 		"/>
	</g>
	<g>
		<polyline points="6.6,13 10,8 13.9,13.5 		"/>
	</g>
	<g>
		<circle cx="5" cy="6" r="2"/>
	</g>
</g>
</svg>
