<?xml version="1.0" encoding="utf-8"?>
<!-- Generator: Adobe Illustrator 23.0.3, SVG Export Plug-In . SVG Version: 6.00 Build 0)  -->
<svg version="1.1" xmlns="http://www.w3.org/2000/svg" xmlns:xlink="http://www.w3.org/1999/xlink" x="0px" y="0px"
	 viewBox="0 0 24 24" enable-background="new 0 0 24 24" xml:space="preserve">
<g id="threats">
	<path d="M20,2v1c0,0.6-0.4,1-1,1h-1c-0.6,0-1-0.4-1-1c0-1.7-1.3-3-3-3h-1c-1.7,0-3,1.3-3,3v3H7.5v2.9C4.8,10.2,3,13,3,16
		c0,4.4,3.6,8,8,8s8-3.6,8-8c0-3-1.8-5.8-4.5-7.1V6H12V3c0-0.6,0.4-1,1-1h1c0.6,0,1,0.4,1,1c0,1.7,1.3,3,3,3h1c1.7,0,3-1.3,3-3V2H20
		z M13.1,10.4c2.3,0.9,3.9,3.2,3.9,5.6c0,3.3-2.7,6-6,6s-6-2.7-6-6c0-2.4,1.6-4.6,3.9-5.6l0.6-0.3V8h3v2.2L13.1,10.4z"/>
	<path d="M11,14.6l1.8-1.8l1.4,1.4L12.4,16l1.8,1.8l-1.4,1.4L11,17.4l-1.8,1.8l-1.4-1.4L9.6,16l-1.8-1.8l1.4-1.4L11,14.6z"/>
</g>
</svg>
