<?xml version="1.0" encoding="utf-8"?>
<!-- Generator: Adobe Illustrator 23.0.3, SVG Export Plug-In . SVG Version: 6.00 Build 0)  -->
<svg version="1.1" id="XMLID_245_" xmlns="http://www.w3.org/2000/svg" xmlns:xlink="http://www.w3.org/1999/xlink" x="0px" y="0px"
	 viewBox="0 0 24 24" style="enable-background:new 0 0 24 24;" xml:space="preserve">
<g id="ticket">
	<g>
		<path d="M24,21H0v-7h1c1.1,0,2-0.9,2-2c0-1.1-0.9-2-2-2H0V3h24v7h-1c-1.1,0-2,0.9-2,2c0,1.1,0.9,2,2,2h1V21z M2,19h20v-3.1
			c-1.7-0.4-3-2-3-3.9s1.3-3.4,3-3.9V5H2v3.1c1.7,0.4,3,2,3,3.9c0,1.9-1.3,3.4-3,3.9V19z M18,17H6V7h12V17z M8,15h8V9H8V15z"/>
	</g>
</g>
</svg>
