<?xml version="1.0" encoding="utf-8"?>
<!-- Generator: Adobe Illustrator 23.0.3, SVG Export Plug-In . SVG Version: 6.00 Build 0)  -->
<svg version="1.1" id="XMLID_191_" xmlns="http://www.w3.org/2000/svg" xmlns:xlink="http://www.w3.org/1999/xlink" x="0px" y="0px"
	 viewBox="0 0 24 24" enable-background="new 0 0 24 24" xml:space="preserve">
<g id="tools">
	<g>
		<path d="M3.9,22L0,18.1l9.8-9.7L9.7,8.3C7.9,6.5,5,5.9,5,5.8L3.5,5.4l1.2-1.2c1.5-1.5,3.2-2.3,5-2.3c3,0,5.2,2.3,5.3,2.4l3.5,3.5
			l2-0.4L24,11l-7.2,7.1l-3.6-3.6l0.6-1.9l-0.3-0.3L3.9,22z M2.5,18.2l1.3,1.3l8.5-8.5L11,9.7L2.5,18.2z M15.3,14l1.6,1.6l4.6-4.6
			l-1.6-1.6l-2,0.6l-4.3-4.2c0,0-1.8-1.9-4-1.9c-0.8,0-1.7,0.3-2.5,0.8C8.3,5.1,9.8,5.9,11,7.1l0,0l4.9,5L15.3,14z"/>
	</g>
</g>
</svg>
