<?xml version="1.0" encoding="utf-8"?>
<!-- Generator: Adobe Illustrator 25.0.1, SVG Export Plug-In . SVG Version: 6.00 Build 0)  -->
<svg version="1.1" id="Icon" xmlns="http://www.w3.org/2000/svg" xmlns:xlink="http://www.w3.org/1999/xlink" x="0px" y="0px"
	 viewBox="0 0 24 24" enable-background="new 0 0 24 24" xml:space="preserve">
<path d="M6.581,14.414H3.292l-0.574,1.859H0.155l3.65-9.953h2.256l3.678,9.953H7.162L6.581,14.414z M3.867,12.561h2.14L4.933,9.109
	L3.867,12.561z M16.685,18.528c-1.925,1.507-4.547,2.05-7.031,1.21l0,0l0.801-2.368l-2.758,1.364h0L5.75,19.696l0.043,0.075
	c0,0,0,0,0,0L8.212,24l0.801-2.368c3.005,1.017,6.167,0.43,8.57-1.287l-0.256-0.517L16.685,18.528z M7.771,5.472
	c1.925-1.507,4.547-2.05,7.031-1.21l0,0L14,6.631l2.758-1.364l0,0l1.948-0.963l-0.043-0.075c0,0,0,0,0,0L16.244,0l-0.801,2.368
	c-3.005-1.017-6.167-0.43-8.57,1.287l0.256,0.517L7.771,5.472z M24,10V8h-3.988V6h-2v2H14v2h7.016
	c-0.289,1.337-1.128,2.577-2.136,3.543c-1.218-1.2-1.275-2.305-1.275-2.489h-2c0,0.45,0.121,2.07,1.678,3.717
	c-0.799,0.482-1.573,0.764-2.152,0.764v2c1.106,0,2.477-0.539,3.771-1.44c0.775,0.502,1.722,0.977,2.903,1.385l0.653-1.89
	c-0.769-0.266-1.405-0.559-1.95-0.863c1.271-1.3,2.268-2.947,2.542-4.728H24z"/>
</svg>
