<?xml version="1.0" encoding="utf-8"?>
<!-- Generator: Adobe Illustrator 23.0.3, SVG Export Plug-In . SVG Version: 6.00 Build 0)  -->
<svg version="1.1" id="XMLID_203_" xmlns="http://www.w3.org/2000/svg" xmlns:xlink="http://www.w3.org/1999/xlink" x="0px" y="0px"
	 viewBox="0 0 24 24" style="enable-background:new 0 0 24 24;" xml:space="preserve">
<g id="user-female">
	<g>
		<path d="M21,24h-2v-5c0-2.2-1.7-4-3.9-4l0,0H15v-2c1.7,0,2.8-0.6,3.5-1.1C17.4,11,16,9,16,6c0-2.2-1.8-4-4-4S8,3.8,8,6
			c0,3.2-1.6,5.3-2.7,6.1C5.7,12.5,6.5,13,8,13h1v2c-2.2,0-4,1.8-4,4v5H3v-5c0-1.8,0.8-3.5,2.1-4.6c-1.7-0.8-2.1-2.1-2.2-2.2
			l-0.3-0.8l0.7-0.4C3.4,11,6,9.4,6,6c0-3.3,2.5-5.9,5.8-6l0,0H12h-0.1C15.1,0.1,18,2.7,18,6c0,3.4,2.3,5,2.4,5l1,0.6l-0.5,1
			c0,0.1-0.8,1-2.2,1.6C20.1,15.3,21,17,21,19V24z M17,24h-2v-4h2C17,20,17,24,17,24z M9,24H7v-4h2V24z"/>
	</g>
</g>
</svg>
