<?xml version="1.0" encoding="utf-8"?>
<!-- Generator: Adobe Illustrator 23.0.3, SVG Export Plug-In . SVG Version: 6.00 Build 0)  -->
<svg version="1.1" xmlns="http://www.w3.org/2000/svg" xmlns:xlink="http://www.w3.org/1999/xlink" x="0px" y="0px"
	 viewBox="0 0 24 24" enable-background="new 0 0 24 24" xml:space="preserve">
<g id="user-setting">
	<path d="M19,24h-2v-2.1c-0.4-0.1-0.7-0.2-1-0.4l-1.5,1.5l-1.4-1.4l1.5-1.5c-0.2-0.3-0.3-0.7-0.4-1H12v-2h2.1c0.1-0.4,0.2-0.7,0.4-1
		l-1.5-1.5l1.4-1.4l1.5,1.5c0.3-0.2,0.7-0.3,1-0.4V12h2v2.1c0.4,0.1,0.7,0.2,1,0.4l1.5-1.5l1.4,1.4L21.4,16c0.2,0.3,0.3,0.7,0.4,1
		H24v2h-2.1c-0.1,0.4-0.2,0.7-0.4,1l1.5,1.5l-1.4,1.4L20,21.4c-0.3,0.2-0.7,0.3-1,0.4V24z M18,16c-1.1,0-2,0.9-2,2s0.9,2,2,2
		s2-0.9,2-2S19.1,16,18,16z"/>
	<path d="M2,19c0-3.9,3.1-7,7-7c1.8,0,2.3,0.2,3.6,0.8l1-1.6c-0.3-0.2-0.7-0.3-0.9-0.5C14.1,9.6,15,7.9,15,6c0-3.3-2.7-6-6-6
		S3,2.7,3,6c0,1.9,0.9,3.7,2.4,4.8C2.2,12.2,0,15.3,0,19v5h11v-2H2V19z M5,6c0-2.2,1.8-4,4-4s4,1.8,4,4s-1.8,4-4,4S5,8.2,5,6z"/>
</g>
</svg>
