<?xml version="1.0" encoding="utf-8"?>
<!-- Generator: Adobe Illustrator 23.0.3, SVG Export Plug-In . SVG Version: 6.00 Build 0)  -->
<svg version="1.1" id="XMLID_181_" xmlns="http://www.w3.org/2000/svg" xmlns:xlink="http://www.w3.org/1999/xlink" x="0px" y="0px"
	 viewBox="0 0 24 24" style="enable-background:new 0 0 24 24;" xml:space="preserve">
<g id="user-worker">
	<g>
		<path d="M21,24H3v-3c0-3,1.4-5.7,3.8-7.3C5.8,12.5,5.1,10.9,5,9H3V7h1.1C4.6,3.1,8,0,12,0s7.4,3.1,7.9,7H21v2h-2
			c-0.1,1.8-0.7,3.4-1.8,4.6c0.4,0.3,0.8,0.6,1.2,1c1.7,1.7,2.6,4,2.6,6.4V24z M5,22h14v-1c0-1.9-0.7-3.6-2-5
			c-0.4-0.4-0.9-0.8-1.3-1c-1,0.6-2.3,1-3.6,1s-2.6-0.4-3.6-1C6.4,16.3,5,18.5,5,21V22L5,22z M7,9c0.2,2.9,2.2,5,5,5s4.8-2.1,5-5H7z
			 M6.1,7h11.8c-0.3-1.8-1.4-3.3-2.9-4.2V4h-2V2.1c-0.7-0.1-1.3-0.1-2,0V4H9V2.8C7.5,3.7,6.4,5.2,6.1,7z"/>
	</g>
</g>
</svg>
