<?xml version="1.0" encoding="utf-8"?>
<!-- Generator: Adobe Illustrator 23.0.3, SVG Export Plug-In . SVG Version: 6.00 Build 0)  -->
<svg version="1.1" id="XMLID_202_" xmlns="http://www.w3.org/2000/svg" xmlns:xlink="http://www.w3.org/1999/xlink" x="0px" y="0px"
	 viewBox="0 0 24 24" enable-background="new 0 0 24 24" xml:space="preserve">
<g id="user-add">
	<g>
		<path d="M18,23h-2v-4c0-3.9-3.1-7-7-7s-7,3.1-7,7v4H0v-4c0-3.7,2.2-6.8,5.4-8.2C4,9.7,3,8,3,6c0-3.3,2.7-6,6-6s6,2.7,6,6
			c0,1.9-0.9,3.7-2.4,4.8c3.2,1.4,5.4,4.6,5.4,8.2V23z M9,2C6.8,2,5,3.8,5,6s1.8,4,4,4s4-1.8,4-4S11.2,2,9,2z M14,23h-2v-4h2V23z
			 M6,23H4v-4h2V23z M21,14h-2v-3h-3V9h3V6h2v3h3v2h-3V14z"/>
	</g>
</g>
</svg>
