<?xml version="1.0" encoding="utf-8"?>
<!-- Generator: Adobe Illustrator 23.0.3, SVG Export Plug-In . SVG Version: 6.00 Build 0)  -->
<svg version="1.1" id="XMLID_277_" xmlns="http://www.w3.org/2000/svg" xmlns:xlink="http://www.w3.org/1999/xlink" x="0px" y="0px"
	 viewBox="0 0 24 24" enable-background="new 0 0 24 24" xml:space="preserve">
<g id="user">
	<g>
		<path d="M22,24h-2v-5c0-3.9-3.1-7-7-7h-2c-3.9,0-7,3.1-7,7v5H2v-5c0-3.9,2.5-7.3,6-8.5C6.8,9.4,6,7.8,6,6c0-3.3,2.7-6,6-6
			s6,2.7,6,6c0,1.8-0.8,3.4-2,4.5c3.5,1.2,6,4.6,6,8.5V24z M12,10c2.2,0,4-1.8,4-4s-1.8-4-4-4S8,3.8,8,6S9.8,10,12,10z M17,24h-2v-5
			h2V24z M9,24H7v-5h2V24z"/>
	</g>
</g>
</svg>
