<?xml version="1.0" encoding="utf-8"?>
<!-- Generator: Adobe Illustrator 23.0.3, SVG Export Plug-In . SVG Version: 6.00 Build 0)  -->
<svg version="1.1" id="XMLID_179_" xmlns="http://www.w3.org/2000/svg" xmlns:xlink="http://www.w3.org/1999/xlink" x="0px" y="0px"
	 viewBox="0 0 24 24" style="enable-background:new 0 0 24 24;" xml:space="preserve">
<g id="user-police">
	<g>
		<path d="M21,24H3v-2c0-3,1.4-5.7,3.8-7.3C5.7,13.4,5,11.6,5,9.6V9h2v0.6c0,3.1,2.1,5.4,5,5.4s5-2.3,5-5.4V9h2v0.6
			c0,2-0.7,3.8-1.8,5.1c0.4,0.3,0.8,0.6,1.2,1c1.7,1.5,2.6,3.9,2.6,6.3V24z M5,22h14c0-1.9-0.7-3.6-2-5c-0.4-0.4-0.9-0.8-1.3-1
			c-1,0.6-2.3,1-3.6,1s-2.6-0.4-3.6-1C6.3,17.2,5,19.5,5,22z M19,9L5,9L1.8,5.4l0.4-0.7C4.2,1.8,8,0,12,0s7.8,1.7,9.8,4.7l0.4,0.7
			L19,9z M5.9,7h12.3l1.6-1.7C18,3.2,15.1,2,12,2S6,3.2,4.3,5.3L5.9,7z"/>
	</g>
	<g>
		<path d="M12,3h-2c0,0-0.1,3,2,3c2,0,2-3,2-3H12z"/>
	</g>
</g>
</svg>
