<?xml version="1.0" encoding="utf-8"?>
<!-- Generator: Adobe Illustrator 23.0.3, SVG Export Plug-In . SVG Version: 6.00 Build 0)  -->
<svg version="1.1" id="XMLID_180_" xmlns="http://www.w3.org/2000/svg" xmlns:xlink="http://www.w3.org/1999/xlink" x="0px" y="0px"
	 viewBox="0 0 24 24" enable-background="new 0 0 24 24" xml:space="preserve">
<g id="user-manager">
	<g>
		<path d="M21,24H3v-5c0-3,1.4-5.7,3.8-7.3C5.7,10.5,5,8.8,5,7c0-3.9,3.1-7,7-7s7,3.1,7,7c0,1.8-0.7,3.4-1.8,4.7
			c0.4,0.3,0.8,0.6,1.1,1c1.8,1.6,2.7,3.9,2.7,6.3V24z M13,22h6v-3c0-1.7-0.6-3.4-1.8-4.7l-4.2,5V22z M5,22h6v-2.6l-4.2-5
			C5.7,15.7,5,17.3,5,19.1V22z M8.4,13l3.7,4.4l3.7-4.4c0,0,0,0-0.1,0c-1.1,0.6-2.3,1-3.6,1C10.7,14,9.5,13.6,8.4,13L8.4,13z M7.4,9
			c0.8,1.8,2.5,3,4.6,3s3.9-1.3,4.6-3.1c-1.4-0.3-2.7-1-3.6-2C11.7,8.2,9.9,9,8,9C7.8,9,7.6,9,7.4,9z M7,6.9C7.3,7,7.7,7,8,7
			c1.7,0,3.2-0.8,4.2-2.2L13,3.5l0.8,1.3c0.7,1.1,1.9,1.9,3.2,2.1C17,4.2,14.7,2,12,2S7.1,4.2,7,6.9z"/>
	</g>
</g>
</svg>
