<?xml version="1.0" encoding="utf-8"?>
<!-- Generator: Adobe Illustrator 23.0.3, SVG Export Plug-In . SVG Version: 6.00 Build 0)  -->
<svg version="1.1" id="XMLID_142_" xmlns="http://www.w3.org/2000/svg" xmlns:xlink="http://www.w3.org/1999/xlink" x="0px" y="0px"
	 viewBox="0 0 24 24" style="enable-background:new 0 0 24 24;" xml:space="preserve">
<g id="virtual-machine">
	<g>
		<path d="M15,24H0V9h5V0h15v5h4v15h-9V24z M2,22h11v-2H9v-5H5v-4H2V22z M15,18h7V7h-2v8h-5V18z M11,18h2v-3h-2V18z M15,13h3V7h-7v2
			h4V13z M11,13h2v-2h-2V13z M7,13h2v-2H7V13z M7,9h2V5h9V2H7V9z"/>
	</g>
</g>
</svg>
