<?xml version="1.0" encoding="utf-8"?>
<!-- Generator: Adobe Illustrator 23.0.3, SVG Export Plug-In . SVG Version: 6.00 Build 0)  -->
<svg version="1.1" xmlns="http://www.w3.org/2000/svg" xmlns:xlink="http://www.w3.org/1999/xlink" x="0px" y="0px"
	 viewBox="0 0 24 24" style="enable-background:new 0 0 24 24;" xml:space="preserve">
<g id="vm-maintenance">
	<path d="M23.7,13.7l-2,2l-1.4-1.4l2-2c-1.1-0.6-2.5-0.4-3.5,0.6c-0.9,0.9-1.1,2.3-0.6,3.5L13,21.6l1.4,1.4l5.2-5.2
		c1.1,0.5,2.5,0.4,3.5-0.6C24,16.3,24.2,14.9,23.7,13.7z"/>
	<path d="M12,20H0V8h4V1h12v4h3v5h-2V7h-1v6h-4v2h2v2h-2V20z M2,18h8v-1H7v-4H4v-3H2V18z M9,15h1v-2H9V15z M12,11h2V7H9v1h3V11z
		 M9,11h1v-1H9V11z M6,11h1v-1H6V11z M6,8h1V5h7V3H6V8z"/>
</g>
</svg>
