<?xml version="1.0" encoding="utf-8"?>
<!-- Generator: Adobe Illustrator 23.0.3, SVG Export Plug-In . SVG Version: 6.00 Build 0)  -->
<svg version="1.1" id="XMLID_200_" xmlns="http://www.w3.org/2000/svg" xmlns:xlink="http://www.w3.org/1999/xlink" x="0px" y="0px"
	 viewBox="0 0 24 24" enable-background="new 0 0 24 24" xml:space="preserve">
<g id="zoom-in">
	<path d="M9,5h2v10H9V5z M5,9h10v2H5V9z"/>
	<path d="M10,20C4.5,20,0,15.5,0,10S4.6,0,10,0s10,4.5,10,10S15.5,20,10,20z M10,2c-4.5,0-8,3.5-8,8s3.5,8,8,8s8-3.5,8-8
		S14.5,2,10,2z"/>
	<polygon points="17.3,15.9 24,22.6 22.6,24 15.8,17.3 	"/>
</g>
</svg>
