<?xml version="1.0" encoding="utf-8"?>
<!-- Generator: Adobe Illustrator 18.0.0, SVG Export Plug-In . SVG Version: 6.00 Build 0)  -->
<!DOCTYPE svg PUBLIC "-//W3C//DTD SVG 1.1//EN" "http://www.w3.org/Graphics/SVG/1.1/DTD/svg11.dtd">
<svg version="1.1" id="Layer_1" xmlns="http://www.w3.org/2000/svg" xmlns:xlink="http://www.w3.org/1999/xlink" x="0px" y="0px"
	 viewBox="0 0 119.7 51" enable-background="new 0 0 119.7 51" xml:space="preserve">
<g>
	<path id="element_4_" fill="#03B388" d="M0,0v11.8h0h41V0H0z M38.4,9.2H2.6V2.6h35.8V9.2z"/>
	<path fill="#FFFFFF" d="M2.6,31.2H0V19.4h2.6v4.6h4.6v-4.6h2.6v11.8H7.1v-4.9H2.6V31.2z M15.5,31.4c-2.6,0-4.4-1.6-4.4-4.3
		c0-2.6,1.7-4.4,4-4.4c2.5,0,3.7,1.7,3.7,4.2v0.9h-5.3c0.3,1.3,1.3,1.6,2.3,1.6c0.9,0,1.5-0.2,2.3-0.7h0.1v1.9
		C17.6,31.2,16.7,31.4,15.5,31.4z M13.6,26.1h3c-0.1-0.9-0.4-1.5-1.4-1.5C14.5,24.6,13.8,24.9,13.6,26.1z M25.6,26.3l-1.3,4.9H22
		l-2.6-8.3v-0.1h2.4l1.4,5l1.3-5h2l1.3,5l1.4-5h2.4v0.1l-2.6,8.3h-2.2L25.6,26.3z M35.9,31.4c-2,0-2.9-0.8-2.9-2.7v-9.2h2.5v9.1
		c0,0.6,0.2,0.8,0.7,0.8c0.2,0,0.4-0.1,0.6-0.1h0v2.1C36.6,31.3,36.3,31.4,35.9,31.4z M41.9,31.4c-2.6,0-4.4-1.6-4.4-4.3
		c0-2.6,1.7-4.4,4-4.4c2.5,0,3.7,1.7,3.7,4.2v0.9H40c0.3,1.3,1.3,1.6,2.3,1.6c0.9,0,1.5-0.2,2.3-0.7h0.1v1.9
		C44,31.2,43.1,31.4,41.9,31.4z M40,26.1h3c-0.1-0.9-0.4-1.5-1.4-1.5C40.8,24.6,40.2,24.9,40,26.1z M55.5,22.8h1.8v2h-1.8v3.4
		c0,0.7,0.3,1.1,1,1.1c0.2,0,0.5,0,0.8-0.1h0.1v2c-0.3,0.1-0.8,0.2-1.5,0.2c-2,0-2.8-0.9-2.8-3v-3.5h-3.2v3.4c0,0.7,0.3,1.1,1,1.1
		c0.2,0,0.5,0,0.8-0.1h0.1v2c-0.3,0.1-0.8,0.2-1.5,0.2c-2,0-2.8-0.9-2.8-3v-3.5h-1.3v-2h1.3v-2.3h2.5v2.3H53v-2.3h2.5V22.8z
		 M70.2,23.4c0,2.6-1.7,4-4.3,4h-1.8v3.8h-2.6V19.4h4.4C68.5,19.4,70.2,20.8,70.2,23.4z M65.7,25.2c1.3,0,1.9-0.7,1.9-1.8
		c0-1.1-0.6-1.8-1.9-1.8h-1.6v3.6H65.7z M75.8,30.4c-0.5,0.7-1.4,1-2.2,1c-1.6,0-3-1-3-2.8c0-1.6,1.3-2.7,3.3-2.7
		c0.6,0,1.2,0.1,1.9,0.3V26c0-0.9-0.5-1.3-1.8-1.3c-0.8,0-1.7,0.2-2.4,0.6h-0.1v-2c0.6-0.4,1.8-0.7,2.9-0.7c2.5,0,3.9,1.2,3.9,3.3
		v5.3h-2.4V30.4z M75.7,28.6v-0.7c-0.4-0.2-0.9-0.3-1.4-0.3c-0.8,0-1.3,0.3-1.3,1c0,0.7,0.5,1,1.2,1C75,29.6,75.5,29.2,75.7,28.6z
		 M79.5,27c0-2.7,1.9-4.4,4.4-4.4c0.9,0,1.7,0.2,2.3,0.6v2.1h-0.1c-0.5-0.4-1.2-0.7-1.9-0.7c-1.2,0-2.2,0.8-2.2,2.3
		c0,1.4,0.9,2.3,2.2,2.3c0.7,0,1.4-0.2,1.9-0.7h0.1v2.1c-0.6,0.5-1.4,0.6-2.3,0.6C81.4,31.4,79.5,29.7,79.5,27z M90.2,27.4v3.8h-2.5
		V19.4h2.5v6.7l2.5-3.3h2.8v0.1l-3,3.8l3,4.4v0.1h-2.8L90.2,27.4z M101.2,30.4c-0.5,0.7-1.4,1-2.2,1c-1.6,0-3-1-3-2.8
		c0-1.6,1.3-2.7,3.3-2.7c0.6,0,1.2,0.1,1.9,0.3V26c0-0.9-0.5-1.3-1.8-1.3c-0.8,0-1.7,0.2-2.4,0.6h-0.1v-2c0.6-0.4,1.8-0.7,2.9-0.7
		c2.5,0,3.9,1.2,3.9,3.3v5.3h-2.4V30.4z M101.1,28.6v-0.7c-0.4-0.2-0.9-0.3-1.4-0.3c-0.8,0-1.3,0.3-1.3,1c0,0.7,0.5,1,1.2,1
		C100.4,29.6,100.9,29.2,101.1,28.6z M107.8,24.2c0.5-0.9,1.1-1.4,2-1.4c0.3,0,0.7,0.1,0.8,0.2v2.4h-0.1c-0.3-0.1-0.6-0.2-1.1-0.2
		c-0.8,0-1.4,0.5-1.6,1.3v4.8h-2.5v-8.4h2.4V24.2z M117.3,30.3c-0.5,0.7-1.4,1.1-2.5,1.1c-2.1,0-3.5-2-3.5-4.4
		c0-2.4,1.4-4.4,3.5-4.4c1.1,0,1.9,0.3,2.4,1v-4.2h2.5v11.8h-2.4V30.3z M117.2,28.4v-2.7c-0.4-0.6-1-0.9-1.6-0.9
		c-1.1,0-1.8,0.8-1.8,2.2c0,1.4,0.7,2.2,1.8,2.2C116.3,29.2,116.8,29,117.2,28.4z M0,35.1h7.3v1.4H1.6v3.6h5.1v1.4H1.6v3.9h5.6v1.4
		H0V35.1z M13.3,38.4c1.9,0,2.9,1.2,2.9,3.2v5.2h-1.6v-5.2c0-1.1-0.5-1.8-1.7-1.8c-1,0-1.8,0.6-2.1,1.5v5.5H9.2v-8.3h1.6v1.2
		C11.3,39,12.1,38.4,13.3,38.4z M20.4,38.5h2.1v1.3h-2.1v4.5c0,0.9,0.5,1.3,1.4,1.3c0.2,0,0.5,0,0.7-0.1h0.1v1.3
		c-0.2,0.1-0.5,0.2-1,0.2c-1.9,0-2.7-0.9-2.7-2.5v-4.6h-1.4v-1.3h1.4v-2.2h1.6V38.5z M27.6,47c-2.4,0-4.1-1.6-4.1-4.2
		c0-2.6,1.5-4.4,3.8-4.4c2.3,0,3.5,1.6,3.5,4.1v0.7h-5.7c0.2,1.7,1.2,2.5,2.7,2.5c0.9,0,1.6-0.2,2.3-0.8h0.1v1.4
		C29.5,46.8,28.6,47,27.6,47z M25.1,41.9h4.1c-0.1-1.2-0.7-2.2-1.9-2.2C26.1,39.7,25.3,40.6,25.1,41.9z M34.1,39.8
		c0.4-0.9,1.1-1.4,2.1-1.4c0.4,0,0.7,0.1,0.8,0.1v1.5H37c-0.2-0.1-0.6-0.2-1-0.2c-0.8,0-1.6,0.6-1.8,1.5v5.4h-1.6v-8.3h1.6V39.8z
		 M42.3,38.4c2.5,0,3.8,2,3.8,4.3c0,2.3-1.3,4.3-3.8,4.3c-1,0-1.9-0.5-2.3-1.1V50h-1.6V38.5H40v0.9C40.4,38.9,41.3,38.4,42.3,38.4z
		 M42.1,45.6c1.5,0,2.4-1.2,2.4-2.9c0-1.7-0.9-2.9-2.4-2.9c-0.8,0-1.6,0.5-2.1,1.3v3.2C40.4,45.1,41.2,45.6,42.1,45.6z M49.5,39.8
		c0.4-0.9,1.1-1.4,2.1-1.4c0.4,0,0.7,0.1,0.8,0.1v1.5h-0.1c-0.2-0.1-0.6-0.2-1-0.2c-0.8,0-1.6,0.6-1.8,1.5v5.4h-1.6v-8.3h1.6V39.8z
		 M54.6,35.2c0.5,0,1,0.4,1,1c0,0.5-0.5,1-1,1c-0.5,0-1-0.4-1-1C53.6,35.6,54.1,35.2,54.6,35.2z M53.9,38.5h1.6v8.3h-1.6V38.5z
		 M61,42c1.2,0.4,2.5,0.9,2.5,2.4c0,1.7-1.4,2.6-3.2,2.6c-1.1,0-2.2-0.3-2.8-0.8v-1.5h0.1c0.7,0.6,1.7,0.9,2.7,0.9
		c0.9,0,1.7-0.3,1.7-1.1c0-0.7-0.7-0.9-2-1.3c-1.2-0.4-2.5-0.8-2.5-2.4c0-1.6,1.3-2.5,3-2.5c1,0,1.8,0.2,2.5,0.7v1.5H63
		c-0.7-0.5-1.5-0.9-2.4-0.9c-1,0-1.5,0.4-1.5,1C59.1,41.4,59.7,41.5,61,42z M68.9,47c-2.4,0-4.1-1.6-4.1-4.2c0-2.6,1.5-4.4,3.8-4.4
		c2.3,0,3.5,1.6,3.5,4.1v0.7h-5.7c0.2,1.7,1.2,2.5,2.7,2.5c0.9,0,1.6-0.2,2.3-0.8h0.1v1.4C70.8,46.8,70,47,68.9,47z M66.5,41.9h4.1
		c-0.1-1.2-0.7-2.2-1.9-2.2C67.5,39.7,66.7,40.6,66.5,41.9z"/>
</g>
</svg>
